<?xml version="1.0" encoding="UTF-8" standalone="no"?><svg xmlns="http://www.w3.org/2000/svg" xmlns:xlink="http://www.w3.org/1999/xlink" clip-rule="evenodd" stroke-miterlimit="10" viewBox="0 0 297 42"><desc>SVG generated by Keynote</desc><defs></defs><g transform="matrix(1.00, 0.00, -0.00, -1.00, 0.0, 42.0)"><path d="M 5.7 37.6 C 5.4 37.7 5.3 37.2 4.7 37.1 C 4.2 36.9 3.5 36.9 3.6 37.2 C 3.7 37.5 3.9 37.7 3.6 38.1 C 3.3 38.5 3.0 39.2 3.4 39.5 C 3.8 39.8 5.4 40.5 5.8 40.1 C 6.3 39.7 6.5 39.6 6.9 39.3 C 7.2 39.1 7.0 39.9 7.0 39.9 C 7.0 39.9 7.8 40.0 8.5 40.1 C 9.1 40.1 9.8 40.1 9.9 40.0 C 9.9 39.9 10.2 39.6 10.2 39.6 C 10.2 39.6 10.5 39.9 11.0 40.0 C 11.4 40.1 11.3 39.9 11.2 39.7 C 11.1 39.5 10.5 39.0 10.7 39.0 C 10.9 39.0 11.5 39.8 11.9 39.9 C 12.2 39.9 12.9 39.9 12.9 39.9 C 12.9 39.9 12.8 39.5 12.9 39.3 C 13.0 39.2 13.7 39.2 13.7 39.3 C 13.8 39.5 13.7 40.0 14.1 40.0 C 15.2 40.1 15.0 39.2 15.1 39.2 C 15.2 39.2 15.3 39.8 15.5 39.9 C 15.8 40.1 18.0 40.0 18.1 39.8 C 18.2 39.6 19.0 40.2 19.3 39.8 C 19.6 39.4 19.7 39.3 19.8 39.2 C 19.8 39.1 20.2 38.4 20.4 38.6 C 20.6 38.9 19.8 39.7 20.1 39.9 C 20.4 40.1 21.8 40.1 22.0 39.9 C 22.3 39.6 22.4 39.0 22.6 39.0 C 22.7 39.0 23.6 39.8 23.7 39.7 C 23.7 39.6 23.8 38.8 23.7 38.7 C 23.7 38.6 23.9 37.3 23.7 37.2 C 23.6 37.0 22.7 36.5 22.8 36.9 C 23.0 37.2 23.2 37.7 22.9 37.8 C 22.6 38.0 22.5 38.0 22.4 37.9 C 22.3 37.8 22.5 37.6 22.0 37.4 C 21.5 37.1 21.7 36.8 21.2 36.9 C 20.8 36.9 20.4 37.0 20.4 37.3 C 20.5 37.5 20.0 37.9 19.7 37.9 C 19.4 37.9 19.9 37.3 18.8 37.0 C 17.8 36.8 17.2 36.7 16.9 37.0 C 16.6 37.2 16.6 37.9 16.1 37.6 C 15.6 37.3 15.8 37.1 15.2 37.1 C 14.5 37.1 14.3 37.7 13.8 37.7 C 13.4 37.8 13.3 37.7 13.3 37.7 C 13.3 37.7 13.5 36.9 12.5 36.9 C 11.6 36.8 11.4 36.7 11.6 37.3 C 11.8 37.9 11.1 38.0 11.1 37.6 C 11.0 37.2 10.5 36.9 10.1 36.9 C 9.8 36.8 9.7 37.8 9.6 37.9 C 9.5 37.9 9.1 37.8 9.2 37.5 C 9.4 37.2 9.0 37.1 8.7 37.0 C 8.4 36.9 7.5 37.0 7.5 37.1 C 7.6 37.3 8.0 38.0 7.4 37.7 C 6.8 37.3 6.6 36.8 6.1 36.8 C 5.5 36.9 6.0 37.5 5.7 37.6 C 5.7 37.6 5.7 37.6 5.7 37.6 Z M 24.1 36.8 C 23.1 36.9 23.9 39.5 24.3 40.1 C 24.8 40.6 25.4 40.2 26.1 40.3 C 26.8 40.4 26.5 39.6 26.9 39.4 C 27.3 39.1 27.2 39.7 27.4 40.1 C 27.6 40.4 28.6 40.1 29.2 40.1 C 29.9 40.2 30.4 39.3 30.9 39.2 C 31.4 39.2 30.5 38.8 31.4 38.8 C 32.3 38.9 31.9 39.4 30.9 39.6 C 29.8 39.9 31.3 40.1 31.9 40.2 C 32.5 40.3 33.4 40.0 33.9 40.0 C 34.3 40.1 33.7 39.4 34.3 39.4 C 35.0 39.4 34.7 40.1 35.4 40.2 C 36.1 40.3 35.9 39.7 36.3 39.5 C 36.6 39.4 36.5 39.8 36.8 39.8 C 37.1 39.9 37.6 40.1 38.2 39.9 C 38.8 39.8 38.6 39.6 38.9 39.5 C 39.2 39.5 39.7 39.5 39.7 39.5 C 39.7 39.7 39.8 39.9 39.9 40.1 C 39.9 40.1 41.0 40.2 41.4 40.2 C 41.7 40.3 42.4 40.0 42.2 39.9 C 42.0 39.7 42.7 39.3 42.9 39.4 C 43.1 39.5 43.7 39.8 44.1 40.0 C 44.5 40.1 44.2 38.4 44.1 38.1 C 44.1 37.9 44.2 37.0 43.8 36.9 C 43.5 36.8 43.3 37.1 43.3 36.9 C 43.3 36.6 42.3 36.9 42.1 36.9 C 41.8 36.9 41.5 37.5 41.5 37.5 C 41.5 37.5 41.3 38.0 40.9 38.0 C 40.4 38.0 40.1 37.0 40.1 37.0 C 40.1 37.0 39.5 36.8 39.0 36.8 C 38.4 36.9 37.9 37.8 37.8 37.9 C 37.7 38.1 37.6 37.3 37.2 37.2 C 36.8 37.1 36.2 36.9 36.1 36.9 C 35.9 37.0 35.7 37.5 35.7 37.5 C 35.7 37.5 35.0 37.8 34.8 37.8 C 34.6 37.8 34.9 37.0 34.9 37.0 C 34.9 37.0 33.3 36.8 33.0 36.8 C 32.7 36.7 32.2 36.9 32.0 37.0 C 31.7 37.0 31.5 38.0 31.2 37.9 C 30.8 37.8 31.4 37.3 31.1 37.2 C 30.7 37.1 30.1 36.9 29.9 36.9 C 29.8 36.9 29.6 37.2 29.3 37.3 C 29.0 37.3 28.7 38.0 28.2 38.0 C 27.8 38.0 27.5 37.6 27.4 37.5 C 27.2 37.4 27.0 36.8 26.7 36.7 C 26.3 36.7 26.6 37.2 26.3 37.2 C 25.9 37.2 26.0 37.6 25.6 37.6 C 25.3 37.5 25.4 36.7 25.1 36.8 C 24.9 36.8 25.1 36.8 24.1 36.8 C 24.1 36.8 24.1 36.8 24.1 36.8 Z M 44.7 37.0 C 44.2 36.6 43.8 37.1 43.9 37.4 C 44.0 37.8 44.3 38.8 44.2 39.0 C 44.1 39.3 43.6 40.0 44.5 40.2 C 45.3 40.3 45.5 40.0 45.4 39.8 C 45.4 39.6 45.4 38.5 45.7 38.6 C 45.9 38.7 46.2 39.0 46.3 39.1 C 46.3 39.3 46.8 40.3 47.2 40.1 C 47.6 40.0 48.0 39.7 48.0 39.7 C 48.2 39.7 48.4 39.7 48.6 39.6 C 48.6 39.6 49.2 40.2 49.7 40.1 C 50.1 40.0 50.6 40.0 51.0 40.0 C 51.3 40.1 51.7 40.0 51.7 39.7 C 51.7 39.5 52.0 38.7 52.0 38.7 C 52.0 38.7 52.5 38.4 52.8 38.6 C 53.0 38.7 53.1 39.2 53.1 39.4 C 53.1 39.6 53.2 40.0 53.6 40.1 C 54.0 40.2 55.5 40.7 55.7 40.4 C 55.9 40.1 55.8 39.7 55.9 39.6 C 56.1 39.6 57.1 39.5 57.2 39.7 C 57.3 40.0 57.3 40.5 57.6 40.4 C 57.9 40.4 58.5 40.5 58.5 40.4 C 58.4 40.3 58.6 40.1 58.6 39.8 C 58.5 39.6 59.1 39.3 59.2 39.2 C 59.2 39.0 59.7 39.0 59.7 39.0 C 59.9 39.2 60.1 39.3 60.4 39.5 C 60.4 39.5 60.1 40.0 60.0 40.1 C 59.8 40.2 60.2 40.5 60.3 40.5 C 60.5 40.6 61.6 40.5 61.6 40.5 C 61.5 40.1 61.5 39.7 61.4 39.3 C 61.7 39.2 61.9 39.2 62.2 39.1 C 62.2 39.1 62.3 40.4 62.9 40.4 C 63.4 40.4 64.0 40.4 64.0 40.4 C 64.0 40.4 64.4 39.9 64.6 39.9 C 64.7 39.8 64.5 38.6 64.5 38.6 C 64.3 38.2 64.2 37.7 64.1 37.2 C 64.1 37.2 63.4 36.8 63.0 37.0 C 62.7 37.1 63.1 37.7 63.1 37.9 C 63.1 38.1 62.7 38.3 62.7 38.3 C 62.4 38.1 62.1 37.8 61.8 37.6 C 61.8 37.6 61.5 37.3 61.3 37.1 C 61.0 36.9 60.2 36.7 60.0 36.8 C 59.7 36.9 59.6 37.2 59.3 37.5 C 59.1 37.7 59.2 38.1 58.8 37.8 C 58.4 37.5 58.2 37.1 58.0 37.1 C 57.8 37.1 57.2 37.6 57.2 37.6 C 57.0 37.7 56.8 37.8 56.6 37.9 C 56.6 37.9 56.1 38.1 56.0 37.8 C 55.9 37.6 54.8 37.9 54.8 37.9 C 54.8 37.9 54.8 37.1 54.5 36.9 C 54.2 36.8 53.7 36.6 53.2 36.7 C 52.8 36.9 52.6 37.7 52.6 37.7 C 52.4 37.5 52.2 37.3 52.1 37.0 C 51.6 37.0 51.2 36.9 50.8 36.9 C 50.8 36.9 49.8 36.9 49.8 37.1 C 49.8 37.2 50.1 37.9 50.0 38.1 C 50.0 38.3 49.5 38.5 49.4 38.3 C 49.4 38.0 48.8 37.4 48.8 37.4 C 48.8 37.4 48.3 37.0 48.0 36.9 C 47.7 36.9 47.3 37.1 47.2 37.2 C 47.1 37.4 46.8 37.9 46.8 37.9 C 46.6 37.7 46.5 37.5 46.3 37.2 C 46.3 37.2 45.6 37.6 44.7 37.0 C 44.7 37.0 44.7 37.0 44.7 37.0 Z M 64.4 36.8 C 63.4 36.9 64.6 39.5 65.1 40.1 C 65.7 40.6 66.3 40.2 67.0 40.3 C 67.7 40.4 67.3 39.6 67.6 39.4 C 67.9 39.1 67.9 39.7 68.2 40.1 C 68.4 40.4 69.4 40.1 70.0 40.1 C 70.7 40.2 71.1 39.3 71.6 39.2 C 72.1 39.2 71.1 38.8 72.0 38.8 C 72.9 38.9 72.6 39.4 71.6 39.6 C 70.6 39.9 72.1 40.1 72.7 40.2 C 73.3 40.3 74.2 40.0 74.7 40.0 C 75.1 40.1 74.4 39.4 75.0 39.4 C 75.7 39.4 75.5 40.1 76.2 40.2 C 76.9 40.3 76.7 39.7 77.0 39.5 C 77.3 39.4 77.3 39.8 77.6 39.8 C 77.9 39.9 78.4 40.1 79.0 39.9 C 79.6 39.8 79.4 39.6 79.6 39.5 C 79.9 39.5 80.4 39.5 80.4 39.5 C 80.5 39.7 80.6 39.9 80.7 40.1 C 80.7 40.1 81.8 40.2 82.2 40.2 C 82.6 40.3 83.2 40.0 83.0 39.9 C 82.8 39.7 83.4 39.3 83.6 39.4 C 83.8 39.5 84.5 39.8 84.9 40.0 C 85.3 40.1 84.7 38.4 84.7 38.1 C 84.6 37.9 84.6 37.0 84.2 36.9 C 83.8 36.8 83.7 37.1 83.6 36.9 C 83.6 36.6 82.7 36.9 82.4 36.9 C 82.1 36.9 82.0 37.5 82.0 37.5 C 82.0 37.5 81.8 38.0 81.4 38.0 C 80.9 38.0 80.5 37.0 80.5 37.0 C 80.5 37.0 79.9 36.8 79.3 36.8 C 78.8 36.9 78.4 37.8 78.3 37.9 C 78.2 38.1 78.1 37.3 77.6 37.2 C 77.2 37.1 76.6 36.9 76.4 36.9 C 76.3 37.0 76.1 37.5 76.1 37.5 C 76.1 37.5 75.5 37.8 75.3 37.8 C 75.1 37.8 75.2 37.0 75.2 37.0 C 75.2 37.0 73.6 36.8 73.3 36.8 C 73.0 36.7 72.5 36.9 72.3 37.0 C 72.1 37.0 72.0 38.0 71.7 37.9 C 71.3 37.8 71.8 37.3 71.5 37.2 C 71.1 37.1 70.5 36.9 70.3 36.9 C 70.1 36.9 70.0 37.2 69.7 37.3 C 69.4 37.3 69.2 38.0 68.8 38.0 C 68.3 38.0 68.0 37.6 67.8 37.5 C 67.6 37.4 67.4 36.8 67.0 36.7 C 66.6 36.7 67.0 37.2 66.7 37.2 C 66.3 37.2 66.4 37.6 66.1 37.6 C 65.7 37.5 65.8 36.7 65.4 36.8 C 65.2 36.8 65.4 36.8 64.4 36.8 C 64.4 36.8 64.4 36.8 64.4 36.8 Z M 85.1 37.0 C 84.5 36.6 84.2 37.1 84.3 37.4 C 84.5 37.8 84.9 38.8 84.9 39.0 C 84.8 39.3 84.4 40.0 85.3 40.2 C 86.2 40.3 86.3 40.0 86.2 39.8 C 86.1 39.6 86.0 38.5 86.3 38.6 C 86.5 38.7 86.8 39.0 86.9 39.1 C 87.0 39.3 87.6 40.3 88.0 40.1 C 88.4 40.0 88.7 39.7 88.7 39.7 C 88.9 39.7 89.1 39.7 89.3 39.6 C 89.3 39.6 90.1 40.2 90.5 40.1 C 90.9 40.0 91.4 40.0 91.8 40.0 C 92.1 40.1 92.5 40.0 92.5 39.7 C 92.4 39.5 92.6 38.7 92.6 38.7 C 92.6 38.7 93.1 38.4 93.3 38.6 C 93.6 38.7 93.8 39.2 93.8 39.4 C 93.8 39.6 94.0 40.0 94.4 40.1 C 94.8 40.2 96.4 40.7 96.6 40.4 C 96.7 40.1 96.5 39.7 96.7 39.6 C 96.8 39.6 97.8 39.5 97.9 39.7 C 98.1 40.0 98.2 40.5 98.5 40.4 C 98.7 40.4 99.4 40.5 99.3 40.4 C 99.3 40.3 99.4 40.1 99.3 39.8 C 99.3 39.6 99.8 39.3 99.8 39.2 C 99.9 39.0 100.3 39.0 100.3 39.0 C 100.6 39.2 100.8 39.3 101.1 39.5 C 101.1 39.5 100.9 40.0 100.8 40.1 C 100.6 40.2 101.0 40.5 101.2 40.5 C 101.4 40.6 102.5 40.5 102.5 40.5 C 102.3 40.1 102.2 39.7 102.1 39.3 C 102.4 39.2 102.6 39.2 102.8 39.1 C 102.8 39.1 103.2 40.4 103.7 40.4 C 104.2 40.4 104.9 40.4 104.9 40.4 C 104.9 40.4 105.2 39.9 105.3 39.9 C 105.4 39.8 105.1 38.6 105.1 38.6 C 104.9 38.2 104.7 37.7 104.5 37.2 C 104.5 37.2 103.7 36.8 103.4 37.0 C 103.1 37.1 103.6 37.7 103.6 37.9 C 103.6 38.1 103.2 38.3 103.2 38.3 C 102.9 38.1 102.6 37.8 102.2 37.6 C 102.2 37.6 102.0 37.3 101.7 37.1 C 101.3 36.9 100.5 36.7 100.3 36.8 C 100.1 36.9 100.0 37.2 99.8 37.5 C 99.6 37.7 99.8 38.1 99.3 37.8 C 98.9 37.5 98.6 37.1 98.4 37.1 C 98.2 37.1 97.7 37.6 97.7 37.6 C 97.5 37.7 97.3 37.8 97.1 37.9 C 97.1 37.9 96.7 38.1 96.5 37.8 C 96.3 37.6 95.3 37.9 95.3 37.9 C 95.3 37.9 95.2 37.1 94.8 36.9 C 94.5 36.8 94.0 36.6 93.6 36.7 C 93.2 36.9 93.1 37.7 93.1 37.7 C 92.9 37.5 92.7 37.3 92.4 37.0 C 92.0 37.0 91.6 36.9 91.1 36.9 C 91.1 36.9 90.2 36.9 90.2 37.1 C 90.2 37.2 90.6 37.9 90.6 38.1 C 90.6 38.3 90.1 38.5 90.0 38.3 C 89.9 38.0 89.2 37.4 89.2 37.4 C 89.2 37.4 88.7 37.0 88.4 36.9 C 88.1 36.9 87.7 37.1 87.6 37.2 C 87.6 37.4 87.3 37.9 87.3 37.9 C 87.1 37.7 86.9 37.5 86.7 37.2 C 86.7 37.2 86.0 37.6 85.1 37.0 C 85.1 37.0 85.1 37.0 85.1 37.0 Z M 104.8 36.8 C 103.8 36.9 105.4 39.5 105.9 40.1 C 106.5 40.6 107.1 40.2 107.8 40.3 C 108.5 40.4 108.0 39.6 108.3 39.4 C 108.6 39.1 108.7 39.7 109.0 40.1 C 109.3 40.4 110.2 40.1 110.9 40.1 C 111.5 40.2 111.8 39.3 112.3 39.2 C 112.8 39.2 111.7 38.8 112.6 38.8 C 113.5 38.9 113.3 39.4 112.3 39.6 C 111.4 39.9 112.9 40.1 113.6 40.2 C 114.2 40.3 115.0 40.0 115.4 40.0 C 115.9 40.1 115.1 39.4 115.8 39.4 C 116.4 39.4 116.3 40.1 117.0 40.2 C 117.8 40.3 117.4 39.7 117.7 39.5 C 118.0 39.4 118.1 39.8 118.4 39.8 C 118.7 39.9 119.2 40.1 119.8 39.9 C 120.3 39.8 120.1 39.6 120.4 39.5 C 120.6 39.5 121.1 39.5 121.1 39.5 C 121.3 39.7 121.4 39.9 121.5 40.1 C 121.5 40.1 122.7 40.2 123.0 40.2 C 123.4 40.3 124.0 40.0 123.8 39.9 C 123.5 39.7 124.1 39.3 124.3 39.4 C 124.5 39.5 125.2 39.8 125.7 40.0 C 126.1 40.1 125.3 38.4 125.2 38.1 C 125.1 37.9 124.9 37.0 124.6 36.9 C 124.2 36.8 124.0 37.1 124.0 36.9 C 123.9 36.6 123.0 36.9 122.8 36.9 C 122.5 36.9 122.4 37.5 122.4 37.5 C 122.4 37.5 122.4 38.0 121.9 38.0 C 121.4 38.0 120.8 37.0 120.8 37.0 C 120.8 37.0 120.2 36.8 119.7 36.8 C 119.1 36.9 118.9 37.8 118.8 37.9 C 118.8 38.1 118.5 37.3 118.0 37.2 C 117.6 37.1 116.9 36.9 116.8 36.9 C 116.6 37.0 116.6 37.5 116.6 37.5 C 116.6 37.5 116.0 37.8 115.8 37.8 C 115.6 37.8 115.6 37.0 115.6 37.0 C 115.6 37.0 114.0 36.8 113.7 36.8 C 113.3 36.7 112.9 36.9 112.7 37.0 C 112.5 37.0 112.5 38.0 112.2 37.9 C 111.8 37.8 112.3 37.3 111.9 37.2 C 111.5 37.1 110.8 36.9 110.7 36.9 C 110.5 36.9 110.4 37.2 110.1 37.3 C 109.9 37.3 109.7 38.0 109.3 38.0 C 108.8 38.0 108.5 37.6 108.3 37.5 C 108.1 37.4 107.7 36.8 107.3 36.7 C 107.0 36.7 107.4 37.2 107.1 37.2 C 106.7 37.2 106.9 37.6 106.5 37.6 C 106.2 37.5 106.1 36.7 105.7 36.8 C 105.6 36.8 105.7 36.8 104.8 36.8 C 104.8 36.8 104.8 36.8 104.8 36.8 Z M 127.0 37.6 C 126.9 37.7 126.5 37.2 125.9 37.1 C 125.2 36.9 124.5 36.9 124.8 37.2 C 125.1 37.5 125.4 37.7 125.2 38.1 C 125.1 38.5 125.1 39.2 125.6 39.5 C 126.1 39.8 127.9 40.5 128.3 40.1 C 128.6 39.7 128.7 39.6 129.0 39.3 C 129.2 39.1 129.3 39.9 129.3 39.9 C 129.3 39.9 130.2 40.0 130.9 40.1 C 131.5 40.1 132.2 40.1 132.2 40.0 C 132.3 39.9 132.4 39.6 132.4 39.6 C 132.4 39.6 132.8 39.9 133.3 40.0 C 133.8 40.1 133.6 39.9 133.4 39.7 C 133.3 39.5 132.5 39.0 132.7 39.0 C 132.9 39.0 133.8 39.8 134.2 39.9 C 134.6 39.9 135.3 39.9 135.3 39.9 C 135.3 39.9 135.0 39.5 135.0 39.3 C 135.0 39.2 135.7 39.2 135.8 39.3 C 135.9 39.5 136.1 40.0 136.5 40.0 C 137.7 40.1 137.1 39.2 137.2 39.2 C 137.3 39.2 137.6 39.8 137.9 39.9 C 138.2 40.1 140.4 40.0 140.4 39.8 C 140.5 39.6 141.5 40.2 141.6 39.8 C 141.8 39.4 141.8 39.3 141.8 39.2 C 141.8 39.1 141.9 38.4 142.2 38.6 C 142.6 38.9 142.1 39.7 142.4 39.9 C 142.8 40.1 144.2 40.1 144.3 39.9 C 144.5 39.6 144.3 39.0 144.5 39.0 C 144.7 39.0 145.9 39.8 145.9 39.7 C 145.9 39.6 145.7 38.8 145.6 38.7 C 145.5 38.6 145.2 37.3 144.9 37.2 C 144.7 37.0 143.6 36.5 143.9 36.9 C 144.2 37.2 144.6 37.7 144.4 37.8 C 144.2 38.0 144.0 38.0 143.9 37.9 C 143.7 37.8 143.8 37.6 143.2 37.4 C 142.6 37.1 142.8 36.8 142.3 36.9 C 141.9 36.9 141.5 37.0 141.7 37.3 C 141.8 37.5 141.5 37.9 141.2 37.9 C 140.9 37.9 141.1 37.3 140.0 37.0 C 138.8 36.8 138.2 36.7 138.0 37.0 C 137.8 37.2 138.1 37.9 137.4 37.6 C 136.8 37.3 137.0 37.1 136.3 37.1 C 135.7 37.1 135.7 37.7 135.3 37.7 C 134.9 37.8 134.7 37.7 134.7 37.7 C 134.7 37.7 134.6 36.9 133.6 36.9 C 132.6 36.8 132.4 36.7 132.9 37.3 C 133.3 37.9 132.6 38.0 132.4 37.6 C 132.2 37.2 131.5 36.9 131.2 36.9 C 130.8 36.8 131.2 37.8 131.1 37.9 C 131.0 37.9 130.5 37.8 130.6 37.5 C 130.6 37.2 130.2 37.1 129.8 37.0 C 129.5 36.9 128.6 37.0 128.7 37.1 C 128.8 37.3 129.5 38.0 128.8 37.7 C 128.1 37.3 127.7 36.8 127.1 36.8 C 126.6 36.9 127.3 37.5 127.0 37.6 C 127.0 37.6 127.0 37.6 127.0 37.6 Z M 145.6 37.0 C 145.0 36.6 144.8 37.1 145.0 37.4 C 145.2 37.8 145.9 38.8 145.8 39.0 C 145.8 39.3 145.6 40.0 146.5 40.2 C 147.4 40.3 147.5 40.0 147.4 39.8 C 147.2 39.6 146.9 38.5 147.2 38.6 C 147.5 38.7 147.8 39.0 147.9 39.1 C 148.1 39.3 148.9 40.3 149.2 40.1 C 149.6 40.0 149.8 39.7 149.8 39.7 C 150.0 39.7 150.2 39.7 150.4 39.6 C 150.4 39.6 151.3 40.2 151.7 40.1 C 152.1 40.0 152.6 40.0 153.0 40.0 C 153.4 40.1 153.6 40.0 153.6 39.7 C 153.5 39.5 153.5 38.7 153.5 38.7 C 153.5 38.7 153.9 38.4 154.2 38.6 C 154.5 38.7 154.8 39.2 154.9 39.4 C 154.9 39.6 155.2 40.0 155.6 40.1 C 156.0 40.2 157.7 40.7 157.8 40.4 C 157.9 40.1 157.7 39.7 157.8 39.6 C 157.9 39.6 158.9 39.5 159.1 39.7 C 159.3 40.0 159.5 40.5 159.7 40.4 C 160.0 40.4 160.7 40.5 160.6 40.4 C 160.5 40.3 160.6 40.1 160.5 39.8 C 160.4 39.6 160.8 39.3 160.9 39.2 C 160.9 39.0 161.3 39.0 161.3 39.0 C 161.6 39.2 161.9 39.3 162.1 39.5 C 162.1 39.5 162.1 40.0 162.0 40.1 C 161.8 40.2 162.3 40.5 162.5 40.5 C 162.7 40.6 163.7 40.5 163.7 40.5 C 163.6 40.1 163.4 39.7 163.2 39.3 C 163.4 39.2 163.6 39.2 163.8 39.1 C 163.8 39.1 164.5 40.4 165.0 40.4 C 165.5 40.4 166.1 40.4 166.1 40.4 C 166.1 40.4 166.4 39.9 166.5 39.9 C 166.6 39.8 166.0 38.6 166.0 38.6 C 165.7 38.2 165.4 37.7 165.1 37.2 C 165.1 37.2 164.2 36.8 164.0 37.0 C 163.7 37.1 164.3 37.7 164.4 37.9 C 164.4 38.1 164.1 38.3 164.1 38.3 C 163.7 38.1 163.3 37.8 162.9 37.6 C 162.9 37.6 162.6 37.3 162.2 37.1 C 161.9 36.9 161.0 36.7 160.8 36.8 C 160.7 36.9 160.6 37.2 160.4 37.5 C 160.3 37.7 160.6 38.1 160.0 37.8 C 159.5 37.5 159.2 37.1 159.0 37.1 C 158.8 37.1 158.3 37.6 158.3 37.6 C 158.2 37.7 158.0 37.8 157.9 37.9 C 157.9 37.9 157.5 38.1 157.2 37.8 C 157.0 37.6 156.0 37.9 156.0 37.9 C 156.0 37.9 155.7 37.1 155.4 36.9 C 155.0 36.8 154.5 36.6 154.1 36.7 C 153.7 36.9 153.8 37.7 153.8 37.7 C 153.5 37.5 153.3 37.3 153.0 37.0 C 152.6 37.0 152.1 36.9 151.6 36.9 C 151.6 36.9 150.7 36.9 150.8 37.1 C 150.8 37.2 151.3 37.9 151.4 38.1 C 151.4 38.3 151.0 38.5 150.8 38.3 C 150.6 38.0 149.9 37.4 149.9 37.4 C 149.9 37.4 149.3 37.0 148.9 36.9 C 148.6 36.9 148.3 37.1 148.3 37.2 C 148.2 37.4 148.0 37.9 148.0 37.9 C 147.8 37.7 147.6 37.5 147.3 37.2 C 147.3 37.2 146.7 37.6 145.6 37.0 C 145.6 37.0 145.6 37.0 145.6 37.0 Z M 165.3 36.8 C 164.3 36.9 166.4 39.5 167.1 40.1 C 167.8 40.6 168.3 40.2 169.1 40.3 C 169.8 40.4 169.1 39.6 169.4 39.4 C 169.6 39.1 169.8 39.7 170.2 40.1 C 170.6 40.4 171.4 40.1 172.1 40.1 C 172.7 40.2 172.9 39.3 173.3 39.2 C 173.8 39.2 172.6 38.8 173.6 38.8 C 174.5 38.9 174.3 39.4 173.5 39.6 C 172.6 39.9 174.2 40.1 174.8 40.2 C 175.4 40.3 176.2 40.0 176.6 40.0 C 177.1 40.1 176.1 39.4 176.8 39.4 C 177.5 39.4 177.6 40.1 178.3 40.2 C 179.0 40.3 178.5 39.7 178.8 39.5 C 179.0 39.4 179.2 39.8 179.5 39.8 C 179.8 39.9 180.4 40.1 180.9 39.9 C 181.5 39.8 181.2 39.6 181.4 39.5 C 181.7 39.5 182.2 39.5 182.2 39.5 C 182.4 39.7 182.6 39.9 182.7 40.1 C 182.7 40.1 183.9 40.2 184.3 40.2 C 184.6 40.3 185.2 40.0 184.9 39.9 C 184.6 39.7 185.1 39.3 185.4 39.4 C 185.6 39.5 186.4 39.8 186.9 40.0 C 187.4 40.1 186.2 38.4 186.0 38.1 C 185.9 37.9 185.5 37.0 185.1 36.9 C 184.7 36.8 184.6 37.1 184.5 36.9 C 184.4 36.6 183.6 36.9 183.3 36.9 C 183.0 36.9 183.1 37.5 183.1 37.5 C 183.1 37.5 183.1 38.0 182.7 38.0 C 182.2 38.0 181.4 37.0 181.4 37.0 C 181.4 37.0 180.7 36.8 180.2 36.8 C 179.7 36.9 179.6 37.8 179.6 37.9 C 179.6 38.1 179.1 37.3 178.7 37.2 C 178.2 37.1 177.5 36.9 177.3 36.9 C 177.2 37.0 177.2 37.5 177.2 37.5 C 177.2 37.5 176.7 37.8 176.5 37.8 C 176.4 37.8 176.2 37.0 176.2 37.0 C 176.2 37.0 174.5 36.8 174.2 36.8 C 173.8 36.7 173.4 36.9 173.2 37.0 C 173.1 37.0 173.3 38.0 172.9 37.9 C 172.5 37.8 172.9 37.3 172.5 37.2 C 172.1 37.1 171.4 36.9 171.2 36.9 C 171.0 36.9 171.0 37.2 170.7 37.3 C 170.5 37.3 170.5 38.0 170.1 38.0 C 169.6 38.0 169.1 37.6 168.9 37.5 C 168.7 37.4 168.2 36.8 167.9 36.7 C 167.5 36.7 168.0 37.2 167.7 37.2 C 167.3 37.2 167.6 37.6 167.2 37.6 C 166.8 37.5 166.6 36.7 166.3 36.8 C 166.1 36.8 166.3 36.8 165.3 36.8 C 165.3 36.8 165.3 36.8 165.3 36.8 Z M 186.0 37.0 C 185.3 36.6 185.1 37.1 185.4 37.4 C 185.7 37.8 186.5 38.8 186.5 39.0 C 186.5 39.3 186.4 40.0 187.3 40.2 C 188.3 40.3 188.3 40.0 188.1 39.8 C 188.0 39.6 187.5 38.5 187.8 38.6 C 188.1 38.7 188.5 39.0 188.6 39.1 C 188.8 39.3 189.7 40.3 190.1 40.1 C 190.4 40.0 190.6 39.7 190.6 39.7 C 190.8 39.7 191.0 39.7 191.2 39.6 C 191.2 39.6 192.1 40.2 192.5 40.1 C 192.9 40.0 193.4 40.0 193.8 40.0 C 194.2 40.1 194.4 40.0 194.3 39.7 C 194.3 39.5 194.2 38.7 194.2 38.7 C 194.2 38.7 194.5 38.4 194.8 38.6 C 195.2 38.7 195.5 39.2 195.6 39.4 C 195.7 39.6 196.0 40.0 196.4 40.1 C 196.8 40.2 198.6 40.7 198.7 40.4 C 198.7 40.1 198.4 39.7 198.5 39.6 C 198.6 39.6 199.6 39.5 199.8 39.7 C 200.1 40.0 200.4 40.5 200.6 40.4 C 200.9 40.4 201.5 40.5 201.4 40.4 C 201.3 40.3 201.4 40.1 201.3 39.8 C 201.1 39.6 201.5 39.3 201.5 39.2 C 201.6 39.0 202.0 39.0 202.0 39.0 C 202.3 39.2 202.6 39.3 202.9 39.5 C 202.9 39.5 202.9 40.0 202.8 40.1 C 202.7 40.2 203.2 40.5 203.4 40.5 C 203.6 40.6 204.6 40.5 204.6 40.5 C 204.4 40.1 204.1 39.7 203.9 39.3 C 204.1 39.2 204.3 39.2 204.5 39.1 C 204.5 39.1 205.3 40.4 205.8 40.4 C 206.4 40.4 207.0 40.4 207.0 40.4 C 207.0 40.4 207.2 39.9 207.3 39.9 C 207.4 39.8 206.6 38.6 206.6 38.6 C 206.2 38.2 205.9 37.7 205.5 37.2 C 205.5 37.2 204.6 36.8 204.3 37.0 C 204.1 37.1 204.8 37.7 204.9 37.9 C 205.0 38.1 204.6 38.3 204.6 38.3 C 204.2 38.1 203.8 37.8 203.4 37.6 C 203.4 37.6 203.0 37.3 202.6 37.1 C 202.2 36.9 201.3 36.7 201.2 36.8 C 201.0 36.9 201.0 37.2 200.9 37.5 C 200.8 37.7 201.1 38.1 200.5 37.8 C 200.0 37.5 199.5 37.1 199.4 37.1 C 199.2 37.1 198.8 37.6 198.8 37.6 C 198.6 37.7 198.5 37.8 198.4 37.9 C 198.4 37.9 198.0 38.1 197.7 37.8 C 197.5 37.6 196.5 37.9 196.5 37.9 C 196.5 37.9 196.1 37.1 195.7 36.9 C 195.4 36.8 194.8 36.6 194.4 36.7 C 194.1 36.9 194.2 37.7 194.2 37.7 C 194.0 37.5 193.7 37.3 193.4 37.0 C 192.9 37.0 192.5 36.9 192.0 36.9 C 192.0 36.9 191.1 36.9 191.2 37.1 C 191.2 37.2 191.8 37.9 191.9 38.1 C 191.9 38.3 191.6 38.5 191.4 38.3 C 191.2 38.0 190.3 37.4 190.3 37.4 C 190.3 37.4 189.6 37.0 189.3 36.9 C 189.0 36.9 188.7 37.1 188.7 37.2 C 188.6 37.4 188.5 37.9 188.5 37.9 C 188.3 37.7 188.0 37.5 187.7 37.2 C 187.7 37.2 187.2 37.6 186.0 37.0 C 186.0 37.0 186.0 37.0 186.0 37.0 Z M 205.6 36.8 C 204.7 36.9 207.2 39.5 207.9 40.1 C 208.7 40.6 209.2 40.2 209.9 40.3 C 210.7 40.4 209.8 39.6 210.1 39.4 C 210.3 39.1 210.5 39.7 211.0 40.1 C 211.4 40.4 212.2 40.1 212.9 40.1 C 213.5 40.2 213.6 39.3 214.0 39.2 C 214.5 39.2 213.3 38.8 214.2 38.8 C 215.1 38.9 215.0 39.4 214.2 39.6 C 213.4 39.9 215.0 40.1 215.6 40.2 C 216.3 40.3 216.9 40.0 217.4 40.0 C 217.9 40.1 216.9 39.4 217.5 39.4 C 218.2 39.4 218.4 40.1 219.1 40.2 C 219.9 40.3 219.3 39.7 219.5 39.5 C 219.8 39.4 220.0 39.8 220.3 39.8 C 220.6 39.9 221.2 40.1 221.7 39.9 C 222.2 39.8 221.9 39.6 222.2 39.5 C 222.4 39.5 222.9 39.5 222.9 39.5 C 223.1 39.7 223.3 39.9 223.5 40.1 C 223.5 40.1 224.7 40.2 225.1 40.2 C 225.5 40.3 226.0 40.0 225.7 39.9 C 225.4 39.7 225.8 39.3 226.1 39.4 C 226.3 39.5 227.1 39.8 227.7 40.0 C 228.2 40.1 226.7 38.4 226.5 38.1 C 226.4 37.9 225.9 37.0 225.4 36.9 C 225.0 36.8 225.0 37.1 224.9 36.9 C 224.8 36.6 223.9 36.9 223.7 36.9 C 223.4 36.9 223.5 37.5 223.5 37.5 C 223.5 37.5 223.7 38.0 223.2 38.0 C 222.7 38.0 221.8 37.0 221.8 37.0 C 221.8 37.0 221.1 36.8 220.5 36.8 C 220.0 36.9 220.1 37.8 220.1 37.9 C 220.1 38.1 219.5 37.3 219.1 37.2 C 218.6 37.1 217.8 36.9 217.7 36.9 C 217.6 37.0 217.7 37.5 217.7 37.5 C 217.7 37.5 217.2 37.8 217.0 37.8 C 216.9 37.8 216.6 37.0 216.6 37.0 C 216.6 37.0 214.9 36.8 214.5 36.8 C 214.1 36.7 213.8 36.9 213.6 37.0 C 213.4 37.0 213.8 38.0 213.4 37.9 C 213.0 37.8 213.3 37.3 212.9 37.2 C 212.5 37.1 211.7 36.9 211.5 36.9 C 211.4 36.9 211.4 37.2 211.2 37.3 C 210.9 37.3 211.0 38.0 210.6 38.0 C 210.1 38.0 209.6 37.6 209.4 37.5 C 209.1 37.4 208.6 36.8 208.2 36.7 C 207.8 36.7 208.4 37.2 208.1 37.2 C 207.7 37.2 208.1 37.6 207.7 37.6 C 207.2 37.5 206.9 36.7 206.6 36.8 C 206.5 36.8 206.6 36.8 205.6 36.8 C 205.6 36.8 205.6 36.8 205.6 36.8 Z M 226.4 37.0 C 225.6 36.6 225.5 37.1 225.9 37.4 C 226.2 37.8 227.1 38.8 227.2 39.0 C 227.2 39.3 227.2 40.0 228.1 40.2 C 229.1 40.3 229.1 40.0 228.9 39.8 C 228.7 39.6 228.1 38.5 228.4 38.6 C 228.7 38.7 229.1 39.0 229.3 39.1 C 229.5 39.3 230.6 40.3 230.9 40.1 C 231.2 40.0 231.3 39.7 231.3 39.7 C 231.5 39.7 231.7 39.7 231.9 39.6 C 231.9 39.6 233.0 40.2 233.3 40.1 C 233.7 40.0 234.2 40.0 234.6 40.0 C 235.0 40.1 235.2 40.0 235.1 39.7 C 235.0 39.5 234.8 38.7 234.8 38.7 C 234.8 38.7 235.1 38.4 235.4 38.6 C 235.8 38.7 236.2 39.2 236.3 39.4 C 236.4 39.6 236.8 40.0 237.2 40.1 C 237.7 40.2 239.5 40.7 239.5 40.4 C 239.5 40.1 239.2 39.7 239.3 39.6 C 239.4 39.6 240.3 39.5 240.6 39.7 C 240.9 40.0 241.2 40.5 241.5 40.4 C 241.7 40.4 242.4 40.5 242.3 40.4 C 242.2 40.3 242.2 40.1 242.0 39.8 C 241.8 39.6 242.2 39.3 242.2 39.2 C 242.2 39.0 242.6 39.0 242.6 39.0 C 242.9 39.2 243.3 39.3 243.6 39.5 C 243.6 39.5 243.7 40.0 243.6 40.1 C 243.5 40.2 244.0 40.5 244.2 40.5 C 244.5 40.6 245.5 40.5 245.5 40.5 C 245.2 40.1 244.9 39.7 244.6 39.3 C 244.8 39.2 245.0 39.2 245.2 39.1 C 245.2 39.1 246.2 40.4 246.7 40.4 C 247.2 40.4 247.8 40.4 247.8 40.4 C 247.8 40.4 248.0 39.9 248.1 39.9 C 248.1 39.8 247.2 38.6 247.2 38.6 C 246.8 38.2 246.3 37.7 245.9 37.2 C 245.9 37.2 244.9 36.8 244.7 37.0 C 244.5 37.1 245.2 37.7 245.4 37.9 C 245.5 38.1 245.2 38.3 245.2 38.3 C 244.7 38.1 244.3 37.8 243.8 37.6 C 243.8 37.6 243.4 37.3 243.0 37.1 C 242.6 36.9 241.7 36.7 241.5 36.8 C 241.4 36.9 241.4 37.2 241.3 37.5 C 241.2 37.7 241.6 38.1 241.0 37.8 C 240.4 37.5 239.9 37.1 239.8 37.1 C 239.6 37.1 239.2 37.6 239.2 37.6 C 239.1 37.7 239.0 37.8 238.9 37.9 C 238.9 37.9 238.5 38.1 238.2 37.8 C 237.9 37.6 237.0 37.9 237.0 37.9 C 237.0 37.9 236.5 37.1 236.1 36.9 C 235.7 36.8 235.1 36.6 234.7 36.7 C 234.4 36.9 234.7 37.7 234.7 37.7 C 234.4 37.5 234.1 37.3 233.8 37.0 C 233.3 37.0 232.8 36.9 232.4 36.9 C 232.4 36.9 231.4 36.9 231.5 37.1 C 231.7 37.2 232.3 37.9 232.4 38.1 C 232.5 38.3 232.2 38.5 231.9 38.3 C 231.7 38.0 230.7 37.4 230.7 37.4 C 230.7 37.4 230.0 37.0 229.7 36.9 C 229.3 36.9 229.1 37.1 229.1 37.2 C 229.1 37.4 229.0 37.9 229.0 37.9 C 228.7 37.7 228.4 37.5 228.1 37.2 C 228.1 37.2 227.6 37.6 226.4 37.0 C 226.4 37.0 226.4 37.0 226.4 37.0 Z M 246.0 36.8 C 245.0 36.9 247.9 39.5 248.8 40.1 C 249.6 40.6 250.0 40.2 250.8 40.3 C 251.5 40.4 250.6 39.6 250.8 39.4 C 251.0 39.1 251.3 39.7 251.8 40.1 C 252.3 40.4 253.0 40.1 253.7 40.1 C 254.4 40.2 254.3 39.3 254.7 39.2 C 255.2 39.2 253.9 38.8 254.8 38.8 C 255.8 38.9 255.7 39.4 255.0 39.6 C 254.1 39.9 255.8 40.1 256.5 40.2 C 257.1 40.3 257.7 40.0 258.2 40.0 C 258.7 40.1 257.6 39.4 258.2 39.4 C 258.9 39.4 259.2 40.1 259.9 40.2 C 260.7 40.3 260.0 39.7 260.2 39.5 C 260.5 39.4 260.7 39.8 261.1 39.8 C 261.4 39.9 262.0 40.1 262.5 39.9 C 263.0 39.8 262.7 39.6 262.9 39.5 C 263.1 39.5 263.6 39.5 263.6 39.5 C 263.9 39.7 264.1 39.9 264.4 40.1 C 264.4 40.1 265.5 40.2 265.9 40.2 C 266.3 40.3 266.8 40.0 266.5 39.9 C 266.1 39.7 266.5 39.3 266.8 39.4 C 267.0 39.5 267.9 39.8 268.4 40.0 C 269.0 40.1 267.3 38.4 267.1 38.1 C 266.9 37.9 266.2 37.0 265.8 36.9 C 265.4 36.8 265.4 37.1 265.2 36.9 C 265.1 36.6 264.3 36.9 264.0 36.9 C 263.7 36.9 264.0 37.5 264.0 37.5 C 264.0 37.5 264.2 38.0 263.7 38.0 C 263.3 38.0 262.1 37.0 262.1 37.0 C 262.1 37.0 261.4 36.8 260.9 36.8 C 260.4 36.9 260.5 37.8 260.6 37.9 C 260.7 38.1 259.9 37.3 259.5 37.2 C 259.0 37.1 258.2 36.9 258.1 36.9 C 257.9 37.0 258.1 37.5 258.1 37.5 C 258.1 37.5 257.7 37.8 257.5 37.8 C 257.4 37.8 256.9 37.0 256.9 37.0 C 256.9 37.0 255.2 36.8 254.9 36.8 C 254.5 36.7 254.2 36.9 254.0 37.0 C 253.8 37.0 254.3 38.0 253.9 37.9 C 253.5 37.8 253.7 37.3 253.3 37.2 C 252.9 37.1 252.1 36.9 251.9 36.9 C 251.7 36.9 251.8 37.2 251.6 37.3 C 251.3 37.3 251.6 38.0 251.1 38.0 C 250.7 38.0 250.1 37.6 249.8 37.5 C 249.6 37.4 248.9 36.8 248.5 36.7 C 248.2 36.7 248.8 37.2 248.5 37.2 C 248.1 37.2 248.5 37.6 248.1 37.6 C 247.7 37.5 247.2 36.7 246.9 36.8 C 246.8 36.8 246.9 36.8 246.0 36.8 C 246.0 36.8 246.0 36.8 246.0 36.8 Z M 268.7 37.6 C 268.5 37.7 267.9 37.2 267.2 37.1 C 266.5 36.9 265.8 36.9 266.2 37.2 C 266.6 37.5 267.0 37.7 267.1 38.1 C 267.2 38.5 267.5 39.2 268.1 39.5 C 268.7 39.8 270.9 40.5 271.1 40.1 C 271.3 39.7 271.3 39.6 271.4 39.3 C 271.6 39.1 272.1 39.9 272.1 39.9 C 272.1 39.9 273.0 40.0 273.7 40.1 C 274.3 40.1 275.1 40.1 275.0 40.0 C 275.0 39.9 274.9 39.6 274.9 39.6 C 274.9 39.6 275.6 39.9 276.1 40.0 C 276.7 40.1 276.3 39.9 276.1 39.7 C 275.8 39.5 274.8 39.0 275.0 39.0 C 275.2 39.0 276.5 39.8 276.9 39.9 C 277.3 39.9 278.0 39.9 278.0 39.9 C 278.0 39.9 277.5 39.5 277.5 39.3 C 277.4 39.2 278.1 39.2 278.3 39.3 C 278.5 39.5 278.9 40.0 279.3 40.0 C 280.5 40.1 279.5 39.2 279.6 39.2 C 279.6 39.2 280.3 39.8 280.6 39.9 C 281.0 40.1 283.1 40.0 283.1 39.8 C 283.0 39.6 284.4 40.2 284.3 39.8 C 284.2 39.4 284.2 39.3 284.2 39.2 C 284.1 39.1 283.9 38.4 284.3 38.6 C 284.8 38.9 284.7 39.7 285.1 39.9 C 285.6 40.1 287.0 40.1 287.1 39.9 C 287.1 39.6 286.6 39.0 286.8 39.0 C 287.0 39.0 288.6 39.8 288.5 39.7 C 288.5 39.6 287.9 38.8 287.7 38.7 C 287.6 38.6 286.6 37.3 286.3 37.2 C 286.0 37.0 284.7 36.5 285.2 36.9 C 285.6 37.2 286.2 37.7 286.1 37.8 C 286.0 38.0 285.8 38.0 285.6 37.9 C 285.4 37.8 285.4 37.6 284.7 37.4 C 284.0 37.1 284.0 36.8 283.6 36.9 C 283.1 36.9 282.8 37.0 283.1 37.3 C 283.4 37.5 283.3 37.9 282.9 37.9 C 282.6 37.9 282.6 37.3 281.3 37.0 C 280.0 36.8 279.3 36.7 279.3 37.0 C 279.2 37.2 279.8 37.9 279.0 37.6 C 278.2 37.3 278.3 37.1 277.7 37.1 C 277.0 37.1 277.3 37.7 276.9 37.7 C 276.5 37.8 276.4 37.7 276.4 37.7 C 276.4 37.7 275.8 36.9 274.8 36.9 C 273.9 36.8 273.6 36.7 274.3 37.3 C 275.1 37.9 274.4 38.0 274.0 37.6 C 273.6 37.2 272.8 36.9 272.4 36.9 C 272.1 36.8 272.9 37.8 272.8 37.9 C 272.7 37.9 272.3 37.8 272.1 37.5 C 272.0 37.2 271.5 37.1 271.1 37.0 C 270.7 36.9 269.9 37.0 270.1 37.1 C 270.3 37.3 271.3 38.0 270.4 37.7 C 269.5 37.3 268.9 36.8 268.4 36.8 C 267.8 36.9 268.9 37.5 268.7 37.6 C 268.7 37.6 268.7 37.6 268.7 37.6 Z M 286.9 37.0 C 286.1 36.6 286.1 37.1 286.5 37.4 C 286.9 37.8 288.1 38.8 288.2 39.0 C 288.2 39.3 288.4 40.0 289.4 40.2 C 290.4 40.3 290.3 40.0 290.0 39.8 C 289.8 39.6 289.0 38.5 289.3 38.6 C 289.6 38.7 290.1 39.0 290.3 39.1 C 290.5 39.3 291.8 40.3 292.1 40.1 C 292.4 40.0 292.5 39.7 292.5 39.7 C 292.7 39.7 292.8 39.7 293.0 39.6 C 293.0 39.6 294.2 40.2 294.5 40.1 C 294.6 40.1 294.6 40.1 294.7 40.1 C 294.6 39.5 294.6 39.1 294.7 38.8 C 294.7 38.5 294.6 38.0 294.4 37.8 C 294.2 37.5 293.3 36.3 293.3 36.3 C 293.3 36.3 293.1 35.6 293.2 35.5 C 293.4 35.4 293.8 35.7 294.0 35.9 C 294.2 36.1 294.7 36.4 294.8 36.1 C 294.9 35.8 295.3 34.5 295.0 34.1 C 294.8 33.6 294.4 33.5 294.3 33.2 C 294.2 33.0 294.2 31.9 294.4 31.9 C 294.6 32.0 295.1 32.4 295.1 32.0 C 295.0 31.7 295.2 31.1 295.0 31.0 C 294.9 31.0 294.8 30.7 294.5 30.5 C 294.2 30.4 294.0 29.7 293.8 29.5 C 293.7 29.3 293.7 28.8 293.7 28.8 C 293.8 28.7 294.0 28.5 294.1 28.4 C 294.1 28.4 294.6 29.0 294.7 29.2 C 294.8 29.4 295.1 29.3 295.2 29.1 C 295.2 28.9 295.1 27.7 295.1 27.7 C 294.8 27.5 294.4 27.4 294.0 27.2 C 293.9 26.9 293.8 26.6 293.7 26.3 C 293.7 26.3 295.1 26.8 295.1 26.3 C 295.1 25.7 295.1 25.0 295.1 25.0 C 295.1 25.0 294.6 24.3 294.5 24.2 C 294.5 24.0 293.3 23.8 293.3 23.8 C 292.8 23.7 292.4 23.7 291.9 23.7 C 291.9 23.7 291.4 24.1 291.6 24.5 C 291.8 24.8 292.3 24.7 292.5 24.8 C 292.8 24.9 293.0 25.5 293.0 25.5 C 292.7 25.6 292.5 25.8 292.2 25.9 C 292.2 25.9 292.0 26.1 291.8 26.2 C 291.5 26.3 291.4 27.0 291.5 27.2 C 291.6 27.5 291.9 27.8 292.1 28.2 C 292.4 28.6 292.8 28.7 292.4 28.9 C 292.1 29.1 291.8 29.0 291.8 29.2 C 291.8 29.3 292.2 30.3 292.2 30.3 C 292.3 30.5 292.4 30.8 292.5 31.1 C 292.5 31.1 292.8 31.7 292.5 31.6 C 292.2 31.5 292.5 32.8 292.5 32.8 C 292.5 32.8 291.7 32.1 291.6 32.3 C 291.4 32.5 291.2 32.7 291.4 33.2 C 291.5 33.8 292.3 34.7 292.3 34.7 C 292.1 34.7 291.9 34.7 291.7 34.6 C 291.6 35.0 291.6 35.3 291.5 35.6 C 291.5 35.6 291.6 36.6 291.7 36.7 C 291.8 36.8 292.5 37.4 292.7 37.6 C 292.9 37.8 293.0 38.2 293.0 38.4 C 292.9 38.4 292.8 38.3 292.8 38.3 C 292.5 38.0 291.4 37.4 291.4 37.4 C 291.4 37.4 290.5 37.0 290.2 36.9 C 289.9 36.9 289.7 37.1 289.7 37.2 C 289.7 37.4 289.8 37.9 289.8 37.9 C 289.4 37.7 289.1 37.5 288.7 37.2 C 288.7 37.2 288.3 37.6 286.9 37.0 C 286.9 37.0 286.9 37.0 286.9 37.0 Z M 291.5 23.2 C 291.5 24.1 294.2 23.9 294.7 23.6 C 295.3 23.2 294.9 22.4 295.0 21.7 C 295.1 21.0 294.3 21.2 294.0 20.8 C 293.8 20.4 294.3 20.5 294.7 20.3 C 295.1 20.1 294.8 19.0 294.8 18.3 C 294.8 17.6 294.0 17.1 293.9 16.6 C 293.9 16.1 293.4 17.1 293.5 16.2 C 293.5 15.3 294.0 15.6 294.3 16.6 C 294.6 17.7 294.8 16.0 294.9 15.4 C 295.0 14.7 294.6 13.8 294.7 13.3 C 294.7 12.8 294.0 13.7 294.0 13.0 C 294.1 12.3 294.8 12.4 294.9 11.6 C 295.0 10.8 294.3 11.2 294.2 10.9 C 294.0 10.7 294.4 10.5 294.5 10.2 C 294.5 9.9 294.7 9.3 294.6 8.7 C 294.4 8.1 294.2 8.4 294.2 8.2 C 294.1 7.9 294.1 7.4 294.1 7.4 C 294.3 7.2 294.6 7.0 294.8 6.7 C 294.8 6.7 294.9 5.5 294.9 5.1 C 295.0 4.6 294.7 4.1 294.5 4.4 C 294.4 4.8 293.9 4.4 294.0 4.1 C 294.1 3.8 294.5 2.9 294.6 2.3 C 294.6 2.2 294.6 2.2 294.6 2.2 C 294.1 2.4 292.9 3.8 292.6 4.0 C 292.4 4.2 291.3 5.2 291.5 5.3 C 291.5 5.3 291.5 5.3 291.5 5.3 C 291.5 5.6 291.8 5.6 291.5 5.7 C 291.3 5.9 291.5 6.6 291.5 6.9 C 291.5 7.1 292.2 6.9 292.2 6.9 C 292.2 6.9 292.7 6.7 292.7 7.1 C 292.7 7.6 291.6 8.6 291.6 8.6 C 291.6 8.6 291.4 9.2 291.5 9.7 C 291.5 10.2 292.4 10.2 292.6 10.1 C 292.8 10.1 292.0 10.6 291.9 11.1 C 291.8 11.5 291.5 12.2 291.6 12.3 C 291.6 12.4 292.2 12.4 292.2 12.4 C 292.2 12.4 292.5 12.9 292.5 13.1 C 292.5 13.2 291.7 13.3 291.7 13.3 C 291.7 13.3 291.5 14.8 291.4 15.1 C 291.4 15.5 291.6 15.8 291.6 16.0 C 291.7 16.2 292.7 16.2 292.6 16.6 C 292.5 16.9 291.9 16.4 291.8 16.8 C 291.7 17.1 291.5 17.7 291.5 17.9 C 291.5 18.0 291.9 18.2 291.9 18.4 C 292.0 18.7 292.7 18.9 292.7 19.4 C 292.7 19.8 292.3 20.1 292.2 20.2 C 292.1 20.4 291.4 20.5 291.4 20.8 C 291.4 21.2 291.8 20.9 291.8 21.2 C 291.8 21.5 292.3 21.6 292.2 21.9 C 292.1 22.2 291.3 21.9 291.4 22.3 C 291.5 22.4 291.4 22.3 291.5 23.2 C 291.5 23.2 291.5 23.2 291.5 23.2 Z M 290.7 5.2 C 290.9 5.5 291.7 5.1 292.0 4.7 C 292.4 4.3 293.2 3.4 293.6 3.1 C 293.7 3.1 293.7 3.0 293.8 3.0 C 294.3 2.7 295.1 2.2 294.8 2.0 C 294.7 2.0 294.7 2.0 294.6 2.0 C 293.9 1.8 293.4 2.1 293.2 2.4 C 293.0 2.6 291.8 3.6 291.7 3.5 C 291.5 3.4 291.6 3.1 291.6 3.0 C 291.7 2.9 292.4 1.9 291.8 2.0 C 291.2 2.2 290.6 2.5 290.6 2.5 C 290.3 2.5 290.1 2.5 289.9 2.5 C 289.9 2.5 289.9 1.9 289.3 2.0 C 288.7 2.2 288.2 2.2 287.9 2.1 C 287.6 2.1 287.2 2.2 286.9 2.4 C 286.6 2.6 285.4 3.5 285.4 3.5 C 285.4 3.5 284.6 3.7 284.5 3.6 C 284.4 3.4 284.8 3.0 285.0 2.8 C 285.3 2.6 285.6 2.1 285.4 2.0 C 285.1 1.9 284.1 1.5 283.6 1.8 C 283.1 2.0 282.8 2.4 282.5 2.5 C 282.3 2.6 281.2 2.6 281.4 2.4 C 281.5 2.2 282.0 1.7 281.7 1.7 C 281.4 1.8 280.9 1.6 280.8 1.8 C 280.7 1.9 280.3 2.0 280.1 2.3 C 279.8 2.6 279.0 2.8 278.8 3.0 C 278.5 3.1 278.0 3.1 278.0 3.1 C 278.0 3.0 277.9 2.8 277.9 2.7 C 277.9 2.7 278.7 2.2 278.9 2.1 C 279.2 2.0 279.2 1.7 279.1 1.6 C 278.9 1.6 277.7 1.7 277.7 1.7 C 277.4 2.0 277.0 2.4 276.7 2.8 C 276.3 2.9 276.0 3.0 275.7 3.1 C 275.7 3.1 277.0 1.7 276.4 1.7 C 275.9 1.7 275.3 1.7 275.3 1.7 C 275.3 1.7 274.3 2.2 274.1 2.3 C 273.9 2.3 272.8 3.5 272.8 3.5 C 272.5 4.0 272.1 4.4 271.8 4.9 C 271.8 4.9 272.0 5.4 272.5 5.2 C 273.0 5.0 273.2 4.5 273.4 4.3 C 273.7 4.0 274.4 3.8 274.4 3.8 C 274.4 4.1 274.4 4.3 274.4 4.6 C 274.4 4.6 274.4 4.8 274.4 5.0 C 274.4 5.3 275.1 5.4 275.4 5.3 C 275.7 5.2 276.2 4.9 276.7 4.7 C 277.2 4.4 277.5 4.0 277.6 4.3 C 277.6 4.7 277.5 5.0 277.6 5.0 C 277.8 5.0 279.0 4.6 279.0 4.6 C 279.3 4.5 279.6 4.4 279.9 4.3 C 279.9 4.3 280.6 4.0 280.5 4.3 C 280.3 4.6 281.7 4.3 281.7 4.3 C 281.7 4.3 280.8 5.1 281.0 5.2 C 281.1 5.4 281.4 5.5 282.0 5.4 C 282.6 5.3 283.7 4.5 283.7 4.5 C 283.6 4.7 283.6 4.9 283.5 5.1 C 283.9 5.2 284.2 5.2 284.6 5.3 C 284.6 5.3 285.6 5.2 285.7 5.1 C 285.9 4.9 286.4 4.3 286.7 4.1 C 286.9 3.9 287.6 3.7 287.5 3.9 C 287.3 4.1 287.1 4.8 287.1 4.8 C 287.1 4.8 287.1 5.2 287.4 5.2 C 287.6 5.3 288.3 5.0 288.5 4.9 C 288.8 4.8 289.7 4.3 289.7 4.3 C 289.6 4.5 289.6 4.7 289.5 4.9 C 289.5 4.9 290.5 4.6 290.7 5.2 C 290.7 5.2 290.7 5.2 290.7 5.2 Z M 269.9 4.5 C 270.2 4.4 270.0 4.9 270.4 5.1 C 270.8 5.2 271.5 5.2 271.6 4.9 C 271.7 4.6 271.7 4.4 272.4 4.0 C 273.0 3.6 273.9 2.9 273.8 2.6 C 273.6 2.4 272.6 1.7 271.8 2.0 C 271.0 2.4 270.7 2.6 270.2 2.8 C 269.6 3.0 270.5 2.2 270.5 2.2 C 270.5 2.2 269.8 2.1 269.2 2.1 C 268.6 2.0 267.9 2.0 267.7 2.1 C 267.5 2.3 267.1 2.6 267.1 2.6 C 267.1 2.6 267.0 2.2 266.6 2.1 C 266.2 2.0 266.2 2.3 266.1 2.4 C 266.1 2.6 266.2 3.1 266.0 3.1 C 265.8 3.1 265.9 2.3 265.6 2.3 C 265.3 2.2 264.5 2.2 264.5 2.2 C 264.5 2.2 264.3 2.7 264.1 2.8 C 264.0 2.9 263.2 3.0 263.3 2.8 C 263.4 2.6 263.8 2.2 263.5 2.1 C 262.4 2.0 261.9 2.9 261.7 3.0 C 261.6 3.0 262.2 2.3 262.0 2.2 C 261.8 2.1 259.5 2.2 259.2 2.3 C 259.0 2.5 258.7 1.9 258.1 2.3 C 257.4 2.7 257.2 2.9 257.1 3.0 C 256.9 3.1 256.0 3.8 256.0 3.5 C 256.0 3.2 257.4 2.5 257.3 2.3 C 257.2 2.1 255.8 2.0 255.5 2.2 C 254.9 2.5 254.3 3.2 254.1 3.2 C 254.0 3.2 253.8 2.3 253.6 2.5 C 253.4 2.6 252.8 3.3 252.7 3.4 C 252.6 3.6 251.5 4.8 251.5 5.0 C 251.6 5.1 252.1 5.6 252.2 5.3 C 252.4 4.9 252.5 4.5 252.9 4.3 C 253.3 4.1 253.5 4.1 253.5 4.2 C 253.4 4.4 253.2 4.5 253.5 4.8 C 253.8 5.0 253.3 5.3 253.8 5.3 C 254.3 5.2 254.7 5.2 254.9 4.9 C 255.0 4.6 255.8 4.2 256.1 4.2 C 256.4 4.3 255.4 4.9 256.3 5.1 C 257.1 5.4 257.7 5.4 258.2 5.2 C 258.7 4.9 259.3 4.2 259.5 4.5 C 259.8 4.9 259.4 5.0 260.0 5.0 C 260.7 5.0 261.4 4.4 261.9 4.4 C 262.3 4.4 262.4 4.4 262.4 4.4 C 262.4 4.4 261.5 5.2 262.4 5.3 C 263.3 5.3 263.5 5.4 263.7 4.8 C 264.0 4.2 264.8 4.2 264.5 4.5 C 264.2 4.9 264.6 5.2 264.8 5.3 C 265.1 5.3 266.0 4.3 266.2 4.3 C 266.4 4.2 266.7 4.3 266.3 4.6 C 265.9 5.0 266.2 5.0 266.4 5.1 C 266.5 5.3 267.5 5.2 267.6 5.0 C 267.8 4.8 267.9 4.1 268.2 4.5 C 268.5 4.8 268.2 5.3 268.8 5.3 C 269.4 5.3 269.4 4.7 269.9 4.5 C 269.9 4.5 269.9 4.5 269.9 4.5 Z M 250.6 5.2 C 250.8 5.5 251.6 5.1 251.8 4.7 C 252.0 4.3 252.5 3.4 252.9 3.1 C 253.3 2.8 254.3 2.1 253.6 2.0 C 252.8 1.8 252.4 2.1 252.3 2.4 C 252.1 2.6 251.2 3.6 251.0 3.5 C 250.9 3.4 250.9 3.1 250.9 3.0 C 250.9 2.9 251.3 1.9 250.8 2.0 C 250.2 2.2 249.7 2.5 249.7 2.5 C 249.4 2.5 249.2 2.5 249.0 2.5 C 249.0 2.5 248.8 1.9 248.3 2.0 C 247.7 2.2 247.2 2.2 246.9 2.1 C 246.6 2.1 246.2 2.2 246.0 2.4 C 245.7 2.6 244.7 3.5 244.7 3.5 C 244.7 3.5 244.1 3.7 243.9 3.6 C 243.8 3.4 244.0 3.0 244.2 2.8 C 244.4 2.6 244.6 2.1 244.4 2.0 C 244.1 1.9 242.9 1.5 242.5 1.8 C 242.0 2.0 241.9 2.4 241.6 2.5 C 241.4 2.6 240.4 2.6 240.4 2.4 C 240.5 2.2 240.9 1.7 240.6 1.7 C 240.3 1.8 239.8 1.6 239.7 1.8 C 239.6 1.9 239.3 2.0 239.1 2.3 C 238.9 2.6 238.2 2.8 238.0 3.0 C 237.8 3.1 237.3 3.1 237.3 3.1 C 237.2 3.0 237.1 2.8 237.0 2.7 C 237.0 2.7 237.7 2.2 237.9 2.1 C 238.1 2.0 238.1 1.7 237.9 1.6 C 237.8 1.6 236.6 1.7 236.6 1.7 C 236.4 2.0 236.1 2.4 235.9 2.8 C 235.5 2.9 235.2 3.0 234.9 3.1 C 234.9 3.1 235.8 1.7 235.3 1.7 C 234.8 1.7 234.2 1.7 234.2 1.7 C 234.2 1.7 233.3 2.2 233.2 2.3 C 233.0 2.3 232.2 3.5 232.2 3.5 C 232.0 4.0 231.8 4.4 231.5 4.9 C 231.5 4.9 231.9 5.4 232.3 5.2 C 232.8 5.0 232.8 4.5 233.0 4.3 C 233.2 4.0 233.8 3.8 233.8 3.8 C 233.9 4.1 234.0 4.3 234.1 4.6 C 234.1 4.6 234.2 4.8 234.2 5.0 C 234.3 5.3 235.0 5.4 235.3 5.3 C 235.6 5.2 236.0 4.9 236.4 4.7 C 236.9 4.4 237.1 4.0 237.2 4.3 C 237.4 4.7 237.3 5.0 237.5 5.0 C 237.6 5.0 238.7 4.6 238.7 4.6 C 238.9 4.5 239.2 4.4 239.5 4.3 C 239.5 4.3 240.2 4.0 240.1 4.3 C 240.0 4.6 241.3 4.3 241.3 4.3 C 241.3 4.3 240.7 5.1 240.9 5.2 C 241.0 5.4 241.4 5.5 241.9 5.4 C 242.5 5.3 243.3 4.5 243.3 4.5 C 243.3 4.7 243.3 4.9 243.3 5.1 C 243.7 5.2 244.1 5.2 244.5 5.3 C 244.5 5.3 245.5 5.2 245.6 5.1 C 245.7 4.9 246.0 4.3 246.2 4.1 C 246.4 3.9 247.1 3.7 247.0 3.9 C 246.9 4.1 246.9 4.8 246.9 4.8 C 246.9 4.8 247.0 5.2 247.2 5.2 C 247.5 5.3 248.1 5.0 248.3 4.9 C 248.5 4.8 249.3 4.3 249.3 4.3 C 249.3 4.5 249.3 4.7 249.2 4.9 C 249.2 4.9 250.2 4.6 250.6 5.2 C 250.6 5.2 250.6 5.2 250.6 5.2 Z M 229.6 4.5 C 229.8 4.4 229.8 4.9 230.2 5.1 C 230.7 5.2 231.3 5.2 231.4 4.9 C 231.4 4.6 231.4 4.4 231.9 4.0 C 232.4 3.6 233.2 2.9 232.9 2.6 C 232.7 2.4 231.5 1.7 230.8 2.0 C 230.1 2.4 229.9 2.6 229.4 2.8 C 228.9 3.0 229.6 2.2 229.6 2.2 C 229.6 2.2 228.8 2.1 228.2 2.1 C 227.6 2.0 226.9 2.0 226.7 2.1 C 226.6 2.3 226.2 2.6 226.2 2.6 C 226.2 2.6 226.1 2.2 225.6 2.1 C 225.2 2.0 225.3 2.3 225.2 2.4 C 225.2 2.6 225.5 3.1 225.3 3.1 C 225.1 3.1 224.9 2.3 224.6 2.3 C 224.3 2.2 223.6 2.2 223.6 2.2 C 223.6 2.2 223.4 2.7 223.3 2.8 C 223.2 2.9 222.4 3.0 222.5 2.8 C 222.5 2.6 222.8 2.2 222.5 2.1 C 221.4 2.0 221.1 2.9 221.0 3.0 C 220.9 3.0 221.2 2.3 221.0 2.2 C 220.8 2.1 218.5 2.2 218.3 2.3 C 218.1 2.5 217.7 1.9 217.1 2.3 C 216.6 2.7 216.4 2.9 216.3 3.0 C 216.2 3.1 215.5 3.8 215.4 3.5 C 215.3 3.2 216.5 2.5 216.4 2.3 C 216.2 2.1 214.8 2.0 214.5 2.2 C 214.0 2.5 213.6 3.2 213.4 3.2 C 213.2 3.2 212.8 2.3 212.7 2.5 C 212.6 2.6 212.2 3.3 212.1 3.4 C 212.0 3.6 211.2 4.8 211.3 5.0 C 211.4 5.1 212.0 5.6 212.1 5.3 C 212.1 4.9 212.1 4.5 212.5 4.3 C 212.9 4.1 213.0 4.1 213.1 4.2 C 213.1 4.4 212.8 4.5 213.2 4.8 C 213.6 5.0 213.2 5.3 213.7 5.3 C 214.1 5.2 214.6 5.2 214.7 4.9 C 214.7 4.6 215.4 4.2 215.7 4.2 C 216.0 4.3 215.2 4.9 216.1 5.1 C 217.0 5.4 217.6 5.4 218.0 5.2 C 218.5 4.9 218.9 4.2 219.2 4.5 C 219.5 4.9 219.2 5.0 219.8 5.0 C 220.5 5.0 221.1 4.4 221.5 4.4 C 221.9 4.4 222.0 4.4 222.0 4.4 C 222.0 4.4 221.4 5.2 222.3 5.3 C 223.2 5.3 223.4 5.4 223.5 4.8 C 223.6 4.2 224.4 4.2 224.2 4.5 C 224.0 4.9 224.4 5.2 224.7 5.3 C 225.0 5.3 225.6 4.3 225.8 4.3 C 225.9 4.2 226.3 4.3 226.0 4.6 C 225.6 5.0 226.0 5.0 226.2 5.1 C 226.4 5.3 227.3 5.2 227.4 5.0 C 227.5 4.8 227.5 4.1 227.9 4.5 C 228.3 4.8 228.1 5.3 228.7 5.3 C 229.3 5.3 229.1 4.7 229.6 4.5 C 229.6 4.5 229.6 4.5 229.6 4.5 Z M 210.5 5.2 C 210.8 5.5 211.4 5.1 211.5 4.7 C 211.6 4.3 211.9 3.4 212.2 3.1 C 212.5 2.8 213.3 2.1 212.5 2.0 C 211.7 1.8 211.4 2.1 211.3 2.4 C 211.2 2.6 210.6 3.6 210.4 3.5 C 210.2 3.4 210.1 3.1 210.1 3.0 C 210.1 2.9 210.2 1.9 209.7 2.0 C 209.3 2.2 208.8 2.5 208.8 2.5 C 208.5 2.5 208.3 2.5 208.1 2.5 C 208.1 2.5 207.8 1.9 207.3 2.0 C 206.7 2.2 206.2 2.2 205.9 2.1 C 205.6 2.1 205.2 2.2 205.0 2.4 C 204.9 2.6 204.1 3.5 204.1 3.5 C 204.1 3.5 203.5 3.7 203.3 3.6 C 203.2 3.4 203.3 3.0 203.4 2.8 C 203.5 2.6 203.6 2.1 203.3 2.0 C 203.0 1.9 201.7 1.5 201.3 1.8 C 201.0 2.0 200.9 2.4 200.7 2.5 C 200.5 2.6 199.5 2.6 199.5 2.4 C 199.5 2.2 199.8 1.7 199.5 1.7 C 199.1 1.8 198.6 1.6 198.6 1.8 C 198.5 1.9 198.3 2.0 198.2 2.3 C 198.1 2.6 197.4 2.8 197.2 3.0 C 197.1 3.1 196.6 3.1 196.6 3.1 C 196.5 3.0 196.3 2.8 196.2 2.7 C 196.2 2.7 196.7 2.2 196.9 2.1 C 197.1 2.0 196.9 1.7 196.8 1.6 C 196.6 1.6 195.5 1.7 195.5 1.7 C 195.3 2.0 195.2 2.4 195.0 2.8 C 194.8 2.9 194.5 3.0 194.2 3.1 C 194.2 3.1 194.7 1.7 194.2 1.7 C 193.7 1.7 193.0 1.7 193.0 1.7 C 193.0 1.7 192.3 2.2 192.2 2.3 C 192.0 2.3 191.6 3.5 191.6 3.5 C 191.5 4.0 191.4 4.4 191.3 4.9 C 191.3 4.9 191.8 5.4 192.2 5.2 C 192.6 5.0 192.5 4.5 192.6 4.3 C 192.7 4.0 193.3 3.8 193.3 3.8 C 193.5 4.1 193.6 4.3 193.8 4.6 C 193.8 4.6 193.9 4.8 194.1 5.0 C 194.2 5.3 194.9 5.4 195.2 5.3 C 195.5 5.2 195.8 4.9 196.2 4.7 C 196.5 4.4 196.6 4.0 196.8 4.3 C 197.1 4.7 197.1 5.0 197.3 5.0 C 197.4 5.0 198.3 4.6 198.3 4.6 C 198.6 4.5 198.8 4.4 199.1 4.3 C 199.1 4.3 199.7 4.0 199.7 4.3 C 199.7 4.6 200.9 4.3 200.9 4.3 C 200.9 4.3 200.5 5.1 200.7 5.2 C 200.9 5.4 201.3 5.5 201.8 5.4 C 202.3 5.3 203.0 4.5 203.0 4.5 C 203.0 4.7 203.1 4.9 203.2 5.1 C 203.6 5.2 204.0 5.2 204.4 5.3 C 204.4 5.3 205.4 5.2 205.4 5.1 C 205.5 4.9 205.6 4.3 205.8 4.1 C 205.9 3.9 206.5 3.7 206.5 3.9 C 206.4 4.1 206.6 4.8 206.6 4.8 C 206.6 4.8 206.8 5.2 207.1 5.2 C 207.4 5.3 207.9 5.0 208.1 4.9 C 208.3 4.8 208.9 4.3 208.9 4.3 C 209.0 4.5 209.0 4.7 209.0 4.9 C 209.0 4.9 209.9 4.6 210.5 5.2 C 210.5 5.2 210.5 5.2 210.5 5.2 Z M 189.2 4.5 C 189.5 4.4 189.5 4.9 190.0 5.1 C 190.5 5.2 191.2 5.2 191.2 4.9 C 191.1 4.6 191.0 4.4 191.4 4.0 C 191.8 3.6 192.4 2.9 192.1 2.6 C 191.7 2.4 190.4 1.7 189.8 2.0 C 189.2 2.4 189.0 2.6 188.5 2.8 C 188.1 3.0 188.6 2.2 188.6 2.2 C 188.6 2.2 187.8 2.1 187.2 2.1 C 186.5 2.0 185.8 2.0 185.7 2.1 C 185.6 2.3 185.3 2.6 185.3 2.6 C 185.3 2.6 185.1 2.2 184.6 2.1 C 184.2 2.0 184.3 2.3 184.3 2.4 C 184.3 2.6 184.8 3.1 184.6 3.1 C 184.4 3.1 184.0 2.3 183.7 2.3 C 183.4 2.2 182.6 2.2 182.6 2.2 C 182.6 2.2 182.6 2.7 182.5 2.8 C 182.4 2.9 181.7 3.0 181.7 2.8 C 181.7 2.6 181.8 2.2 181.5 2.1 C 180.4 2.0 180.3 2.9 180.2 3.0 C 180.1 3.0 180.3 2.3 180.0 2.2 C 179.8 2.1 177.5 2.2 177.4 2.3 C 177.2 2.5 176.6 1.9 176.2 2.3 C 175.8 2.7 175.6 2.9 175.6 3.0 C 175.5 3.1 174.9 3.8 174.8 3.5 C 174.6 3.2 175.6 2.5 175.4 2.3 C 175.2 2.1 173.8 2.0 173.5 2.2 C 173.1 2.5 172.9 3.2 172.7 3.2 C 172.5 3.2 171.9 2.3 171.8 2.5 C 171.7 2.6 171.5 3.3 171.5 3.4 C 171.4 3.6 171.0 4.8 171.1 5.0 C 171.3 5.1 172.0 5.6 172.0 5.3 C 171.9 4.9 171.8 4.5 172.1 4.3 C 172.4 4.1 172.6 4.1 172.6 4.2 C 172.7 4.4 172.5 4.5 172.9 4.8 C 173.4 5.0 173.1 5.3 173.5 5.3 C 174.0 5.2 174.4 5.2 174.4 4.9 C 174.4 4.6 175.0 4.2 175.3 4.2 C 175.6 4.3 175.0 4.9 176.0 5.1 C 176.9 5.4 177.6 5.4 177.9 5.2 C 178.2 4.9 178.5 4.2 178.9 4.5 C 179.3 4.9 179.0 5.0 179.7 5.0 C 180.3 5.0 180.7 4.4 181.1 4.4 C 181.6 4.4 181.7 4.4 181.7 4.4 C 181.7 4.4 181.2 5.2 182.2 5.3 C 183.1 5.3 183.3 5.4 183.2 4.8 C 183.2 4.2 183.9 4.2 183.9 4.5 C 183.8 4.9 184.3 5.2 184.6 5.3 C 184.9 5.3 185.3 4.3 185.4 4.3 C 185.5 4.2 185.9 4.3 185.7 4.6 C 185.4 5.0 185.8 5.0 186.0 5.1 C 186.3 5.3 187.2 5.2 187.2 5.0 C 187.3 4.8 187.0 4.1 187.5 4.5 C 188.0 4.8 188.0 5.3 188.6 5.3 C 189.2 5.3 188.8 4.7 189.2 4.5 C 189.2 4.5 189.2 4.5 189.2 4.5 Z M 170.7 5.3 C 171.7 5.3 171.5 2.6 171.2 2.1 C 170.9 1.5 170.1 1.9 169.5 1.8 C 168.8 1.7 168.9 2.5 168.5 2.8 C 168.0 3.0 168.2 2.5 168.1 2.1 C 168.0 1.7 166.9 2.0 166.3 2.0 C 165.7 2.0 164.9 2.8 164.4 2.9 C 163.9 2.9 164.8 3.4 163.9 3.3 C 163.0 3.3 163.5 2.8 164.5 2.5 C 165.6 2.2 164.2 2.0 163.6 1.9 C 163.1 1.8 162.1 2.2 161.6 2.1 C 161.2 2.1 161.7 2.8 161.0 2.8 C 160.4 2.7 160.7 2.0 160.1 1.9 C 159.4 1.8 159.5 2.5 159.1 2.6 C 158.8 2.8 158.9 2.4 158.6 2.3 C 158.3 2.3 157.9 2.1 157.2 2.2 C 156.6 2.4 156.7 2.6 156.4 2.6 C 156.2 2.7 155.7 2.7 155.7 2.7 C 155.6 2.4 155.6 2.2 155.6 2.0 C 155.6 2.0 154.4 1.9 154.1 1.9 C 153.8 1.8 153.0 2.1 153.2 2.3 C 153.4 2.4 152.6 2.9 152.4 2.8 C 152.3 2.7 151.7 2.3 151.3 2.2 C 150.9 2.0 151.0 3.8 151.0 4.0 C 151.0 4.2 150.7 5.2 151.1 5.3 C 151.4 5.4 151.7 5.0 151.6 5.3 C 151.6 5.5 152.6 5.3 152.9 5.3 C 153.1 5.3 153.5 4.6 153.5 4.6 C 153.5 4.6 153.8 4.1 154.2 4.1 C 154.7 4.1 154.8 5.2 154.8 5.2 C 154.8 5.2 155.4 5.4 155.9 5.3 C 156.5 5.3 157.1 4.4 157.3 4.2 C 157.4 4.0 157.3 4.8 157.7 4.9 C 158.1 5.0 158.6 5.3 158.8 5.2 C 159.0 5.2 159.3 4.6 159.3 4.6 C 159.3 4.6 160.1 4.3 160.2 4.3 C 160.4 4.3 160.0 5.1 160.0 5.1 C 160.0 5.1 161.5 5.3 161.8 5.4 C 162.2 5.4 162.7 5.2 162.9 5.2 C 163.1 5.1 163.6 4.1 163.9 4.2 C 164.2 4.3 163.5 4.9 163.8 5.0 C 164.1 5.1 164.7 5.3 164.9 5.3 C 165.1 5.3 165.3 4.9 165.6 4.9 C 165.9 4.8 166.4 4.1 166.8 4.1 C 167.3 4.1 167.4 4.5 167.6 4.6 C 167.7 4.7 167.8 5.4 168.1 5.4 C 168.5 5.4 168.3 5.0 168.6 5.0 C 168.9 5.0 169.0 4.5 169.3 4.6 C 169.7 4.7 169.3 5.5 169.7 5.4 C 169.9 5.3 169.7 5.4 170.7 5.3 C 170.7 5.3 170.7 5.3 170.7 5.3 Z M 150.2 5.2 C 150.7 5.5 151.1 5.1 151.1 4.7 C 151.0 4.3 150.9 3.4 151.1 3.1 C 151.2 2.8 151.8 2.1 151.0 2.0 C 150.1 1.8 149.9 2.1 149.9 2.4 C 149.9 2.6 149.7 3.6 149.5 3.5 C 149.3 3.4 149.1 3.1 149.0 3.0 C 148.9 2.9 148.6 1.9 148.2 2.0 C 147.8 2.2 147.4 2.5 147.4 2.5 C 147.2 2.5 147.0 2.5 146.8 2.5 C 146.8 2.5 146.2 1.9 145.7 2.0 C 145.3 2.2 144.7 2.2 144.4 2.1 C 144.0 2.1 143.7 2.2 143.6 2.4 C 143.6 2.6 143.2 3.5 143.2 3.5 C 143.2 3.5 142.7 3.7 142.4 3.6 C 142.2 3.4 142.1 3.0 142.2 2.8 C 142.2 2.6 142.1 2.1 141.8 2.0 C 141.4 1.9 139.9 1.5 139.7 1.8 C 139.5 2.0 139.6 2.4 139.4 2.5 C 139.2 2.6 138.2 2.6 138.1 2.4 C 138.0 2.2 138.1 1.7 137.8 1.7 C 137.5 1.8 136.9 1.6 136.9 1.8 C 136.9 1.9 136.7 2.0 136.7 2.3 C 136.7 2.6 136.2 2.8 136.1 3.0 C 136.0 3.1 135.5 3.1 135.5 3.1 C 135.3 3.0 135.1 2.8 134.9 2.7 C 134.9 2.7 135.2 2.2 135.4 2.1 C 135.5 2.0 135.2 1.7 135.0 1.6 C 134.9 1.6 133.8 1.7 133.8 1.7 C 133.8 2.0 133.8 2.4 133.8 2.8 C 133.6 2.9 133.3 3.0 133.1 3.1 C 133.1 3.1 133.0 1.7 132.5 1.7 C 132.0 1.7 131.4 1.7 131.4 1.7 C 131.4 1.7 130.9 2.2 130.7 2.3 C 130.6 2.3 130.7 3.5 130.7 3.5 C 130.8 4.0 130.9 4.4 131.0 4.9 C 131.0 4.9 131.7 5.4 132.0 5.2 C 132.3 5.0 132.0 4.5 132.0 4.3 C 132.0 4.0 132.5 3.8 132.5 3.8 C 132.8 4.1 133.0 4.3 133.3 4.6 C 133.3 4.6 133.5 4.8 133.8 5.0 C 134.0 5.3 134.8 5.4 135.0 5.3 C 135.3 5.2 135.5 4.9 135.7 4.7 C 136.0 4.4 135.9 4.0 136.3 4.3 C 136.6 4.7 136.8 5.0 137.0 5.0 C 137.2 5.0 137.9 4.6 137.9 4.6 C 138.1 4.5 138.3 4.4 138.5 4.3 C 138.5 4.3 139.0 4.0 139.1 4.3 C 139.2 4.6 140.3 4.3 140.3 4.3 C 140.3 4.3 140.2 5.1 140.5 5.2 C 140.8 5.4 141.3 5.5 141.7 5.4 C 142.2 5.3 142.5 4.5 142.5 4.5 C 142.6 4.7 142.8 4.9 142.9 5.1 C 143.3 5.2 143.8 5.2 144.2 5.3 C 144.2 5.3 145.2 5.2 145.1 5.1 C 145.1 4.9 145.0 4.3 145.1 4.1 C 145.1 3.9 145.6 3.7 145.7 3.9 C 145.8 4.1 146.2 4.8 146.2 4.8 C 146.2 4.8 146.6 5.2 146.9 5.2 C 147.2 5.3 147.6 5.0 147.8 4.9 C 147.9 4.8 148.3 4.3 148.3 4.3 C 148.4 4.5 148.6 4.7 148.7 4.9 C 148.7 4.9 149.5 4.6 150.2 5.2 C 150.2 5.2 150.2 5.2 150.2 5.2 Z M 128.7 4.5 C 129.0 4.4 129.2 4.9 129.8 5.1 C 130.3 5.2 131.0 5.2 130.9 4.9 C 130.7 4.6 130.5 4.4 130.7 4.0 C 131.0 3.6 131.2 2.9 130.8 2.6 C 130.3 2.4 128.7 1.7 128.2 2.0 C 127.8 2.4 127.7 2.6 127.3 2.8 C 127.0 3.0 127.1 2.2 127.1 2.2 C 127.1 2.2 126.3 2.1 125.6 2.1 C 125.0 2.0 124.3 2.0 124.2 2.1 C 124.2 2.3 124.0 2.6 124.0 2.6 C 124.0 2.6 123.6 2.2 123.1 2.1 C 122.6 2.0 122.8 2.3 123.0 2.4 C 123.1 2.6 123.7 3.1 123.5 3.1 C 123.3 3.1 122.6 2.3 122.2 2.3 C 121.9 2.2 121.2 2.2 121.2 2.2 C 121.2 2.2 121.3 2.7 121.3 2.8 C 121.2 2.9 120.5 3.0 120.4 2.8 C 120.4 2.6 120.3 2.2 120.0 2.1 C 118.8 2.0 119.2 2.9 119.1 3.0 C 119.0 3.0 118.8 2.3 118.5 2.2 C 118.2 2.1 116.0 2.2 116.0 2.3 C 115.9 2.5 115.0 1.9 114.8 2.3 C 114.5 2.7 114.5 2.9 114.4 3.0 C 114.4 3.1 114.1 3.8 113.8 3.5 C 113.6 3.2 114.3 2.5 114.0 2.3 C 113.6 2.1 112.2 2.0 112.1 2.2 C 111.8 2.5 111.9 3.2 111.7 3.2 C 111.5 3.2 110.5 2.3 110.4 2.5 C 110.4 2.6 110.5 3.3 110.5 3.4 C 110.5 3.6 110.6 4.8 110.8 5.0 C 111.0 5.1 112.0 5.6 111.8 5.3 C 111.6 4.9 111.3 4.5 111.5 4.3 C 111.8 4.1 111.9 4.1 112.0 4.2 C 112.1 4.4 112.0 4.5 112.6 4.8 C 113.1 5.0 112.9 5.3 113.4 5.3 C 113.8 5.2 114.2 5.2 114.1 4.9 C 114.0 4.6 114.4 4.2 114.7 4.2 C 115.0 4.3 114.6 4.9 115.7 5.1 C 116.8 5.4 117.4 5.4 117.7 5.2 C 117.9 4.9 117.8 4.2 118.4 4.5 C 118.9 4.9 118.7 5.0 119.4 5.0 C 120.0 5.0 120.2 4.4 120.6 4.4 C 121.0 4.4 121.1 4.4 121.1 4.4 C 121.1 4.4 121.1 5.2 122.0 5.3 C 123.0 5.3 123.2 5.4 122.9 4.8 C 122.6 4.2 123.3 4.2 123.4 4.5 C 123.5 4.9 124.1 5.2 124.4 5.3 C 124.7 5.3 124.7 4.3 124.8 4.3 C 124.9 4.2 125.3 4.3 125.2 4.6 C 125.1 5.0 125.5 5.0 125.8 5.1 C 126.1 5.3 127.0 5.2 126.9 5.0 C 126.9 4.8 126.4 4.1 127.0 4.5 C 127.6 4.8 127.9 5.3 128.4 5.3 C 129.0 5.3 128.4 4.7 128.7 4.5 C 128.7 4.5 128.7 4.5 128.7 4.5 Z M 110.6 5.3 C 111.6 5.3 110.2 2.6 109.7 2.1 C 109.1 1.5 108.5 1.9 107.8 1.8 C 107.1 1.7 107.6 2.5 107.2 2.8 C 106.9 3.0 106.9 2.5 106.6 2.1 C 106.3 1.7 105.4 2.0 104.7 2.0 C 104.1 2.0 103.7 2.8 103.2 2.9 C 102.7 2.9 103.8 3.4 102.9 3.3 C 101.9 3.3 102.2 2.8 103.2 2.5 C 104.2 2.2 102.6 2.0 102.0 1.9 C 101.4 1.8 100.6 2.2 100.1 2.1 C 99.6 2.1 100.4 2.8 99.8 2.8 C 99.1 2.7 99.2 2.0 98.5 1.9 C 97.8 1.8 98.1 2.5 97.8 2.6 C 97.5 2.8 97.5 2.4 97.2 2.3 C 96.9 2.3 96.3 2.1 95.8 2.2 C 95.2 2.4 95.4 2.6 95.2 2.6 C 94.9 2.7 94.4 2.7 94.4 2.7 C 94.3 2.4 94.1 2.2 94.0 2.0 C 94.0 2.0 92.9 1.9 92.5 1.9 C 92.1 1.8 91.5 2.1 91.7 2.3 C 92.0 2.4 91.4 2.9 91.2 2.8 C 91.0 2.7 90.3 2.3 89.8 2.2 C 89.4 2.0 90.2 3.8 90.3 4.0 C 90.4 4.2 90.5 5.2 90.9 5.3 C 91.3 5.4 91.4 5.0 91.4 5.3 C 91.5 5.5 92.4 5.3 92.7 5.3 C 93.0 5.3 93.0 4.6 93.0 4.6 C 93.0 4.6 93.1 4.1 93.6 4.1 C 94.0 4.1 94.6 5.2 94.6 5.2 C 94.6 5.2 95.2 5.4 95.8 5.3 C 96.3 5.3 96.6 4.4 96.6 4.2 C 96.7 4.0 96.9 4.8 97.4 4.9 C 97.8 5.0 98.5 5.3 98.6 5.2 C 98.8 5.2 98.9 4.6 98.9 4.6 C 98.9 4.6 99.5 4.3 99.6 4.3 C 99.8 4.3 99.8 5.1 99.8 5.1 C 99.8 5.1 101.4 5.3 101.7 5.4 C 102.1 5.4 102.5 5.2 102.7 5.2 C 102.9 5.1 102.9 4.1 103.3 4.2 C 103.6 4.3 103.1 4.9 103.5 5.0 C 103.9 5.1 104.5 5.3 104.7 5.3 C 104.9 5.3 105.0 4.9 105.3 4.9 C 105.5 4.8 105.7 4.1 106.1 4.1 C 106.6 4.1 106.9 4.5 107.1 4.6 C 107.3 4.7 107.6 5.4 108.0 5.4 C 108.3 5.4 108.0 5.0 108.3 5.0 C 108.6 5.0 108.5 4.5 108.9 4.6 C 109.2 4.7 109.2 5.5 109.6 5.4 C 109.7 5.3 109.6 5.4 110.6 5.3 C 110.6 5.3 110.6 5.3 110.6 5.3 Z M 88.4 4.5 C 88.6 4.4 89.0 4.9 89.6 5.1 C 90.2 5.2 90.9 5.2 90.6 4.9 C 90.4 4.6 90.1 4.4 90.2 4.0 C 90.4 3.6 90.4 2.9 89.9 2.6 C 89.4 2.4 87.6 1.7 87.2 2.0 C 86.9 2.4 86.8 2.6 86.5 2.8 C 86.3 3.0 86.2 2.2 86.2 2.2 C 86.2 2.2 85.3 2.1 84.6 2.1 C 84.0 2.0 83.2 2.0 83.2 2.1 C 83.2 2.3 83.1 2.6 83.1 2.6 C 83.1 2.6 82.6 2.2 82.1 2.1 C 81.6 2.0 81.9 2.3 82.0 2.4 C 82.2 2.6 83.0 3.1 82.8 3.1 C 82.6 3.1 81.6 2.3 81.3 2.3 C 80.9 2.2 80.2 2.2 80.2 2.2 C 80.2 2.2 80.5 2.7 80.5 2.8 C 80.4 2.9 79.7 3.0 79.6 2.8 C 79.5 2.6 79.4 2.2 79.0 2.1 C 77.8 2.0 78.4 2.9 78.3 3.0 C 78.2 3.0 77.9 2.3 77.6 2.2 C 77.2 2.1 75.0 2.2 75.0 2.3 C 75.0 2.5 73.9 1.9 73.8 2.3 C 73.7 2.7 73.7 2.9 73.7 3.0 C 73.6 3.1 73.6 3.8 73.2 3.5 C 72.9 3.2 73.4 2.5 73.0 2.3 C 72.6 2.1 71.2 2.0 71.1 2.2 C 70.9 2.5 71.1 3.2 71.0 3.2 C 70.8 3.2 69.5 2.3 69.5 2.5 C 69.5 2.6 69.8 3.3 69.9 3.4 C 69.9 3.6 70.4 4.8 70.6 5.0 C 70.9 5.1 72.0 5.6 71.7 5.3 C 71.4 4.9 70.9 4.5 71.1 4.3 C 71.3 4.1 71.5 4.1 71.6 4.2 C 71.8 4.4 71.7 4.5 72.3 4.8 C 72.9 5.0 72.8 5.3 73.2 5.3 C 73.7 5.2 74.1 5.2 73.9 4.9 C 73.7 4.6 74.0 4.2 74.3 4.2 C 74.6 4.3 74.4 4.9 75.5 5.1 C 76.7 5.4 77.4 5.4 77.5 5.2 C 77.7 4.9 77.4 4.2 78.1 4.5 C 78.7 4.9 78.5 5.0 79.2 5.0 C 79.8 5.0 79.8 4.4 80.2 4.4 C 80.6 4.4 80.8 4.4 80.8 4.4 C 80.8 4.4 80.9 5.2 81.9 5.3 C 82.9 5.3 83.1 5.4 82.6 4.8 C 82.1 4.2 82.8 4.2 83.0 4.5 C 83.3 4.9 83.9 5.2 84.3 5.3 C 84.6 5.3 84.3 4.3 84.4 4.3 C 84.5 4.2 84.9 4.3 84.9 4.6 C 84.9 5.0 85.3 5.0 85.7 5.1 C 86.0 5.3 86.8 5.2 86.7 5.0 C 86.7 4.8 85.9 4.1 86.7 4.5 C 87.4 4.8 87.8 5.3 88.3 5.3 C 88.9 5.3 88.1 4.7 88.4 4.5 C 88.4 4.5 88.4 4.5 88.4 4.5 Z M 69.9 5.2 C 70.6 5.5 70.8 5.1 70.5 4.7 C 70.3 4.3 69.6 3.4 69.6 3.1 C 69.6 2.8 69.8 2.1 68.9 2.0 C 68.0 1.8 67.9 2.1 68.1 2.4 C 68.2 2.6 68.6 3.6 68.3 3.5 C 68.0 3.4 67.6 3.1 67.5 3.0 C 67.4 2.9 66.5 1.9 66.1 2.0 C 65.8 2.2 65.6 2.5 65.6 2.5 C 65.4 2.5 65.2 2.5 65.0 2.5 C 65.0 2.5 64.0 1.9 63.7 2.0 C 63.3 2.2 62.8 2.2 62.4 2.1 C 62.0 2.1 61.7 2.2 61.8 2.4 C 61.9 2.6 61.9 3.5 61.9 3.5 C 61.9 3.5 61.5 3.7 61.2 3.6 C 60.9 3.4 60.6 3.0 60.5 2.8 C 60.5 2.6 60.1 2.1 59.7 2.0 C 59.3 1.9 57.5 1.5 57.5 1.8 C 57.4 2.0 57.7 2.4 57.6 2.5 C 57.5 2.6 56.5 2.6 56.3 2.4 C 56.1 2.2 55.8 1.7 55.5 1.7 C 55.3 1.8 54.6 1.6 54.7 1.8 C 54.8 1.9 54.7 2.0 54.9 2.3 C 55.0 2.6 54.6 2.8 54.6 3.0 C 54.5 3.1 54.1 3.1 54.1 3.1 C 53.8 3.0 53.5 2.8 53.2 2.7 C 53.2 2.7 53.2 2.2 53.4 2.1 C 53.5 2.0 53.0 1.7 52.8 1.6 C 52.6 1.6 51.5 1.7 51.5 1.7 C 51.8 2.0 52.0 2.4 52.2 2.8 C 52.0 2.9 51.8 3.0 51.6 3.1 C 51.6 3.1 50.8 1.7 50.3 1.7 C 49.8 1.7 49.1 1.7 49.1 1.7 C 49.1 1.7 48.9 2.2 48.8 2.3 C 48.7 2.3 49.5 3.5 49.5 3.5 C 49.8 4.0 50.2 4.4 50.5 4.9 C 50.5 4.9 51.5 5.4 51.7 5.2 C 51.9 5.0 51.3 4.5 51.2 4.3 C 51.1 4.0 51.4 3.8 51.4 3.8 C 51.8 4.1 52.3 4.3 52.7 4.6 C 52.7 4.6 53.0 4.8 53.4 5.0 C 53.8 5.3 54.7 5.4 54.8 5.3 C 55.0 5.2 55.0 4.9 55.1 4.7 C 55.3 4.4 55.0 4.0 55.5 4.3 C 56.1 4.7 56.5 5.0 56.6 5.0 C 56.8 5.0 57.2 4.6 57.2 4.6 C 57.4 4.5 57.5 4.4 57.7 4.3 C 57.7 4.3 58.1 4.0 58.3 4.3 C 58.6 4.6 59.5 4.3 59.5 4.3 C 59.5 4.3 59.9 5.1 60.3 5.2 C 60.6 5.4 61.2 5.5 61.6 5.4 C 61.9 5.3 61.8 4.5 61.8 4.5 C 62.0 4.7 62.3 4.9 62.6 5.1 C 63.0 5.2 63.5 5.2 64.0 5.3 C 64.0 5.3 64.9 5.2 64.8 5.1 C 64.7 4.9 64.2 4.3 64.2 4.1 C 64.1 3.9 64.5 3.7 64.7 3.9 C 64.9 4.1 65.7 4.8 65.7 4.8 C 65.7 4.8 66.3 5.2 66.6 5.2 C 67.0 5.3 67.3 5.0 67.3 4.9 C 67.3 4.8 67.5 4.3 67.5 4.3 C 67.7 4.5 68.0 4.7 68.2 4.9 C 68.2 4.9 68.8 4.6 69.9 5.2 C 69.9 5.2 69.9 5.2 69.9 5.2 Z M 50.4 5.3 C 51.4 5.3 48.9 2.6 48.1 2.1 C 47.4 1.5 46.9 1.9 46.2 1.8 C 45.4 1.7 46.2 2.5 46.0 2.8 C 45.8 3.0 45.5 2.5 45.1 2.1 C 44.6 1.7 43.8 2.0 43.2 2.0 C 42.5 2.0 42.5 2.8 42.0 2.9 C 41.6 2.9 42.8 3.4 41.9 3.3 C 40.9 3.3 41.0 2.8 41.9 2.5 C 42.7 2.2 41.1 2.0 40.4 1.9 C 39.8 1.8 39.1 2.2 38.6 2.1 C 38.1 2.1 39.2 2.8 38.5 2.8 C 37.9 2.7 37.7 2.0 36.9 1.9 C 36.2 1.8 36.7 2.5 36.5 2.6 C 36.3 2.8 36.1 2.4 35.7 2.3 C 35.4 2.3 34.8 2.1 34.3 2.2 C 33.8 2.4 34.1 2.6 33.9 2.6 C 33.6 2.7 33.1 2.7 33.1 2.7 C 32.9 2.4 32.7 2.2 32.5 2.0 C 32.5 2.0 31.3 1.9 30.9 1.9 C 30.5 1.8 30.0 2.1 30.3 2.3 C 30.6 2.4 30.2 2.9 30.0 2.8 C 29.7 2.7 28.9 2.3 28.3 2.2 C 27.8 2.0 29.4 3.8 29.6 4.0 C 29.7 4.2 30.3 5.2 30.7 5.3 C 31.1 5.4 31.1 5.0 31.3 5.3 C 31.4 5.5 32.2 5.3 32.5 5.3 C 32.8 5.3 32.6 4.6 32.6 4.6 C 32.6 4.6 32.4 4.1 32.9 4.1 C 33.3 4.1 34.4 5.2 34.4 5.2 C 34.4 5.2 35.1 5.4 35.6 5.3 C 36.1 5.3 36.0 4.4 36.0 4.2 C 36.0 4.0 36.6 4.8 37.0 4.9 C 37.5 5.0 38.3 5.3 38.4 5.2 C 38.5 5.2 38.4 4.6 38.4 4.6 C 38.4 4.6 38.9 4.3 39.1 4.3 C 39.2 4.3 39.5 5.1 39.5 5.1 C 39.5 5.1 41.2 5.3 41.6 5.4 C 41.9 5.4 42.3 5.2 42.5 5.2 C 42.7 5.1 42.3 4.1 42.7 4.2 C 43.1 4.3 42.8 4.9 43.2 5.0 C 43.6 5.1 44.4 5.3 44.5 5.3 C 44.7 5.3 44.7 4.9 44.9 4.9 C 45.2 4.8 45.0 4.1 45.5 4.1 C 45.9 4.1 46.5 4.5 46.7 4.6 C 46.9 4.7 47.5 5.4 47.9 5.4 C 48.2 5.4 47.7 5.0 48.0 5.0 C 48.3 5.0 48.0 4.5 48.4 4.6 C 48.8 4.7 49.1 5.5 49.4 5.4 C 49.6 5.3 49.4 5.4 50.4 5.3 C 50.4 5.3 50.4 5.3 50.4 5.3 Z M 29.8 5.2 C 30.6 5.5 30.6 5.1 30.3 4.7 C 29.9 4.3 28.9 3.4 28.9 3.1 C 28.8 2.8 28.8 2.1 27.8 2.0 C 26.9 1.8 26.9 2.1 27.1 2.4 C 27.3 2.6 28.0 3.6 27.7 3.5 C 27.4 3.4 26.9 3.1 26.7 3.0 C 26.6 2.9 25.4 1.9 25.1 2.0 C 24.8 2.2 24.7 2.5 24.7 2.5 C 24.5 2.5 24.3 2.5 24.1 2.5 C 24.1 2.5 23.0 1.9 22.6 2.0 C 22.3 2.2 21.8 2.2 21.4 2.1 C 21.0 2.1 20.7 2.2 20.9 2.4 C 21.0 2.6 21.3 3.5 21.3 3.5 C 21.3 3.5 21.0 3.7 20.6 3.6 C 20.3 3.4 19.8 3.0 19.7 2.8 C 19.6 2.6 19.1 2.1 18.7 2.0 C 18.3 1.9 16.4 1.5 16.4 1.8 C 16.4 2.0 16.8 2.4 16.7 2.5 C 16.6 2.6 15.7 2.6 15.4 2.4 C 15.1 2.2 14.7 1.7 14.4 1.7 C 14.2 1.8 13.5 1.6 13.6 1.8 C 13.7 1.9 13.7 2.0 13.9 2.3 C 14.1 2.6 13.8 2.8 13.8 3.0 C 13.8 3.1 13.4 3.1 13.4 3.1 C 13.1 3.0 12.7 2.8 12.4 2.7 C 12.4 2.7 12.3 2.2 12.3 2.1 C 12.4 2.0 11.8 1.7 11.6 1.6 C 11.4 1.6 10.4 1.7 10.4 1.7 C 10.7 2.0 11.1 2.4 11.4 2.8 C 11.2 2.9 11.0 3.0 10.8 3.1 C 10.8 3.1 9.7 1.7 9.2 1.7 C 8.6 1.7 8.0 1.7 8.0 1.7 C 8.0 1.7 7.9 2.2 7.9 2.3 C 7.8 2.3 8.9 3.5 8.9 3.5 C 9.3 4.0 9.8 4.4 10.3 4.9 C 10.3 4.9 11.4 5.4 11.5 5.2 C 11.7 5.0 10.9 4.5 10.8 4.3 C 10.6 4.0 10.9 3.8 10.9 3.8 C 11.4 4.1 11.9 4.3 12.4 4.6 C 12.4 4.6 12.8 4.8 13.2 5.0 C 13.7 5.3 14.6 5.4 14.7 5.3 C 14.9 5.2 14.8 4.9 14.9 4.7 C 14.9 4.4 14.5 4.0 15.1 4.3 C 15.8 4.7 16.3 5.0 16.4 5.0 C 16.6 5.0 16.9 4.6 16.9 4.6 C 17.0 4.5 17.1 4.4 17.3 4.3 C 17.3 4.3 17.6 4.0 17.9 4.3 C 18.3 4.6 19.1 4.3 19.1 4.3 C 19.1 4.3 19.7 5.1 20.1 5.2 C 20.5 5.4 21.1 5.5 21.5 5.4 C 21.8 5.3 21.4 4.5 21.4 4.5 C 21.8 4.7 22.1 4.9 22.4 5.1 C 22.9 5.2 23.4 5.2 23.8 5.3 C 23.8 5.3 24.8 5.2 24.6 5.1 C 24.5 4.9 23.8 4.3 23.7 4.1 C 23.6 3.9 23.9 3.7 24.2 3.9 C 24.4 4.1 25.4 4.8 25.4 4.8 C 25.4 4.8 26.2 5.2 26.5 5.2 C 26.8 5.3 27.1 5.0 27.1 4.9 C 27.1 4.8 27.1 4.3 27.1 4.3 C 27.4 4.5 27.7 4.7 28.0 4.9 C 28.0 4.9 28.5 4.6 29.8 5.2 C 29.8 5.2 29.8 5.2 29.8 5.2 Z M 10.3 5.3 C 11.3 5.3 8.1 2.6 7.1 2.1 C 6.2 1.5 5.9 1.9 5.1 1.8 C 4.3 1.7 5.3 2.5 5.2 2.8 C 5.0 3.0 4.6 2.5 4.1 2.1 C 3.5 1.7 2.8 2.0 2.1 2.0 C 2.0 2.0 2.0 2.0 1.9 2.0 C 2.1 2.8 2.7 4.0 2.8 4.4 C 2.8 5.0 3.2 4.4 3.2 5.3 C 3.1 6.2 2.6 5.3 2.4 3.9 C 2.1 2.6 1.9 3.9 1.8 4.4 C 1.7 4.9 2.1 6.2 2.0 6.7 C 1.9 7.1 2.6 7.1 2.6 7.7 C 2.6 8.4 1.9 7.5 1.8 8.1 C 1.7 8.7 2.3 9.1 2.5 9.6 C 2.6 10.1 2.2 9.7 2.2 9.9 C 2.1 10.2 1.9 10.5 2.1 11.3 C 2.2 12.0 2.4 12.0 2.5 12.3 C 2.5 12.6 2.5 13.1 2.5 13.1 C 2.3 13.0 2.1 12.9 1.9 12.8 C 1.9 12.8 1.8 13.9 1.8 14.2 C 1.7 14.6 2.0 15.6 2.1 15.4 C 2.3 15.3 2.7 16.4 2.6 16.5 C 2.5 16.6 2.2 17.0 2.1 17.3 C 1.9 17.6 3.6 18.5 3.9 18.6 C 4.1 18.8 5.0 19.5 5.1 19.3 C 5.2 19.0 4.9 18.5 5.1 18.7 C 5.4 18.9 5.1 17.8 5.1 17.6 C 5.1 17.3 4.5 16.6 4.5 16.6 C 4.5 16.6 4.0 15.9 4.0 15.5 C 4.0 15.0 5.0 15.6 5.0 15.6 C 5.0 15.6 5.2 15.2 5.2 14.6 C 5.1 14.1 4.3 12.8 4.1 12.6 C 3.9 12.3 4.7 12.9 4.8 12.6 C 4.9 12.3 5.1 12.0 5.1 11.8 C 5.0 11.6 4.5 10.9 4.5 10.9 C 4.5 10.9 4.2 9.9 4.2 9.7 C 4.2 9.5 5.0 10.5 5.0 10.5 C 5.0 10.5 5.2 9.2 5.2 9.0 C 5.3 8.7 5.1 8.1 5.0 7.8 C 5.0 7.5 4.0 6.3 4.1 6.1 C 4.2 5.8 4.7 7.0 4.8 6.8 C 4.9 6.5 5.1 6.1 5.1 6.0 C 5.1 5.8 4.8 5.3 4.7 4.9 C 4.7 4.9 4.7 4.9 4.7 4.9 C 4.9 4.7 4.6 4.1 5.0 4.1 C 5.5 4.1 6.1 4.5 6.4 4.6 C 6.7 4.7 7.4 5.4 7.8 5.4 C 8.2 5.4 7.5 5.0 7.8 5.0 C 8.1 5.0 7.7 4.5 8.1 4.6 C 8.5 4.7 9.1 5.5 9.4 5.4 C 9.5 5.3 9.4 5.4 10.3 5.3 C 10.3 5.3 10.3 5.3 10.3 5.3 Z M 4.4 21.0 C 4.3 20.7 4.8 20.8 4.9 20.3 C 5.1 19.9 5.1 19.2 4.8 19.2 C 4.5 19.1 4.3 19.2 3.9 18.7 C 3.5 18.2 2.8 17.4 2.5 17.7 C 2.2 17.9 1.5 19.1 1.9 19.9 C 2.3 20.5 2.4 20.8 2.7 21.3 C 2.9 21.8 2.1 21.1 2.1 21.1 C 2.1 21.1 2.0 22.0 2.0 22.6 C 1.9 23.2 1.9 23.9 2.0 24.1 C 2.1 24.2 2.4 24.5 2.4 24.5 C 2.4 24.5 2.1 24.7 2.0 25.2 C 1.9 25.6 2.1 25.5 2.3 25.5 C 2.5 25.5 3.0 25.2 3.0 25.4 C 3.0 25.6 2.2 25.9 2.1 26.2 C 2.1 26.5 2.1 27.3 2.1 27.3 C 2.1 27.3 2.6 27.3 2.7 27.5 C 2.8 27.6 2.8 28.3 2.7 28.3 C 2.5 28.3 2.0 28.1 2.0 28.4 C 1.9 29.6 2.8 29.7 2.8 29.8 C 2.8 29.9 2.2 29.7 2.1 30.0 C 1.9 30.2 2.0 32.5 2.2 32.7 C 2.4 32.8 1.8 33.5 2.2 33.9 C 2.6 34.3 2.7 34.4 2.8 34.5 C 3.0 34.6 3.6 35.1 3.4 35.2 C 3.1 35.4 2.3 34.4 2.1 34.7 C 1.9 34.9 1.9 36.4 2.1 36.6 C 2.4 37.0 3.0 37.1 3.0 37.3 C 3.0 37.5 2.2 38.3 2.3 38.4 C 2.4 38.4 3.2 38.5 3.3 38.5 C 3.4 38.5 4.7 38.8 4.8 38.6 C 5.0 38.5 5.5 37.7 5.1 37.8 C 4.8 37.9 4.3 38.1 4.2 37.8 C 4.0 37.5 4.0 37.3 4.1 37.3 C 4.2 37.2 4.4 37.4 4.6 36.9 C 4.9 36.4 5.2 36.7 5.1 36.3 C 5.1 35.8 5.0 35.4 4.8 35.4 C 4.5 35.5 4.1 34.9 4.1 34.6 C 4.1 34.3 4.7 34.9 5.0 34.0 C 5.2 33.0 5.3 32.4 5.0 32.1 C 4.8 31.7 4.1 31.5 4.4 31.1 C 4.7 30.7 4.9 31.0 4.9 30.4 C 4.9 29.7 4.3 29.3 4.3 28.9 C 4.2 28.5 4.3 28.4 4.3 28.4 C 4.3 28.4 5.1 28.8 5.1 27.9 C 5.2 27.1 5.3 26.9 4.7 26.9 C 4.1 26.9 4.0 26.1 4.4 26.2 C 4.8 26.4 5.1 25.9 5.1 25.6 C 5.2 25.3 4.2 24.8 4.1 24.7 C 4.1 24.6 4.2 24.2 4.5 24.5 C 4.8 24.8 4.9 24.4 5.0 24.2 C 5.1 24.0 5.0 23.1 4.9 23.0 C 4.7 23.0 4.0 23.1 4.3 22.6 C 4.7 22.2 5.2 22.3 5.2 21.8 C 5.1 21.2 4.5 21.4 4.4 21.0 C 4.4 21.0 4.4 21.0 4.4 21.0 Z M 4.4 21.0 " fill="#FEFFFE"></path></g></svg>