<?xml version="1.0" encoding="UTF-8" standalone="no"?><svg xmlns="http://www.w3.org/2000/svg" xmlns:xlink="http://www.w3.org/1999/xlink" clip-rule="evenodd" stroke-miterlimit="10" viewBox="0 0 296 42"><desc>SVG generated by Keynote</desc><defs></defs><g transform="matrix(1.00, 0.00, -0.00, -1.00, 0.0, 42.0)"><path d="M 5.3 37.5 C 5.1 37.6 4.9 37.1 4.4 37.0 C 3.8 36.8 3.1 36.8 3.3 37.1 C 3.4 37.4 3.6 37.6 3.3 38.0 C 3.0 38.4 2.7 39.1 3.1 39.4 C 3.5 39.6 5.0 40.4 5.5 40.0 C 6.0 39.6 6.2 39.5 6.5 39.2 C 6.9 39.0 6.6 39.8 6.6 39.8 C 6.6 39.8 7.5 39.9 8.1 39.9 C 8.7 40.0 9.5 40.0 9.5 39.9 C 9.6 39.7 9.8 39.5 9.8 39.5 C 9.8 39.5 10.2 39.8 10.6 39.9 C 11.1 40.0 10.9 39.8 10.8 39.6 C 10.8 39.4 10.2 38.9 10.4 38.9 C 10.6 38.9 11.2 39.7 11.5 39.8 C 11.9 39.8 12.6 39.8 12.6 39.8 C 12.6 39.8 12.5 39.3 12.6 39.2 C 12.6 39.1 13.4 39.1 13.4 39.2 C 13.4 39.4 13.4 39.9 13.7 39.9 C 14.9 40.0 14.7 39.1 14.8 39.1 C 14.9 39.0 14.9 39.7 15.2 39.8 C 15.5 39.9 17.7 39.8 17.8 39.7 C 17.9 39.5 18.7 40.1 19.0 39.7 C 19.3 39.3 19.4 39.1 19.4 39.0 C 19.5 38.9 19.9 38.3 20.1 38.5 C 20.3 38.8 19.5 39.5 19.8 39.8 C 20.0 40.0 21.4 40.0 21.7 39.8 C 22.0 39.5 22.0 38.9 22.2 38.9 C 22.4 38.9 23.3 39.7 23.3 39.6 C 23.4 39.4 23.4 38.7 23.4 38.6 C 23.4 38.5 23.6 37.2 23.4 37.0 C 23.2 36.9 22.4 36.4 22.5 36.8 C 22.6 37.1 22.8 37.6 22.6 37.7 C 22.3 37.9 22.1 37.9 22.1 37.8 C 22.0 37.6 22.1 37.5 21.6 37.3 C 21.1 37.0 21.4 36.7 20.9 36.8 C 20.5 36.8 20.0 36.9 20.1 37.1 C 20.2 37.4 19.7 37.8 19.4 37.8 C 19.0 37.8 19.6 37.1 18.5 36.9 C 17.5 36.7 16.8 36.6 16.5 36.8 C 16.3 37.1 16.2 37.8 15.7 37.5 C 15.2 37.2 15.5 37.0 14.8 37.0 C 14.2 37.0 13.9 37.6 13.5 37.6 C 13.1 37.6 13.0 37.6 13.0 37.6 C 13.0 37.6 13.2 36.8 12.2 36.7 C 11.3 36.7 11.1 36.6 11.3 37.2 C 11.5 37.8 10.8 37.9 10.7 37.5 C 10.7 37.1 10.1 36.8 9.8 36.8 C 9.5 36.7 9.4 37.7 9.3 37.8 C 9.1 37.8 8.7 37.7 8.9 37.4 C 9.0 37.1 8.7 37.0 8.4 36.9 C 8.1 36.7 7.2 36.9 7.2 37.0 C 7.2 37.2 7.7 37.9 7.1 37.5 C 6.5 37.2 6.3 36.7 5.7 36.7 C 5.2 36.7 5.7 37.4 5.3 37.5 C 5.3 37.5 5.3 37.5 5.3 37.5 Z M 23.7 36.7 C 22.7 36.8 23.6 39.4 24.0 39.9 C 24.4 40.5 25.1 40.1 25.8 40.2 C 26.5 40.3 26.2 39.5 26.6 39.2 C 26.9 39.0 26.8 39.5 27.0 39.9 C 27.2 40.3 28.3 40.0 28.9 40.0 C 29.5 40.1 30.1 39.2 30.6 39.1 C 31.1 39.1 30.1 38.7 31.0 38.7 C 31.9 38.8 31.5 39.2 30.5 39.5 C 29.5 39.8 31.0 40.0 31.6 40.1 C 32.1 40.2 33.1 39.8 33.5 39.9 C 34.0 39.9 33.3 39.2 34.0 39.3 C 34.7 39.3 34.4 40.0 35.1 40.1 C 35.8 40.2 35.6 39.5 35.9 39.4 C 36.2 39.2 36.2 39.6 36.5 39.7 C 36.8 39.7 37.3 39.9 37.9 39.8 C 38.5 39.6 38.3 39.4 38.6 39.4 C 38.8 39.4 39.4 39.4 39.4 39.4 C 39.4 39.6 39.5 39.8 39.5 40.0 C 39.5 40.0 40.7 40.1 41.0 40.1 C 41.4 40.2 42.1 39.9 41.9 39.7 C 41.7 39.6 42.4 39.2 42.6 39.2 C 42.7 39.4 43.4 39.7 43.8 39.8 C 44.2 40.0 43.8 38.3 43.8 38.0 C 43.8 37.8 43.9 36.9 43.5 36.8 C 43.2 36.7 42.9 37.0 43.0 36.8 C 43.0 36.5 42.0 36.8 41.7 36.8 C 41.4 36.8 41.2 37.4 41.2 37.4 C 41.2 37.4 41.0 37.9 40.5 37.9 C 40.1 37.9 39.8 36.9 39.8 36.9 C 39.8 36.9 39.2 36.7 38.6 36.7 C 38.1 36.8 37.6 37.6 37.5 37.8 C 37.4 38.0 37.3 37.2 36.9 37.1 C 36.5 37.0 35.9 36.8 35.7 36.8 C 35.6 36.9 35.3 37.4 35.3 37.4 C 35.3 37.4 34.6 37.7 34.5 37.7 C 34.3 37.7 34.5 36.9 34.5 36.9 C 34.5 36.9 33.0 36.7 32.6 36.6 C 32.3 36.6 31.8 36.8 31.6 36.8 C 31.4 36.9 31.2 37.9 30.8 37.8 C 30.5 37.7 31.1 37.2 30.8 37.0 C 30.4 37.0 29.8 36.8 29.6 36.8 C 29.4 36.8 29.2 37.1 29.0 37.2 C 28.7 37.2 28.4 37.9 27.9 37.9 C 27.5 37.9 27.2 37.5 27.0 37.4 C 26.9 37.3 26.7 36.7 26.3 36.6 C 26.0 36.6 26.3 37.0 25.9 37.0 C 25.6 37.0 25.6 37.5 25.3 37.4 C 24.9 37.3 25.1 36.5 24.7 36.7 C 24.6 36.7 24.7 36.7 23.7 36.7 C 23.7 36.7 23.7 36.7 23.7 36.7 Z M 44.4 36.8 C 43.8 36.5 43.5 36.9 43.6 37.3 C 43.7 37.7 44.0 38.6 43.9 38.9 C 43.7 39.2 43.2 39.9 44.1 40.0 C 45.0 40.2 45.1 39.9 45.1 39.7 C 45.1 39.4 45.1 38.4 45.3 38.5 C 45.6 38.6 45.9 38.9 45.9 39.0 C 46.0 39.2 46.5 40.1 46.9 40.0 C 47.3 39.9 47.6 39.6 47.6 39.6 C 47.8 39.6 48.0 39.5 48.2 39.5 C 48.2 39.5 48.9 40.1 49.3 40.0 C 49.8 39.9 50.3 39.9 50.7 39.9 C 51.0 39.9 51.3 39.9 51.4 39.6 C 51.4 39.4 51.7 38.6 51.7 38.6 C 51.7 38.6 52.2 38.3 52.4 38.5 C 52.7 38.6 52.8 39.1 52.8 39.3 C 52.8 39.4 52.9 39.9 53.3 40.0 C 53.6 40.1 55.2 40.5 55.4 40.3 C 55.6 40.0 55.4 39.6 55.6 39.5 C 55.7 39.4 56.7 39.4 56.8 39.6 C 57.0 39.9 57.0 40.4 57.3 40.3 C 57.6 40.3 58.2 40.4 58.1 40.3 C 58.1 40.1 58.3 40.0 58.2 39.7 C 58.2 39.4 58.7 39.2 58.8 39.1 C 58.9 38.9 59.4 38.9 59.4 38.9 C 59.6 39.0 59.8 39.2 60.0 39.3 C 60.0 39.3 59.8 39.9 59.6 39.9 C 59.5 40.0 59.8 40.4 60.0 40.4 C 60.2 40.5 61.3 40.4 61.3 40.4 C 61.2 40.0 61.1 39.6 61.1 39.2 C 61.3 39.1 61.6 39.1 61.8 39.0 C 61.8 39.0 62.0 40.3 62.5 40.3 C 63.0 40.3 63.7 40.3 63.7 40.3 C 63.7 40.3 64.1 39.8 64.2 39.8 C 64.3 39.7 64.2 38.5 64.2 38.5 C 64.0 38.1 63.9 37.6 63.7 37.1 C 63.7 37.1 63.0 36.7 62.7 36.8 C 62.4 37.0 62.8 37.5 62.8 37.8 C 62.8 38.0 62.3 38.2 62.3 38.2 C 62.0 38.0 61.7 37.7 61.5 37.4 C 61.5 37.4 61.2 37.2 60.9 37.0 C 60.7 36.7 59.8 36.6 59.6 36.7 C 59.4 36.8 59.2 37.1 59.0 37.4 C 58.8 37.6 58.9 38.0 58.5 37.7 C 58.1 37.4 57.9 37.0 57.7 37.0 C 57.5 37.0 56.9 37.4 56.9 37.4 C 56.7 37.6 56.5 37.7 56.3 37.8 C 56.3 37.8 55.8 38.0 55.7 37.7 C 55.5 37.4 54.5 37.8 54.5 37.8 C 54.5 37.8 54.4 36.9 54.1 36.8 C 53.8 36.7 53.3 36.5 52.9 36.6 C 52.5 36.7 52.3 37.5 52.3 37.5 C 52.1 37.3 51.9 37.1 51.7 36.9 C 51.3 36.9 50.9 36.8 50.4 36.7 C 50.4 36.7 49.5 36.8 49.5 36.9 C 49.5 37.1 49.7 37.8 49.7 38.0 C 49.7 38.1 49.2 38.4 49.1 38.1 C 49.0 37.9 48.5 37.3 48.5 37.3 C 48.5 37.3 48.0 36.8 47.7 36.8 C 47.4 36.7 47.0 37.0 46.9 37.1 C 46.8 37.3 46.4 37.8 46.4 37.8 C 46.3 37.6 46.1 37.3 46.0 37.1 C 46.0 37.1 45.2 37.4 44.4 36.8 C 44.4 36.8 44.4 36.8 44.4 36.8 Z M 64.1 36.7 C 63.1 36.8 64.3 39.4 64.8 39.9 C 65.3 40.5 65.9 40.1 66.6 40.2 C 67.3 40.3 66.9 39.5 67.3 39.2 C 67.6 39.0 67.6 39.5 67.8 39.9 C 68.1 40.3 69.1 40.0 69.7 40.0 C 70.3 40.1 70.8 39.2 71.3 39.1 C 71.8 39.1 70.7 38.7 71.7 38.7 C 72.6 38.8 72.2 39.2 71.3 39.5 C 70.3 39.8 71.8 40.0 72.4 40.1 C 73.0 40.2 73.9 39.8 74.3 39.9 C 74.8 39.9 74.1 39.2 74.7 39.3 C 75.4 39.3 75.2 40.0 75.9 40.1 C 76.6 40.2 76.3 39.5 76.6 39.4 C 76.9 39.2 77.0 39.6 77.3 39.7 C 77.6 39.7 78.1 39.9 78.7 39.8 C 79.2 39.6 79.0 39.4 79.3 39.4 C 79.6 39.4 80.1 39.4 80.1 39.4 C 80.2 39.6 80.3 39.8 80.4 40.0 C 80.4 40.0 81.5 40.1 81.9 40.1 C 82.2 40.2 82.9 39.9 82.7 39.7 C 82.4 39.6 83.1 39.2 83.3 39.2 C 83.5 39.4 84.1 39.7 84.6 39.8 C 85.0 40.0 84.4 38.3 84.3 38.0 C 84.3 37.8 84.2 36.9 83.9 36.8 C 83.5 36.7 83.3 37.0 83.3 36.8 C 83.3 36.5 82.3 36.8 82.1 36.8 C 81.8 36.8 81.6 37.4 81.6 37.4 C 81.6 37.4 81.5 37.9 81.0 37.9 C 80.6 37.9 80.1 36.9 80.1 36.9 C 80.1 36.9 79.5 36.7 79.0 36.7 C 78.4 36.8 78.0 37.6 78.0 37.8 C 77.9 38.0 77.7 37.2 77.3 37.1 C 76.9 37.0 76.2 36.8 76.1 36.8 C 75.9 36.9 75.8 37.4 75.8 37.4 C 75.8 37.4 75.1 37.7 75.0 37.7 C 74.8 37.7 74.9 36.9 74.9 36.9 C 74.9 36.9 73.3 36.7 73.0 36.6 C 72.7 36.6 72.2 36.8 72.0 36.8 C 71.8 36.9 71.7 37.9 71.3 37.8 C 71.0 37.7 71.5 37.2 71.2 37.0 C 70.8 37.0 70.1 36.8 70.0 36.8 C 69.8 36.8 69.7 37.1 69.4 37.2 C 69.1 37.2 68.9 37.9 68.4 37.9 C 68.0 37.9 67.7 37.5 67.5 37.4 C 67.3 37.3 67.0 36.7 66.7 36.6 C 66.3 36.6 66.7 37.0 66.3 37.0 C 66.0 37.0 66.1 37.5 65.7 37.4 C 65.4 37.3 65.4 36.5 65.1 36.7 C 64.9 36.7 65.1 36.7 64.1 36.7 C 64.1 36.7 64.1 36.7 64.1 36.7 Z M 84.7 36.8 C 84.2 36.5 83.8 36.9 84.0 37.3 C 84.2 37.7 84.6 38.6 84.5 38.9 C 84.4 39.2 84.0 39.9 84.9 40.0 C 85.8 40.2 85.9 39.9 85.9 39.7 C 85.8 39.4 85.7 38.4 86.0 38.5 C 86.2 38.6 86.5 38.9 86.6 39.0 C 86.7 39.2 87.3 40.1 87.7 40.0 C 88.1 39.9 88.4 39.6 88.4 39.6 C 88.6 39.6 88.8 39.5 89.0 39.5 C 89.0 39.5 89.7 40.1 90.2 40.0 C 90.6 39.9 91.1 39.9 91.5 39.9 C 91.8 39.9 92.1 39.9 92.1 39.6 C 92.1 39.4 92.3 38.6 92.3 38.6 C 92.3 38.6 92.7 38.3 93.0 38.5 C 93.3 38.6 93.5 39.1 93.5 39.3 C 93.5 39.4 93.7 39.9 94.1 40.0 C 94.4 40.1 96.1 40.5 96.2 40.3 C 96.4 40.0 96.2 39.6 96.3 39.5 C 96.5 39.4 97.4 39.4 97.6 39.6 C 97.8 39.9 97.9 40.4 98.1 40.3 C 98.4 40.3 99.0 40.4 99.0 40.3 C 98.9 40.1 99.1 40.0 99.0 39.7 C 98.9 39.4 99.4 39.2 99.5 39.1 C 99.6 38.9 100.0 38.9 100.0 38.9 C 100.3 39.0 100.5 39.2 100.7 39.3 C 100.7 39.3 100.6 39.9 100.4 39.9 C 100.3 40.0 100.7 40.4 100.9 40.4 C 101.1 40.5 102.1 40.4 102.1 40.4 C 102.0 40.0 101.9 39.6 101.8 39.2 C 102.0 39.1 102.3 39.1 102.5 39.0 C 102.5 39.0 102.9 40.3 103.4 40.3 C 103.9 40.3 104.5 40.3 104.5 40.3 C 104.5 40.3 104.9 39.8 105.0 39.8 C 105.1 39.7 104.8 38.5 104.8 38.5 C 104.6 38.1 104.4 37.6 104.1 37.1 C 104.1 37.1 103.4 36.7 103.1 36.8 C 102.8 37.0 103.3 37.5 103.3 37.8 C 103.3 38.0 102.9 38.2 102.9 38.2 C 102.6 38.0 102.2 37.7 101.9 37.4 C 101.9 37.4 101.6 37.2 101.3 37.0 C 101.0 36.7 100.2 36.6 100.0 36.7 C 99.8 36.8 99.7 37.1 99.5 37.4 C 99.2 37.6 99.4 38.0 99.0 37.7 C 98.5 37.4 98.2 37.0 98.1 37.0 C 97.9 37.0 97.3 37.4 97.3 37.4 C 97.1 37.6 97.0 37.7 96.8 37.8 C 96.8 37.8 96.3 38.0 96.2 37.7 C 96.0 37.4 95.0 37.8 95.0 37.8 C 95.0 37.8 94.8 36.9 94.5 36.8 C 94.2 36.7 93.7 36.5 93.2 36.6 C 92.8 36.7 92.7 37.5 92.7 37.5 C 92.5 37.3 92.3 37.1 92.1 36.9 C 91.7 36.9 91.2 36.8 90.8 36.7 C 90.8 36.7 89.8 36.8 89.9 36.9 C 89.9 37.1 90.2 37.8 90.2 38.0 C 90.2 38.1 89.8 38.4 89.7 38.1 C 89.5 37.9 88.9 37.3 88.9 37.3 C 88.9 37.3 88.4 36.8 88.1 36.8 C 87.8 36.7 87.4 37.0 87.3 37.1 C 87.2 37.3 86.9 37.8 86.9 37.8 C 86.7 37.6 86.6 37.3 86.4 37.1 C 86.4 37.1 85.7 37.4 84.7 36.8 C 84.7 36.8 84.7 36.8 84.7 36.8 Z M 104.4 36.7 C 103.4 36.8 105.0 39.4 105.6 39.9 C 106.2 40.5 106.8 40.1 107.5 40.2 C 108.2 40.3 107.7 39.5 108.0 39.2 C 108.3 39.0 108.3 39.5 108.6 39.9 C 109.0 40.3 109.9 40.0 110.5 40.0 C 111.2 40.1 111.5 39.2 112.0 39.1 C 112.5 39.1 111.4 38.7 112.3 38.7 C 113.2 38.8 112.9 39.2 112.0 39.5 C 111.1 39.8 112.6 40.0 113.2 40.1 C 113.8 40.2 114.6 39.8 115.1 39.9 C 115.6 39.9 114.8 39.2 115.4 39.3 C 116.1 39.3 116.0 40.0 116.7 40.1 C 117.4 40.2 117.1 39.5 117.4 39.4 C 117.7 39.2 117.7 39.6 118.0 39.7 C 118.3 39.7 118.9 39.9 119.4 39.8 C 120.0 39.6 119.8 39.4 120.0 39.4 C 120.3 39.4 120.8 39.4 120.8 39.4 C 120.9 39.6 121.0 39.8 121.2 40.0 C 121.2 40.0 122.3 40.1 122.7 40.1 C 123.1 40.2 123.7 39.9 123.4 39.7 C 123.2 39.6 123.8 39.2 124.0 39.2 C 124.2 39.4 124.9 39.7 125.4 39.8 C 125.8 40.0 125.0 38.3 124.9 38.0 C 124.8 37.8 124.6 36.9 124.2 36.8 C 123.8 36.7 123.7 37.0 123.7 36.8 C 123.6 36.5 122.7 36.8 122.4 36.8 C 122.1 36.8 122.1 37.4 122.1 37.4 C 122.1 37.4 122.0 37.9 121.6 37.9 C 121.1 37.9 120.5 36.9 120.5 36.9 C 120.5 36.9 119.9 36.7 119.3 36.7 C 118.8 36.8 118.5 37.6 118.5 37.8 C 118.5 38.0 118.1 37.2 117.7 37.1 C 117.3 37.0 116.6 36.8 116.5 36.8 C 116.3 36.9 116.2 37.4 116.2 37.4 C 116.2 37.4 115.6 37.7 115.5 37.7 C 115.3 37.7 115.3 36.9 115.3 36.9 C 115.3 36.9 113.7 36.7 113.3 36.6 C 113.0 36.6 112.6 36.8 112.4 36.8 C 112.2 36.9 112.2 37.9 111.8 37.8 C 111.5 37.7 111.9 37.2 111.6 37.0 C 111.2 37.0 110.5 36.8 110.3 36.8 C 110.2 36.8 110.1 37.1 109.8 37.2 C 109.5 37.2 109.4 37.9 109.0 37.9 C 108.5 37.9 108.1 37.5 107.9 37.4 C 107.7 37.3 107.4 36.7 107.0 36.6 C 106.6 36.6 107.1 37.0 106.7 37.0 C 106.4 37.0 106.6 37.5 106.2 37.4 C 105.8 37.3 105.7 36.5 105.4 36.7 C 105.3 36.7 105.4 36.7 104.4 36.7 C 104.4 36.7 104.4 36.7 104.4 36.7 Z M 126.7 37.5 C 126.5 37.6 126.2 37.1 125.5 37.0 C 124.9 36.8 124.2 36.8 124.5 37.1 C 124.7 37.4 125.0 37.6 124.9 38.0 C 124.8 38.4 124.7 39.1 125.2 39.4 C 125.8 39.6 127.6 40.4 127.9 40.0 C 128.3 39.6 128.4 39.5 128.6 39.2 C 128.9 39.0 129.0 39.8 129.0 39.8 C 129.0 39.8 129.9 39.9 130.5 39.9 C 131.2 40.0 131.9 40.0 131.9 39.9 C 131.9 39.7 132.0 39.5 132.0 39.5 C 132.0 39.5 132.5 39.8 133.0 39.9 C 133.5 40.0 133.3 39.8 133.1 39.6 C 132.9 39.4 132.2 38.9 132.4 38.9 C 132.6 38.9 133.5 39.7 133.9 39.8 C 134.2 39.8 134.9 39.8 134.9 39.8 C 134.9 39.8 134.7 39.3 134.7 39.2 C 134.7 39.1 135.4 39.1 135.5 39.2 C 135.6 39.4 135.8 39.9 136.1 39.9 C 137.3 40.0 136.8 39.1 136.8 39.1 C 136.9 39.0 137.2 39.7 137.6 39.8 C 137.9 39.9 140.1 39.8 140.1 39.7 C 140.1 39.5 141.2 40.1 141.3 39.7 C 141.4 39.3 141.5 39.1 141.5 39.0 C 141.5 38.9 141.6 38.3 141.9 38.5 C 142.2 38.8 141.7 39.5 142.1 39.8 C 142.5 40.0 143.9 40.0 144.0 39.8 C 144.2 39.5 144.0 38.9 144.2 38.9 C 144.4 38.9 145.6 39.7 145.6 39.6 C 145.6 39.4 145.3 38.7 145.3 38.6 C 145.2 38.5 144.8 37.2 144.6 37.0 C 144.3 36.9 143.3 36.4 143.6 36.8 C 143.8 37.1 144.3 37.6 144.0 37.7 C 143.8 37.9 143.7 37.9 143.5 37.8 C 143.4 37.6 143.5 37.5 142.9 37.3 C 142.3 37.0 142.4 36.7 142.0 36.8 C 141.5 36.8 141.2 36.9 141.3 37.1 C 141.5 37.4 141.2 37.8 140.9 37.8 C 140.5 37.8 140.8 37.1 139.6 36.9 C 138.5 36.7 137.8 36.6 137.6 36.8 C 137.5 37.1 137.7 37.8 137.1 37.5 C 136.5 37.2 136.6 37.0 136.0 37.0 C 135.3 37.0 135.3 37.6 134.9 37.6 C 134.5 37.6 134.4 37.6 134.4 37.6 C 134.4 37.6 134.2 36.8 133.3 36.7 C 132.3 36.7 132.1 36.6 132.5 37.2 C 133.0 37.8 132.3 37.9 132.1 37.5 C 131.9 37.1 131.2 36.8 130.9 36.8 C 130.5 36.7 130.9 37.7 130.7 37.8 C 130.6 37.8 130.2 37.7 130.2 37.4 C 130.2 37.1 129.8 37.0 129.5 36.9 C 129.1 36.7 128.3 36.9 128.4 37.0 C 128.5 37.2 129.2 37.9 128.5 37.5 C 127.7 37.2 127.3 36.7 126.8 36.7 C 126.3 36.7 127.0 37.4 126.7 37.5 C 126.7 37.5 126.7 37.5 126.7 37.5 Z M 145.3 36.8 C 144.6 36.5 144.4 36.9 144.7 37.3 C 144.9 37.7 145.5 38.6 145.5 38.9 C 145.5 39.2 145.2 39.9 146.2 40.0 C 147.1 40.2 147.1 39.9 147.0 39.7 C 146.9 39.4 146.6 38.4 146.9 38.5 C 147.1 38.6 147.5 38.9 147.6 39.0 C 147.7 39.2 148.6 40.1 148.9 40.0 C 149.3 39.9 149.5 39.6 149.5 39.6 C 149.7 39.6 149.9 39.5 150.1 39.5 C 150.1 39.5 151.0 40.1 151.4 40.0 C 151.8 39.9 152.3 39.9 152.7 39.9 C 153.0 39.9 153.3 39.9 153.3 39.6 C 153.2 39.4 153.2 38.6 153.2 38.6 C 153.2 38.6 153.6 38.3 153.9 38.5 C 154.2 38.6 154.5 39.1 154.6 39.3 C 154.6 39.4 154.9 39.9 155.3 40.0 C 155.7 40.1 157.4 40.5 157.5 40.3 C 157.6 40.0 157.3 39.6 157.4 39.5 C 157.6 39.4 158.5 39.4 158.7 39.6 C 158.9 39.9 159.2 40.4 159.4 40.3 C 159.7 40.3 160.3 40.4 160.3 40.3 C 160.2 40.1 160.3 40.0 160.2 39.7 C 160.0 39.4 160.5 39.2 160.5 39.1 C 160.6 38.9 161.0 38.9 161.0 38.9 C 161.3 39.0 161.5 39.2 161.8 39.3 C 161.8 39.3 161.8 39.9 161.6 39.9 C 161.5 40.0 162.0 40.4 162.2 40.4 C 162.4 40.5 163.4 40.4 163.4 40.4 C 163.2 40.0 163.0 39.6 162.8 39.2 C 163.1 39.1 163.3 39.1 163.5 39.0 C 163.5 39.0 164.1 40.3 164.7 40.3 C 165.2 40.3 165.8 40.3 165.8 40.3 C 165.8 40.3 166.1 39.8 166.2 39.8 C 166.3 39.7 165.7 38.5 165.7 38.5 C 165.4 38.1 165.1 37.6 164.8 37.1 C 164.8 37.1 163.9 36.7 163.6 36.8 C 163.4 37.0 164.0 37.5 164.0 37.8 C 164.1 38.0 163.7 38.2 163.7 38.2 C 163.4 38.0 163.0 37.7 162.6 37.4 C 162.6 37.4 162.3 37.2 161.9 37.0 C 161.5 36.7 160.7 36.6 160.5 36.7 C 160.3 36.8 160.3 37.1 160.1 37.4 C 159.9 37.6 160.2 38.0 159.7 37.7 C 159.2 37.4 158.8 37.0 158.7 37.0 C 158.5 37.0 158.0 37.4 158.0 37.4 C 157.8 37.6 157.7 37.7 157.5 37.8 C 157.5 37.8 157.1 38.0 156.9 37.7 C 156.7 37.4 155.7 37.8 155.7 37.8 C 155.7 37.8 155.4 36.9 155.0 36.8 C 154.7 36.7 154.1 36.5 153.7 36.6 C 153.4 36.7 153.4 37.5 153.4 37.5 C 153.2 37.3 152.9 37.1 152.7 36.9 C 152.2 36.9 151.8 36.8 151.3 36.7 C 151.3 36.7 150.4 36.8 150.4 36.9 C 150.5 37.1 151.0 37.8 151.0 38.0 C 151.1 38.1 150.7 38.4 150.5 38.1 C 150.3 37.9 149.5 37.3 149.5 37.3 C 149.5 37.3 148.9 36.8 148.6 36.8 C 148.3 36.7 148.0 37.0 147.9 37.1 C 147.9 37.3 147.7 37.8 147.7 37.8 C 147.4 37.6 147.2 37.3 147.0 37.1 C 147.0 37.1 146.4 37.4 145.3 36.8 C 145.3 36.8 145.3 36.8 145.3 36.8 Z M 164.9 36.7 C 164.0 36.8 166.1 39.4 166.8 39.9 C 167.5 40.5 168.0 40.1 168.7 40.2 C 169.5 40.3 168.8 39.5 169.0 39.2 C 169.3 39.0 169.5 39.5 169.9 39.9 C 170.2 40.3 171.1 40.0 171.7 40.0 C 172.4 40.1 172.5 39.2 173.0 39.1 C 173.5 39.1 172.3 38.7 173.2 38.7 C 174.2 38.8 174.0 39.2 173.1 39.5 C 172.2 39.8 173.8 40.0 174.5 40.1 C 175.1 40.2 175.8 39.8 176.3 39.9 C 176.8 39.9 175.8 39.2 176.5 39.3 C 177.1 39.3 177.2 40.0 177.9 40.1 C 178.7 40.2 178.2 39.5 178.5 39.4 C 178.7 39.2 178.9 39.6 179.2 39.7 C 179.5 39.7 180.1 39.9 180.6 39.8 C 181.1 39.6 180.9 39.4 181.1 39.4 C 181.4 39.4 181.9 39.4 181.9 39.4 C 182.0 39.6 182.2 39.8 182.4 40.0 C 182.4 40.0 183.6 40.1 183.9 40.1 C 184.3 40.2 184.9 39.9 184.6 39.7 C 184.3 39.6 184.8 39.2 185.0 39.2 C 185.3 39.4 186.0 39.7 186.5 39.8 C 187.0 40.0 185.8 38.3 185.7 38.0 C 185.5 37.8 185.2 36.9 184.8 36.8 C 184.4 36.7 184.3 37.0 184.2 36.8 C 184.1 36.5 183.2 36.8 183.0 36.8 C 182.7 36.8 182.7 37.4 182.7 37.4 C 182.7 37.4 182.8 37.9 182.3 37.9 C 181.9 37.9 181.1 36.9 181.1 36.9 C 181.1 36.9 180.4 36.7 179.8 36.7 C 179.3 36.8 179.2 37.6 179.2 37.8 C 179.3 38.0 178.8 37.2 178.3 37.1 C 177.9 37.0 177.1 36.8 177.0 36.8 C 176.9 36.9 176.9 37.4 176.9 37.4 C 176.9 37.4 176.4 37.7 176.2 37.7 C 176.0 37.7 175.8 36.9 175.8 36.9 C 175.8 36.9 174.2 36.7 173.8 36.6 C 173.5 36.6 173.1 36.8 172.9 36.8 C 172.7 36.9 173.0 37.9 172.6 37.8 C 172.2 37.7 172.5 37.2 172.1 37.0 C 171.8 37.0 171.0 36.8 170.9 36.8 C 170.7 36.8 170.7 37.1 170.4 37.2 C 170.2 37.2 170.2 37.9 169.7 37.9 C 169.3 37.9 168.8 37.5 168.6 37.4 C 168.4 37.3 167.9 36.7 167.5 36.6 C 167.1 36.6 167.7 37.0 167.3 37.0 C 167.0 37.0 167.3 37.5 166.9 37.4 C 166.5 37.3 166.2 36.5 165.9 36.7 C 165.8 36.7 165.9 36.7 164.9 36.7 C 164.9 36.7 164.9 36.7 164.9 36.7 Z M 185.7 36.8 C 184.9 36.5 184.8 36.9 185.1 37.3 C 185.4 37.7 186.2 38.6 186.2 38.9 C 186.2 39.2 186.0 39.9 187.0 40.0 C 187.9 40.2 187.9 39.9 187.8 39.7 C 187.6 39.4 187.2 38.4 187.5 38.5 C 187.7 38.6 188.1 38.9 188.3 39.0 C 188.4 39.2 189.4 40.1 189.7 40.0 C 190.0 39.9 190.2 39.6 190.2 39.6 C 190.4 39.6 190.6 39.5 190.9 39.5 C 190.9 39.5 191.8 40.1 192.2 40.0 C 192.6 39.9 193.1 39.9 193.4 39.9 C 193.8 39.9 194.1 39.9 194.0 39.6 C 193.9 39.4 193.8 38.6 193.8 38.6 C 193.8 38.6 194.2 38.3 194.5 38.5 C 194.8 38.6 195.2 39.1 195.3 39.3 C 195.3 39.4 195.7 39.9 196.1 40.0 C 196.5 40.1 198.3 40.5 198.3 40.3 C 198.4 40.0 198.1 39.6 198.2 39.5 C 198.3 39.4 199.3 39.4 199.5 39.6 C 199.7 39.9 200.0 40.4 200.3 40.3 C 200.5 40.3 201.2 40.4 201.1 40.3 C 201.0 40.1 201.1 40.0 200.9 39.7 C 200.8 39.4 201.2 39.2 201.2 39.1 C 201.2 38.9 201.6 38.9 201.6 38.9 C 201.9 39.0 202.2 39.2 202.5 39.3 C 202.5 39.3 202.5 39.9 202.4 39.9 C 202.3 40.0 202.8 40.4 203.0 40.4 C 203.2 40.5 204.3 40.4 204.3 40.4 C 204.0 40.0 203.8 39.6 203.5 39.2 C 203.7 39.1 204.0 39.1 204.2 39.0 C 204.2 39.0 205.0 40.3 205.5 40.3 C 206.0 40.3 206.7 40.3 206.7 40.3 C 206.7 40.3 206.8 39.8 206.9 39.8 C 207.0 39.7 206.3 38.5 206.3 38.5 C 205.9 38.1 205.5 37.6 205.2 37.1 C 205.2 37.1 204.2 36.7 204.0 36.8 C 203.8 37.0 204.4 37.5 204.5 37.8 C 204.6 38.0 204.3 38.2 204.3 38.2 C 203.9 38.0 203.5 37.7 203.0 37.4 C 203.0 37.4 202.7 37.2 202.3 37.0 C 201.9 36.7 201.0 36.6 200.8 36.7 C 200.7 36.8 200.7 37.1 200.6 37.4 C 200.4 37.6 200.8 38.0 200.2 37.7 C 199.6 37.4 199.2 37.0 199.0 37.0 C 198.9 37.0 198.4 37.4 198.4 37.4 C 198.3 37.6 198.2 37.7 198.0 37.8 C 198.0 37.8 197.6 38.0 197.4 37.7 C 197.1 37.4 196.2 37.8 196.2 37.8 C 196.2 37.8 195.8 36.9 195.4 36.8 C 195.0 36.7 194.4 36.5 194.1 36.6 C 193.7 36.7 193.9 37.5 193.9 37.5 C 193.6 37.3 193.3 37.1 193.1 36.9 C 192.6 36.9 192.1 36.8 191.7 36.7 C 191.7 36.7 190.7 36.8 190.8 36.9 C 190.9 37.1 191.5 37.8 191.5 38.0 C 191.6 38.1 191.2 38.4 191.0 38.1 C 190.8 37.9 190.0 37.3 190.0 37.3 C 190.0 37.3 189.3 36.8 189.0 36.8 C 188.7 36.7 188.4 37.0 188.3 37.1 C 188.3 37.3 188.2 37.8 188.2 37.8 C 187.9 37.6 187.7 37.3 187.4 37.1 C 187.4 37.1 186.8 37.4 185.7 36.8 C 185.7 36.8 185.7 36.8 185.7 36.8 Z M 205.3 36.7 C 204.3 36.8 206.8 39.4 207.6 39.9 C 208.4 40.5 208.8 40.1 209.6 40.2 C 210.3 40.3 209.5 39.5 209.7 39.2 C 210.0 39.0 210.2 39.5 210.7 39.9 C 211.1 40.3 211.9 40.0 212.6 40.0 C 213.2 40.1 213.2 39.2 213.7 39.1 C 214.2 39.1 212.9 38.7 213.9 38.7 C 214.8 38.8 214.7 39.2 213.9 39.5 C 213.0 39.8 214.7 40.0 215.3 40.1 C 215.9 40.2 216.6 39.8 217.1 39.9 C 217.6 39.9 216.5 39.2 217.2 39.3 C 217.9 39.3 218.0 40.0 218.8 40.1 C 219.5 40.2 219.0 39.5 219.2 39.4 C 219.4 39.2 219.6 39.6 220.0 39.7 C 220.3 39.7 220.9 39.9 221.4 39.8 C 221.9 39.6 221.6 39.4 221.8 39.4 C 222.1 39.4 222.6 39.4 222.6 39.4 C 222.8 39.6 223.0 39.8 223.2 40.0 C 223.2 40.0 224.4 40.1 224.8 40.1 C 225.1 40.2 225.7 39.9 225.4 39.7 C 225.1 39.6 225.5 39.2 225.7 39.2 C 226.0 39.4 226.8 39.7 227.3 39.8 C 227.8 40.0 226.4 38.3 226.2 38.0 C 226.0 37.8 225.5 36.9 225.1 36.8 C 224.7 36.7 224.7 37.0 224.6 36.8 C 224.4 36.5 223.6 36.8 223.3 36.8 C 223.0 36.8 223.2 37.4 223.2 37.4 C 223.2 37.4 223.3 37.9 222.9 37.9 C 222.4 37.9 221.4 36.9 221.4 36.9 C 221.4 36.9 220.7 36.7 220.2 36.7 C 219.7 36.8 219.7 37.6 219.8 37.8 C 219.8 38.0 219.2 37.2 218.7 37.1 C 218.3 37.0 217.5 36.8 217.4 36.8 C 217.2 36.9 217.3 37.4 217.3 37.4 C 217.3 37.4 216.9 37.7 216.7 37.7 C 216.5 37.7 216.2 36.9 216.2 36.9 C 216.2 36.9 214.5 36.7 214.2 36.6 C 213.8 36.6 213.5 36.8 213.3 36.8 C 213.1 36.9 213.5 37.9 213.1 37.8 C 212.7 37.7 213.0 37.2 212.5 37.0 C 212.1 37.0 211.4 36.8 211.2 36.8 C 211.0 36.8 211.1 37.1 210.8 37.2 C 210.6 37.2 210.7 37.9 210.3 37.9 C 209.8 37.9 209.3 37.5 209.0 37.4 C 208.8 37.3 208.2 36.7 207.9 36.6 C 207.5 36.6 208.1 37.0 207.7 37.0 C 207.4 37.0 207.7 37.5 207.3 37.4 C 206.9 37.3 206.6 36.5 206.3 36.7 C 206.1 36.7 206.3 36.7 205.3 36.7 C 205.3 36.7 205.3 36.7 205.3 36.7 Z M 226.0 36.8 C 225.3 36.5 225.2 36.9 225.5 37.3 C 225.9 37.7 226.8 38.6 226.8 38.9 C 226.9 39.2 226.8 39.9 227.8 40.0 C 228.8 40.2 228.7 39.9 228.6 39.7 C 228.4 39.4 227.8 38.4 228.1 38.5 C 228.3 38.6 228.8 38.9 229.0 39.0 C 229.1 39.2 230.2 40.1 230.5 40.0 C 230.8 39.9 231.0 39.6 231.0 39.6 C 231.2 39.6 231.4 39.5 231.6 39.5 C 231.6 39.5 232.6 40.1 233.0 40.0 C 233.3 39.9 233.9 39.9 234.2 39.9 C 234.6 39.9 234.9 39.9 234.8 39.6 C 234.6 39.4 234.4 38.6 234.4 38.6 C 234.4 38.6 234.8 38.3 235.1 38.5 C 235.4 38.6 235.9 39.1 236.0 39.3 C 236.1 39.4 236.5 39.9 236.9 40.0 C 237.3 40.1 239.2 40.5 239.2 40.3 C 239.2 40.0 238.8 39.6 238.9 39.5 C 239.0 39.4 240.0 39.4 240.3 39.6 C 240.5 39.9 240.9 40.4 241.1 40.3 C 241.4 40.3 242.1 40.4 242.0 40.3 C 241.8 40.1 241.9 40.0 241.7 39.7 C 241.5 39.4 241.9 39.2 241.9 39.1 C 241.9 38.9 242.3 38.9 242.3 38.9 C 242.6 39.0 242.9 39.2 243.3 39.3 C 243.3 39.3 243.3 39.9 243.2 39.9 C 243.1 40.0 243.7 40.4 243.9 40.4 C 244.1 40.5 245.1 40.4 245.1 40.4 C 244.8 40.0 244.5 39.6 244.2 39.2 C 244.4 39.1 244.6 39.1 244.8 39.0 C 244.8 39.0 245.8 40.3 246.4 40.3 C 246.9 40.3 247.5 40.3 247.5 40.3 C 247.5 40.3 247.6 39.8 247.7 39.8 C 247.8 39.7 246.9 38.5 246.9 38.5 C 246.4 38.1 246.0 37.6 245.6 37.1 C 245.6 37.1 244.6 36.7 244.4 36.8 C 244.2 37.0 244.9 37.5 245.0 37.8 C 245.2 38.0 244.9 38.2 244.9 38.2 C 244.4 38.0 244.0 37.7 243.5 37.4 C 243.5 37.4 243.1 37.2 242.7 37.0 C 242.3 36.7 241.3 36.6 241.2 36.7 C 241.0 36.8 241.1 37.1 241.0 37.4 C 240.9 37.6 241.3 38.0 240.7 37.7 C 240.1 37.4 239.6 37.0 239.4 37.0 C 239.3 37.0 238.9 37.4 238.9 37.4 C 238.8 37.6 238.7 37.7 238.5 37.8 C 238.5 37.8 238.2 38.0 237.9 37.7 C 237.6 37.4 236.7 37.8 236.7 37.8 C 236.7 37.8 236.2 36.9 235.8 36.8 C 235.4 36.7 234.8 36.5 234.4 36.6 C 234.1 36.7 234.4 37.5 234.4 37.5 C 234.1 37.3 233.8 37.1 233.4 36.9 C 233.0 36.9 232.5 36.8 232.0 36.7 C 232.0 36.7 231.1 36.8 231.2 36.9 C 231.3 37.1 232.0 37.8 232.1 38.0 C 232.2 38.1 231.8 38.4 231.6 38.1 C 231.4 37.9 230.4 37.3 230.4 37.3 C 230.4 37.3 229.7 36.8 229.3 36.8 C 229.0 36.7 228.7 37.0 228.7 37.1 C 228.7 37.3 228.7 37.8 228.7 37.8 C 228.4 37.6 228.1 37.3 227.8 37.1 C 227.8 37.1 227.3 37.4 226.0 36.8 C 226.0 36.8 226.0 36.8 226.0 36.8 Z M 245.6 36.7 C 244.7 36.8 247.6 39.4 248.4 39.9 C 249.3 40.5 249.7 40.1 250.4 40.2 C 251.2 40.3 250.3 39.5 250.4 39.2 C 250.6 39.0 251.0 39.5 251.5 39.9 C 252.0 40.3 252.7 40.0 253.4 40.0 C 254.0 40.1 253.9 39.2 254.4 39.1 C 254.9 39.1 253.6 38.7 254.5 38.7 C 255.4 38.8 255.4 39.2 254.6 39.5 C 253.8 39.8 255.5 40.0 256.1 40.1 C 256.8 40.2 257.4 39.8 257.9 39.9 C 258.4 39.9 257.2 39.2 257.9 39.3 C 258.6 39.3 258.8 40.0 259.6 40.1 C 260.4 40.2 259.7 39.5 259.9 39.4 C 260.1 39.2 260.4 39.6 260.7 39.7 C 261.1 39.7 261.7 39.9 262.2 39.8 C 262.7 39.6 262.3 39.4 262.6 39.4 C 262.8 39.4 263.3 39.4 263.3 39.4 C 263.5 39.6 263.8 39.8 264.0 40.0 C 264.0 40.0 265.2 40.1 265.6 40.1 C 266.0 40.2 266.5 39.9 266.1 39.7 C 265.8 39.6 266.2 39.2 266.4 39.2 C 266.7 39.4 267.6 39.7 268.1 39.8 C 268.6 40.0 267.0 38.3 266.7 38.0 C 266.5 37.8 265.9 36.9 265.5 36.8 C 265.0 36.7 265.1 37.0 264.9 36.8 C 264.7 36.5 263.9 36.8 263.7 36.8 C 263.4 36.8 263.6 37.4 263.6 37.4 C 263.6 37.4 263.8 37.9 263.4 37.9 C 262.9 37.9 261.8 36.9 261.8 36.9 C 261.8 36.9 261.1 36.7 260.5 36.7 C 260.0 36.8 260.2 37.6 260.3 37.8 C 260.3 38.0 259.6 37.2 259.1 37.1 C 258.7 37.0 257.8 36.8 257.7 36.8 C 257.6 36.9 257.8 37.4 257.8 37.4 C 257.8 37.4 257.4 37.7 257.2 37.7 C 257.0 37.7 256.6 36.9 256.6 36.9 C 256.6 36.9 254.9 36.7 254.5 36.6 C 254.1 36.6 253.8 36.8 253.6 36.8 C 253.5 36.9 254.0 37.9 253.6 37.8 C 253.2 37.7 253.4 37.2 252.9 37.0 C 252.5 37.0 251.7 36.8 251.6 36.8 C 251.4 36.8 251.5 37.1 251.2 37.2 C 251.0 37.2 251.2 37.9 250.8 37.9 C 250.3 37.9 249.7 37.5 249.5 37.4 C 249.2 37.3 248.6 36.7 248.2 36.6 C 247.8 36.6 248.5 37.0 248.1 37.0 C 247.8 37.0 248.2 37.5 247.8 37.4 C 247.4 37.3 246.9 36.5 246.6 36.7 C 246.5 36.7 246.6 36.7 245.6 36.7 C 245.6 36.7 245.6 36.7 245.6 36.7 Z M 268.3 37.5 C 268.2 37.6 267.6 37.1 266.9 37.0 C 266.2 36.8 265.5 36.8 265.9 37.1 C 266.3 37.4 266.7 37.6 266.8 38.0 C 266.8 38.4 267.1 39.1 267.8 39.4 C 268.4 39.6 270.6 40.4 270.8 40.0 C 270.9 39.6 270.9 39.5 271.1 39.2 C 271.2 39.0 271.7 39.8 271.7 39.8 C 271.7 39.8 272.7 39.9 273.3 39.9 C 274.0 40.0 274.7 40.0 274.7 39.9 C 274.6 39.7 274.6 39.5 274.6 39.5 C 274.6 39.5 275.3 39.8 275.8 39.9 C 276.3 40.0 276.0 39.8 275.7 39.6 C 275.5 39.4 274.4 38.9 274.7 38.9 C 274.8 38.9 276.2 39.7 276.6 39.8 C 277.0 39.8 277.7 39.8 277.7 39.8 C 277.7 39.8 277.2 39.3 277.1 39.2 C 277.1 39.1 277.8 39.1 278.0 39.2 C 278.1 39.4 278.5 39.9 278.9 39.9 C 280.1 40.0 279.2 39.1 279.2 39.1 C 279.3 39.0 279.9 39.7 280.3 39.8 C 280.7 39.9 282.8 39.8 282.8 39.7 C 282.7 39.5 284.1 40.1 284.0 39.7 C 283.9 39.3 283.9 39.1 283.8 39.0 C 283.8 38.9 283.6 38.3 284.0 38.5 C 284.5 38.8 284.4 39.5 284.8 39.8 C 285.3 40.0 286.7 40.0 286.7 39.8 C 286.8 39.5 286.3 38.9 286.4 38.9 C 286.6 38.9 288.3 39.7 288.2 39.6 C 288.1 39.4 287.5 38.7 287.4 38.6 C 287.3 38.5 286.3 37.2 286.0 37.0 C 285.7 36.9 284.4 36.4 284.8 36.8 C 285.3 37.1 285.9 37.6 285.8 37.7 C 285.6 37.9 285.5 37.9 285.3 37.8 C 285.1 37.6 285.1 37.5 284.4 37.3 C 283.7 37.0 283.7 36.7 283.2 36.8 C 282.8 36.8 282.4 36.9 282.8 37.1 C 283.1 37.4 283.0 37.8 282.6 37.8 C 282.3 37.8 282.2 37.1 281.0 36.9 C 279.7 36.7 279.0 36.6 278.9 36.8 C 278.9 37.1 279.5 37.8 278.7 37.5 C 277.9 37.2 278.0 37.0 277.4 37.0 C 276.7 37.0 277.0 37.6 276.6 37.6 C 276.2 37.6 276.1 37.6 276.1 37.6 C 276.1 37.6 275.5 36.8 274.5 36.7 C 273.5 36.7 273.3 36.6 274.0 37.2 C 274.8 37.8 274.1 37.9 273.7 37.5 C 273.3 37.1 272.5 36.8 272.1 36.8 C 271.7 36.7 272.6 37.7 272.5 37.8 C 272.4 37.8 271.9 37.7 271.8 37.4 C 271.6 37.1 271.2 37.0 270.8 36.9 C 270.4 36.7 269.6 36.9 269.8 37.0 C 269.9 37.2 271.0 37.9 270.1 37.5 C 269.2 37.2 268.6 36.7 268.0 36.7 C 267.5 36.7 268.5 37.4 268.3 37.5 C 268.3 37.5 268.3 37.5 268.3 37.5 Z M 286.6 36.8 C 285.7 36.5 285.8 36.9 286.2 37.3 C 286.6 37.7 287.7 38.6 287.8 38.9 C 287.9 39.2 288.0 39.9 289.0 40.0 C 290.0 40.2 289.9 39.9 289.7 39.7 C 289.5 39.4 288.6 38.4 289.0 38.5 C 289.3 38.6 289.8 38.9 290.0 39.0 C 290.2 39.2 291.5 40.1 291.7 40.0 C 292.0 39.9 292.1 39.6 292.1 39.6 C 292.3 39.6 292.5 39.5 292.7 39.5 C 292.7 39.5 293.9 40.1 294.2 40.0 C 294.3 40.0 294.3 40.0 294.4 39.9 C 294.3 39.4 294.3 39.0 294.3 38.7 C 294.4 38.4 294.3 37.9 294.1 37.7 C 293.8 37.4 293.0 36.2 293.0 36.2 C 293.0 36.2 292.8 35.5 292.9 35.4 C 293.0 35.3 293.5 35.6 293.7 35.8 C 293.9 36.0 294.3 36.3 294.4 36.0 C 294.5 35.7 295.0 34.4 294.7 34.0 C 294.4 33.5 294.1 33.3 294.0 33.1 C 293.9 32.9 293.8 31.8 294.1 31.8 C 294.3 31.9 294.8 32.2 294.8 31.9 C 294.7 31.6 294.8 31.0 294.7 30.9 C 294.6 30.9 294.4 30.6 294.2 30.4 C 293.9 30.2 293.6 29.5 293.5 29.4 C 293.4 29.2 293.3 28.7 293.3 28.7 C 293.5 28.6 293.6 28.4 293.8 28.3 C 293.8 28.3 294.3 28.9 294.4 29.1 C 294.5 29.3 294.8 29.1 294.8 29.0 C 294.9 28.8 294.8 27.5 294.8 27.5 C 294.4 27.4 294.0 27.2 293.6 27.1 C 293.6 26.8 293.5 26.5 293.4 26.2 C 293.4 26.2 294.8 26.7 294.8 26.1 C 294.8 25.6 294.8 24.9 294.8 24.9 C 294.8 24.9 294.2 24.2 294.2 24.0 C 294.2 23.9 293.0 23.6 293.0 23.6 C 292.5 23.6 292.0 23.6 291.6 23.5 C 291.6 23.5 291.1 24.0 291.3 24.4 C 291.5 24.7 292.0 24.6 292.2 24.7 C 292.4 24.8 292.7 25.3 292.7 25.3 C 292.4 25.5 292.2 25.7 291.9 25.8 C 291.9 25.8 291.7 25.9 291.4 26.1 C 291.2 26.2 291.1 26.9 291.1 27.1 C 291.2 27.4 291.6 27.7 291.8 28.1 C 292.0 28.5 292.4 28.6 292.1 28.8 C 291.8 28.9 291.4 28.9 291.4 29.1 C 291.4 29.2 291.9 30.2 291.9 30.2 C 292.0 30.4 292.1 30.7 292.2 31.0 C 292.2 31.0 292.4 31.6 292.2 31.5 C 291.9 31.4 292.2 32.7 292.2 32.7 C 292.2 32.7 291.4 32.0 291.2 32.2 C 291.1 32.3 290.9 32.6 291.1 33.1 C 291.2 33.6 292.0 34.6 292.0 34.6 C 291.8 34.6 291.6 34.5 291.4 34.5 C 291.3 34.8 291.3 35.2 291.2 35.5 C 291.2 35.5 291.2 36.4 291.4 36.6 C 291.5 36.7 292.2 37.3 292.4 37.5 C 292.5 37.7 292.7 38.1 292.7 38.2 C 292.6 38.2 292.5 38.2 292.4 38.1 C 292.1 37.9 291.0 37.3 291.0 37.3 C 291.0 37.3 290.2 36.8 289.9 36.8 C 289.5 36.7 289.3 37.0 289.3 37.1 C 289.4 37.3 289.4 37.8 289.4 37.8 C 289.1 37.6 288.8 37.3 288.4 37.1 C 288.4 37.1 288.0 37.4 286.6 36.8 C 286.6 36.8 286.6 36.8 286.6 36.8 Z M 291.1 23.1 C 291.2 24.0 293.8 23.8 294.4 23.5 C 294.9 23.1 294.6 22.3 294.7 21.6 C 294.8 20.8 293.9 21.1 293.7 20.7 C 293.4 20.3 294.0 20.4 294.4 20.2 C 294.8 20.0 294.4 18.9 294.5 18.2 C 294.5 17.5 293.6 17.0 293.6 16.5 C 293.5 16.0 293.1 17.0 293.1 16.1 C 293.2 15.2 293.7 15.5 294.0 16.5 C 294.2 17.5 294.5 15.9 294.6 15.3 C 294.7 14.6 294.3 13.7 294.3 13.2 C 294.4 12.7 293.7 13.6 293.7 12.9 C 293.7 12.2 294.4 12.2 294.5 11.5 C 294.6 10.7 294.0 11.1 293.8 10.8 C 293.7 10.6 294.1 10.4 294.1 10.1 C 294.2 9.8 294.4 9.1 294.2 8.6 C 294.1 8.0 293.9 8.3 293.8 8.0 C 293.8 7.8 293.8 7.3 293.8 7.3 C 294.0 7.1 294.2 6.8 294.5 6.6 C 294.5 6.6 294.5 5.4 294.6 4.9 C 294.6 4.5 294.3 4.0 294.2 4.3 C 294.0 4.7 293.6 4.2 293.7 4.0 C 293.8 3.7 294.1 2.8 294.3 2.2 C 294.3 2.1 294.3 2.1 294.3 2.1 C 293.8 2.3 292.5 3.7 292.3 3.9 C 292.1 4.1 290.9 5.1 291.1 5.2 C 291.2 5.2 291.2 5.2 291.2 5.2 C 291.1 5.5 291.4 5.4 291.2 5.6 C 290.9 5.8 291.2 6.5 291.2 6.7 C 291.2 7.0 291.8 6.8 291.8 6.8 C 291.8 6.8 292.4 6.6 292.4 7.0 C 292.4 7.4 291.3 8.5 291.3 8.5 C 291.3 8.5 291.1 9.1 291.1 9.6 C 291.2 10.1 292.1 10.0 292.3 10.0 C 292.5 10.0 291.6 10.5 291.6 10.9 C 291.5 11.4 291.2 12.0 291.2 12.2 C 291.3 12.3 291.8 12.3 291.8 12.3 C 291.8 12.3 292.2 12.8 292.2 13.0 C 292.2 13.1 291.4 13.2 291.4 13.2 C 291.4 13.2 291.1 14.7 291.1 15.0 C 291.0 15.3 291.2 15.7 291.3 15.9 C 291.3 16.1 292.3 16.1 292.2 16.5 C 292.1 16.8 291.6 16.3 291.5 16.7 C 291.4 17.0 291.2 17.6 291.2 17.7 C 291.2 17.9 291.5 18.0 291.6 18.3 C 291.6 18.6 292.4 18.8 292.4 19.3 C 292.4 19.7 291.9 19.9 291.8 20.1 C 291.7 20.3 291.1 20.4 291.1 20.7 C 291.0 21.0 291.5 20.8 291.5 21.1 C 291.5 21.4 292.0 21.4 291.9 21.8 C 291.8 22.1 291.0 21.8 291.1 22.2 C 291.1 22.3 291.1 22.2 291.1 23.1 C 291.1 23.1 291.1 23.1 291.1 23.1 Z M 290.4 5.1 C 290.5 5.4 291.4 5.0 291.7 4.6 C 292.0 4.2 292.8 3.3 293.3 3.0 C 293.3 2.9 293.4 2.9 293.5 2.8 C 294.0 2.6 294.7 2.1 294.4 1.9 C 294.4 1.9 294.3 1.9 294.3 1.9 C 293.6 1.7 293.1 2.0 292.9 2.2 C 292.6 2.5 291.5 3.5 291.3 3.4 C 291.2 3.3 291.2 3.0 291.3 2.9 C 291.4 2.8 292.0 1.8 291.5 1.9 C 290.9 2.1 290.2 2.3 290.2 2.3 C 290.0 2.4 289.8 2.4 289.6 2.4 C 289.6 2.4 289.6 1.8 289.0 1.9 C 288.4 2.1 287.9 2.1 287.6 2.0 C 287.3 2.0 286.8 2.1 286.5 2.3 C 286.3 2.5 285.0 3.4 285.0 3.4 C 285.0 3.4 284.3 3.6 284.2 3.4 C 284.1 3.3 284.5 2.8 284.7 2.7 C 284.9 2.5 285.3 2.0 285.1 1.9 C 284.8 1.8 283.7 1.4 283.2 1.6 C 282.7 1.9 282.5 2.3 282.2 2.4 C 281.9 2.5 280.9 2.5 281.0 2.3 C 281.2 2.1 281.7 1.5 281.4 1.6 C 281.0 1.6 280.6 1.5 280.4 1.6 C 280.3 1.8 280.0 1.9 279.7 2.2 C 279.5 2.5 278.7 2.7 278.4 2.8 C 278.2 3.0 277.7 3.0 277.7 3.0 C 277.7 2.9 277.6 2.7 277.5 2.6 C 277.5 2.6 278.3 2.1 278.6 2.0 C 278.9 1.9 278.9 1.5 278.7 1.5 C 278.6 1.5 277.4 1.5 277.4 1.5 C 277.1 1.9 276.7 2.3 276.3 2.7 C 276.0 2.8 275.7 2.9 275.3 2.9 C 275.3 2.9 276.6 1.6 276.1 1.6 C 275.6 1.6 274.9 1.6 274.9 1.6 C 274.9 1.6 274.0 2.1 273.8 2.1 C 273.6 2.2 272.5 3.4 272.5 3.4 C 272.2 3.9 271.8 4.3 271.4 4.8 C 271.4 4.8 271.7 5.2 272.2 5.1 C 272.7 4.9 272.8 4.4 273.1 4.1 C 273.3 3.9 274.0 3.7 274.0 3.7 C 274.0 3.9 274.1 4.2 274.1 4.5 C 274.1 4.5 274.1 4.7 274.1 4.9 C 274.1 5.2 274.8 5.3 275.1 5.2 C 275.4 5.1 275.9 4.8 276.4 4.6 C 276.9 4.3 277.2 3.9 277.3 4.2 C 277.3 4.6 277.1 4.9 277.3 4.9 C 277.5 4.9 278.6 4.5 278.6 4.5 C 278.9 4.4 279.2 4.2 279.6 4.1 C 279.6 4.1 280.3 3.9 280.1 4.2 C 280.0 4.5 281.4 4.1 281.4 4.1 C 281.4 4.1 280.5 5.0 280.7 5.1 C 280.8 5.2 281.1 5.4 281.7 5.3 C 282.2 5.2 283.3 4.4 283.3 4.4 C 283.3 4.6 283.2 4.8 283.2 5.0 C 283.5 5.0 283.9 5.1 284.3 5.2 C 284.3 5.2 285.3 5.1 285.4 5.0 C 285.5 4.8 286.1 4.1 286.3 4.0 C 286.6 3.8 287.3 3.5 287.1 3.8 C 287.0 4.0 286.8 4.6 286.8 4.6 C 286.8 4.6 286.8 5.1 287.0 5.1 C 287.3 5.2 287.9 4.9 288.2 4.8 C 288.4 4.6 289.4 4.1 289.4 4.1 C 289.3 4.4 289.2 4.6 289.1 4.8 C 289.1 4.8 290.2 4.5 290.4 5.1 C 290.4 5.1 290.4 5.1 290.4 5.1 Z M 269.6 4.4 C 269.9 4.3 269.6 4.8 270.1 4.9 C 270.5 5.1 271.1 5.1 271.3 4.8 C 271.4 4.5 271.4 4.3 272.0 3.9 C 272.7 3.5 273.6 2.8 273.4 2.5 C 273.3 2.3 272.3 1.6 271.5 1.9 C 270.7 2.3 270.4 2.4 269.8 2.7 C 269.3 2.9 270.2 2.1 270.2 2.1 C 270.2 2.1 269.4 2.0 268.8 2.0 C 268.3 1.9 267.5 1.9 267.4 2.0 C 267.2 2.2 266.7 2.4 266.7 2.4 C 266.7 2.4 266.7 2.1 266.3 2.0 C 265.9 1.9 265.9 2.1 265.8 2.3 C 265.7 2.5 265.9 3.0 265.7 3.0 C 265.5 3.0 265.5 2.2 265.3 2.2 C 265.0 2.1 264.2 2.1 264.2 2.1 C 264.2 2.1 263.9 2.6 263.8 2.7 C 263.6 2.8 262.9 2.8 263.0 2.7 C 263.0 2.5 263.5 2.0 263.1 2.0 C 262.1 1.9 261.5 2.8 261.4 2.8 C 261.3 2.9 261.8 2.2 261.6 2.1 C 261.5 2.0 259.1 2.1 258.9 2.2 C 258.7 2.4 258.4 1.8 257.7 2.2 C 257.1 2.6 256.9 2.8 256.7 2.9 C 256.6 3.0 255.7 3.7 255.7 3.4 C 255.7 3.1 257.1 2.4 257.0 2.2 C 256.9 1.9 255.5 1.9 255.1 2.1 C 254.6 2.4 254.0 3.0 253.8 3.0 C 253.6 3.0 253.4 2.2 253.3 2.3 C 253.1 2.5 252.5 3.2 252.4 3.3 C 252.3 3.4 251.1 4.7 251.2 4.9 C 251.2 5.0 251.7 5.5 251.9 5.1 C 252.0 4.8 252.2 4.3 252.6 4.2 C 253.0 4.0 253.2 4.0 253.1 4.1 C 253.1 4.3 252.8 4.4 253.1 4.7 C 253.4 4.9 253.0 5.2 253.5 5.2 C 253.9 5.1 254.4 5.0 254.6 4.8 C 254.7 4.5 255.5 4.1 255.8 4.1 C 256.1 4.2 255.1 4.8 255.9 5.0 C 256.8 5.2 257.4 5.3 257.9 5.1 C 258.3 4.8 259.0 4.1 259.2 4.4 C 259.4 4.7 259.0 4.9 259.7 4.9 C 260.4 4.9 261.1 4.3 261.5 4.3 C 262.0 4.3 262.1 4.3 262.1 4.3 C 262.1 4.3 261.2 5.1 262.1 5.2 C 263.0 5.2 263.1 5.3 263.4 4.7 C 263.7 4.1 264.5 4.0 264.2 4.4 C 263.9 4.8 264.2 5.1 264.5 5.1 C 264.8 5.2 265.7 4.2 265.9 4.2 C 266.0 4.1 266.3 4.2 265.9 4.5 C 265.5 4.8 265.8 4.9 266.0 5.0 C 266.2 5.2 267.2 5.1 267.3 4.9 C 267.4 4.7 267.6 4.0 267.9 4.4 C 268.2 4.7 267.9 5.2 268.5 5.2 C 269.1 5.2 269.1 4.6 269.6 4.4 C 269.6 4.4 269.6 4.4 269.6 4.4 Z M 250.3 5.1 C 250.5 5.4 251.2 5.0 251.4 4.6 C 251.6 4.2 252.2 3.3 252.6 3.0 C 252.9 2.7 254.0 2.0 253.2 1.9 C 252.5 1.7 252.1 2.0 251.9 2.2 C 251.8 2.5 250.9 3.5 250.7 3.4 C 250.5 3.3 250.5 3.0 250.6 2.9 C 250.6 2.8 251.0 1.8 250.4 1.9 C 249.9 2.1 249.3 2.3 249.3 2.3 C 249.1 2.4 248.9 2.4 248.7 2.4 C 248.7 2.4 248.5 1.8 248.0 1.9 C 247.4 2.1 246.9 2.1 246.6 2.0 C 246.2 2.0 245.8 2.1 245.6 2.3 C 245.4 2.5 244.4 3.4 244.4 3.4 C 244.4 3.4 243.7 3.6 243.6 3.4 C 243.5 3.3 243.7 2.8 243.9 2.7 C 244.1 2.5 244.3 2.0 244.0 1.9 C 243.7 1.8 242.5 1.4 242.1 1.6 C 241.7 1.9 241.5 2.3 241.3 2.4 C 241.1 2.5 240.0 2.5 240.1 2.3 C 240.2 2.1 240.6 1.5 240.2 1.6 C 239.9 1.6 239.4 1.5 239.3 1.6 C 239.3 1.8 239.0 1.9 238.8 2.2 C 238.6 2.5 237.9 2.7 237.7 2.8 C 237.5 3.0 237.0 3.0 237.0 3.0 C 236.9 2.9 236.8 2.7 236.7 2.6 C 236.7 2.6 237.4 2.1 237.6 2.0 C 237.8 1.9 237.7 1.5 237.6 1.5 C 237.4 1.5 236.3 1.5 236.3 1.5 C 236.0 1.9 235.8 2.3 235.5 2.7 C 235.2 2.8 234.9 2.9 234.6 2.9 C 234.6 2.9 235.5 1.6 235.0 1.6 C 234.5 1.6 233.8 1.6 233.8 1.6 C 233.8 1.6 233.0 2.1 232.8 2.1 C 232.7 2.2 231.9 3.4 231.9 3.4 C 231.7 3.9 231.4 4.3 231.2 4.8 C 231.2 4.8 231.6 5.2 232.0 5.1 C 232.5 4.9 232.5 4.4 232.7 4.1 C 232.9 3.9 233.5 3.7 233.5 3.7 C 233.6 3.9 233.7 4.2 233.7 4.5 C 233.7 4.5 233.8 4.7 233.9 4.9 C 234.0 5.2 234.7 5.3 235.0 5.2 C 235.3 5.1 235.7 4.8 236.1 4.6 C 236.5 4.3 236.7 3.9 236.9 4.2 C 237.0 4.6 237.0 4.9 237.1 4.9 C 237.3 4.9 238.3 4.5 238.3 4.5 C 238.6 4.4 238.9 4.2 239.2 4.1 C 239.2 4.1 239.8 3.9 239.8 4.2 C 239.6 4.5 241.0 4.1 241.0 4.1 C 241.0 4.1 240.3 5.0 240.5 5.1 C 240.7 5.2 241.0 5.4 241.6 5.3 C 242.1 5.2 243.0 4.4 243.0 4.4 C 243.0 4.6 243.0 4.8 243.0 5.0 C 243.4 5.0 243.8 5.1 244.2 5.2 C 244.2 5.2 245.2 5.1 245.2 5.0 C 245.3 4.8 245.7 4.1 245.9 4.0 C 246.1 3.8 246.7 3.5 246.6 3.8 C 246.5 4.0 246.5 4.6 246.5 4.6 C 246.5 4.6 246.6 5.1 246.9 5.1 C 247.2 5.2 247.8 4.9 248.0 4.8 C 248.2 4.6 249.0 4.1 249.0 4.1 C 249.0 4.4 248.9 4.6 248.9 4.8 C 248.9 4.8 249.9 4.5 250.3 5.1 C 250.3 5.1 250.3 5.1 250.3 5.1 Z M 229.2 4.4 C 229.5 4.3 229.4 4.8 229.9 4.9 C 230.3 5.1 231.0 5.1 231.1 4.8 C 231.1 4.5 231.0 4.3 231.6 3.9 C 232.1 3.5 232.8 2.8 232.6 2.5 C 232.3 2.3 231.2 1.6 230.5 1.9 C 229.8 2.3 229.5 2.4 229.0 2.7 C 228.5 2.9 229.2 2.1 229.2 2.1 C 229.2 2.1 228.4 2.0 227.8 2.0 C 227.2 1.9 226.5 1.9 226.4 2.0 C 226.2 2.2 225.9 2.4 225.9 2.4 C 225.9 2.4 225.7 2.1 225.3 2.0 C 224.9 1.9 224.9 2.1 224.9 2.3 C 224.9 2.5 225.2 3.0 225.0 3.0 C 224.8 3.0 224.6 2.2 224.3 2.2 C 224.0 2.1 223.2 2.1 223.2 2.1 C 223.2 2.1 223.1 2.6 223.0 2.7 C 222.8 2.8 222.1 2.8 222.1 2.7 C 222.2 2.5 222.5 2.0 222.1 2.0 C 221.0 1.9 220.8 2.8 220.6 2.8 C 220.5 2.9 220.9 2.2 220.7 2.1 C 220.4 2.0 218.2 2.1 218.0 2.2 C 217.8 2.4 217.3 1.8 216.8 2.2 C 216.3 2.6 216.1 2.8 216.0 2.9 C 215.9 3.0 215.1 3.7 215.0 3.4 C 215.0 3.1 216.2 2.4 216.0 2.2 C 215.9 1.9 214.5 1.9 214.2 2.1 C 213.7 2.4 213.3 3.0 213.1 3.0 C 212.9 3.0 212.5 2.2 212.4 2.3 C 212.2 2.5 211.8 3.2 211.8 3.3 C 211.7 3.4 210.9 4.7 211.0 4.9 C 211.1 5.0 211.7 5.5 211.8 5.1 C 211.8 4.8 211.8 4.3 212.2 4.2 C 212.5 4.0 212.7 4.0 212.7 4.1 C 212.7 4.3 212.5 4.4 212.9 4.7 C 213.2 4.9 212.9 5.2 213.3 5.2 C 213.8 5.1 214.2 5.0 214.3 4.8 C 214.4 4.5 215.1 4.1 215.4 4.1 C 215.7 4.2 214.9 4.8 215.8 5.0 C 216.7 5.2 217.3 5.3 217.7 5.1 C 218.1 4.8 218.5 4.1 218.9 4.4 C 219.2 4.7 218.8 4.9 219.5 4.9 C 220.2 4.9 220.7 4.3 221.2 4.3 C 221.6 4.3 221.7 4.3 221.7 4.3 C 221.7 4.3 221.0 5.1 222.0 5.2 C 222.9 5.2 223.0 5.3 223.2 4.7 C 223.3 4.1 224.0 4.0 223.8 4.4 C 223.7 4.8 224.1 5.1 224.4 5.1 C 224.7 5.2 225.3 4.2 225.5 4.2 C 225.6 4.1 226.0 4.2 225.6 4.5 C 225.3 4.8 225.7 4.9 225.9 5.0 C 226.1 5.2 227.0 5.1 227.1 4.9 C 227.2 4.7 227.1 4.0 227.5 4.4 C 227.9 4.7 227.8 5.2 228.4 5.2 C 228.9 5.2 228.8 4.6 229.2 4.4 C 229.2 4.4 229.2 4.4 229.2 4.4 Z M 210.1 5.1 C 210.4 5.4 211.1 5.0 211.2 4.6 C 211.3 4.2 211.5 3.3 211.8 3.0 C 212.1 2.7 213.0 2.0 212.2 1.9 C 211.4 1.7 211.1 2.0 211.0 2.2 C 210.9 2.5 210.3 3.5 210.1 3.4 C 209.9 3.3 209.8 3.0 209.8 2.9 C 209.8 2.8 209.9 1.8 209.4 1.9 C 208.9 2.1 208.4 2.3 208.4 2.3 C 208.2 2.4 208.0 2.4 207.8 2.4 C 207.8 2.4 207.4 1.8 206.9 1.9 C 206.4 2.1 205.9 2.1 205.6 2.0 C 205.2 2.0 204.8 2.1 204.7 2.3 C 204.5 2.5 203.8 3.4 203.8 3.4 C 203.8 3.4 203.2 3.6 203.0 3.4 C 202.8 3.3 202.9 2.8 203.1 2.7 C 203.2 2.5 203.3 2.0 203.0 1.9 C 202.7 1.8 201.4 1.4 201.0 1.6 C 200.7 1.9 200.6 2.3 200.4 2.4 C 200.2 2.5 199.2 2.5 199.2 2.3 C 199.2 2.1 199.4 1.5 199.1 1.6 C 198.8 1.6 198.3 1.5 198.2 1.6 C 198.2 1.8 198.0 1.9 197.8 2.2 C 197.7 2.5 197.1 2.7 196.9 2.8 C 196.7 3.0 196.3 3.0 196.3 3.0 C 196.1 2.9 196.0 2.7 195.9 2.6 C 195.9 2.6 196.4 2.1 196.6 2.0 C 196.8 1.9 196.6 1.5 196.4 1.5 C 196.3 1.5 195.1 1.5 195.1 1.5 C 195.0 1.9 194.9 2.3 194.7 2.7 C 194.4 2.8 194.1 2.9 193.8 2.9 C 193.8 2.9 194.4 1.6 193.9 1.6 C 193.3 1.6 192.7 1.6 192.7 1.6 C 192.7 1.6 192.0 2.1 191.9 2.1 C 191.7 2.2 191.3 3.4 191.3 3.4 C 191.2 3.9 191.1 4.3 191.0 4.8 C 191.0 4.8 191.5 5.2 191.9 5.1 C 192.3 4.9 192.1 4.4 192.3 4.1 C 192.4 3.9 193.0 3.7 193.0 3.7 C 193.1 3.9 193.3 4.2 193.4 4.5 C 193.4 4.5 193.6 4.7 193.7 4.9 C 193.9 5.2 194.6 5.3 194.9 5.2 C 195.1 5.1 195.5 4.8 195.8 4.6 C 196.2 4.3 196.3 3.9 196.5 4.2 C 196.7 4.6 196.8 4.9 196.9 4.9 C 197.1 4.9 198.0 4.5 198.0 4.5 C 198.3 4.4 198.5 4.2 198.7 4.1 C 198.7 4.1 199.4 3.9 199.4 4.2 C 199.3 4.5 200.6 4.1 200.6 4.1 C 200.6 4.1 200.1 5.0 200.4 5.1 C 200.6 5.2 201.0 5.4 201.5 5.3 C 202.0 5.2 202.6 4.4 202.6 4.4 C 202.7 4.6 202.8 4.8 202.8 5.0 C 203.2 5.0 203.6 5.1 204.0 5.2 C 204.0 5.2 205.0 5.1 205.1 5.0 C 205.1 4.8 205.3 4.1 205.4 4.0 C 205.6 3.8 206.2 3.5 206.1 3.8 C 206.1 4.0 206.3 4.6 206.3 4.6 C 206.3 4.6 206.5 5.1 206.8 5.1 C 207.0 5.2 207.6 4.9 207.8 4.8 C 207.9 4.6 208.6 4.1 208.6 4.1 C 208.6 4.4 208.6 4.6 208.7 4.8 C 208.7 4.8 209.6 4.5 210.1 5.1 C 210.1 5.1 210.1 5.1 210.1 5.1 Z M 188.9 4.4 C 189.2 4.3 189.2 4.8 189.7 4.9 C 190.2 5.1 190.9 5.1 190.8 4.8 C 190.8 4.5 190.7 4.3 191.1 3.9 C 191.5 3.5 192.0 2.8 191.7 2.5 C 191.4 2.3 190.1 1.6 189.5 1.9 C 188.9 2.3 188.6 2.4 188.2 2.7 C 187.8 2.9 188.3 2.1 188.3 2.1 C 188.3 2.1 187.4 2.0 186.8 2.0 C 186.2 1.9 185.5 1.9 185.4 2.0 C 185.3 2.2 185.0 2.4 185.0 2.4 C 185.0 2.4 184.7 2.1 184.3 2.0 C 183.9 1.9 184.0 2.1 184.0 2.3 C 184.0 2.5 184.4 3.0 184.2 3.0 C 184.0 3.0 183.6 2.2 183.3 2.2 C 183.0 2.1 182.3 2.1 182.3 2.1 C 182.3 2.1 182.2 2.6 182.1 2.7 C 182.1 2.8 181.3 2.8 181.3 2.7 C 181.3 2.5 181.5 2.0 181.1 2.0 C 180.0 1.9 180.0 2.8 179.9 2.8 C 179.8 2.9 179.9 2.2 179.7 2.1 C 179.4 2.0 177.2 2.1 177.0 2.2 C 176.9 2.4 176.3 1.8 175.8 2.2 C 175.4 2.6 175.3 2.8 175.2 2.9 C 175.1 3.0 174.6 3.7 174.4 3.4 C 174.3 3.1 175.3 2.4 175.1 2.2 C 174.8 1.9 173.4 1.9 173.2 2.1 C 172.8 2.4 172.6 3.0 172.4 3.0 C 172.2 3.0 171.5 2.2 171.5 2.3 C 171.4 2.5 171.2 3.2 171.1 3.3 C 171.1 3.4 170.7 4.7 170.8 4.9 C 170.9 5.0 171.7 5.5 171.6 5.1 C 171.6 4.8 171.5 4.3 171.8 4.2 C 172.1 4.0 172.3 4.0 172.3 4.1 C 172.4 4.3 172.2 4.4 172.6 4.7 C 173.1 4.9 172.7 5.2 173.2 5.2 C 173.7 5.1 174.1 5.0 174.1 4.8 C 174.1 4.5 174.7 4.1 175.0 4.1 C 175.3 4.2 174.6 4.8 175.6 5.0 C 176.6 5.2 177.2 5.3 177.6 5.1 C 177.9 4.8 178.1 4.1 178.6 4.4 C 179.0 4.7 178.7 4.9 179.3 4.9 C 180.0 4.9 180.4 4.3 180.8 4.3 C 181.2 4.3 181.3 4.3 181.3 4.3 C 181.3 4.3 180.9 5.1 181.9 5.2 C 182.8 5.2 183.0 5.3 182.9 4.7 C 182.9 4.1 183.6 4.0 183.5 4.4 C 183.5 4.8 183.9 5.1 184.3 5.1 C 184.6 5.2 184.9 4.2 185.1 4.2 C 185.2 4.1 185.6 4.2 185.3 4.5 C 185.1 4.8 185.5 4.9 185.7 5.0 C 186.0 5.2 186.9 5.1 186.9 4.9 C 186.9 4.7 186.7 4.0 187.2 4.4 C 187.7 4.7 187.7 5.2 188.3 5.2 C 188.8 5.2 188.5 4.6 188.9 4.4 C 188.9 4.4 188.9 4.4 188.9 4.4 Z M 170.4 5.2 C 171.4 5.2 171.2 2.5 170.8 2.0 C 170.5 1.4 169.8 1.8 169.1 1.7 C 168.4 1.6 168.6 2.4 168.1 2.7 C 167.7 2.9 167.9 2.4 167.8 2.0 C 167.7 1.6 166.6 1.9 166.0 1.9 C 165.3 1.8 164.6 2.7 164.0 2.8 C 163.5 2.8 164.4 3.2 163.5 3.2 C 162.6 3.1 163.1 2.7 164.2 2.4 C 165.3 2.1 163.9 1.9 163.3 1.8 C 162.7 1.7 161.7 2.1 161.3 2.0 C 160.8 2.0 161.3 2.7 160.7 2.6 C 160.0 2.6 160.4 1.9 159.8 1.8 C 159.1 1.7 159.1 2.4 158.8 2.5 C 158.4 2.7 158.5 2.3 158.2 2.2 C 158.0 2.2 157.5 2.0 156.9 2.1 C 156.2 2.3 156.4 2.5 156.1 2.5 C 155.8 2.6 155.3 2.6 155.3 2.6 C 155.3 2.3 155.3 2.1 155.2 1.9 C 155.2 1.9 154.1 1.8 153.8 1.8 C 153.4 1.7 152.6 2.0 152.8 2.2 C 153.0 2.3 152.3 2.8 152.1 2.7 C 151.9 2.6 151.4 2.2 151.0 2.1 C 150.6 1.9 150.7 3.6 150.6 3.9 C 150.6 4.1 150.4 5.1 150.7 5.2 C 151.1 5.2 151.4 4.9 151.3 5.2 C 151.2 5.4 152.2 5.2 152.5 5.2 C 152.8 5.2 153.2 4.5 153.2 4.5 C 153.2 4.5 153.5 4.0 153.9 4.0 C 154.4 4.0 154.5 5.1 154.5 5.1 C 154.5 5.1 155.0 5.2 155.6 5.2 C 156.1 5.2 156.8 4.3 156.9 4.1 C 157.1 3.9 157.0 4.7 157.4 4.8 C 157.8 4.9 158.3 5.2 158.5 5.1 C 158.7 5.1 159.0 4.5 159.0 4.5 C 159.0 4.5 159.7 4.2 159.9 4.2 C 160.1 4.2 159.7 5.0 159.7 5.0 C 159.7 5.0 161.2 5.2 161.5 5.3 C 161.8 5.3 162.3 5.1 162.6 5.1 C 162.8 5.0 163.2 4.0 163.6 4.1 C 163.9 4.2 163.1 4.8 163.5 4.9 C 163.8 5.0 164.4 5.1 164.6 5.1 C 164.7 5.1 165.0 4.8 165.3 4.8 C 165.6 4.7 166.0 4.0 166.5 4.0 C 166.9 4.0 167.1 4.4 167.3 4.5 C 167.4 4.6 167.4 5.2 167.8 5.3 C 168.1 5.3 167.9 4.9 168.3 4.9 C 168.6 4.9 168.7 4.4 169.0 4.5 C 169.3 4.6 169.0 5.4 169.4 5.2 C 169.6 5.2 169.4 5.2 170.4 5.2 C 170.4 5.2 170.4 5.2 170.4 5.2 Z M 149.9 5.1 C 150.4 5.4 150.8 5.0 150.8 4.6 C 150.7 4.2 150.6 3.3 150.7 3.0 C 150.9 2.7 151.5 2.0 150.6 1.9 C 149.8 1.7 149.6 2.0 149.6 2.2 C 149.6 2.5 149.4 3.5 149.2 3.4 C 149.0 3.3 148.7 3.0 148.7 2.9 C 148.6 2.8 148.3 1.8 147.9 1.9 C 147.4 2.1 147.1 2.3 147.1 2.3 C 146.8 2.4 146.6 2.4 146.4 2.4 C 146.4 2.4 145.8 1.8 145.4 1.9 C 144.9 2.1 144.4 2.1 144.1 2.0 C 143.7 2.0 143.4 2.1 143.3 2.3 C 143.3 2.5 142.8 3.4 142.8 3.4 C 142.8 3.4 142.3 3.6 142.1 3.4 C 141.9 3.3 141.8 2.8 141.8 2.7 C 141.9 2.5 141.8 2.0 141.5 1.9 C 141.1 1.8 139.6 1.4 139.4 1.6 C 139.1 1.9 139.2 2.3 139.1 2.4 C 138.9 2.5 137.9 2.5 137.8 2.3 C 137.7 2.1 137.7 1.5 137.4 1.6 C 137.2 1.6 136.6 1.5 136.6 1.6 C 136.6 1.8 136.4 1.9 136.4 2.2 C 136.4 2.5 135.9 2.7 135.8 2.8 C 135.7 3.0 135.2 3.0 135.2 3.0 C 135.0 2.9 134.8 2.7 134.6 2.6 C 134.6 2.6 134.9 2.1 135.0 2.0 C 135.2 1.9 134.9 1.5 134.7 1.5 C 134.5 1.5 133.4 1.5 133.4 1.5 C 133.5 1.9 133.5 2.3 133.5 2.7 C 133.2 2.8 133.0 2.9 132.7 2.9 C 132.7 2.9 132.7 1.6 132.2 1.6 C 131.7 1.6 131.0 1.6 131.0 1.6 C 131.0 1.6 130.5 2.1 130.4 2.1 C 130.3 2.2 130.4 3.4 130.4 3.4 C 130.5 3.9 130.6 4.3 130.7 4.8 C 130.7 4.8 131.3 5.2 131.7 5.1 C 132.0 4.9 131.6 4.4 131.7 4.1 C 131.7 3.9 132.2 3.7 132.2 3.7 C 132.4 3.9 132.7 4.2 133.0 4.5 C 133.0 4.5 133.2 4.7 133.4 4.9 C 133.7 5.2 134.5 5.3 134.7 5.2 C 134.9 5.1 135.1 4.8 135.4 4.6 C 135.7 4.3 135.6 3.9 135.9 4.2 C 136.3 4.6 136.5 4.9 136.7 4.9 C 136.8 4.9 137.5 4.5 137.5 4.5 C 137.7 4.4 137.9 4.2 138.1 4.1 C 138.1 4.1 138.7 3.9 138.8 4.2 C 138.9 4.5 140.0 4.1 140.0 4.1 C 140.0 4.1 139.9 5.0 140.2 5.1 C 140.5 5.2 140.9 5.4 141.4 5.3 C 141.8 5.2 142.1 4.4 142.1 4.4 C 142.3 4.6 142.4 4.8 142.6 5.0 C 143.0 5.0 143.4 5.1 143.9 5.2 C 143.9 5.2 144.8 5.1 144.8 5.0 C 144.8 4.8 144.7 4.1 144.7 4.0 C 144.8 3.8 145.3 3.5 145.4 3.8 C 145.4 4.0 145.9 4.6 145.9 4.6 C 145.9 4.6 146.3 5.1 146.6 5.1 C 146.9 5.2 147.3 4.9 147.4 4.8 C 147.5 4.6 148.0 4.1 148.0 4.1 C 148.1 4.4 148.2 4.6 148.3 4.8 C 148.3 4.8 149.1 4.5 149.9 5.1 C 149.9 5.1 149.9 5.1 149.9 5.1 Z M 128.4 4.4 C 128.6 4.3 128.9 4.8 129.4 4.9 C 130.0 5.1 130.7 5.1 130.5 4.8 C 130.4 4.5 130.1 4.3 130.4 3.9 C 130.6 3.5 130.9 2.8 130.4 2.5 C 130.0 2.3 128.4 1.6 127.9 1.9 C 127.5 2.3 127.3 2.4 127.0 2.7 C 126.7 2.9 126.8 2.1 126.8 2.1 C 126.8 2.1 125.9 2.0 125.3 2.0 C 124.7 1.9 123.9 1.9 123.9 2.0 C 123.8 2.2 123.7 2.4 123.7 2.4 C 123.7 2.4 123.3 2.1 122.8 2.0 C 122.3 1.9 122.5 2.1 122.6 2.3 C 122.7 2.5 123.4 3.0 123.2 3.0 C 123.0 3.0 122.2 2.2 121.9 2.2 C 121.5 2.1 120.8 2.1 120.8 2.1 C 120.8 2.1 121.0 2.6 120.9 2.7 C 120.9 2.8 120.2 2.8 120.1 2.7 C 120.0 2.5 120.0 2.0 119.6 2.0 C 118.5 1.9 118.8 2.8 118.7 2.8 C 118.6 2.9 118.5 2.2 118.2 2.1 C 117.9 2.0 115.7 2.1 115.6 2.2 C 115.5 2.4 114.7 1.8 114.4 2.2 C 114.2 2.6 114.1 2.8 114.1 2.9 C 114.0 3.0 113.8 3.7 113.5 3.4 C 113.3 3.1 113.9 2.4 113.6 2.2 C 113.3 1.9 111.9 1.9 111.7 2.1 C 111.5 2.4 111.5 3.0 111.3 3.0 C 111.1 3.0 110.1 2.2 110.1 2.3 C 110.1 2.5 110.1 3.2 110.2 3.3 C 110.2 3.4 110.3 4.7 110.5 4.9 C 110.7 5.0 111.6 5.5 111.4 5.1 C 111.2 4.8 110.9 4.3 111.2 4.2 C 111.4 4.0 111.6 4.0 111.7 4.1 C 111.8 4.3 111.7 4.4 112.2 4.7 C 112.8 4.9 112.6 5.2 113.0 5.2 C 113.5 5.1 113.9 5.0 113.8 4.8 C 113.7 4.5 114.0 4.1 114.4 4.1 C 114.7 4.2 114.3 4.8 115.4 5.0 C 116.5 5.2 117.1 5.3 117.4 5.1 C 117.6 4.8 117.5 4.1 118.1 4.4 C 118.6 4.7 118.4 4.9 119.0 4.9 C 119.7 4.9 119.8 4.3 120.3 4.3 C 120.7 4.3 120.8 4.3 120.8 4.3 C 120.8 4.3 120.7 5.1 121.7 5.2 C 122.6 5.2 122.8 5.3 122.5 4.7 C 122.2 4.1 122.9 4.0 123.0 4.4 C 123.1 4.8 123.7 5.1 124.1 5.1 C 124.4 5.2 124.3 4.2 124.5 4.2 C 124.6 4.1 125.0 4.2 124.9 4.5 C 124.8 4.8 125.2 4.9 125.5 5.0 C 125.8 5.2 126.6 5.1 126.6 4.9 C 126.6 4.7 126.0 4.0 126.7 4.4 C 127.3 4.7 127.6 5.2 128.1 5.2 C 128.7 5.2 128.1 4.6 128.4 4.4 C 128.4 4.4 128.4 4.4 128.4 4.4 Z M 110.2 5.2 C 111.2 5.2 109.9 2.5 109.3 2.0 C 108.8 1.4 108.2 1.8 107.5 1.7 C 106.8 1.6 107.2 2.4 106.9 2.7 C 106.6 2.9 106.6 2.4 106.3 2.0 C 106.0 1.6 105.0 1.9 104.4 1.9 C 103.8 1.8 103.4 2.7 102.9 2.8 C 102.4 2.8 103.5 3.2 102.5 3.2 C 101.6 3.1 101.9 2.7 102.9 2.4 C 103.8 2.1 102.3 1.9 101.7 1.8 C 101.1 1.7 100.2 2.1 99.8 2.0 C 99.3 2.0 100.1 2.7 99.4 2.6 C 98.8 2.6 98.9 1.9 98.2 1.8 C 97.5 1.7 97.8 2.4 97.5 2.5 C 97.2 2.7 97.1 2.3 96.8 2.2 C 96.5 2.2 96.0 2.0 95.4 2.1 C 94.9 2.3 95.1 2.5 94.8 2.5 C 94.6 2.6 94.1 2.6 94.1 2.6 C 93.9 2.3 93.8 2.1 93.7 1.9 C 93.7 1.9 92.5 1.8 92.2 1.8 C 91.8 1.7 91.1 2.0 91.4 2.2 C 91.7 2.3 91.1 2.8 90.9 2.7 C 90.7 2.6 89.9 2.2 89.5 2.1 C 89.0 1.9 89.8 3.6 89.9 3.9 C 90.0 4.1 90.2 5.1 90.6 5.2 C 90.9 5.2 91.1 4.9 91.1 5.2 C 91.2 5.4 92.1 5.2 92.3 5.2 C 92.6 5.2 92.7 4.5 92.7 4.5 C 92.7 4.5 92.8 4.0 93.2 4.0 C 93.7 4.0 94.3 5.1 94.3 5.1 C 94.3 5.1 94.9 5.2 95.4 5.2 C 96.0 5.2 96.3 4.3 96.3 4.1 C 96.3 3.9 96.6 4.7 97.0 4.8 C 97.5 4.9 98.1 5.2 98.3 5.1 C 98.4 5.1 98.5 4.5 98.5 4.5 C 98.5 4.5 99.1 4.2 99.3 4.2 C 99.5 4.2 99.5 5.0 99.5 5.0 C 99.5 5.0 101.1 5.2 101.4 5.3 C 101.7 5.3 102.1 5.1 102.4 5.1 C 102.6 5.0 102.6 4.0 102.9 4.1 C 103.3 4.2 102.8 4.8 103.2 4.9 C 103.5 5.0 104.2 5.1 104.4 5.1 C 104.5 5.1 104.7 4.8 104.9 4.8 C 105.2 4.7 105.4 4.0 105.8 4.0 C 106.3 4.0 106.6 4.4 106.8 4.5 C 107.0 4.6 107.3 5.2 107.7 5.3 C 108.0 5.3 107.6 4.9 108.0 4.9 C 108.3 4.9 108.2 4.4 108.5 4.5 C 108.9 4.6 108.9 5.4 109.3 5.2 C 109.4 5.2 109.3 5.2 110.2 5.2 C 110.2 5.2 110.2 5.2 110.2 5.2 Z M 88.1 4.4 C 88.3 4.3 88.6 4.8 89.3 4.9 C 89.9 5.1 90.6 5.1 90.3 4.8 C 90.1 4.5 89.8 4.3 89.9 3.9 C 90.0 3.5 90.1 2.8 89.6 2.5 C 89.1 2.3 87.2 1.6 86.9 1.9 C 86.6 2.3 86.5 2.4 86.2 2.7 C 85.9 2.9 85.8 2.1 85.8 2.1 C 85.8 2.1 84.9 2.0 84.3 2.0 C 83.6 1.9 82.9 1.9 82.9 2.0 C 82.9 2.2 82.8 2.4 82.8 2.4 C 82.8 2.4 82.3 2.1 81.8 2.0 C 81.3 1.9 81.5 2.1 81.7 2.3 C 81.9 2.5 82.6 3.0 82.4 3.0 C 82.3 3.0 81.3 2.2 80.9 2.2 C 80.6 2.1 79.9 2.1 79.9 2.1 C 79.9 2.1 80.1 2.6 80.1 2.7 C 80.1 2.8 79.4 2.8 79.3 2.7 C 79.2 2.5 79.0 2.0 78.6 2.0 C 77.5 1.9 78.0 2.8 78.0 2.8 C 77.9 2.9 77.5 2.2 77.2 2.1 C 76.9 2.0 74.7 2.1 74.7 2.2 C 74.7 2.4 73.6 1.8 73.5 2.2 C 73.4 2.6 73.3 2.8 73.3 2.9 C 73.3 3.0 73.2 3.7 72.9 3.4 C 72.6 3.1 73.0 2.4 72.7 2.2 C 72.3 1.9 70.9 1.9 70.7 2.1 C 70.6 2.4 70.8 3.0 70.6 3.0 C 70.4 3.0 69.2 2.2 69.2 2.3 C 69.2 2.5 69.5 3.2 69.5 3.3 C 69.6 3.4 70.0 4.7 70.3 4.9 C 70.5 5.0 71.6 5.5 71.3 5.1 C 71.0 4.8 70.6 4.3 70.8 4.2 C 71.0 4.0 71.2 4.0 71.3 4.1 C 71.4 4.3 71.3 4.4 72.0 4.7 C 72.6 4.9 72.5 5.2 72.9 5.2 C 73.3 5.1 73.7 5.0 73.5 4.8 C 73.3 4.5 73.6 4.1 74.0 4.1 C 74.3 4.2 74.1 4.8 75.2 5.0 C 76.4 5.2 77.0 5.3 77.2 5.1 C 77.4 4.8 77.1 4.1 77.7 4.4 C 78.4 4.7 78.2 4.9 78.9 4.9 C 79.5 4.9 79.5 4.3 79.9 4.3 C 80.3 4.3 80.4 4.3 80.4 4.3 C 80.4 4.3 80.6 5.1 81.6 5.2 C 82.5 5.2 82.8 5.3 82.3 4.7 C 81.8 4.1 82.5 4.0 82.7 4.4 C 82.9 4.8 83.6 5.1 84.0 5.1 C 84.3 5.2 83.9 4.2 84.1 4.2 C 84.2 4.1 84.6 4.2 84.6 4.5 C 84.6 4.8 85.0 4.9 85.3 5.0 C 85.7 5.2 86.5 5.1 86.4 4.9 C 86.3 4.7 85.6 4.0 86.3 4.4 C 87.1 4.7 87.4 5.2 88.0 5.2 C 88.5 5.2 87.8 4.6 88.1 4.4 C 88.1 4.4 88.1 4.4 88.1 4.4 Z M 69.6 5.1 C 70.3 5.4 70.5 5.0 70.2 4.6 C 69.9 4.2 69.3 3.3 69.3 3.0 C 69.3 2.7 69.5 2.0 68.6 1.9 C 67.6 1.7 67.6 2.0 67.7 2.2 C 67.8 2.5 68.2 3.5 68.0 3.4 C 67.7 3.3 67.3 3.0 67.2 2.9 C 67.0 2.8 66.1 1.8 65.8 1.9 C 65.5 2.1 65.2 2.3 65.2 2.3 C 65.0 2.4 64.8 2.4 64.6 2.4 C 64.6 2.4 63.7 1.8 63.3 1.9 C 62.9 2.1 62.4 2.1 62.1 2.0 C 61.7 2.0 61.4 2.1 61.5 2.3 C 61.5 2.5 61.6 3.4 61.6 3.4 C 61.6 3.4 61.2 3.6 60.9 3.4 C 60.6 3.3 60.2 2.8 60.2 2.7 C 60.1 2.5 59.8 2.0 59.4 1.9 C 59.0 1.8 57.2 1.4 57.2 1.6 C 57.1 1.9 57.4 2.3 57.3 2.4 C 57.1 2.5 56.2 2.5 56.0 2.3 C 55.7 2.1 55.5 1.5 55.2 1.6 C 55.0 1.6 54.3 1.5 54.4 1.6 C 54.5 1.8 54.4 1.9 54.5 2.2 C 54.7 2.5 54.2 2.7 54.2 2.8 C 54.2 3.0 53.8 3.0 53.8 3.0 C 53.5 2.9 53.2 2.7 52.9 2.6 C 52.9 2.6 52.9 2.1 53.0 2.0 C 53.1 1.9 52.6 1.5 52.4 1.5 C 52.2 1.5 51.2 1.5 51.2 1.5 C 51.4 1.9 51.7 2.3 51.9 2.7 C 51.7 2.8 51.5 2.9 51.2 2.9 C 51.2 2.9 50.5 1.6 49.9 1.6 C 49.4 1.6 48.8 1.6 48.8 1.6 C 48.8 1.6 48.6 2.1 48.5 2.1 C 48.4 2.2 49.1 3.4 49.1 3.4 C 49.5 3.9 49.8 4.3 50.2 4.8 C 50.2 4.8 51.1 5.2 51.4 5.1 C 51.6 4.9 50.9 4.4 50.8 4.1 C 50.7 3.9 51.1 3.7 51.1 3.7 C 51.5 3.9 51.9 4.2 52.3 4.5 C 52.3 4.5 52.7 4.7 53.1 4.9 C 53.5 5.2 54.3 5.3 54.5 5.2 C 54.7 5.1 54.7 4.8 54.8 4.6 C 54.9 4.3 54.6 3.9 55.2 4.2 C 55.7 4.6 56.1 4.9 56.3 4.9 C 56.5 4.9 56.9 4.5 56.9 4.5 C 57.0 4.4 57.2 4.2 57.3 4.1 C 57.3 4.1 57.7 3.9 58.0 4.2 C 58.2 4.5 59.2 4.1 59.2 4.1 C 59.2 4.1 59.6 5.0 59.9 5.1 C 60.3 5.2 60.9 5.4 61.2 5.3 C 61.6 5.2 61.5 4.4 61.5 4.4 C 61.7 4.6 62.0 4.8 62.2 5.0 C 62.7 5.0 63.2 5.1 63.6 5.2 C 63.6 5.2 64.6 5.1 64.5 5.0 C 64.4 4.8 63.9 4.1 63.8 4.0 C 63.8 3.8 64.1 3.5 64.3 3.8 C 64.5 4.0 65.4 4.6 65.4 4.6 C 65.4 4.6 66.0 5.1 66.3 5.1 C 66.6 5.2 66.9 4.9 67.0 4.8 C 67.0 4.6 67.2 4.1 67.2 4.1 C 67.4 4.4 67.7 4.6 67.9 4.8 C 67.9 4.8 68.5 4.5 69.6 5.1 C 69.6 5.1 69.6 5.1 69.6 5.1 Z M 50.1 5.2 C 51.0 5.2 48.6 2.5 47.8 2.0 C 47.0 1.4 46.6 1.8 45.8 1.7 C 45.1 1.6 45.9 2.4 45.7 2.7 C 45.4 2.9 45.2 2.4 44.8 2.0 C 44.3 1.6 43.5 1.9 42.8 1.9 C 42.2 1.8 42.2 2.7 41.7 2.8 C 41.2 2.8 42.5 3.2 41.5 3.2 C 40.6 3.1 40.7 2.7 41.5 2.4 C 42.4 2.1 40.7 1.9 40.1 1.8 C 39.4 1.7 38.8 2.1 38.3 2.0 C 37.8 2.0 38.9 2.7 38.2 2.6 C 37.5 2.6 37.3 1.9 36.6 1.8 C 35.8 1.7 36.4 2.4 36.2 2.5 C 36.0 2.7 35.7 2.3 35.4 2.2 C 35.1 2.2 34.5 2.0 34.0 2.1 C 33.5 2.3 33.8 2.5 33.5 2.5 C 33.3 2.6 32.8 2.6 32.8 2.6 C 32.6 2.3 32.4 2.1 32.1 1.9 C 32.1 1.9 30.9 1.8 30.6 1.8 C 30.2 1.7 29.6 2.0 30.0 2.2 C 30.3 2.3 29.9 2.8 29.6 2.7 C 29.4 2.6 28.5 2.2 28.0 2.1 C 27.5 1.9 29.0 3.6 29.2 3.9 C 29.4 4.1 30.0 5.1 30.4 5.2 C 30.8 5.2 30.8 4.9 30.9 5.2 C 31.1 5.4 31.9 5.2 32.2 5.2 C 32.4 5.2 32.3 4.5 32.3 4.5 C 32.3 4.5 32.1 4.0 32.6 4.0 C 33.0 4.0 34.0 5.1 34.0 5.1 C 34.0 5.1 34.7 5.2 35.3 5.2 C 35.8 5.2 35.7 4.3 35.7 4.1 C 35.6 3.9 36.2 4.7 36.7 4.8 C 37.2 4.9 38.0 5.2 38.1 5.1 C 38.2 5.1 38.1 4.5 38.1 4.5 C 38.1 4.5 38.6 4.2 38.7 4.2 C 38.9 4.2 39.2 5.0 39.2 5.0 C 39.2 5.0 40.9 5.2 41.2 5.3 C 41.6 5.3 41.9 5.1 42.1 5.1 C 42.3 5.0 41.9 4.0 42.3 4.1 C 42.7 4.2 42.5 4.8 42.9 4.9 C 43.3 5.0 44.0 5.1 44.2 5.1 C 44.4 5.1 44.3 4.8 44.6 4.8 C 44.8 4.7 44.7 4.0 45.1 4.0 C 45.6 4.0 46.1 4.4 46.4 4.5 C 46.6 4.6 47.2 5.2 47.5 5.3 C 47.9 5.3 47.3 4.9 47.7 4.9 C 48.0 4.9 47.7 4.4 48.1 4.5 C 48.5 4.6 48.8 5.4 49.1 5.2 C 49.2 5.2 49.1 5.2 50.1 5.2 C 50.1 5.2 50.1 5.2 50.1 5.2 Z M 29.5 5.1 C 30.2 5.4 30.3 5.0 29.9 4.6 C 29.6 4.2 28.6 3.3 28.5 3.0 C 28.5 2.7 28.5 2.0 27.5 1.9 C 26.5 1.7 26.6 2.0 26.8 2.2 C 27.0 2.5 27.7 3.5 27.3 3.4 C 27.0 3.3 26.6 3.0 26.4 2.9 C 26.2 2.8 25.1 1.8 24.8 1.9 C 24.5 2.1 24.3 2.3 24.3 2.3 C 24.1 2.4 23.9 2.4 23.7 2.4 C 23.7 2.4 22.6 1.8 22.3 1.9 C 22.0 2.1 21.4 2.1 21.1 2.0 C 20.7 2.0 20.4 2.1 20.5 2.3 C 20.7 2.5 21.0 3.4 21.0 3.4 C 21.0 3.4 20.7 3.6 20.3 3.4 C 19.9 3.3 19.5 2.8 19.4 2.7 C 19.3 2.5 18.8 2.0 18.4 1.9 C 17.9 1.8 16.0 1.4 16.0 1.6 C 16.1 1.9 16.5 2.3 16.4 2.4 C 16.3 2.5 15.3 2.5 15.0 2.3 C 14.7 2.1 14.3 1.5 14.1 1.6 C 13.8 1.6 13.1 1.5 13.3 1.6 C 13.4 1.8 13.3 1.9 13.6 2.2 C 13.8 2.5 13.4 2.7 13.5 2.8 C 13.5 3.0 13.1 3.0 13.1 3.0 C 12.7 2.9 12.4 2.7 12.1 2.6 C 12.1 2.6 11.9 2.1 12.0 2.0 C 12.1 1.9 11.5 1.5 11.3 1.5 C 11.1 1.5 10.1 1.5 10.1 1.5 C 10.4 1.9 10.7 2.3 11.1 2.7 C 10.9 2.8 10.7 2.9 10.5 2.9 C 10.5 2.9 9.3 1.6 8.8 1.6 C 8.3 1.6 7.7 1.6 7.7 1.6 C 7.7 1.6 7.6 2.1 7.5 2.1 C 7.4 2.2 8.5 3.4 8.5 3.4 C 9.0 3.9 9.5 4.3 10.0 4.8 C 10.0 4.8 11.1 5.2 11.2 5.1 C 11.4 4.9 10.6 4.4 10.4 4.1 C 10.3 3.9 10.6 3.7 10.6 3.7 C 11.1 3.9 11.5 4.2 12.0 4.5 C 12.0 4.5 12.4 4.7 12.9 4.9 C 13.3 5.2 14.3 5.3 14.4 5.2 C 14.5 5.1 14.5 4.8 14.5 4.6 C 14.6 4.3 14.2 3.9 14.8 4.2 C 15.4 4.6 15.9 4.9 16.1 4.9 C 16.3 4.9 16.6 4.5 16.6 4.5 C 16.7 4.4 16.8 4.2 16.9 4.1 C 16.9 4.1 17.3 3.9 17.6 4.2 C 17.9 4.5 18.7 4.1 18.7 4.1 C 18.7 4.1 19.4 5.0 19.8 5.1 C 20.2 5.2 20.8 5.4 21.1 5.3 C 21.5 5.2 21.1 4.4 21.1 4.4 C 21.4 4.6 21.8 4.8 22.1 5.0 C 22.5 5.0 23.0 5.1 23.5 5.2 C 23.5 5.2 24.4 5.1 24.3 5.0 C 24.2 4.8 23.5 4.1 23.4 4.0 C 23.3 3.8 23.6 3.5 23.8 3.8 C 24.1 4.0 25.1 4.6 25.1 4.6 C 25.1 4.6 25.8 5.1 26.2 5.1 C 26.5 5.2 26.7 4.9 26.8 4.8 C 26.7 4.6 26.8 4.1 26.8 4.1 C 27.1 4.4 27.4 4.6 27.7 4.8 C 27.7 4.8 28.2 4.5 29.5 5.1 C 29.5 5.1 29.5 5.1 29.5 5.1 Z M 10.0 5.2 C 10.9 5.2 7.7 2.5 6.8 2.0 C 5.9 1.4 5.5 1.8 4.8 1.7 C 4.0 1.6 5.0 2.4 4.9 2.7 C 4.7 2.9 4.3 2.4 3.7 2.0 C 3.2 1.6 2.5 1.9 1.8 1.9 C 1.7 1.9 1.6 1.9 1.6 1.9 C 1.7 2.6 2.4 3.8 2.4 4.3 C 2.5 4.9 2.9 4.3 2.8 5.2 C 2.8 6.0 2.3 5.1 2.0 3.8 C 1.8 2.5 1.5 3.8 1.4 4.3 C 1.3 4.8 1.7 6.1 1.7 6.5 C 1.6 7.0 2.3 7.0 2.3 7.6 C 2.3 8.3 1.6 7.4 1.5 8.0 C 1.4 8.6 2.0 9.0 2.2 9.5 C 2.3 9.9 1.9 9.6 1.9 9.8 C 1.8 10.1 1.6 10.4 1.8 11.1 C 1.9 11.9 2.1 11.9 2.2 12.2 C 2.2 12.5 2.2 13.0 2.2 13.0 C 2.0 12.9 1.8 12.8 1.5 12.7 C 1.5 12.7 1.5 13.8 1.4 14.1 C 1.4 14.5 1.7 15.4 1.8 15.3 C 2.0 15.2 2.4 16.3 2.3 16.4 C 2.2 16.5 1.9 16.9 1.7 17.2 C 1.6 17.5 3.3 18.4 3.5 18.5 C 3.8 18.7 4.7 19.4 4.8 19.2 C 4.9 18.9 4.6 18.4 4.8 18.6 C 5.0 18.8 4.8 17.7 4.8 17.4 C 4.8 17.2 4.2 16.4 4.2 16.4 C 4.2 16.4 3.6 15.8 3.6 15.4 C 3.6 14.9 4.7 15.5 4.7 15.5 C 4.7 15.5 4.9 15.1 4.8 14.5 C 4.8 14.0 3.9 12.7 3.7 12.4 C 3.5 12.2 4.3 12.8 4.4 12.5 C 4.5 12.2 4.8 11.9 4.7 11.7 C 4.7 11.5 4.2 10.7 4.2 10.7 C 4.2 10.7 3.8 9.8 3.8 9.6 C 3.8 9.4 4.6 10.4 4.6 10.4 C 4.6 10.4 4.8 9.1 4.9 8.9 C 5.0 8.6 4.8 8.0 4.7 7.7 C 4.7 7.4 3.7 6.2 3.8 5.9 C 3.9 5.7 4.4 6.9 4.5 6.6 C 4.6 6.4 4.8 6.0 4.8 5.8 C 4.8 5.7 4.5 5.1 4.4 4.8 C 4.4 4.8 4.4 4.8 4.4 4.7 C 4.5 4.6 4.3 4.0 4.7 4.0 C 5.1 4.0 5.8 4.4 6.1 4.5 C 6.3 4.6 7.1 5.2 7.4 5.3 C 7.8 5.3 7.1 4.9 7.5 4.9 C 7.8 4.9 7.3 4.4 7.7 4.5 C 8.2 4.6 8.7 5.4 9.0 5.2 C 9.1 5.2 9.0 5.2 10.0 5.2 C 10.0 5.2 10.0 5.2 10.0 5.2 Z M 4.0 20.8 C 3.9 20.6 4.4 20.7 4.6 20.2 C 4.8 19.8 4.8 19.1 4.5 19.1 C 4.1 19.0 3.9 19.1 3.5 18.6 C 3.1 18.1 2.4 17.3 2.2 17.6 C 1.9 17.8 1.2 19.0 1.6 19.7 C 1.9 20.4 2.1 20.7 2.3 21.2 C 2.6 21.6 1.8 21.0 1.8 21.0 C 1.8 21.0 1.7 21.8 1.6 22.5 C 1.6 23.1 1.5 23.8 1.7 24.0 C 1.8 24.1 2.1 24.4 2.1 24.4 C 2.1 24.4 1.7 24.6 1.6 25.1 C 1.6 25.5 1.8 25.4 2.0 25.4 C 2.2 25.4 2.7 25.0 2.7 25.3 C 2.7 25.4 1.9 25.8 1.8 26.1 C 1.7 26.4 1.8 27.2 1.8 27.2 C 1.8 27.2 2.2 27.2 2.3 27.3 C 2.4 27.4 2.5 28.2 2.3 28.2 C 2.2 28.2 1.7 28.0 1.7 28.3 C 1.6 29.5 2.5 29.5 2.5 29.7 C 2.5 29.8 1.8 29.6 1.7 29.8 C 1.6 30.1 1.7 32.4 1.9 32.6 C 2.0 32.7 1.4 33.4 1.9 33.8 C 2.3 34.2 2.4 34.3 2.5 34.4 C 2.6 34.4 3.3 34.9 3.0 35.1 C 2.8 35.3 2.0 34.3 1.8 34.6 C 1.6 34.8 1.5 36.3 1.8 36.5 C 2.0 36.9 2.7 37.0 2.7 37.2 C 2.7 37.4 1.8 38.2 2.0 38.3 C 2.1 38.3 2.8 38.4 3.0 38.4 C 3.1 38.4 4.4 38.7 4.5 38.5 C 4.7 38.4 5.2 37.6 4.8 37.7 C 4.4 37.8 4.0 37.9 3.8 37.7 C 3.7 37.4 3.6 37.2 3.8 37.1 C 3.9 37.1 4.1 37.3 4.3 36.8 C 4.5 36.3 4.8 36.6 4.8 36.2 C 4.8 35.7 4.7 35.3 4.4 35.3 C 4.1 35.3 3.7 34.8 3.8 34.5 C 3.8 34.2 4.4 34.8 4.6 33.8 C 4.9 32.9 4.9 32.3 4.7 32.0 C 4.5 31.6 3.7 31.4 4.1 31.0 C 4.4 30.6 4.6 30.9 4.6 30.3 C 4.5 29.6 4.0 29.2 3.9 28.8 C 3.9 28.4 3.9 28.3 3.9 28.3 C 3.9 28.3 4.8 28.7 4.8 27.8 C 4.9 26.9 4.9 26.8 4.3 26.8 C 3.7 26.7 3.7 26.0 4.1 26.1 C 4.5 26.2 4.7 25.8 4.8 25.5 C 4.8 25.2 3.8 24.7 3.8 24.6 C 3.8 24.4 3.8 24.1 4.2 24.4 C 4.5 24.6 4.5 24.3 4.7 24.1 C 4.8 23.9 4.7 23.0 4.5 22.9 C 4.4 22.8 3.7 22.9 4.0 22.5 C 4.4 22.1 4.9 22.2 4.8 21.7 C 4.8 21.1 4.2 21.3 4.0 20.8 C 4.0 20.8 4.0 20.8 4.0 20.8 Z M 4.0 20.8 " fill="#FEFFFE"></path></g></svg>