<?xml version="1.0" encoding="UTF-8" standalone="no"?><svg xmlns="http://www.w3.org/2000/svg" xmlns:xlink="http://www.w3.org/1999/xlink" clip-rule="evenodd" stroke-miterlimit="10" viewBox="0 0 297 42"><desc>SVG generated by Keynote</desc><defs></defs><g transform="matrix(1.00, 0.00, -0.00, -1.00, 0.0, 42.0)"><path d="M 5.7 37.8 C 5.4 37.9 5.3 37.5 4.7 37.3 C 4.2 37.1 3.5 37.1 3.6 37.4 C 3.7 37.7 3.9 37.9 3.6 38.3 C 3.3 38.7 3.0 39.5 3.4 39.7 C 3.8 40.0 5.4 40.7 5.8 40.3 C 6.3 39.9 6.5 39.8 6.9 39.6 C 7.2 39.3 7.0 40.1 7.0 40.1 C 7.0 40.1 7.8 40.2 8.5 40.3 C 9.1 40.3 9.8 40.3 9.9 40.2 C 9.9 40.1 10.2 39.8 10.2 39.8 C 10.2 39.8 10.5 40.2 11.0 40.2 C 11.4 40.3 11.3 40.1 11.2 39.9 C 11.1 39.7 10.5 39.2 10.7 39.2 C 10.9 39.2 11.5 40.0 11.9 40.1 C 12.2 40.2 12.9 40.1 12.9 40.1 C 12.9 40.1 12.8 39.7 12.9 39.6 C 13.0 39.5 13.7 39.4 13.7 39.6 C 13.8 39.7 13.7 40.2 14.1 40.2 C 15.2 40.3 15.0 39.4 15.1 39.4 C 15.2 39.4 15.3 40.1 15.5 40.2 C 15.8 40.3 18.0 40.2 18.1 40.0 C 18.2 39.8 19.0 40.5 19.3 40.0 C 19.6 39.6 19.7 39.5 19.8 39.4 C 19.8 39.3 20.2 38.6 20.4 38.8 C 20.6 39.1 19.8 39.9 20.1 40.1 C 20.4 40.3 21.8 40.3 22.0 40.1 C 22.3 39.8 22.4 39.2 22.6 39.2 C 22.7 39.2 23.6 40.0 23.7 39.9 C 23.7 39.8 23.8 39.1 23.7 38.9 C 23.7 38.8 23.9 37.5 23.7 37.4 C 23.6 37.2 22.7 36.7 22.8 37.1 C 23.0 37.5 23.2 37.9 22.9 38.1 C 22.6 38.2 22.5 38.2 22.4 38.1 C 22.3 38.0 22.5 37.8 22.0 37.6 C 21.5 37.3 21.7 37.1 21.2 37.1 C 20.8 37.1 20.4 37.2 20.4 37.5 C 20.5 37.7 20.0 38.1 19.7 38.1 C 19.4 38.1 19.9 37.5 18.8 37.2 C 17.8 37.0 17.2 36.9 16.9 37.2 C 16.6 37.4 16.6 38.1 16.1 37.8 C 15.6 37.5 15.8 37.3 15.2 37.3 C 14.5 37.3 14.3 37.9 13.8 38.0 C 13.4 38.0 13.3 37.9 13.3 37.9 C 13.3 37.9 13.5 37.1 12.5 37.1 C 11.6 37.0 11.4 37.0 11.6 37.6 C 11.8 38.2 11.1 38.2 11.1 37.8 C 11.0 37.4 10.5 37.1 10.1 37.1 C 9.8 37.0 9.7 38.1 9.6 38.1 C 9.5 38.1 9.1 38.0 9.2 37.7 C 9.4 37.4 9.0 37.3 8.7 37.2 C 8.4 37.1 7.5 37.2 7.5 37.4 C 7.6 37.5 8.0 38.2 7.4 37.9 C 6.8 37.5 6.6 37.0 6.1 37.1 C 5.5 37.1 6.0 37.7 5.7 37.8 C 5.7 37.8 5.7 37.8 5.7 37.8 Z M 24.1 37.0 C 23.1 37.1 23.9 39.7 24.3 40.3 C 24.8 40.8 25.4 40.5 26.1 40.6 C 26.8 40.7 26.5 39.8 26.9 39.6 C 27.3 39.3 27.2 39.9 27.4 40.3 C 27.6 40.7 28.6 40.3 29.2 40.4 C 29.9 40.4 30.4 39.5 30.9 39.5 C 31.4 39.4 30.5 39.0 31.4 39.0 C 32.3 39.1 31.9 39.6 30.9 39.9 C 29.8 40.1 31.3 40.4 31.9 40.5 C 32.5 40.6 33.4 40.2 33.9 40.2 C 34.3 40.3 33.7 39.6 34.3 39.6 C 35.0 39.6 34.7 40.3 35.4 40.4 C 36.1 40.5 35.9 39.9 36.3 39.7 C 36.6 39.6 36.5 40.0 36.8 40.0 C 37.1 40.1 37.6 40.3 38.2 40.1 C 38.8 40.0 38.6 39.8 38.9 39.7 C 39.2 39.7 39.7 39.7 39.7 39.7 C 39.7 39.9 39.8 40.1 39.9 40.4 C 39.9 40.4 41.0 40.4 41.4 40.5 C 41.7 40.5 42.4 40.2 42.2 40.1 C 42.0 39.9 42.7 39.5 42.9 39.6 C 43.1 39.7 43.7 40.0 44.1 40.2 C 44.5 40.3 44.2 38.6 44.1 38.4 C 44.1 38.1 44.2 37.2 43.8 37.1 C 43.5 37.0 43.3 37.3 43.3 37.1 C 43.3 36.8 42.3 37.1 42.1 37.1 C 41.8 37.1 41.5 37.7 41.5 37.7 C 41.5 37.7 41.3 38.3 40.9 38.3 C 40.4 38.3 40.1 37.2 40.1 37.2 C 40.1 37.2 39.5 37.0 39.0 37.0 C 38.4 37.1 37.9 38.0 37.8 38.2 C 37.7 38.4 37.6 37.5 37.2 37.4 C 36.8 37.3 36.2 37.1 36.1 37.1 C 35.9 37.2 35.7 37.7 35.7 37.7 C 35.7 37.7 35.0 38.1 34.8 38.1 C 34.6 38.1 34.9 37.3 34.9 37.3 C 34.9 37.3 33.3 37.0 33.0 37.0 C 32.7 36.9 32.2 37.1 32.0 37.2 C 31.7 37.2 31.5 38.2 31.2 38.1 C 30.8 38.0 31.4 37.5 31.1 37.4 C 30.7 37.3 30.1 37.1 29.9 37.1 C 29.8 37.1 29.6 37.4 29.3 37.5 C 29.0 37.5 28.7 38.3 28.2 38.3 C 27.8 38.3 27.5 37.8 27.4 37.7 C 27.2 37.6 27.0 37.0 26.7 37.0 C 26.3 36.9 26.6 37.4 26.3 37.4 C 25.9 37.4 26.0 37.9 25.6 37.8 C 25.3 37.7 25.4 36.9 25.1 37.0 C 24.9 37.0 25.1 37.0 24.1 37.0 C 24.1 37.0 24.1 37.0 24.1 37.0 Z M 44.7 37.2 C 44.2 36.8 43.8 37.3 43.9 37.6 C 44.0 38.0 44.3 39.0 44.2 39.3 C 44.1 39.5 43.6 40.2 44.5 40.4 C 45.3 40.5 45.5 40.2 45.4 40.0 C 45.4 39.8 45.4 38.7 45.7 38.8 C 45.9 38.9 46.2 39.2 46.3 39.3 C 46.3 39.5 46.8 40.5 47.2 40.3 C 47.6 40.2 48.0 39.9 48.0 39.9 C 48.2 39.9 48.4 39.9 48.6 39.9 C 48.6 39.9 49.2 40.5 49.7 40.3 C 50.1 40.2 50.6 40.2 51.0 40.2 C 51.3 40.3 51.7 40.2 51.7 40.0 C 51.7 39.7 52.0 38.9 52.0 38.9 C 52.0 38.9 52.5 38.7 52.8 38.8 C 53.0 38.9 53.1 39.4 53.1 39.6 C 53.1 39.8 53.2 40.2 53.6 40.3 C 54.0 40.4 55.5 40.9 55.7 40.6 C 55.9 40.3 55.8 40.0 55.9 39.9 C 56.1 39.8 57.1 39.7 57.2 40.0 C 57.3 40.2 57.3 40.7 57.6 40.6 C 57.9 40.6 58.5 40.7 58.5 40.6 C 58.4 40.5 58.6 40.3 58.6 40.0 C 58.5 39.8 59.1 39.5 59.2 39.4 C 59.2 39.3 59.7 39.2 59.7 39.2 C 59.9 39.4 60.1 39.5 60.4 39.7 C 60.4 39.7 60.1 40.2 60.0 40.3 C 59.8 40.4 60.2 40.7 60.3 40.7 C 60.5 40.8 61.6 40.7 61.6 40.7 C 61.5 40.3 61.5 39.9 61.4 39.5 C 61.7 39.5 61.9 39.4 62.2 39.3 C 62.2 39.3 62.3 40.7 62.9 40.7 C 63.4 40.7 64.0 40.7 64.0 40.7 C 64.0 40.7 64.4 40.1 64.6 40.1 C 64.7 40.0 64.5 38.8 64.5 38.8 C 64.3 38.4 64.2 37.9 64.1 37.5 C 64.1 37.5 63.4 37.0 63.0 37.2 C 62.7 37.4 63.1 37.9 63.1 38.1 C 63.1 38.3 62.7 38.6 62.7 38.6 C 62.4 38.3 62.1 38.0 61.8 37.8 C 61.8 37.8 61.5 37.5 61.3 37.3 C 61.0 37.1 60.2 36.9 60.0 37.0 C 59.7 37.1 59.6 37.5 59.3 37.7 C 59.1 37.9 59.2 38.3 58.8 38.0 C 58.4 37.7 58.2 37.3 58.0 37.3 C 57.8 37.3 57.2 37.8 57.2 37.8 C 57.0 37.9 56.8 38.0 56.6 38.1 C 56.6 38.1 56.1 38.3 56.0 38.1 C 55.9 37.8 54.8 38.1 54.8 38.1 C 54.8 38.1 54.8 37.3 54.5 37.1 C 54.2 37.0 53.7 36.8 53.2 36.9 C 52.8 37.1 52.6 37.9 52.6 37.9 C 52.4 37.7 52.2 37.5 52.1 37.3 C 51.6 37.2 51.2 37.1 50.8 37.1 C 50.8 37.1 49.8 37.1 49.8 37.3 C 49.8 37.4 50.1 38.1 50.0 38.3 C 50.0 38.5 49.5 38.7 49.4 38.5 C 49.4 38.2 48.8 37.6 48.8 37.6 C 48.8 37.6 48.3 37.2 48.0 37.1 C 47.7 37.1 47.3 37.3 47.2 37.5 C 47.1 37.6 46.8 38.1 46.8 38.1 C 46.6 37.9 46.5 37.7 46.3 37.5 C 46.3 37.5 45.6 37.8 44.7 37.2 C 44.7 37.2 44.7 37.2 44.7 37.2 Z M 64.4 37.0 C 63.4 37.1 64.6 39.7 65.1 40.3 C 65.7 40.8 66.3 40.5 67.0 40.6 C 67.7 40.7 67.3 39.8 67.6 39.6 C 67.9 39.3 67.9 39.9 68.2 40.3 C 68.4 40.7 69.4 40.3 70.0 40.4 C 70.7 40.4 71.1 39.5 71.6 39.5 C 72.1 39.4 71.1 39.0 72.0 39.0 C 72.9 39.1 72.6 39.6 71.6 39.9 C 70.6 40.1 72.1 40.4 72.7 40.5 C 73.3 40.6 74.2 40.2 74.7 40.2 C 75.1 40.3 74.4 39.6 75.0 39.6 C 75.7 39.6 75.5 40.3 76.2 40.4 C 76.9 40.5 76.7 39.9 77.0 39.7 C 77.3 39.6 77.3 40.0 77.6 40.0 C 77.9 40.1 78.4 40.3 79.0 40.1 C 79.6 40.0 79.4 39.8 79.6 39.7 C 79.9 39.7 80.4 39.7 80.4 39.7 C 80.5 39.9 80.6 40.1 80.7 40.4 C 80.7 40.4 81.8 40.4 82.2 40.5 C 82.6 40.5 83.2 40.2 83.0 40.1 C 82.8 39.9 83.4 39.5 83.6 39.6 C 83.8 39.7 84.5 40.0 84.9 40.2 C 85.3 40.3 84.7 38.6 84.7 38.4 C 84.6 38.1 84.6 37.2 84.2 37.1 C 83.8 37.0 83.7 37.3 83.6 37.1 C 83.6 36.8 82.7 37.1 82.4 37.1 C 82.1 37.1 82.0 37.7 82.0 37.7 C 82.0 37.7 81.8 38.3 81.4 38.3 C 80.9 38.3 80.5 37.2 80.5 37.2 C 80.5 37.2 79.9 37.0 79.3 37.0 C 78.8 37.1 78.4 38.0 78.3 38.2 C 78.2 38.4 78.1 37.5 77.6 37.4 C 77.2 37.3 76.6 37.1 76.4 37.1 C 76.3 37.2 76.1 37.7 76.1 37.7 C 76.1 37.7 75.5 38.1 75.3 38.1 C 75.1 38.1 75.2 37.3 75.2 37.3 C 75.2 37.3 73.6 37.0 73.3 37.0 C 73.0 36.9 72.5 37.1 72.3 37.2 C 72.1 37.2 72.0 38.2 71.7 38.1 C 71.3 38.0 71.8 37.5 71.5 37.4 C 71.1 37.3 70.5 37.1 70.3 37.1 C 70.1 37.1 70.0 37.4 69.7 37.5 C 69.4 37.5 69.2 38.3 68.8 38.3 C 68.3 38.3 68.0 37.8 67.8 37.7 C 67.6 37.6 67.4 37.0 67.0 37.0 C 66.6 36.9 67.0 37.4 66.7 37.4 C 66.3 37.4 66.4 37.9 66.1 37.8 C 65.7 37.7 65.8 36.9 65.4 37.0 C 65.2 37.0 65.4 37.0 64.4 37.0 C 64.4 37.0 64.4 37.0 64.4 37.0 Z M 85.1 37.2 C 84.5 36.8 84.2 37.3 84.3 37.6 C 84.5 38.0 84.9 39.0 84.9 39.3 C 84.8 39.5 84.4 40.2 85.3 40.4 C 86.2 40.5 86.3 40.2 86.2 40.0 C 86.1 39.8 86.0 38.7 86.3 38.8 C 86.5 38.9 86.8 39.2 86.9 39.3 C 87.0 39.5 87.6 40.5 88.0 40.3 C 88.4 40.2 88.7 39.9 88.7 39.9 C 88.9 39.9 89.1 39.9 89.3 39.9 C 89.3 39.9 90.1 40.5 90.5 40.3 C 90.9 40.2 91.4 40.2 91.8 40.2 C 92.1 40.3 92.5 40.2 92.5 40.0 C 92.4 39.7 92.6 38.9 92.6 38.9 C 92.6 38.9 93.1 38.7 93.3 38.8 C 93.6 38.9 93.8 39.4 93.8 39.6 C 93.8 39.8 94.0 40.2 94.4 40.3 C 94.8 40.4 96.4 40.9 96.6 40.6 C 96.7 40.3 96.5 40.0 96.7 39.9 C 96.8 39.8 97.8 39.7 97.9 40.0 C 98.1 40.2 98.2 40.7 98.5 40.6 C 98.7 40.6 99.4 40.7 99.3 40.6 C 99.3 40.5 99.4 40.3 99.3 40.0 C 99.3 39.8 99.8 39.5 99.8 39.4 C 99.9 39.3 100.3 39.2 100.3 39.2 C 100.6 39.4 100.8 39.5 101.1 39.7 C 101.1 39.7 100.9 40.2 100.8 40.3 C 100.6 40.4 101.0 40.7 101.2 40.7 C 101.4 40.8 102.5 40.7 102.5 40.7 C 102.3 40.3 102.2 39.9 102.1 39.5 C 102.4 39.5 102.6 39.4 102.8 39.3 C 102.8 39.3 103.2 40.7 103.7 40.7 C 104.2 40.7 104.9 40.7 104.9 40.7 C 104.9 40.7 105.2 40.1 105.3 40.1 C 105.4 40.0 105.1 38.8 105.1 38.8 C 104.9 38.4 104.7 37.9 104.5 37.5 C 104.5 37.5 103.7 37.0 103.4 37.2 C 103.1 37.4 103.6 37.9 103.6 38.1 C 103.6 38.3 103.2 38.6 103.2 38.6 C 102.9 38.3 102.6 38.0 102.2 37.8 C 102.2 37.8 102.0 37.5 101.7 37.3 C 101.3 37.1 100.5 36.9 100.3 37.0 C 100.1 37.1 100.0 37.5 99.8 37.7 C 99.6 37.9 99.8 38.3 99.3 38.0 C 98.9 37.7 98.6 37.3 98.4 37.3 C 98.2 37.3 97.7 37.8 97.7 37.8 C 97.5 37.9 97.3 38.0 97.1 38.1 C 97.1 38.1 96.7 38.3 96.5 38.1 C 96.3 37.8 95.3 38.1 95.3 38.1 C 95.3 38.1 95.2 37.3 94.8 37.1 C 94.5 37.0 94.0 36.8 93.6 36.9 C 93.2 37.1 93.1 37.9 93.1 37.9 C 92.9 37.7 92.7 37.5 92.4 37.3 C 92.0 37.2 91.6 37.1 91.1 37.1 C 91.1 37.1 90.2 37.1 90.2 37.3 C 90.2 37.4 90.6 38.1 90.6 38.3 C 90.6 38.5 90.1 38.7 90.0 38.5 C 89.9 38.2 89.2 37.6 89.2 37.6 C 89.2 37.6 88.7 37.2 88.4 37.1 C 88.1 37.1 87.7 37.3 87.6 37.5 C 87.6 37.6 87.3 38.1 87.3 38.1 C 87.1 37.9 86.9 37.7 86.7 37.5 C 86.7 37.5 86.0 37.8 85.1 37.2 C 85.1 37.2 85.1 37.2 85.1 37.2 Z M 104.8 37.0 C 103.8 37.1 105.4 39.7 105.9 40.3 C 106.5 40.8 107.1 40.5 107.8 40.6 C 108.5 40.7 108.0 39.8 108.3 39.6 C 108.6 39.3 108.7 39.9 109.0 40.3 C 109.3 40.7 110.2 40.3 110.9 40.4 C 111.5 40.4 111.8 39.5 112.3 39.5 C 112.8 39.4 111.7 39.0 112.6 39.0 C 113.5 39.1 113.3 39.6 112.3 39.9 C 111.4 40.1 112.9 40.4 113.6 40.5 C 114.2 40.6 115.0 40.2 115.4 40.2 C 115.9 40.3 115.1 39.6 115.8 39.6 C 116.4 39.6 116.3 40.3 117.0 40.4 C 117.8 40.5 117.4 39.9 117.7 39.7 C 118.0 39.6 118.1 40.0 118.4 40.0 C 118.7 40.1 119.2 40.3 119.8 40.1 C 120.3 40.0 120.1 39.8 120.4 39.7 C 120.6 39.7 121.1 39.7 121.1 39.7 C 121.3 39.9 121.4 40.1 121.5 40.4 C 121.5 40.4 122.7 40.4 123.0 40.5 C 123.4 40.5 124.0 40.2 123.8 40.1 C 123.5 39.9 124.1 39.5 124.3 39.6 C 124.5 39.7 125.2 40.0 125.7 40.2 C 126.1 40.3 125.3 38.6 125.2 38.4 C 125.1 38.1 124.9 37.2 124.6 37.1 C 124.2 37.0 124.0 37.3 124.0 37.1 C 123.9 36.8 123.0 37.1 122.8 37.1 C 122.5 37.1 122.4 37.7 122.4 37.7 C 122.4 37.7 122.4 38.3 121.9 38.3 C 121.4 38.3 120.8 37.2 120.8 37.2 C 120.8 37.2 120.2 37.0 119.7 37.0 C 119.1 37.1 118.9 38.0 118.8 38.2 C 118.8 38.4 118.5 37.5 118.0 37.4 C 117.6 37.3 116.9 37.1 116.8 37.1 C 116.6 37.2 116.6 37.7 116.6 37.7 C 116.6 37.7 116.0 38.1 115.8 38.1 C 115.6 38.1 115.6 37.3 115.6 37.3 C 115.6 37.3 114.0 37.0 113.7 37.0 C 113.3 36.9 112.9 37.1 112.7 37.2 C 112.5 37.2 112.5 38.2 112.2 38.1 C 111.8 38.0 112.3 37.5 111.9 37.4 C 111.5 37.3 110.8 37.1 110.7 37.1 C 110.5 37.1 110.4 37.4 110.1 37.5 C 109.9 37.5 109.7 38.3 109.3 38.3 C 108.8 38.3 108.5 37.8 108.3 37.7 C 108.1 37.6 107.7 37.0 107.3 37.0 C 107.0 36.9 107.4 37.4 107.1 37.4 C 106.7 37.4 106.9 37.9 106.5 37.8 C 106.2 37.7 106.1 36.9 105.7 37.0 C 105.6 37.0 105.7 37.0 104.8 37.0 C 104.8 37.0 104.8 37.0 104.8 37.0 Z M 127.0 37.8 C 126.9 37.9 126.5 37.5 125.9 37.3 C 125.2 37.1 124.5 37.1 124.8 37.4 C 125.1 37.7 125.4 37.9 125.2 38.3 C 125.1 38.7 125.1 39.5 125.6 39.7 C 126.1 40.0 127.9 40.7 128.3 40.3 C 128.6 39.9 128.7 39.8 129.0 39.6 C 129.2 39.3 129.3 40.1 129.3 40.1 C 129.3 40.1 130.2 40.2 130.9 40.3 C 131.5 40.3 132.2 40.3 132.2 40.2 C 132.3 40.1 132.4 39.8 132.4 39.8 C 132.4 39.8 132.8 40.2 133.3 40.2 C 133.8 40.3 133.6 40.1 133.4 39.9 C 133.3 39.7 132.5 39.2 132.7 39.2 C 132.9 39.2 133.8 40.0 134.2 40.1 C 134.6 40.2 135.3 40.1 135.3 40.1 C 135.3 40.1 135.0 39.7 135.0 39.6 C 135.0 39.5 135.7 39.4 135.8 39.6 C 135.9 39.7 136.1 40.2 136.5 40.2 C 137.7 40.3 137.1 39.4 137.2 39.4 C 137.3 39.4 137.6 40.1 137.9 40.2 C 138.2 40.3 140.4 40.2 140.4 40.0 C 140.5 39.8 141.5 40.5 141.6 40.0 C 141.8 39.6 141.8 39.5 141.8 39.4 C 141.8 39.3 141.9 38.6 142.2 38.8 C 142.6 39.1 142.1 39.9 142.4 40.1 C 142.8 40.3 144.2 40.3 144.3 40.1 C 144.5 39.8 144.3 39.2 144.5 39.2 C 144.7 39.2 145.9 40.0 145.9 39.9 C 145.9 39.8 145.7 39.1 145.6 38.9 C 145.5 38.8 145.2 37.5 144.9 37.4 C 144.7 37.2 143.6 36.7 143.9 37.1 C 144.2 37.5 144.6 37.9 144.4 38.1 C 144.2 38.2 144.0 38.2 143.9 38.1 C 143.7 38.0 143.8 37.8 143.2 37.6 C 142.6 37.3 142.8 37.1 142.3 37.1 C 141.9 37.1 141.5 37.2 141.7 37.5 C 141.8 37.7 141.5 38.1 141.2 38.1 C 140.9 38.1 141.1 37.5 140.0 37.2 C 138.8 37.0 138.2 36.9 138.0 37.2 C 137.8 37.4 138.1 38.1 137.4 37.8 C 136.8 37.5 137.0 37.3 136.3 37.3 C 135.7 37.3 135.7 37.9 135.3 38.0 C 134.9 38.0 134.7 37.9 134.7 37.9 C 134.7 37.9 134.6 37.1 133.6 37.1 C 132.6 37.0 132.4 37.0 132.9 37.6 C 133.3 38.2 132.6 38.2 132.4 37.8 C 132.2 37.4 131.5 37.1 131.2 37.1 C 130.8 37.0 131.2 38.1 131.1 38.1 C 131.0 38.1 130.5 38.0 130.6 37.7 C 130.6 37.4 130.2 37.3 129.8 37.2 C 129.5 37.1 128.6 37.2 128.7 37.4 C 128.8 37.5 129.5 38.2 128.8 37.9 C 128.1 37.5 127.7 37.0 127.1 37.1 C 126.6 37.1 127.3 37.7 127.0 37.8 C 127.0 37.8 127.0 37.8 127.0 37.8 Z M 145.6 37.2 C 145.0 36.8 144.8 37.3 145.0 37.6 C 145.2 38.0 145.9 39.0 145.8 39.3 C 145.8 39.5 145.6 40.2 146.5 40.4 C 147.4 40.5 147.5 40.2 147.4 40.0 C 147.2 39.8 146.9 38.7 147.2 38.8 C 147.5 38.9 147.8 39.2 147.9 39.3 C 148.1 39.5 148.9 40.5 149.2 40.3 C 149.6 40.2 149.8 39.9 149.8 39.9 C 150.0 39.9 150.2 39.9 150.4 39.9 C 150.4 39.9 151.3 40.5 151.7 40.3 C 152.1 40.2 152.6 40.2 153.0 40.2 C 153.4 40.3 153.6 40.2 153.6 40.0 C 153.5 39.7 153.5 38.9 153.5 38.9 C 153.5 38.9 153.9 38.7 154.2 38.8 C 154.5 38.9 154.8 39.4 154.9 39.6 C 154.9 39.8 155.2 40.2 155.6 40.3 C 156.0 40.4 157.7 40.9 157.8 40.6 C 157.9 40.3 157.7 40.0 157.8 39.9 C 157.9 39.8 158.9 39.7 159.1 40.0 C 159.3 40.2 159.5 40.7 159.7 40.6 C 160.0 40.6 160.7 40.7 160.6 40.6 C 160.5 40.5 160.6 40.3 160.5 40.0 C 160.4 39.8 160.8 39.5 160.9 39.4 C 160.9 39.3 161.3 39.2 161.3 39.2 C 161.6 39.4 161.9 39.5 162.1 39.7 C 162.1 39.7 162.1 40.2 162.0 40.3 C 161.8 40.4 162.3 40.7 162.5 40.7 C 162.7 40.8 163.7 40.7 163.7 40.7 C 163.6 40.3 163.4 39.9 163.2 39.5 C 163.4 39.5 163.6 39.4 163.8 39.3 C 163.8 39.3 164.5 40.7 165.0 40.7 C 165.5 40.7 166.1 40.7 166.1 40.7 C 166.1 40.7 166.4 40.1 166.5 40.1 C 166.6 40.0 166.0 38.8 166.0 38.8 C 165.7 38.4 165.4 37.9 165.1 37.5 C 165.1 37.5 164.2 37.0 164.0 37.2 C 163.7 37.4 164.3 37.9 164.4 38.1 C 164.4 38.3 164.1 38.6 164.1 38.6 C 163.7 38.3 163.3 38.0 162.9 37.8 C 162.9 37.8 162.6 37.5 162.2 37.3 C 161.9 37.1 161.0 36.9 160.8 37.0 C 160.7 37.1 160.6 37.5 160.4 37.7 C 160.3 37.9 160.6 38.3 160.0 38.0 C 159.5 37.7 159.2 37.3 159.0 37.3 C 158.8 37.3 158.3 37.8 158.3 37.8 C 158.2 37.9 158.0 38.0 157.9 38.1 C 157.9 38.1 157.5 38.3 157.2 38.1 C 157.0 37.8 156.0 38.1 156.0 38.1 C 156.0 38.1 155.7 37.3 155.4 37.1 C 155.0 37.0 154.5 36.8 154.1 36.9 C 153.7 37.1 153.8 37.9 153.8 37.9 C 153.5 37.7 153.3 37.5 153.0 37.3 C 152.6 37.2 152.1 37.1 151.6 37.1 C 151.6 37.1 150.7 37.1 150.8 37.3 C 150.8 37.4 151.3 38.1 151.4 38.3 C 151.4 38.5 151.0 38.7 150.8 38.5 C 150.6 38.2 149.9 37.6 149.9 37.6 C 149.9 37.6 149.3 37.2 148.9 37.1 C 148.6 37.1 148.3 37.3 148.3 37.5 C 148.2 37.6 148.0 38.1 148.0 38.1 C 147.8 37.9 147.6 37.7 147.3 37.5 C 147.3 37.5 146.7 37.8 145.6 37.2 C 145.6 37.2 145.6 37.2 145.6 37.2 Z M 165.3 37.0 C 164.3 37.1 166.4 39.7 167.1 40.3 C 167.8 40.8 168.3 40.5 169.1 40.6 C 169.8 40.7 169.1 39.8 169.4 39.6 C 169.6 39.3 169.8 39.9 170.2 40.3 C 170.6 40.7 171.4 40.3 172.1 40.4 C 172.7 40.4 172.9 39.5 173.3 39.5 C 173.8 39.4 172.6 39.0 173.6 39.0 C 174.5 39.1 174.3 39.6 173.5 39.9 C 172.6 40.1 174.2 40.4 174.8 40.5 C 175.4 40.6 176.2 40.2 176.6 40.2 C 177.1 40.3 176.1 39.6 176.8 39.6 C 177.5 39.6 177.6 40.3 178.3 40.4 C 179.0 40.5 178.5 39.9 178.8 39.7 C 179.0 39.6 179.2 40.0 179.5 40.0 C 179.8 40.1 180.4 40.3 180.9 40.1 C 181.5 40.0 181.2 39.8 181.4 39.7 C 181.7 39.7 182.2 39.7 182.2 39.7 C 182.4 39.9 182.6 40.1 182.7 40.4 C 182.7 40.4 183.9 40.4 184.3 40.5 C 184.6 40.5 185.2 40.2 184.9 40.1 C 184.6 39.9 185.1 39.5 185.4 39.6 C 185.6 39.7 186.4 40.0 186.9 40.2 C 187.4 40.3 186.2 38.6 186.0 38.4 C 185.9 38.1 185.5 37.2 185.1 37.1 C 184.7 37.0 184.6 37.3 184.5 37.1 C 184.4 36.8 183.6 37.1 183.3 37.1 C 183.0 37.1 183.1 37.7 183.1 37.7 C 183.1 37.7 183.1 38.3 182.7 38.3 C 182.2 38.3 181.4 37.2 181.4 37.2 C 181.4 37.2 180.7 37.0 180.2 37.0 C 179.7 37.1 179.6 38.0 179.6 38.2 C 179.6 38.4 179.1 37.5 178.7 37.4 C 178.2 37.3 177.5 37.1 177.3 37.1 C 177.2 37.2 177.2 37.7 177.2 37.7 C 177.2 37.7 176.7 38.1 176.5 38.1 C 176.4 38.1 176.2 37.3 176.2 37.3 C 176.2 37.3 174.5 37.0 174.2 37.0 C 173.8 36.9 173.4 37.1 173.2 37.2 C 173.1 37.2 173.3 38.2 172.9 38.1 C 172.5 38.0 172.9 37.5 172.5 37.4 C 172.1 37.3 171.4 37.1 171.2 37.1 C 171.0 37.1 171.0 37.4 170.7 37.5 C 170.5 37.5 170.5 38.3 170.1 38.3 C 169.6 38.3 169.1 37.8 168.9 37.7 C 168.7 37.6 168.2 37.0 167.9 37.0 C 167.5 36.9 168.0 37.4 167.7 37.4 C 167.3 37.4 167.6 37.9 167.2 37.8 C 166.8 37.7 166.6 36.9 166.3 37.0 C 166.1 37.0 166.3 37.0 165.3 37.0 C 165.3 37.0 165.3 37.0 165.3 37.0 Z M 186.0 37.2 C 185.3 36.8 185.1 37.3 185.4 37.6 C 185.7 38.0 186.5 39.0 186.5 39.3 C 186.5 39.5 186.4 40.2 187.3 40.4 C 188.3 40.5 188.3 40.2 188.1 40.0 C 188.0 39.8 187.5 38.7 187.8 38.8 C 188.1 38.9 188.5 39.2 188.6 39.3 C 188.8 39.5 189.7 40.5 190.1 40.3 C 190.4 40.2 190.6 39.9 190.6 39.9 C 190.8 39.9 191.0 39.9 191.2 39.9 C 191.2 39.9 192.1 40.5 192.5 40.3 C 192.9 40.2 193.4 40.2 193.8 40.2 C 194.2 40.3 194.4 40.2 194.3 40.0 C 194.3 39.7 194.2 38.9 194.2 38.9 C 194.2 38.9 194.5 38.7 194.8 38.8 C 195.2 38.9 195.5 39.4 195.6 39.6 C 195.7 39.8 196.0 40.2 196.4 40.3 C 196.8 40.4 198.6 40.9 198.7 40.6 C 198.7 40.3 198.4 40.0 198.5 39.9 C 198.6 39.8 199.6 39.7 199.8 40.0 C 200.1 40.2 200.4 40.7 200.6 40.6 C 200.9 40.6 201.5 40.7 201.4 40.6 C 201.3 40.5 201.4 40.3 201.3 40.0 C 201.1 39.8 201.5 39.5 201.5 39.4 C 201.6 39.3 202.0 39.2 202.0 39.2 C 202.3 39.4 202.6 39.5 202.9 39.7 C 202.9 39.7 202.9 40.2 202.8 40.3 C 202.7 40.4 203.2 40.7 203.4 40.7 C 203.6 40.8 204.6 40.7 204.6 40.7 C 204.4 40.3 204.1 39.9 203.9 39.5 C 204.1 39.5 204.3 39.4 204.5 39.3 C 204.5 39.3 205.3 40.7 205.8 40.7 C 206.4 40.7 207.0 40.7 207.0 40.7 C 207.0 40.7 207.2 40.1 207.3 40.1 C 207.4 40.0 206.6 38.8 206.6 38.8 C 206.2 38.4 205.9 37.9 205.5 37.5 C 205.5 37.5 204.6 37.0 204.3 37.2 C 204.1 37.4 204.8 37.9 204.9 38.1 C 205.0 38.3 204.6 38.6 204.6 38.6 C 204.2 38.3 203.8 38.0 203.4 37.8 C 203.4 37.8 203.0 37.5 202.6 37.3 C 202.2 37.1 201.3 36.9 201.2 37.0 C 201.0 37.1 201.0 37.5 200.9 37.7 C 200.8 37.9 201.1 38.3 200.5 38.0 C 200.0 37.7 199.5 37.3 199.4 37.3 C 199.2 37.3 198.8 37.8 198.8 37.8 C 198.6 37.9 198.5 38.0 198.4 38.1 C 198.4 38.1 198.0 38.3 197.7 38.1 C 197.5 37.8 196.5 38.1 196.5 38.1 C 196.5 38.1 196.1 37.3 195.7 37.1 C 195.4 37.0 194.8 36.8 194.4 36.9 C 194.1 37.1 194.2 37.9 194.2 37.9 C 194.0 37.7 193.7 37.5 193.4 37.3 C 192.9 37.2 192.5 37.1 192.0 37.1 C 192.0 37.1 191.1 37.1 191.2 37.3 C 191.2 37.4 191.8 38.1 191.9 38.3 C 191.9 38.5 191.6 38.7 191.4 38.5 C 191.2 38.2 190.3 37.6 190.3 37.6 C 190.3 37.6 189.6 37.2 189.3 37.1 C 189.0 37.1 188.7 37.3 188.7 37.5 C 188.6 37.6 188.5 38.1 188.5 38.1 C 188.3 37.9 188.0 37.7 187.7 37.5 C 187.7 37.5 187.2 37.8 186.0 37.2 C 186.0 37.2 186.0 37.2 186.0 37.2 Z M 205.6 37.0 C 204.7 37.1 207.2 39.7 207.9 40.3 C 208.7 40.8 209.2 40.5 209.9 40.6 C 210.7 40.7 209.8 39.8 210.1 39.6 C 210.3 39.3 210.5 39.9 211.0 40.3 C 211.4 40.7 212.2 40.3 212.9 40.4 C 213.5 40.4 213.6 39.5 214.0 39.5 C 214.5 39.4 213.3 39.0 214.2 39.0 C 215.1 39.1 215.0 39.6 214.2 39.9 C 213.4 40.1 215.0 40.4 215.6 40.5 C 216.3 40.6 216.9 40.2 217.4 40.2 C 217.9 40.3 216.9 39.6 217.5 39.6 C 218.2 39.6 218.4 40.3 219.1 40.4 C 219.9 40.5 219.3 39.9 219.5 39.7 C 219.8 39.6 220.0 40.0 220.3 40.0 C 220.6 40.1 221.2 40.3 221.7 40.1 C 222.2 40.0 221.9 39.8 222.2 39.7 C 222.4 39.7 222.9 39.7 222.9 39.7 C 223.1 39.9 223.3 40.1 223.5 40.4 C 223.5 40.4 224.7 40.4 225.1 40.5 C 225.5 40.5 226.0 40.2 225.7 40.1 C 225.4 39.9 225.8 39.5 226.1 39.6 C 226.3 39.7 227.1 40.0 227.7 40.2 C 228.2 40.3 226.7 38.6 226.5 38.4 C 226.4 38.1 225.9 37.2 225.4 37.1 C 225.0 37.0 225.0 37.3 224.9 37.1 C 224.8 36.8 223.9 37.1 223.7 37.1 C 223.4 37.1 223.5 37.7 223.5 37.7 C 223.5 37.7 223.7 38.3 223.2 38.3 C 222.7 38.3 221.8 37.2 221.8 37.2 C 221.8 37.2 221.1 37.0 220.5 37.0 C 220.0 37.1 220.1 38.0 220.1 38.2 C 220.1 38.4 219.5 37.5 219.1 37.4 C 218.6 37.3 217.8 37.1 217.7 37.1 C 217.6 37.2 217.7 37.7 217.7 37.7 C 217.7 37.7 217.2 38.1 217.0 38.1 C 216.9 38.1 216.6 37.3 216.6 37.3 C 216.6 37.3 214.9 37.0 214.5 37.0 C 214.1 36.9 213.8 37.1 213.6 37.2 C 213.4 37.2 213.8 38.2 213.4 38.1 C 213.0 38.0 213.3 37.5 212.9 37.4 C 212.5 37.3 211.7 37.1 211.5 37.1 C 211.4 37.1 211.4 37.4 211.2 37.5 C 210.9 37.5 211.0 38.3 210.6 38.3 C 210.1 38.3 209.6 37.8 209.4 37.7 C 209.1 37.6 208.6 37.0 208.2 37.0 C 207.8 36.9 208.4 37.4 208.1 37.4 C 207.7 37.4 208.1 37.9 207.7 37.8 C 207.2 37.7 206.9 36.9 206.6 37.0 C 206.5 37.0 206.6 37.0 205.6 37.0 C 205.6 37.0 205.6 37.0 205.6 37.0 Z M 226.4 37.2 C 225.6 36.8 225.5 37.3 225.9 37.6 C 226.2 38.0 227.1 39.0 227.2 39.3 C 227.2 39.5 227.2 40.2 228.1 40.4 C 229.1 40.5 229.1 40.2 228.9 40.0 C 228.7 39.8 228.1 38.7 228.4 38.8 C 228.7 38.9 229.1 39.2 229.3 39.3 C 229.5 39.5 230.6 40.5 230.9 40.3 C 231.2 40.2 231.3 39.9 231.3 39.9 C 231.5 39.9 231.7 39.9 231.9 39.9 C 231.9 39.9 233.0 40.5 233.3 40.3 C 233.7 40.2 234.2 40.2 234.6 40.2 C 235.0 40.3 235.2 40.2 235.1 40.0 C 235.0 39.7 234.8 38.9 234.8 38.9 C 234.8 38.9 235.1 38.7 235.4 38.8 C 235.8 38.9 236.2 39.4 236.3 39.6 C 236.4 39.8 236.8 40.2 237.2 40.3 C 237.7 40.4 239.5 40.9 239.5 40.6 C 239.5 40.3 239.2 40.0 239.3 39.9 C 239.4 39.8 240.3 39.7 240.6 40.0 C 240.9 40.2 241.2 40.7 241.5 40.6 C 241.7 40.6 242.4 40.7 242.3 40.6 C 242.2 40.5 242.2 40.3 242.0 40.0 C 241.8 39.8 242.2 39.5 242.2 39.4 C 242.2 39.3 242.6 39.2 242.6 39.2 C 242.9 39.4 243.3 39.5 243.6 39.7 C 243.6 39.7 243.7 40.2 243.6 40.3 C 243.5 40.4 244.0 40.7 244.2 40.7 C 244.5 40.8 245.5 40.7 245.5 40.7 C 245.2 40.3 244.9 39.9 244.6 39.5 C 244.8 39.5 245.0 39.4 245.2 39.3 C 245.2 39.3 246.2 40.7 246.7 40.7 C 247.2 40.7 247.8 40.7 247.8 40.7 C 247.8 40.7 248.0 40.1 248.1 40.1 C 248.1 40.0 247.2 38.8 247.2 38.8 C 246.8 38.4 246.3 37.9 245.9 37.5 C 245.9 37.5 244.9 37.0 244.7 37.2 C 244.5 37.4 245.2 37.9 245.4 38.1 C 245.5 38.3 245.2 38.6 245.2 38.6 C 244.7 38.3 244.3 38.0 243.8 37.8 C 243.8 37.8 243.4 37.5 243.0 37.3 C 242.6 37.1 241.7 36.9 241.5 37.0 C 241.4 37.1 241.4 37.5 241.3 37.7 C 241.2 37.9 241.6 38.3 241.0 38.0 C 240.4 37.7 239.9 37.3 239.8 37.3 C 239.6 37.3 239.2 37.8 239.2 37.8 C 239.1 37.9 239.0 38.0 238.9 38.1 C 238.9 38.1 238.5 38.3 238.2 38.1 C 237.9 37.8 237.0 38.1 237.0 38.1 C 237.0 38.1 236.5 37.3 236.1 37.1 C 235.7 37.0 235.1 36.8 234.7 36.9 C 234.4 37.1 234.7 37.9 234.7 37.9 C 234.4 37.7 234.1 37.5 233.8 37.3 C 233.3 37.2 232.8 37.1 232.4 37.1 C 232.4 37.1 231.4 37.1 231.5 37.3 C 231.7 37.4 232.3 38.1 232.4 38.3 C 232.5 38.5 232.2 38.7 231.9 38.5 C 231.7 38.2 230.7 37.6 230.7 37.6 C 230.7 37.6 230.0 37.2 229.7 37.1 C 229.3 37.1 229.1 37.3 229.1 37.5 C 229.1 37.6 229.0 38.1 229.0 38.1 C 228.7 37.9 228.4 37.7 228.1 37.5 C 228.1 37.5 227.6 37.8 226.4 37.2 C 226.4 37.2 226.4 37.2 226.4 37.2 Z M 246.0 37.0 C 245.0 37.1 247.9 39.7 248.8 40.3 C 249.6 40.8 250.0 40.5 250.8 40.6 C 251.5 40.7 250.6 39.8 250.8 39.6 C 251.0 39.3 251.3 39.9 251.8 40.3 C 252.3 40.7 253.0 40.3 253.7 40.4 C 254.4 40.4 254.3 39.5 254.7 39.5 C 255.2 39.4 253.9 39.0 254.8 39.0 C 255.8 39.1 255.7 39.6 255.0 39.9 C 254.1 40.1 255.8 40.4 256.5 40.5 C 257.1 40.6 257.7 40.2 258.2 40.2 C 258.7 40.3 257.6 39.6 258.2 39.6 C 258.9 39.6 259.2 40.3 259.9 40.4 C 260.7 40.5 260.0 39.9 260.2 39.7 C 260.5 39.6 260.7 40.0 261.1 40.0 C 261.4 40.1 262.0 40.3 262.5 40.1 C 263.0 40.0 262.7 39.8 262.9 39.7 C 263.1 39.7 263.6 39.7 263.6 39.7 C 263.9 39.9 264.1 40.1 264.4 40.4 C 264.4 40.4 265.5 40.4 265.9 40.5 C 266.3 40.5 266.8 40.2 266.5 40.1 C 266.1 39.9 266.5 39.5 266.8 39.6 C 267.0 39.7 267.9 40.0 268.4 40.2 C 269.0 40.3 267.3 38.6 267.1 38.4 C 266.9 38.1 266.2 37.2 265.8 37.1 C 265.4 37.0 265.4 37.3 265.2 37.1 C 265.1 36.8 264.3 37.1 264.0 37.1 C 263.7 37.1 264.0 37.7 264.0 37.7 C 264.0 37.7 264.2 38.3 263.7 38.3 C 263.3 38.3 262.1 37.2 262.1 37.2 C 262.1 37.2 261.4 37.0 260.9 37.0 C 260.4 37.1 260.5 38.0 260.6 38.2 C 260.7 38.4 259.9 37.5 259.5 37.4 C 259.0 37.3 258.2 37.1 258.1 37.1 C 257.9 37.2 258.1 37.7 258.1 37.7 C 258.1 37.7 257.7 38.1 257.5 38.1 C 257.4 38.1 256.9 37.3 256.9 37.3 C 256.9 37.3 255.2 37.0 254.9 37.0 C 254.5 36.9 254.2 37.1 254.0 37.2 C 253.8 37.2 254.3 38.2 253.9 38.1 C 253.5 38.0 253.7 37.5 253.3 37.4 C 252.9 37.3 252.1 37.1 251.9 37.1 C 251.7 37.1 251.8 37.4 251.6 37.5 C 251.3 37.5 251.6 38.3 251.1 38.3 C 250.7 38.3 250.1 37.8 249.8 37.7 C 249.6 37.6 248.9 37.0 248.5 37.0 C 248.2 36.9 248.8 37.4 248.5 37.4 C 248.1 37.4 248.5 37.9 248.1 37.8 C 247.7 37.7 247.2 36.9 246.9 37.0 C 246.8 37.0 246.9 37.0 246.0 37.0 C 246.0 37.0 246.0 37.0 246.0 37.0 Z M 268.7 37.8 C 268.5 37.9 267.9 37.5 267.2 37.3 C 266.5 37.1 265.8 37.1 266.2 37.4 C 266.6 37.7 267.0 37.9 267.1 38.3 C 267.2 38.7 267.5 39.5 268.1 39.7 C 268.7 40.0 270.9 40.7 271.1 40.3 C 271.3 39.9 271.3 39.8 271.4 39.6 C 271.6 39.3 272.1 40.1 272.1 40.1 C 272.1 40.1 273.0 40.2 273.7 40.3 C 274.3 40.3 275.1 40.3 275.0 40.2 C 275.0 40.1 274.9 39.8 274.9 39.8 C 274.9 39.8 275.6 40.2 276.1 40.2 C 276.7 40.3 276.3 40.1 276.1 39.9 C 275.8 39.7 274.8 39.2 275.0 39.2 C 275.2 39.2 276.5 40.0 276.9 40.1 C 277.3 40.2 278.0 40.1 278.0 40.1 C 278.0 40.1 277.5 39.7 277.5 39.6 C 277.4 39.5 278.1 39.4 278.3 39.6 C 278.5 39.7 278.9 40.2 279.3 40.2 C 280.5 40.3 279.5 39.4 279.6 39.4 C 279.6 39.4 280.3 40.1 280.6 40.2 C 281.0 40.3 283.1 40.2 283.1 40.0 C 283.0 39.8 284.4 40.5 284.3 40.0 C 284.2 39.6 284.2 39.5 284.2 39.4 C 284.1 39.3 283.9 38.6 284.3 38.8 C 284.8 39.1 284.7 39.9 285.1 40.1 C 285.6 40.3 287.0 40.3 287.1 40.1 C 287.1 39.8 286.6 39.2 286.8 39.2 C 287.0 39.2 288.6 40.0 288.5 39.9 C 288.5 39.8 287.9 39.1 287.7 38.9 C 287.6 38.8 286.6 37.5 286.3 37.4 C 286.0 37.2 284.7 36.7 285.2 37.1 C 285.6 37.5 286.2 37.9 286.1 38.1 C 286.0 38.2 285.8 38.2 285.6 38.1 C 285.4 38.0 285.4 37.8 284.7 37.6 C 284.0 37.3 284.0 37.1 283.6 37.1 C 283.1 37.1 282.8 37.2 283.1 37.5 C 283.4 37.7 283.3 38.1 282.9 38.1 C 282.6 38.1 282.6 37.5 281.3 37.2 C 280.0 37.0 279.3 36.9 279.3 37.2 C 279.2 37.4 279.8 38.1 279.0 37.8 C 278.2 37.5 278.3 37.3 277.7 37.3 C 277.0 37.3 277.3 37.9 276.9 38.0 C 276.5 38.0 276.4 37.9 276.4 37.9 C 276.4 37.9 275.8 37.1 274.8 37.1 C 273.9 37.0 273.6 37.0 274.3 37.6 C 275.1 38.2 274.4 38.2 274.0 37.8 C 273.6 37.4 272.8 37.1 272.4 37.1 C 272.1 37.0 272.9 38.1 272.8 38.1 C 272.7 38.1 272.3 38.0 272.1 37.7 C 272.0 37.4 271.5 37.3 271.1 37.2 C 270.7 37.1 269.9 37.2 270.1 37.4 C 270.3 37.5 271.3 38.2 270.4 37.9 C 269.5 37.5 268.9 37.0 268.4 37.1 C 267.8 37.1 268.9 37.7 268.7 37.8 C 268.7 37.8 268.7 37.8 268.7 37.8 Z M 286.9 37.2 C 286.1 36.8 286.1 37.3 286.5 37.6 C 286.9 38.0 288.1 39.0 288.2 39.3 C 288.2 39.5 288.4 40.2 289.4 40.4 C 290.4 40.5 290.3 40.2 290.0 40.0 C 289.8 39.8 289.0 38.7 289.3 38.8 C 289.6 38.9 290.1 39.2 290.3 39.3 C 290.5 39.5 291.8 40.5 292.1 40.3 C 292.4 40.2 292.5 39.9 292.5 39.9 C 292.7 39.9 292.8 39.9 293.0 39.9 C 293.0 39.9 294.2 40.5 294.5 40.3 C 294.6 40.3 294.6 40.3 294.7 40.3 C 294.6 39.8 294.6 39.3 294.7 39.0 C 294.7 38.7 294.6 38.3 294.4 38.0 C 294.2 37.7 293.3 36.5 293.3 36.5 C 293.3 36.5 293.1 35.8 293.2 35.7 C 293.4 35.6 293.8 35.9 294.0 36.1 C 294.2 36.3 294.7 36.6 294.8 36.3 C 294.9 36.0 295.3 34.7 295.0 34.3 C 294.8 33.8 294.4 33.7 294.3 33.4 C 294.2 33.2 294.2 32.1 294.4 32.2 C 294.6 32.2 295.1 32.6 295.1 32.2 C 295.0 31.9 295.2 31.3 295.0 31.3 C 294.9 31.2 294.8 30.9 294.5 30.7 C 294.2 30.6 294.0 29.9 293.8 29.7 C 293.7 29.5 293.7 29.0 293.7 29.0 C 293.8 28.9 294.0 28.8 294.1 28.6 C 294.1 28.6 294.6 29.2 294.7 29.4 C 294.8 29.6 295.1 29.5 295.2 29.3 C 295.2 29.1 295.1 27.9 295.1 27.9 C 294.8 27.7 294.4 27.6 294.0 27.4 C 293.9 27.1 293.8 26.8 293.7 26.5 C 293.7 26.5 295.1 27.0 295.1 26.5 C 295.1 25.9 295.1 25.2 295.1 25.2 C 295.1 25.2 294.6 24.5 294.5 24.4 C 294.5 24.2 293.3 24.0 293.3 24.0 C 292.8 23.9 292.4 23.9 291.9 23.9 C 291.9 23.9 291.4 24.4 291.6 24.7 C 291.8 25.1 292.3 24.9 292.5 25.0 C 292.8 25.1 293.0 25.7 293.0 25.7 C 292.7 25.8 292.5 26.0 292.2 26.2 C 292.2 26.2 292.0 26.3 291.8 26.4 C 291.5 26.5 291.4 27.2 291.5 27.5 C 291.6 27.7 291.9 28.0 292.1 28.4 C 292.4 28.8 292.8 28.9 292.4 29.1 C 292.1 29.3 291.8 29.2 291.8 29.4 C 291.8 29.6 292.2 30.5 292.2 30.5 C 292.3 30.8 292.4 31.0 292.5 31.3 C 292.5 31.3 292.8 32.0 292.5 31.9 C 292.2 31.8 292.5 33.0 292.5 33.0 C 292.5 33.0 291.7 32.4 291.6 32.5 C 291.4 32.7 291.2 32.9 291.4 33.5 C 291.5 34.0 292.3 34.9 292.3 34.9 C 292.1 34.9 291.9 34.9 291.7 34.8 C 291.6 35.2 291.6 35.5 291.5 35.8 C 291.5 35.8 291.6 36.8 291.7 36.9 C 291.8 37.0 292.5 37.6 292.7 37.8 C 292.9 38.0 293.0 38.4 293.0 38.6 C 292.9 38.6 292.8 38.5 292.8 38.5 C 292.5 38.2 291.4 37.6 291.4 37.6 C 291.4 37.6 290.5 37.2 290.2 37.1 C 289.9 37.1 289.7 37.3 289.7 37.5 C 289.7 37.6 289.8 38.1 289.8 38.1 C 289.4 37.9 289.1 37.7 288.7 37.5 C 288.7 37.5 288.3 37.8 286.9 37.2 C 286.9 37.2 286.9 37.2 286.9 37.2 Z M 291.5 23.4 C 291.5 24.3 294.2 24.2 294.7 23.8 C 295.3 23.4 294.9 22.7 295.0 21.9 C 295.1 21.2 294.3 21.4 294.0 21.0 C 293.8 20.6 294.3 20.7 294.7 20.5 C 295.1 20.3 294.8 19.2 294.8 18.5 C 294.8 17.8 294.0 17.3 293.9 16.8 C 293.9 16.3 293.4 17.4 293.5 16.4 C 293.5 15.5 294.0 15.8 294.3 16.8 C 294.6 17.9 294.8 16.3 294.9 15.6 C 295.0 15.0 294.6 14.0 294.7 13.5 C 294.7 13.0 294.0 13.9 294.0 13.2 C 294.1 12.5 294.8 12.6 294.9 11.8 C 295.0 11.0 294.3 11.4 294.2 11.2 C 294.0 10.9 294.4 10.8 294.5 10.4 C 294.5 10.1 294.7 9.5 294.6 8.9 C 294.4 8.3 294.2 8.7 294.2 8.4 C 294.1 8.1 294.1 7.6 294.1 7.6 C 294.3 7.4 294.6 7.2 294.8 7.0 C 294.8 7.0 294.9 5.7 294.9 5.3 C 295.0 4.9 294.7 4.3 294.5 4.6 C 294.4 5.0 293.9 4.6 294.0 4.3 C 294.1 4.0 294.5 3.1 294.6 2.5 C 294.6 2.5 294.6 2.4 294.6 2.4 C 294.1 2.7 292.9 4.0 292.6 4.2 C 292.4 4.5 291.3 5.4 291.5 5.5 C 291.5 5.5 291.5 5.5 291.5 5.5 C 291.5 5.8 291.8 5.8 291.5 6.0 C 291.3 6.1 291.5 6.8 291.5 7.1 C 291.5 7.3 292.2 7.1 292.2 7.1 C 292.2 7.1 292.7 6.9 292.7 7.3 C 292.7 7.8 291.6 8.8 291.6 8.8 C 291.6 8.8 291.4 9.4 291.5 9.9 C 291.5 10.4 292.4 10.4 292.6 10.4 C 292.8 10.3 292.0 10.8 291.9 11.3 C 291.8 11.7 291.5 12.4 291.6 12.5 C 291.6 12.6 292.2 12.6 292.2 12.6 C 292.2 12.6 292.5 13.1 292.5 13.3 C 292.5 13.5 291.7 13.6 291.7 13.6 C 291.7 13.6 291.5 15.0 291.4 15.4 C 291.4 15.7 291.6 16.0 291.6 16.2 C 291.7 16.4 292.7 16.4 292.6 16.8 C 292.5 17.1 291.9 16.6 291.8 17.0 C 291.7 17.3 291.5 17.9 291.5 18.1 C 291.5 18.2 291.9 18.4 291.9 18.6 C 292.0 18.9 292.7 19.2 292.7 19.6 C 292.7 20.0 292.3 20.3 292.2 20.4 C 292.1 20.6 291.4 20.7 291.4 21.1 C 291.4 21.4 291.8 21.1 291.8 21.5 C 291.8 21.8 292.3 21.8 292.2 22.1 C 292.1 22.4 291.3 22.2 291.4 22.5 C 291.5 22.7 291.4 22.5 291.5 23.4 C 291.5 23.4 291.5 23.4 291.5 23.4 Z M 290.7 5.4 C 290.9 5.8 291.7 5.3 292.0 4.9 C 292.4 4.6 293.2 3.6 293.6 3.3 C 293.7 3.3 293.7 3.2 293.8 3.2 C 294.3 2.9 295.1 2.4 294.8 2.3 C 294.7 2.2 294.7 2.2 294.6 2.2 C 293.9 2.1 293.4 2.3 293.2 2.6 C 293.0 2.8 291.8 3.8 291.7 3.7 C 291.5 3.6 291.6 3.4 291.6 3.2 C 291.7 3.1 292.4 2.1 291.8 2.2 C 291.2 2.4 290.6 2.7 290.6 2.7 C 290.3 2.7 290.1 2.7 289.9 2.7 C 289.9 2.7 289.9 2.1 289.3 2.2 C 288.7 2.4 288.2 2.4 287.9 2.3 C 287.6 2.3 287.2 2.4 286.9 2.6 C 286.6 2.8 285.4 3.7 285.4 3.7 C 285.4 3.7 284.6 3.9 284.5 3.8 C 284.4 3.6 284.8 3.2 285.0 3.0 C 285.3 2.8 285.6 2.3 285.4 2.2 C 285.1 2.2 284.1 1.7 283.6 2.0 C 283.1 2.2 282.8 2.6 282.5 2.7 C 282.3 2.8 281.2 2.9 281.4 2.6 C 281.5 2.4 282.0 1.9 281.7 1.9 C 281.4 2.0 280.9 1.8 280.8 2.0 C 280.7 2.1 280.3 2.2 280.1 2.5 C 279.8 2.8 279.0 3.0 278.8 3.2 C 278.5 3.3 278.0 3.4 278.0 3.4 C 278.0 3.2 277.9 3.1 277.9 2.9 C 277.9 2.9 278.7 2.4 278.9 2.3 C 279.2 2.2 279.2 1.9 279.1 1.8 C 278.9 1.8 277.7 1.9 277.7 1.9 C 277.4 2.3 277.0 2.6 276.7 3.0 C 276.3 3.1 276.0 3.2 275.7 3.3 C 275.7 3.3 277.0 1.9 276.4 1.9 C 275.9 1.9 275.3 1.9 275.3 1.9 C 275.3 1.9 274.3 2.4 274.1 2.5 C 273.9 2.5 272.8 3.7 272.8 3.7 C 272.5 4.2 272.1 4.6 271.8 5.1 C 271.8 5.1 272.0 5.6 272.5 5.4 C 273.0 5.2 273.2 4.7 273.4 4.5 C 273.7 4.2 274.4 4.0 274.4 4.0 C 274.4 4.3 274.4 4.5 274.4 4.8 C 274.4 4.8 274.4 5.0 274.4 5.3 C 274.4 5.5 275.1 5.6 275.4 5.5 C 275.7 5.4 276.2 5.1 276.7 4.9 C 277.2 4.7 277.5 4.2 277.6 4.6 C 277.6 4.9 277.5 5.3 277.6 5.3 C 277.8 5.3 279.0 4.8 279.0 4.8 C 279.3 4.7 279.6 4.6 279.9 4.5 C 279.9 4.5 280.6 4.2 280.5 4.5 C 280.3 4.8 281.7 4.5 281.7 4.5 C 281.7 4.5 280.8 5.3 281.0 5.4 C 281.1 5.6 281.4 5.8 282.0 5.6 C 282.6 5.5 283.7 4.7 283.7 4.7 C 283.6 4.9 283.6 5.1 283.5 5.3 C 283.9 5.4 284.2 5.4 284.6 5.5 C 284.6 5.5 285.6 5.4 285.7 5.3 C 285.9 5.2 286.4 4.5 286.7 4.3 C 286.9 4.1 287.6 3.9 287.5 4.1 C 287.3 4.3 287.1 5.0 287.1 5.0 C 287.1 5.0 287.1 5.4 287.4 5.4 C 287.6 5.5 288.3 5.3 288.5 5.1 C 288.8 5.0 289.7 4.5 289.7 4.5 C 289.6 4.7 289.6 4.9 289.5 5.1 C 289.5 5.1 290.5 4.8 290.7 5.4 C 290.7 5.4 290.7 5.4 290.7 5.4 Z M 269.9 4.7 C 270.2 4.6 270.0 5.1 270.4 5.3 C 270.8 5.4 271.5 5.5 271.6 5.2 C 271.7 4.8 271.7 4.6 272.4 4.2 C 273.0 3.8 273.9 3.1 273.8 2.9 C 273.6 2.6 272.6 1.9 271.8 2.3 C 271.0 2.6 270.7 2.8 270.2 3.0 C 269.6 3.3 270.5 2.5 270.5 2.5 C 270.5 2.5 269.8 2.4 269.2 2.3 C 268.6 2.3 267.9 2.2 267.7 2.4 C 267.5 2.5 267.1 2.8 267.1 2.8 C 267.1 2.8 267.0 2.4 266.6 2.3 C 266.2 2.3 266.2 2.5 266.1 2.7 C 266.1 2.8 266.2 3.4 266.0 3.4 C 265.8 3.4 265.9 2.6 265.6 2.5 C 265.3 2.4 264.5 2.5 264.5 2.5 C 264.5 2.5 264.3 2.9 264.1 3.0 C 264.0 3.1 263.2 3.2 263.3 3.0 C 263.4 2.9 263.8 2.4 263.5 2.3 C 262.4 2.3 261.9 3.1 261.7 3.2 C 261.6 3.2 262.2 2.5 262.0 2.4 C 261.8 2.3 259.5 2.4 259.2 2.6 C 259.0 2.7 258.7 2.1 258.1 2.5 C 257.4 3.0 257.2 3.1 257.1 3.2 C 256.9 3.3 256.0 4.0 256.0 3.7 C 256.0 3.5 257.4 2.7 257.3 2.5 C 257.2 2.3 255.8 2.2 255.5 2.4 C 254.9 2.7 254.3 3.4 254.1 3.4 C 254.0 3.4 253.8 2.5 253.6 2.7 C 253.4 2.8 252.8 3.5 252.7 3.6 C 252.6 3.8 251.5 5.0 251.5 5.2 C 251.6 5.4 252.1 5.8 252.2 5.5 C 252.4 5.1 252.5 4.7 252.9 4.5 C 253.3 4.4 253.5 4.3 253.5 4.5 C 253.4 4.6 253.2 4.8 253.5 5.0 C 253.8 5.2 253.3 5.5 253.8 5.5 C 254.3 5.5 254.7 5.4 254.9 5.1 C 255.0 4.8 255.8 4.4 256.1 4.5 C 256.4 4.5 255.4 5.1 256.3 5.3 C 257.1 5.6 257.7 5.6 258.2 5.4 C 258.7 5.2 259.3 4.4 259.5 4.8 C 259.8 5.1 259.4 5.3 260.0 5.2 C 260.7 5.2 261.4 4.6 261.9 4.6 C 262.3 4.6 262.4 4.6 262.4 4.6 C 262.4 4.6 261.5 5.5 262.4 5.5 C 263.3 5.5 263.5 5.6 263.7 5.0 C 264.0 4.4 264.8 4.4 264.5 4.8 C 264.2 5.2 264.6 5.4 264.8 5.5 C 265.1 5.5 266.0 4.5 266.2 4.5 C 266.4 4.5 266.7 4.5 266.3 4.9 C 265.9 5.2 266.2 5.2 266.4 5.4 C 266.5 5.5 267.5 5.4 267.6 5.2 C 267.8 5.0 267.9 4.4 268.2 4.7 C 268.5 5.0 268.2 5.5 268.8 5.5 C 269.4 5.5 269.4 4.9 269.9 4.7 C 269.9 4.7 269.9 4.7 269.9 4.7 Z M 250.6 5.4 C 250.8 5.8 251.6 5.3 251.8 4.9 C 252.0 4.6 252.5 3.6 252.9 3.3 C 253.3 3.0 254.3 2.3 253.6 2.2 C 252.8 2.1 252.4 2.3 252.3 2.6 C 252.1 2.8 251.2 3.8 251.0 3.7 C 250.9 3.6 250.9 3.4 250.9 3.2 C 250.9 3.1 251.3 2.1 250.8 2.2 C 250.2 2.4 249.7 2.7 249.7 2.7 C 249.4 2.7 249.2 2.7 249.0 2.7 C 249.0 2.7 248.8 2.1 248.3 2.2 C 247.7 2.4 247.2 2.4 246.9 2.3 C 246.6 2.3 246.2 2.4 246.0 2.6 C 245.7 2.8 244.7 3.7 244.7 3.7 C 244.7 3.7 244.1 3.9 243.9 3.8 C 243.8 3.6 244.0 3.2 244.2 3.0 C 244.4 2.8 244.6 2.3 244.4 2.2 C 244.1 2.2 242.9 1.7 242.5 2.0 C 242.0 2.2 241.9 2.6 241.6 2.7 C 241.4 2.8 240.4 2.9 240.4 2.6 C 240.5 2.4 240.9 1.9 240.6 1.9 C 240.3 2.0 239.8 1.8 239.7 2.0 C 239.6 2.1 239.3 2.2 239.1 2.5 C 238.9 2.8 238.2 3.0 238.0 3.2 C 237.8 3.3 237.3 3.4 237.3 3.4 C 237.2 3.2 237.1 3.1 237.0 2.9 C 237.0 2.9 237.7 2.4 237.9 2.3 C 238.1 2.2 238.1 1.9 237.9 1.8 C 237.8 1.8 236.6 1.9 236.6 1.9 C 236.4 2.3 236.1 2.6 235.9 3.0 C 235.5 3.1 235.2 3.2 234.9 3.3 C 234.9 3.3 235.8 1.9 235.3 1.9 C 234.8 1.9 234.2 1.9 234.2 1.9 C 234.2 1.9 233.3 2.4 233.2 2.5 C 233.0 2.5 232.2 3.7 232.2 3.7 C 232.0 4.2 231.8 4.6 231.5 5.1 C 231.5 5.1 231.9 5.6 232.3 5.4 C 232.8 5.2 232.8 4.7 233.0 4.5 C 233.2 4.2 233.8 4.0 233.8 4.0 C 233.9 4.3 234.0 4.5 234.1 4.8 C 234.1 4.8 234.2 5.0 234.2 5.3 C 234.3 5.5 235.0 5.6 235.3 5.5 C 235.6 5.4 236.0 5.1 236.4 4.9 C 236.9 4.7 237.1 4.2 237.2 4.6 C 237.4 4.9 237.3 5.3 237.5 5.3 C 237.6 5.3 238.7 4.8 238.7 4.8 C 238.9 4.7 239.2 4.6 239.5 4.5 C 239.5 4.5 240.2 4.2 240.1 4.5 C 240.0 4.8 241.3 4.5 241.3 4.5 C 241.3 4.5 240.7 5.3 240.9 5.4 C 241.0 5.6 241.4 5.8 241.9 5.6 C 242.5 5.5 243.3 4.7 243.3 4.7 C 243.3 4.9 243.3 5.1 243.3 5.3 C 243.7 5.4 244.1 5.4 244.5 5.5 C 244.5 5.5 245.5 5.4 245.6 5.3 C 245.7 5.2 246.0 4.5 246.2 4.3 C 246.4 4.1 247.1 3.9 247.0 4.1 C 246.9 4.3 246.9 5.0 246.9 5.0 C 246.9 5.0 247.0 5.4 247.2 5.4 C 247.5 5.5 248.1 5.3 248.3 5.1 C 248.5 5.0 249.3 4.5 249.3 4.5 C 249.3 4.7 249.3 4.9 249.2 5.1 C 249.2 5.1 250.2 4.8 250.6 5.4 C 250.6 5.4 250.6 5.4 250.6 5.4 Z M 229.6 4.7 C 229.8 4.6 229.8 5.1 230.2 5.3 C 230.7 5.4 231.3 5.5 231.4 5.2 C 231.4 4.8 231.4 4.6 231.9 4.2 C 232.4 3.8 233.2 3.1 232.9 2.9 C 232.7 2.6 231.5 1.9 230.8 2.3 C 230.1 2.6 229.9 2.8 229.4 3.0 C 228.9 3.3 229.6 2.5 229.6 2.5 C 229.6 2.5 228.8 2.4 228.2 2.3 C 227.6 2.3 226.9 2.2 226.7 2.4 C 226.6 2.5 226.2 2.8 226.2 2.8 C 226.2 2.8 226.1 2.4 225.6 2.3 C 225.2 2.3 225.3 2.5 225.2 2.7 C 225.2 2.8 225.5 3.4 225.3 3.4 C 225.1 3.4 224.9 2.6 224.6 2.5 C 224.3 2.4 223.6 2.5 223.6 2.5 C 223.6 2.5 223.4 2.9 223.3 3.0 C 223.2 3.1 222.4 3.2 222.5 3.0 C 222.5 2.9 222.8 2.4 222.5 2.3 C 221.4 2.3 221.1 3.1 221.0 3.2 C 220.9 3.2 221.2 2.5 221.0 2.4 C 220.8 2.3 218.5 2.4 218.3 2.6 C 218.1 2.7 217.7 2.1 217.1 2.5 C 216.6 3.0 216.4 3.1 216.3 3.2 C 216.2 3.3 215.5 4.0 215.4 3.7 C 215.3 3.5 216.5 2.7 216.4 2.5 C 216.2 2.3 214.8 2.2 214.5 2.4 C 214.0 2.7 213.6 3.4 213.4 3.4 C 213.2 3.4 212.8 2.5 212.7 2.7 C 212.6 2.8 212.2 3.5 212.1 3.6 C 212.0 3.8 211.2 5.0 211.3 5.2 C 211.4 5.4 212.0 5.8 212.1 5.5 C 212.1 5.1 212.1 4.7 212.5 4.5 C 212.9 4.4 213.0 4.3 213.1 4.5 C 213.1 4.6 212.8 4.8 213.2 5.0 C 213.6 5.2 213.2 5.5 213.7 5.5 C 214.1 5.5 214.6 5.4 214.7 5.1 C 214.7 4.8 215.4 4.4 215.7 4.5 C 216.0 4.5 215.2 5.1 216.1 5.3 C 217.0 5.6 217.6 5.6 218.0 5.4 C 218.5 5.2 218.9 4.4 219.2 4.8 C 219.5 5.1 219.2 5.3 219.8 5.2 C 220.5 5.2 221.1 4.6 221.5 4.6 C 221.9 4.6 222.0 4.6 222.0 4.6 C 222.0 4.6 221.4 5.5 222.3 5.5 C 223.2 5.5 223.4 5.6 223.5 5.0 C 223.6 4.4 224.4 4.4 224.2 4.8 C 224.0 5.2 224.4 5.4 224.7 5.5 C 225.0 5.5 225.6 4.5 225.8 4.5 C 225.9 4.5 226.3 4.5 226.0 4.9 C 225.6 5.2 226.0 5.2 226.2 5.4 C 226.4 5.5 227.3 5.4 227.4 5.2 C 227.5 5.0 227.5 4.4 227.9 4.7 C 228.3 5.0 228.1 5.5 228.7 5.5 C 229.3 5.5 229.1 4.9 229.6 4.7 C 229.6 4.7 229.6 4.7 229.6 4.7 Z M 210.5 5.4 C 210.8 5.8 211.4 5.3 211.5 4.9 C 211.6 4.6 211.9 3.6 212.2 3.3 C 212.5 3.0 213.3 2.3 212.5 2.2 C 211.7 2.1 211.4 2.3 211.3 2.6 C 211.2 2.8 210.6 3.8 210.4 3.7 C 210.2 3.6 210.1 3.4 210.1 3.2 C 210.1 3.1 210.2 2.1 209.7 2.2 C 209.3 2.4 208.8 2.7 208.8 2.7 C 208.5 2.7 208.3 2.7 208.1 2.7 C 208.1 2.7 207.8 2.1 207.3 2.2 C 206.7 2.4 206.2 2.4 205.9 2.3 C 205.6 2.3 205.2 2.4 205.0 2.6 C 204.9 2.8 204.1 3.7 204.1 3.7 C 204.1 3.7 203.5 3.9 203.3 3.8 C 203.2 3.6 203.3 3.2 203.4 3.0 C 203.5 2.8 203.6 2.3 203.3 2.2 C 203.0 2.2 201.7 1.7 201.3 2.0 C 201.0 2.2 200.9 2.6 200.7 2.7 C 200.5 2.8 199.5 2.9 199.5 2.6 C 199.5 2.4 199.8 1.9 199.5 1.9 C 199.1 2.0 198.6 1.8 198.6 2.0 C 198.5 2.1 198.3 2.2 198.2 2.5 C 198.1 2.8 197.4 3.0 197.2 3.2 C 197.1 3.3 196.6 3.4 196.6 3.4 C 196.5 3.2 196.3 3.1 196.2 2.9 C 196.2 2.9 196.7 2.4 196.9 2.3 C 197.1 2.2 196.9 1.9 196.8 1.8 C 196.6 1.8 195.5 1.9 195.5 1.9 C 195.3 2.3 195.2 2.6 195.0 3.0 C 194.8 3.1 194.5 3.2 194.2 3.3 C 194.2 3.3 194.7 1.9 194.2 1.9 C 193.7 1.9 193.0 1.9 193.0 1.9 C 193.0 1.9 192.3 2.4 192.2 2.5 C 192.0 2.5 191.6 3.7 191.6 3.7 C 191.5 4.2 191.4 4.6 191.3 5.1 C 191.3 5.1 191.8 5.6 192.2 5.4 C 192.6 5.2 192.5 4.7 192.6 4.5 C 192.7 4.2 193.3 4.0 193.3 4.0 C 193.5 4.3 193.6 4.5 193.8 4.8 C 193.8 4.8 193.9 5.0 194.1 5.3 C 194.2 5.5 194.9 5.6 195.2 5.5 C 195.5 5.4 195.8 5.1 196.2 4.9 C 196.5 4.7 196.6 4.2 196.8 4.6 C 197.1 4.9 197.1 5.3 197.3 5.3 C 197.4 5.3 198.3 4.8 198.3 4.8 C 198.6 4.7 198.8 4.6 199.1 4.5 C 199.1 4.5 199.7 4.2 199.7 4.5 C 199.7 4.8 200.9 4.5 200.9 4.5 C 200.9 4.5 200.5 5.3 200.7 5.4 C 200.9 5.6 201.3 5.8 201.8 5.6 C 202.3 5.5 203.0 4.7 203.0 4.7 C 203.0 4.9 203.1 5.1 203.2 5.3 C 203.6 5.4 204.0 5.4 204.4 5.5 C 204.4 5.5 205.4 5.4 205.4 5.3 C 205.5 5.2 205.6 4.5 205.8 4.3 C 205.9 4.1 206.5 3.9 206.5 4.1 C 206.4 4.3 206.6 5.0 206.6 5.0 C 206.6 5.0 206.8 5.4 207.1 5.4 C 207.4 5.5 207.9 5.3 208.1 5.1 C 208.3 5.0 208.9 4.5 208.9 4.5 C 209.0 4.7 209.0 4.9 209.0 5.1 C 209.0 5.1 209.9 4.8 210.5 5.4 C 210.5 5.4 210.5 5.4 210.5 5.4 Z M 189.2 4.7 C 189.5 4.6 189.5 5.1 190.0 5.3 C 190.5 5.4 191.2 5.5 191.2 5.2 C 191.1 4.8 191.0 4.6 191.4 4.2 C 191.8 3.8 192.4 3.1 192.1 2.9 C 191.7 2.6 190.4 1.9 189.8 2.3 C 189.2 2.6 189.0 2.8 188.5 3.0 C 188.1 3.3 188.6 2.5 188.6 2.5 C 188.6 2.5 187.8 2.4 187.2 2.3 C 186.5 2.3 185.8 2.2 185.7 2.4 C 185.6 2.5 185.3 2.8 185.3 2.8 C 185.3 2.8 185.1 2.4 184.6 2.3 C 184.2 2.3 184.3 2.5 184.3 2.7 C 184.3 2.8 184.8 3.4 184.6 3.4 C 184.4 3.4 184.0 2.6 183.7 2.5 C 183.4 2.4 182.6 2.5 182.6 2.5 C 182.6 2.5 182.6 2.9 182.5 3.0 C 182.4 3.1 181.7 3.2 181.7 3.0 C 181.7 2.9 181.8 2.4 181.5 2.3 C 180.4 2.3 180.3 3.1 180.2 3.2 C 180.1 3.2 180.3 2.5 180.0 2.4 C 179.8 2.3 177.5 2.4 177.4 2.6 C 177.2 2.7 176.6 2.1 176.2 2.5 C 175.8 3.0 175.6 3.1 175.6 3.2 C 175.5 3.3 174.9 4.0 174.8 3.7 C 174.6 3.5 175.6 2.7 175.4 2.5 C 175.2 2.3 173.8 2.2 173.5 2.4 C 173.1 2.7 172.9 3.4 172.7 3.4 C 172.5 3.4 171.9 2.5 171.8 2.7 C 171.7 2.8 171.5 3.5 171.5 3.6 C 171.4 3.8 171.0 5.0 171.1 5.2 C 171.3 5.4 172.0 5.8 172.0 5.5 C 171.9 5.1 171.8 4.7 172.1 4.5 C 172.4 4.4 172.6 4.3 172.6 4.5 C 172.7 4.6 172.5 4.8 172.9 5.0 C 173.4 5.2 173.1 5.5 173.5 5.5 C 174.0 5.5 174.4 5.4 174.4 5.1 C 174.4 4.8 175.0 4.4 175.3 4.5 C 175.6 4.5 175.0 5.1 176.0 5.3 C 176.9 5.6 177.6 5.6 177.9 5.4 C 178.2 5.2 178.5 4.4 178.9 4.8 C 179.3 5.1 179.0 5.3 179.7 5.2 C 180.3 5.2 180.7 4.6 181.1 4.6 C 181.6 4.6 181.7 4.6 181.7 4.6 C 181.7 4.6 181.2 5.5 182.2 5.5 C 183.1 5.5 183.3 5.6 183.2 5.0 C 183.2 4.4 183.9 4.4 183.9 4.8 C 183.8 5.2 184.3 5.4 184.6 5.5 C 184.9 5.5 185.3 4.5 185.4 4.5 C 185.5 4.5 185.9 4.5 185.7 4.9 C 185.4 5.2 185.8 5.2 186.0 5.4 C 186.3 5.5 187.2 5.4 187.2 5.2 C 187.3 5.0 187.0 4.4 187.5 4.7 C 188.0 5.0 188.0 5.5 188.6 5.5 C 189.2 5.5 188.8 4.9 189.2 4.7 C 189.2 4.7 189.2 4.7 189.2 4.7 Z M 170.7 5.5 C 171.7 5.5 171.5 2.8 171.2 2.3 C 170.9 1.8 170.1 2.1 169.5 2.0 C 168.8 1.9 168.9 2.7 168.5 3.0 C 168.0 3.2 168.2 2.7 168.1 2.3 C 168.0 1.9 166.9 2.3 166.3 2.2 C 165.7 2.2 164.9 3.1 164.4 3.1 C 163.9 3.2 164.8 3.6 163.9 3.5 C 163.0 3.5 163.5 3.0 164.5 2.7 C 165.6 2.5 164.2 2.2 163.6 2.1 C 163.1 2.0 162.1 2.4 161.6 2.4 C 161.2 2.3 161.7 3.0 161.0 3.0 C 160.4 2.9 160.7 2.3 160.1 2.2 C 159.4 2.1 159.5 2.7 159.1 2.8 C 158.8 3.0 158.9 2.6 158.6 2.6 C 158.3 2.5 157.9 2.3 157.2 2.5 C 156.6 2.6 156.7 2.8 156.4 2.8 C 156.2 2.9 155.7 2.9 155.7 2.9 C 155.6 2.7 155.6 2.4 155.6 2.2 C 155.6 2.2 154.4 2.2 154.1 2.1 C 153.8 2.1 153.0 2.4 153.2 2.5 C 153.4 2.6 152.6 3.1 152.4 3.0 C 152.3 2.9 151.7 2.6 151.3 2.4 C 150.9 2.3 151.0 4.0 151.0 4.2 C 151.0 4.5 150.7 5.4 151.1 5.5 C 151.4 5.6 151.7 5.2 151.6 5.5 C 151.6 5.7 152.6 5.5 152.9 5.5 C 153.1 5.5 153.5 4.8 153.5 4.8 C 153.5 4.8 153.8 4.3 154.2 4.3 C 154.7 4.3 154.8 5.4 154.8 5.4 C 154.8 5.4 155.4 5.6 155.9 5.5 C 156.5 5.5 157.1 4.6 157.3 4.4 C 157.4 4.2 157.3 5.0 157.7 5.1 C 158.1 5.2 158.6 5.5 158.8 5.4 C 159.0 5.4 159.3 4.8 159.3 4.8 C 159.3 4.8 160.1 4.5 160.2 4.5 C 160.4 4.5 160.0 5.3 160.0 5.3 C 160.0 5.3 161.5 5.5 161.8 5.6 C 162.2 5.7 162.7 5.4 162.9 5.4 C 163.1 5.3 163.6 4.4 163.9 4.5 C 164.2 4.6 163.5 5.1 163.8 5.2 C 164.1 5.3 164.7 5.5 164.9 5.5 C 165.1 5.5 165.3 5.1 165.6 5.1 C 165.9 5.0 166.4 4.3 166.8 4.3 C 167.3 4.3 167.4 4.8 167.6 4.8 C 167.7 4.9 167.8 5.6 168.1 5.6 C 168.5 5.6 168.3 5.2 168.6 5.2 C 168.9 5.2 169.0 4.7 169.3 4.8 C 169.7 4.9 169.3 5.7 169.7 5.6 C 169.9 5.5 169.7 5.6 170.7 5.5 C 170.7 5.5 170.7 5.5 170.7 5.5 Z M 150.2 5.4 C 150.7 5.8 151.1 5.3 151.1 4.9 C 151.0 4.6 150.9 3.6 151.1 3.3 C 151.2 3.0 151.8 2.3 151.0 2.2 C 150.1 2.1 149.9 2.3 149.9 2.6 C 149.9 2.8 149.7 3.8 149.5 3.7 C 149.3 3.6 149.1 3.4 149.0 3.2 C 148.9 3.1 148.6 2.1 148.2 2.2 C 147.8 2.4 147.4 2.7 147.4 2.7 C 147.2 2.7 147.0 2.7 146.8 2.7 C 146.8 2.7 146.2 2.1 145.7 2.2 C 145.3 2.4 144.7 2.4 144.4 2.3 C 144.0 2.3 143.7 2.4 143.6 2.6 C 143.6 2.8 143.2 3.7 143.2 3.7 C 143.2 3.7 142.7 3.9 142.4 3.8 C 142.2 3.6 142.1 3.2 142.2 3.0 C 142.2 2.8 142.1 2.3 141.8 2.2 C 141.4 2.2 139.9 1.7 139.7 2.0 C 139.5 2.2 139.6 2.6 139.4 2.7 C 139.2 2.8 138.2 2.9 138.1 2.6 C 138.0 2.4 138.1 1.9 137.8 1.9 C 137.5 2.0 136.9 1.8 136.9 2.0 C 136.9 2.1 136.7 2.2 136.7 2.5 C 136.7 2.8 136.2 3.0 136.1 3.2 C 136.0 3.3 135.5 3.4 135.5 3.4 C 135.3 3.2 135.1 3.1 134.9 2.9 C 134.9 2.9 135.2 2.4 135.4 2.3 C 135.5 2.2 135.2 1.9 135.0 1.8 C 134.9 1.8 133.8 1.9 133.8 1.9 C 133.8 2.3 133.8 2.6 133.8 3.0 C 133.6 3.1 133.3 3.2 133.1 3.3 C 133.1 3.3 133.0 1.9 132.5 1.9 C 132.0 1.9 131.4 1.9 131.4 1.9 C 131.4 1.9 130.9 2.4 130.7 2.5 C 130.6 2.5 130.7 3.7 130.7 3.7 C 130.8 4.2 130.9 4.6 131.0 5.1 C 131.0 5.1 131.7 5.6 132.0 5.4 C 132.3 5.2 132.0 4.7 132.0 4.5 C 132.0 4.2 132.5 4.0 132.5 4.0 C 132.8 4.3 133.0 4.5 133.3 4.8 C 133.3 4.8 133.5 5.0 133.8 5.3 C 134.0 5.5 134.8 5.6 135.0 5.5 C 135.3 5.4 135.5 5.1 135.7 4.9 C 136.0 4.7 135.9 4.2 136.3 4.6 C 136.6 4.9 136.8 5.3 137.0 5.3 C 137.2 5.3 137.9 4.8 137.9 4.8 C 138.1 4.7 138.3 4.6 138.5 4.5 C 138.5 4.5 139.0 4.2 139.1 4.5 C 139.2 4.8 140.3 4.5 140.3 4.5 C 140.3 4.5 140.2 5.3 140.5 5.4 C 140.8 5.6 141.3 5.8 141.7 5.6 C 142.2 5.5 142.5 4.7 142.5 4.7 C 142.6 4.9 142.8 5.1 142.9 5.3 C 143.3 5.4 143.8 5.4 144.2 5.5 C 144.2 5.5 145.2 5.4 145.1 5.3 C 145.1 5.2 145.0 4.5 145.1 4.3 C 145.1 4.1 145.6 3.9 145.7 4.1 C 145.8 4.3 146.2 5.0 146.2 5.0 C 146.2 5.0 146.6 5.4 146.9 5.4 C 147.2 5.5 147.6 5.3 147.8 5.1 C 147.9 5.0 148.3 4.5 148.3 4.5 C 148.4 4.7 148.6 4.9 148.7 5.1 C 148.7 5.1 149.5 4.8 150.2 5.4 C 150.2 5.4 150.2 5.4 150.2 5.4 Z M 128.7 4.7 C 129.0 4.6 129.2 5.1 129.8 5.3 C 130.3 5.4 131.0 5.5 130.9 5.2 C 130.7 4.8 130.5 4.6 130.7 4.2 C 131.0 3.8 131.2 3.1 130.8 2.9 C 130.3 2.6 128.7 1.9 128.2 2.3 C 127.8 2.6 127.7 2.8 127.3 3.0 C 127.0 3.3 127.1 2.5 127.1 2.5 C 127.1 2.5 126.3 2.4 125.6 2.3 C 125.0 2.3 124.3 2.2 124.2 2.4 C 124.2 2.5 124.0 2.8 124.0 2.8 C 124.0 2.8 123.6 2.4 123.1 2.3 C 122.6 2.3 122.8 2.5 123.0 2.7 C 123.1 2.8 123.7 3.4 123.5 3.4 C 123.3 3.4 122.6 2.6 122.2 2.5 C 121.9 2.4 121.2 2.5 121.2 2.5 C 121.2 2.5 121.3 2.9 121.3 3.0 C 121.2 3.1 120.5 3.2 120.4 3.0 C 120.4 2.9 120.3 2.4 120.0 2.3 C 118.8 2.3 119.2 3.1 119.1 3.2 C 119.0 3.2 118.8 2.5 118.5 2.4 C 118.2 2.3 116.0 2.4 116.0 2.6 C 115.9 2.7 115.0 2.1 114.8 2.5 C 114.5 3.0 114.5 3.1 114.4 3.2 C 114.4 3.3 114.1 4.0 113.8 3.7 C 113.6 3.5 114.3 2.7 114.0 2.5 C 113.6 2.3 112.2 2.2 112.1 2.4 C 111.8 2.7 111.9 3.4 111.7 3.4 C 111.5 3.4 110.5 2.5 110.4 2.7 C 110.4 2.8 110.5 3.5 110.5 3.6 C 110.5 3.8 110.6 5.0 110.8 5.2 C 111.0 5.4 112.0 5.8 111.8 5.5 C 111.6 5.1 111.3 4.7 111.5 4.5 C 111.8 4.4 111.9 4.3 112.0 4.5 C 112.1 4.6 112.0 4.8 112.6 5.0 C 113.1 5.2 112.9 5.5 113.4 5.5 C 113.8 5.5 114.2 5.4 114.1 5.1 C 114.0 4.8 114.4 4.4 114.7 4.5 C 115.0 4.5 114.6 5.1 115.7 5.3 C 116.8 5.6 117.4 5.6 117.7 5.4 C 117.9 5.2 117.8 4.4 118.4 4.8 C 118.9 5.1 118.7 5.3 119.4 5.2 C 120.0 5.2 120.2 4.6 120.6 4.6 C 121.0 4.6 121.1 4.6 121.1 4.6 C 121.1 4.6 121.1 5.5 122.0 5.5 C 123.0 5.5 123.2 5.6 122.9 5.0 C 122.6 4.4 123.3 4.4 123.4 4.8 C 123.5 5.2 124.1 5.4 124.4 5.5 C 124.7 5.5 124.7 4.5 124.8 4.5 C 124.9 4.5 125.3 4.5 125.2 4.9 C 125.1 5.2 125.5 5.2 125.8 5.4 C 126.1 5.5 127.0 5.4 126.9 5.2 C 126.9 5.0 126.4 4.4 127.0 4.7 C 127.6 5.0 127.9 5.5 128.4 5.5 C 129.0 5.5 128.4 4.9 128.7 4.7 C 128.7 4.7 128.7 4.7 128.7 4.7 Z M 110.6 5.5 C 111.6 5.5 110.2 2.8 109.7 2.3 C 109.1 1.8 108.5 2.1 107.8 2.0 C 107.1 1.9 107.6 2.7 107.2 3.0 C 106.9 3.2 106.9 2.7 106.6 2.3 C 106.3 1.9 105.4 2.3 104.7 2.2 C 104.1 2.2 103.7 3.1 103.2 3.1 C 102.7 3.2 103.8 3.6 102.9 3.5 C 101.9 3.5 102.2 3.0 103.2 2.7 C 104.2 2.5 102.6 2.2 102.0 2.1 C 101.4 2.0 100.6 2.4 100.1 2.4 C 99.6 2.3 100.4 3.0 99.8 3.0 C 99.1 2.9 99.2 2.3 98.5 2.2 C 97.8 2.1 98.1 2.7 97.8 2.8 C 97.5 3.0 97.5 2.6 97.2 2.6 C 96.9 2.5 96.3 2.3 95.8 2.5 C 95.2 2.6 95.4 2.8 95.2 2.8 C 94.9 2.9 94.4 2.9 94.4 2.9 C 94.3 2.7 94.1 2.4 94.0 2.2 C 94.0 2.2 92.9 2.2 92.5 2.1 C 92.1 2.1 91.5 2.4 91.7 2.5 C 92.0 2.6 91.4 3.1 91.2 3.0 C 91.0 2.9 90.3 2.6 89.8 2.4 C 89.4 2.3 90.2 4.0 90.3 4.2 C 90.4 4.5 90.5 5.4 90.9 5.5 C 91.3 5.6 91.4 5.2 91.4 5.5 C 91.5 5.7 92.4 5.5 92.7 5.5 C 93.0 5.5 93.0 4.8 93.0 4.8 C 93.0 4.8 93.1 4.3 93.6 4.3 C 94.0 4.3 94.6 5.4 94.6 5.4 C 94.6 5.4 95.2 5.6 95.8 5.5 C 96.3 5.5 96.6 4.6 96.6 4.4 C 96.7 4.2 96.9 5.0 97.4 5.1 C 97.8 5.2 98.5 5.5 98.6 5.4 C 98.8 5.4 98.9 4.8 98.9 4.8 C 98.9 4.8 99.5 4.5 99.6 4.5 C 99.8 4.5 99.8 5.3 99.8 5.3 C 99.8 5.3 101.4 5.5 101.7 5.6 C 102.1 5.7 102.5 5.4 102.7 5.4 C 102.9 5.3 102.9 4.4 103.3 4.5 C 103.6 4.6 103.1 5.1 103.5 5.2 C 103.9 5.3 104.5 5.5 104.7 5.5 C 104.9 5.5 105.0 5.1 105.3 5.1 C 105.5 5.0 105.7 4.3 106.1 4.3 C 106.6 4.3 106.9 4.8 107.1 4.8 C 107.3 4.9 107.6 5.6 108.0 5.6 C 108.3 5.6 108.0 5.2 108.3 5.2 C 108.6 5.2 108.5 4.7 108.9 4.8 C 109.2 4.9 109.2 5.7 109.6 5.6 C 109.7 5.5 109.6 5.6 110.6 5.5 C 110.6 5.5 110.6 5.5 110.6 5.5 Z M 88.4 4.7 C 88.6 4.6 89.0 5.1 89.6 5.3 C 90.2 5.4 90.9 5.5 90.6 5.2 C 90.4 4.8 90.1 4.6 90.2 4.2 C 90.4 3.8 90.4 3.1 89.9 2.9 C 89.4 2.6 87.6 1.9 87.2 2.3 C 86.9 2.6 86.8 2.8 86.5 3.0 C 86.3 3.3 86.2 2.5 86.2 2.5 C 86.2 2.5 85.3 2.4 84.6 2.3 C 84.0 2.3 83.2 2.2 83.2 2.4 C 83.2 2.5 83.1 2.8 83.1 2.8 C 83.1 2.8 82.6 2.4 82.1 2.3 C 81.6 2.3 81.9 2.5 82.0 2.7 C 82.2 2.8 83.0 3.4 82.8 3.4 C 82.6 3.4 81.6 2.6 81.3 2.5 C 80.9 2.4 80.2 2.5 80.2 2.5 C 80.2 2.5 80.5 2.9 80.5 3.0 C 80.4 3.1 79.7 3.2 79.6 3.0 C 79.5 2.9 79.4 2.4 79.0 2.3 C 77.8 2.3 78.4 3.1 78.3 3.2 C 78.2 3.2 77.9 2.5 77.6 2.4 C 77.2 2.3 75.0 2.4 75.0 2.6 C 75.0 2.7 73.9 2.1 73.8 2.5 C 73.7 3.0 73.7 3.1 73.7 3.2 C 73.6 3.3 73.6 4.0 73.2 3.7 C 72.9 3.5 73.4 2.7 73.0 2.5 C 72.6 2.3 71.2 2.2 71.1 2.4 C 70.9 2.7 71.1 3.4 71.0 3.4 C 70.8 3.4 69.5 2.5 69.5 2.7 C 69.5 2.8 69.8 3.5 69.9 3.6 C 69.9 3.8 70.4 5.0 70.6 5.2 C 70.9 5.4 72.0 5.8 71.7 5.5 C 71.4 5.1 70.9 4.7 71.1 4.5 C 71.3 4.4 71.5 4.3 71.6 4.5 C 71.8 4.6 71.7 4.8 72.3 5.0 C 72.9 5.2 72.8 5.5 73.2 5.5 C 73.7 5.5 74.1 5.4 73.9 5.1 C 73.7 4.8 74.0 4.4 74.3 4.5 C 74.6 4.5 74.4 5.1 75.5 5.3 C 76.7 5.6 77.4 5.6 77.5 5.4 C 77.7 5.2 77.4 4.4 78.1 4.8 C 78.7 5.1 78.5 5.3 79.2 5.2 C 79.8 5.2 79.8 4.6 80.2 4.6 C 80.6 4.6 80.8 4.6 80.8 4.6 C 80.8 4.6 80.9 5.5 81.9 5.5 C 82.9 5.5 83.1 5.6 82.6 5.0 C 82.1 4.4 82.8 4.4 83.0 4.8 C 83.3 5.2 83.9 5.4 84.3 5.5 C 84.6 5.5 84.3 4.5 84.4 4.5 C 84.5 4.5 84.9 4.5 84.9 4.9 C 84.9 5.2 85.3 5.2 85.7 5.4 C 86.0 5.5 86.8 5.4 86.7 5.2 C 86.7 5.0 85.9 4.4 86.7 4.7 C 87.4 5.0 87.8 5.5 88.3 5.5 C 88.9 5.5 88.1 4.9 88.4 4.7 C 88.4 4.7 88.4 4.7 88.4 4.7 Z M 69.9 5.4 C 70.6 5.8 70.8 5.3 70.5 4.9 C 70.3 4.6 69.6 3.6 69.6 3.3 C 69.6 3.0 69.8 2.3 68.9 2.2 C 68.0 2.1 67.9 2.3 68.1 2.6 C 68.2 2.8 68.6 3.8 68.3 3.7 C 68.0 3.6 67.6 3.4 67.5 3.2 C 67.4 3.1 66.5 2.1 66.1 2.2 C 65.8 2.4 65.6 2.7 65.6 2.7 C 65.4 2.7 65.2 2.7 65.0 2.7 C 65.0 2.7 64.0 2.1 63.7 2.2 C 63.3 2.4 62.8 2.4 62.4 2.3 C 62.0 2.3 61.7 2.4 61.8 2.6 C 61.9 2.8 61.9 3.7 61.9 3.7 C 61.9 3.7 61.5 3.9 61.2 3.8 C 60.9 3.6 60.6 3.2 60.5 3.0 C 60.5 2.8 60.1 2.3 59.7 2.2 C 59.3 2.2 57.5 1.7 57.5 2.0 C 57.4 2.2 57.7 2.6 57.6 2.7 C 57.5 2.8 56.5 2.9 56.3 2.6 C 56.1 2.4 55.8 1.9 55.5 1.9 C 55.3 2.0 54.6 1.8 54.7 2.0 C 54.8 2.1 54.7 2.2 54.9 2.5 C 55.0 2.8 54.6 3.0 54.6 3.2 C 54.5 3.3 54.1 3.4 54.1 3.4 C 53.8 3.2 53.5 3.1 53.2 2.9 C 53.2 2.9 53.2 2.4 53.4 2.3 C 53.5 2.2 53.0 1.9 52.8 1.8 C 52.6 1.8 51.5 1.9 51.5 1.9 C 51.8 2.3 52.0 2.6 52.2 3.0 C 52.0 3.1 51.8 3.2 51.6 3.3 C 51.6 3.3 50.8 1.9 50.3 1.9 C 49.8 1.9 49.1 1.9 49.1 1.9 C 49.1 1.9 48.9 2.4 48.8 2.5 C 48.7 2.5 49.5 3.7 49.5 3.7 C 49.8 4.2 50.2 4.6 50.5 5.1 C 50.5 5.1 51.5 5.6 51.7 5.4 C 51.9 5.2 51.3 4.7 51.2 4.5 C 51.1 4.2 51.4 4.0 51.4 4.0 C 51.8 4.3 52.3 4.5 52.7 4.8 C 52.7 4.8 53.0 5.0 53.4 5.3 C 53.8 5.5 54.7 5.6 54.8 5.5 C 55.0 5.4 55.0 5.1 55.1 4.9 C 55.3 4.7 55.0 4.2 55.5 4.6 C 56.1 4.9 56.5 5.3 56.6 5.3 C 56.8 5.3 57.2 4.8 57.2 4.8 C 57.4 4.7 57.5 4.6 57.7 4.5 C 57.7 4.5 58.1 4.2 58.3 4.5 C 58.6 4.8 59.5 4.5 59.5 4.5 C 59.5 4.5 59.9 5.3 60.3 5.4 C 60.6 5.6 61.2 5.8 61.6 5.6 C 61.9 5.5 61.8 4.7 61.8 4.7 C 62.0 4.9 62.3 5.1 62.6 5.3 C 63.0 5.4 63.5 5.4 64.0 5.5 C 64.0 5.5 64.9 5.4 64.8 5.3 C 64.7 5.2 64.2 4.5 64.2 4.3 C 64.1 4.1 64.5 3.9 64.7 4.1 C 64.9 4.3 65.7 5.0 65.7 5.0 C 65.7 5.0 66.3 5.4 66.6 5.4 C 67.0 5.5 67.3 5.3 67.3 5.1 C 67.3 5.0 67.5 4.5 67.5 4.5 C 67.7 4.7 68.0 4.9 68.2 5.1 C 68.2 5.1 68.8 4.8 69.9 5.4 C 69.9 5.4 69.9 5.4 69.9 5.4 Z M 50.4 5.5 C 51.4 5.5 48.9 2.8 48.1 2.3 C 47.4 1.8 46.9 2.1 46.2 2.0 C 45.4 1.9 46.2 2.7 46.0 3.0 C 45.8 3.2 45.5 2.7 45.1 2.3 C 44.6 1.9 43.8 2.3 43.2 2.2 C 42.5 2.2 42.5 3.1 42.0 3.1 C 41.6 3.2 42.8 3.6 41.9 3.5 C 40.9 3.5 41.0 3.0 41.9 2.7 C 42.7 2.5 41.1 2.2 40.4 2.1 C 39.8 2.0 39.1 2.4 38.6 2.4 C 38.1 2.3 39.2 3.0 38.5 3.0 C 37.9 2.9 37.7 2.3 36.9 2.2 C 36.2 2.1 36.7 2.7 36.5 2.8 C 36.3 3.0 36.1 2.6 35.7 2.6 C 35.4 2.5 34.8 2.3 34.3 2.5 C 33.8 2.6 34.1 2.8 33.9 2.8 C 33.6 2.9 33.1 2.9 33.1 2.9 C 32.9 2.7 32.7 2.4 32.5 2.2 C 32.5 2.2 31.3 2.2 30.9 2.1 C 30.5 2.1 30.0 2.4 30.3 2.5 C 30.6 2.6 30.2 3.1 30.0 3.0 C 29.7 2.9 28.9 2.6 28.3 2.4 C 27.8 2.3 29.4 4.0 29.6 4.2 C 29.7 4.5 30.3 5.4 30.7 5.5 C 31.1 5.6 31.1 5.2 31.3 5.5 C 31.4 5.7 32.2 5.5 32.5 5.5 C 32.8 5.5 32.6 4.8 32.6 4.8 C 32.6 4.8 32.4 4.3 32.9 4.3 C 33.3 4.3 34.4 5.4 34.4 5.4 C 34.4 5.4 35.1 5.6 35.6 5.5 C 36.1 5.5 36.0 4.6 36.0 4.4 C 36.0 4.2 36.6 5.0 37.0 5.1 C 37.5 5.2 38.3 5.5 38.4 5.4 C 38.5 5.4 38.4 4.8 38.4 4.8 C 38.4 4.8 38.9 4.5 39.1 4.5 C 39.2 4.5 39.5 5.3 39.5 5.3 C 39.5 5.3 41.2 5.5 41.6 5.6 C 41.9 5.7 42.3 5.4 42.5 5.4 C 42.7 5.3 42.3 4.4 42.7 4.5 C 43.1 4.6 42.8 5.1 43.2 5.2 C 43.6 5.3 44.4 5.5 44.5 5.5 C 44.7 5.5 44.7 5.1 44.9 5.1 C 45.2 5.0 45.0 4.3 45.5 4.3 C 45.9 4.3 46.5 4.8 46.7 4.8 C 46.9 4.9 47.5 5.6 47.9 5.6 C 48.2 5.6 47.7 5.2 48.0 5.2 C 48.3 5.2 48.0 4.7 48.4 4.8 C 48.8 4.9 49.1 5.7 49.4 5.6 C 49.6 5.5 49.4 5.6 50.4 5.5 C 50.4 5.5 50.4 5.5 50.4 5.5 Z M 29.8 5.4 C 30.6 5.8 30.6 5.3 30.3 4.9 C 29.9 4.6 28.9 3.6 28.9 3.3 C 28.8 3.0 28.8 2.3 27.8 2.2 C 26.9 2.1 26.9 2.3 27.1 2.6 C 27.3 2.8 28.0 3.8 27.7 3.7 C 27.4 3.6 26.9 3.4 26.7 3.2 C 26.6 3.1 25.4 2.1 25.1 2.2 C 24.8 2.4 24.7 2.7 24.7 2.7 C 24.5 2.7 24.3 2.7 24.1 2.7 C 24.1 2.7 23.0 2.1 22.6 2.2 C 22.3 2.4 21.8 2.4 21.4 2.3 C 21.0 2.3 20.7 2.4 20.9 2.6 C 21.0 2.8 21.3 3.7 21.3 3.7 C 21.3 3.7 21.0 3.9 20.6 3.8 C 20.3 3.6 19.8 3.2 19.7 3.0 C 19.6 2.8 19.1 2.3 18.7 2.2 C 18.3 2.2 16.4 1.7 16.4 2.0 C 16.4 2.2 16.8 2.6 16.7 2.7 C 16.6 2.8 15.7 2.9 15.4 2.6 C 15.1 2.4 14.7 1.9 14.4 1.9 C 14.2 2.0 13.5 1.8 13.6 2.0 C 13.7 2.1 13.7 2.2 13.9 2.5 C 14.1 2.8 13.8 3.0 13.8 3.2 C 13.8 3.3 13.4 3.4 13.4 3.4 C 13.1 3.2 12.7 3.1 12.4 2.9 C 12.4 2.9 12.3 2.4 12.3 2.3 C 12.4 2.2 11.8 1.9 11.6 1.8 C 11.4 1.8 10.4 1.9 10.4 1.9 C 10.7 2.3 11.1 2.6 11.4 3.0 C 11.2 3.1 11.0 3.2 10.8 3.3 C 10.8 3.3 9.7 1.9 9.2 1.9 C 8.6 1.9 8.0 1.9 8.0 1.9 C 8.0 1.9 7.9 2.4 7.9 2.5 C 7.8 2.5 8.9 3.7 8.9 3.7 C 9.3 4.2 9.8 4.6 10.3 5.1 C 10.3 5.1 11.4 5.6 11.5 5.4 C 11.7 5.2 10.9 4.7 10.8 4.5 C 10.6 4.2 10.9 4.0 10.9 4.0 C 11.4 4.3 11.9 4.5 12.4 4.8 C 12.4 4.8 12.8 5.0 13.2 5.3 C 13.7 5.5 14.6 5.6 14.7 5.5 C 14.9 5.4 14.8 5.1 14.9 4.9 C 14.9 4.7 14.5 4.2 15.1 4.6 C 15.8 4.9 16.3 5.3 16.4 5.3 C 16.6 5.3 16.9 4.8 16.9 4.8 C 17.0 4.7 17.1 4.6 17.3 4.5 C 17.3 4.5 17.6 4.2 17.9 4.5 C 18.3 4.8 19.1 4.5 19.1 4.5 C 19.1 4.5 19.7 5.3 20.1 5.4 C 20.5 5.6 21.1 5.8 21.5 5.6 C 21.8 5.5 21.4 4.7 21.4 4.7 C 21.8 4.9 22.1 5.1 22.4 5.3 C 22.9 5.4 23.4 5.4 23.8 5.5 C 23.8 5.5 24.8 5.4 24.6 5.3 C 24.5 5.2 23.8 4.5 23.7 4.3 C 23.6 4.1 23.9 3.9 24.2 4.1 C 24.4 4.3 25.4 5.0 25.4 5.0 C 25.4 5.0 26.2 5.4 26.5 5.4 C 26.8 5.5 27.1 5.3 27.1 5.1 C 27.1 5.0 27.1 4.5 27.1 4.5 C 27.4 4.7 27.7 4.9 28.0 5.1 C 28.0 5.1 28.5 4.8 29.8 5.4 C 29.8 5.4 29.8 5.4 29.8 5.4 Z M 10.3 5.5 C 11.3 5.5 8.1 2.8 7.1 2.3 C 6.2 1.8 5.9 2.1 5.1 2.0 C 4.3 1.9 5.3 2.7 5.2 3.0 C 5.0 3.2 4.6 2.7 4.1 2.3 C 3.5 1.9 2.8 2.3 2.1 2.2 C 2.0 2.2 2.0 2.2 1.9 2.3 C 2.1 3.0 2.7 4.2 2.8 4.7 C 2.8 5.2 3.2 4.7 3.2 5.5 C 3.1 6.4 2.6 5.5 2.4 4.2 C 2.1 2.8 1.9 4.1 1.8 4.6 C 1.7 5.1 2.1 6.5 2.0 6.9 C 1.9 7.3 2.6 7.3 2.6 8.0 C 2.6 8.6 1.9 7.7 1.8 8.3 C 1.7 8.9 2.3 9.3 2.5 9.8 C 2.6 10.3 2.2 9.9 2.2 10.1 C 2.1 10.4 1.9 10.7 2.1 11.5 C 2.2 12.2 2.4 12.2 2.5 12.5 C 2.5 12.8 2.5 13.4 2.5 13.4 C 2.3 13.2 2.1 13.1 1.9 13.0 C 1.9 13.0 1.8 14.1 1.8 14.5 C 1.7 14.8 2.0 15.8 2.1 15.7 C 2.3 15.5 2.7 16.6 2.6 16.7 C 2.5 16.8 2.2 17.2 2.1 17.5 C 1.9 17.9 3.6 18.7 3.9 18.9 C 4.1 19.0 5.0 19.8 5.1 19.5 C 5.2 19.2 4.9 18.8 5.1 19.0 C 5.4 19.2 5.1 18.0 5.1 17.8 C 5.1 17.5 4.5 16.8 4.5 16.8 C 4.5 16.8 4.0 16.2 4.0 15.7 C 4.0 15.3 5.0 15.8 5.0 15.8 C 5.0 15.8 5.2 15.4 5.2 14.9 C 5.1 14.3 4.3 13.0 4.1 12.8 C 3.9 12.5 4.7 13.2 4.8 12.8 C 4.9 12.5 5.1 12.2 5.1 12.0 C 5.0 11.8 4.5 11.1 4.5 11.1 C 4.5 11.1 4.2 10.1 4.2 9.9 C 4.2 9.8 5.0 10.7 5.0 10.7 C 5.0 10.7 5.2 9.4 5.2 9.2 C 5.3 9.0 5.1 8.3 5.0 8.0 C 5.0 7.8 4.0 6.5 4.1 6.3 C 4.2 6.0 4.7 7.2 4.8 7.0 C 4.9 6.7 5.1 6.3 5.1 6.2 C 5.1 6.0 4.8 5.5 4.7 5.1 C 4.7 5.1 4.7 5.1 4.7 5.1 C 4.9 5.0 4.6 4.3 5.0 4.3 C 5.5 4.3 6.1 4.8 6.4 4.8 C 6.7 4.9 7.4 5.6 7.8 5.6 C 8.2 5.6 7.5 5.2 7.8 5.2 C 8.1 5.2 7.7 4.7 8.1 4.8 C 8.5 4.9 9.1 5.7 9.4 5.6 C 9.5 5.5 9.4 5.6 10.3 5.5 C 10.3 5.5 10.3 5.5 10.3 5.5 Z M 4.4 21.2 C 4.3 20.9 4.8 21.0 4.9 20.5 C 5.1 20.1 5.1 19.5 4.8 19.4 C 4.5 19.3 4.3 19.4 3.9 18.9 C 3.5 18.4 2.8 17.6 2.5 17.9 C 2.2 18.1 1.5 19.4 1.9 20.1 C 2.3 20.8 2.4 21.0 2.7 21.5 C 2.9 22.0 2.1 21.3 2.1 21.3 C 2.1 21.3 2.0 22.2 2.0 22.8 C 1.9 23.4 1.9 24.2 2.0 24.3 C 2.1 24.4 2.4 24.8 2.4 24.8 C 2.4 24.8 2.1 25.0 2.0 25.4 C 1.9 25.9 2.1 25.8 2.3 25.8 C 2.5 25.8 3.0 25.4 3.0 25.6 C 3.0 25.8 2.2 26.1 2.1 26.4 C 2.1 26.7 2.1 27.5 2.1 27.5 C 2.1 27.5 2.6 27.6 2.7 27.7 C 2.8 27.8 2.8 28.5 2.7 28.5 C 2.5 28.5 2.0 28.3 2.0 28.7 C 1.9 29.8 2.8 29.9 2.8 30.0 C 2.8 30.1 2.2 29.9 2.1 30.2 C 1.9 30.4 2.0 32.7 2.2 32.9 C 2.4 33.0 1.8 33.7 2.2 34.1 C 2.6 34.5 2.7 34.6 2.8 34.7 C 3.0 34.8 3.6 35.3 3.4 35.4 C 3.1 35.6 2.3 34.7 2.1 34.9 C 1.9 35.2 1.9 36.6 2.1 36.9 C 2.4 37.2 3.0 37.3 3.0 37.5 C 3.0 37.7 2.2 38.5 2.3 38.6 C 2.4 38.7 3.2 38.8 3.3 38.8 C 3.4 38.8 4.7 39.0 4.8 38.9 C 5.0 38.7 5.5 37.9 5.1 38.0 C 4.8 38.1 4.3 38.3 4.2 38.0 C 4.0 37.7 4.0 37.5 4.1 37.5 C 4.2 37.4 4.4 37.6 4.6 37.1 C 4.9 36.7 5.2 36.9 5.1 36.5 C 5.1 36.0 5.0 35.6 4.8 35.7 C 4.5 35.7 4.1 35.2 4.1 34.8 C 4.1 34.5 4.7 35.1 5.0 34.2 C 5.2 33.2 5.3 32.6 5.0 32.3 C 4.8 32.0 4.1 31.7 4.4 31.3 C 4.7 30.9 4.9 31.2 4.9 30.6 C 4.9 30.0 4.3 29.5 4.3 29.1 C 4.2 28.7 4.3 28.6 4.3 28.6 C 4.3 28.6 5.1 29.1 5.1 28.2 C 5.2 27.3 5.3 27.1 4.7 27.1 C 4.1 27.1 4.0 26.4 4.4 26.5 C 4.8 26.6 5.1 26.1 5.1 25.8 C 5.2 25.5 4.2 25.1 4.1 24.9 C 4.1 24.8 4.2 24.4 4.5 24.7 C 4.8 25.0 4.9 24.6 5.0 24.4 C 5.1 24.2 5.0 23.3 4.9 23.2 C 4.7 23.2 4.0 23.3 4.3 22.9 C 4.7 22.4 5.2 22.5 5.2 22.0 C 5.1 21.4 4.5 21.6 4.4 21.2 C 4.4 21.2 4.4 21.2 4.4 21.2 Z M 4.4 21.2 " fill="#FEFFFE"></path></g></svg>