<?xml version="1.0" encoding="UTF-8" standalone="no"?><svg xmlns="http://www.w3.org/2000/svg" xmlns:xlink="http://www.w3.org/1999/xlink" clip-rule="evenodd" stroke-miterlimit="10" viewBox="0 0 1024 768"><desc>SVG generated by Keynote</desc><defs></defs><g transform="matrix(1.00, 0.00, -0.00, -1.00, 0.0, 768.0)"><path d="M 0.0 768.0 L 1024.0 768.0 L 1024.0 0.0 L 0.0 0.0 Z M 0.0 768.0 " fill="#000000"></path><text xml:space="preserve" font-family="Helvetica-Light,Helvetica" font-size="80.0" fill="#FEFFFF" transform="matrix(1.00, 0.00, -0.00, -1.00, 225.3, 633.4)">C</text><text xml:space="preserve" font-family="Helvetica-Light,Helvetica" font-size="80.0" fill="#FEFFFF" transform="matrix(1.00, 0.00, -0.00, -1.00, 283.0, 633.4)">o</text><text xml:space="preserve" font-family="Helvetica-Light,Helvetica" font-size="80.0" fill="#FEFFFF" transform="matrix(1.00, 0.00, -0.00, -1.00, 327.5, 633.4)">m</text><text xml:space="preserve" font-family="Helvetica-Light,Helvetica" font-size="80.0" fill="#FEFFFF" transform="matrix(1.00, 0.00, -0.00, -1.00, 394.2, 633.4)">m</text><text xml:space="preserve" font-family="Helvetica-Light,Helvetica" font-size="80.0" fill="#FEFFFF" transform="matrix(1.00, 0.00, -0.00, -1.00, 460.8, 633.4)">i</text><text xml:space="preserve" font-family="Helvetica-Light,Helvetica" font-size="80.0" fill="#FEFFFF" transform="matrix(1.00, 0.00, -0.00, -1.00, 478.6, 633.4)">t</text><text xml:space="preserve" font-family="Helvetica-Light,Helvetica" font-size="80.0" fill="#FEFFFF" transform="matrix(1.00, 0.00, -0.00, -1.00, 500.8, 633.4)"> </text><text xml:space="preserve" font-family="Helvetica-Light,Helvetica" font-size="80.0" fill="#FEFFFF" transform="matrix(1.00, 0.00, -0.00, -1.00, 523.0, 633.4)">R</text><text xml:space="preserve" font-family="Helvetica-Light,Helvetica" font-size="80.0" fill="#FEFFFF" transform="matrix(1.00, 0.00, -0.00, -1.00, 576.4, 633.4)">a</text><text xml:space="preserve" font-family="Helvetica-Light,Helvetica" font-size="80.0" fill="#FEFFFF" transform="matrix(1.00, 0.00, -0.00, -1.00, 620.9, 633.4)">n</text><text xml:space="preserve" font-family="Helvetica-Light,Helvetica" font-size="80.0" fill="#FEFFFF" transform="matrix(1.00, 0.00, -0.00, -1.00, 665.4, 633.4)">g</text><text xml:space="preserve" font-family="Helvetica-Light,Helvetica" font-size="80.0" fill="#FEFFFF" transform="matrix(1.00, 0.00, -0.00, -1.00, 714.2, 633.4)">e</text><text xml:space="preserve" font-family="Helvetica-Light,Helvetica" font-size="80.0" fill="#FEFFFF" transform="matrix(1.00, 0.00, -0.00, -1.00, 758.7, 633.4)">s</text><text xml:space="preserve" font-family="Helvetica-Light,Helvetica" font-size="24.2" fill="#FEFFFF" transform="matrix(1.00, 0.00, -0.00, -1.00, 114.0, 528.6)">•</text><text xml:space="preserve" font-family="Helvetica-Light,Helvetica" font-size="32.3" fill="#FEFFFF" transform="matrix(1.00, 0.00, -0.00, -1.00, 143.8, 526.4)">g</text><text xml:space="preserve" font-family="Helvetica-Light,Helvetica" font-size="32.3" fill="#FEFFFF" transform="matrix(1.00, 0.00, -0.00, -1.00, 163.5, 526.4)">i</text><text xml:space="preserve" font-family="Helvetica-Light,Helvetica" font-size="32.3" fill="#FEFFFF" transform="matrix(1.00, 0.00, -0.00, -1.00, 170.7, 526.4)">t</text><text xml:space="preserve" font-family="Helvetica-Light,Helvetica" font-size="32.3" fill="#FEFFFF" transform="matrix(1.00, 0.00, -0.00, -1.00, 179.6, 526.4)"> </text><text xml:space="preserve" font-family="Helvetica-Light,Helvetica" font-size="32.3" fill="#FEFFFF" transform="matrix(1.00, 0.00, -0.00, -1.00, 188.6, 526.4)">l</text><text xml:space="preserve" font-family="Helvetica-Light,Helvetica" font-size="32.3" fill="#FEFFFF" transform="matrix(1.00, 0.00, -0.00, -1.00, 195.8, 526.4)">o</text><text xml:space="preserve" font-family="Helvetica-Light,Helvetica" font-size="32.3" fill="#FEFFFF" transform="matrix(1.00, 0.00, -0.00, -1.00, 213.7, 526.4)">g</text><text xml:space="preserve" font-family="Helvetica-Light,Helvetica" font-size="32.3" fill="#FEFFFF" transform="matrix(1.00, 0.00, -0.00, -1.00, 233.5, 526.4)"> </text><text xml:space="preserve" font-family="Helvetica-Light,Helvetica" font-size="32.3" fill="#FEFFFF" transform="matrix(1.00, 0.00, -0.00, -1.00, 242.5, 526.4)">m</text><text xml:space="preserve" font-family="Helvetica-Light,Helvetica" font-size="32.3" fill="#FEFFFF" transform="matrix(1.00, 0.00, -0.00, -1.00, 269.4, 526.4)">a</text><text xml:space="preserve" font-family="Helvetica-Light,Helvetica" font-size="32.3" fill="#FEFFFF" transform="matrix(1.00, 0.00, -0.00, -1.00, 287.3, 526.4)">s</text><text xml:space="preserve" font-family="Helvetica-Light,Helvetica" font-size="32.3" fill="#FEFFFF" transform="matrix(1.00, 0.00, -0.00, -1.00, 303.5, 526.4)">t</text><text xml:space="preserve" font-family="Helvetica-Light,Helvetica" font-size="32.3" fill="#FEFFFF" transform="matrix(1.00, 0.00, -0.00, -1.00, 312.5, 526.4)">e</text><text xml:space="preserve" font-family="Helvetica-Light,Helvetica" font-size="32.3" fill="#FEFFFF" transform="matrix(1.00, 0.00, -0.00, -1.00, 330.4, 526.4)">r</text><text xml:space="preserve" font-family="Helvetica-Light,Helvetica" font-size="32.3" fill="#FEFFFF" transform="matrix(1.00, 0.00, -0.00, -1.00, 338.2, 526.4)">.</text><text xml:space="preserve" font-family="Helvetica-Light,Helvetica" font-size="32.3" fill="#FEFFFF" transform="matrix(1.00, 0.00, -0.00, -1.00, 347.2, 526.4)">.</text><text xml:space="preserve" font-family="Helvetica-Light,Helvetica" font-size="32.3" fill="#FEFFFF" transform="matrix(1.00, 0.00, -0.00, -1.00, 356.2, 526.4)">e</text><text xml:space="preserve" font-family="Helvetica-Light,Helvetica" font-size="32.3" fill="#FEFFFF" transform="matrix(1.00, 0.00, -0.00, -1.00, 374.1, 526.4)">x</text><text xml:space="preserve" font-family="Helvetica-Light,Helvetica" font-size="32.3" fill="#FEFFFF" transform="matrix(1.00, 0.00, -0.00, -1.00, 390.3, 526.4)">p</text><text xml:space="preserve" font-family="Helvetica-Light,Helvetica" font-size="32.3" fill="#FEFFFF" transform="matrix(1.00, 0.00, -0.00, -1.00, 410.0, 526.4)">e</text><text xml:space="preserve" font-family="Helvetica-Light,Helvetica" font-size="32.3" fill="#FEFFFF" transform="matrix(1.00, 0.00, -0.00, -1.00, 428.0, 526.4)">r</text><text xml:space="preserve" font-family="Helvetica-Light,Helvetica" font-size="32.3" fill="#FEFFFF" transform="matrix(1.00, 0.00, -0.00, -1.00, 438.7, 526.4)">i</text><text xml:space="preserve" font-family="Helvetica-Light,Helvetica" font-size="32.3" fill="#FEFFFF" transform="matrix(1.00, 0.00, -0.00, -1.00, 445.9, 526.4)">m</text><text xml:space="preserve" font-family="Helvetica-Light,Helvetica" font-size="32.3" fill="#FEFFFF" transform="matrix(1.00, 0.00, -0.00, -1.00, 472.8, 526.4)">e</text><text xml:space="preserve" font-family="Helvetica-Light,Helvetica" font-size="32.3" fill="#FEFFFF" transform="matrix(1.00, 0.00, -0.00, -1.00, 490.7, 526.4)">n</text><text xml:space="preserve" font-family="Helvetica-Light,Helvetica" font-size="32.3" fill="#FEFFFF" transform="matrix(1.00, 0.00, -0.00, -1.00, 508.7, 526.4)">t</text><text xml:space="preserve" font-family="Helvetica-Light,Helvetica" font-size="32.3" fill="#FEFFFF" transform="matrix(1.00, 0.00, -0.00, -1.00, 517.7, 526.4)"> </text><text xml:space="preserve" font-family="Helvetica-Light,Helvetica" font-size="24.2" fill="#FEFFFF" transform="matrix(1.00, 0.00, -0.00, -1.00, 114.0, 454.9)">•</text><text xml:space="preserve" font-family="Helvetica-Light,Helvetica" font-size="32.3" fill="#FEFFFF" transform="matrix(1.00, 0.00, -0.00, -1.00, 143.8, 452.7)">g</text><text xml:space="preserve" font-family="Helvetica-Light,Helvetica" font-size="32.3" fill="#FEFFFF" transform="matrix(1.00, 0.00, -0.00, -1.00, 163.5, 452.7)">i</text><text xml:space="preserve" font-family="Helvetica-Light,Helvetica" font-size="32.3" fill="#FEFFFF" transform="matrix(1.00, 0.00, -0.00, -1.00, 170.7, 452.7)">t</text><text xml:space="preserve" font-family="Helvetica-Light,Helvetica" font-size="32.3" fill="#FEFFFF" transform="matrix(1.00, 0.00, -0.00, -1.00, 179.6, 452.7)"> </text><text xml:space="preserve" font-family="Helvetica-Light,Helvetica" font-size="32.3" fill="#FEFFFF" transform="matrix(1.00, 0.00, -0.00, -1.00, 188.6, 452.7)">l</text><text xml:space="preserve" font-family="Helvetica-Light,Helvetica" font-size="32.3" fill="#FEFFFF" transform="matrix(1.00, 0.00, -0.00, -1.00, 195.8, 452.7)">o</text><text xml:space="preserve" font-family="Helvetica-Light,Helvetica" font-size="32.3" fill="#FEFFFF" transform="matrix(1.00, 0.00, -0.00, -1.00, 213.7, 452.7)">g</text><text xml:space="preserve" font-family="Helvetica-Light,Helvetica" font-size="32.3" fill="#FEFFFF" transform="matrix(1.00, 0.00, -0.00, -1.00, 233.5, 452.7)"> </text><text xml:space="preserve" font-family="Helvetica-Light,Helvetica" font-size="32.3" fill="#FEFFFF" transform="matrix(1.00, 0.00, -0.00, -1.00, 242.5, 452.7)">e</text><text xml:space="preserve" font-family="Helvetica-Light,Helvetica" font-size="32.3" fill="#FEFFFF" transform="matrix(1.00, 0.00, -0.00, -1.00, 260.4, 452.7)">x</text><text xml:space="preserve" font-family="Helvetica-Light,Helvetica" font-size="32.3" fill="#FEFFFF" transform="matrix(1.00, 0.00, -0.00, -1.00, 276.6, 452.7)">p</text><text xml:space="preserve" font-family="Helvetica-Light,Helvetica" font-size="32.3" fill="#FEFFFF" transform="matrix(1.00, 0.00, -0.00, -1.00, 296.3, 452.7)">e</text><text xml:space="preserve" font-family="Helvetica-Light,Helvetica" font-size="32.3" fill="#FEFFFF" transform="matrix(1.00, 0.00, -0.00, -1.00, 314.3, 452.7)">r</text><text xml:space="preserve" font-family="Helvetica-Light,Helvetica" font-size="32.3" fill="#FEFFFF" transform="matrix(1.00, 0.00, -0.00, -1.00, 325.0, 452.7)">i</text><text xml:space="preserve" font-family="Helvetica-Light,Helvetica" font-size="32.3" fill="#FEFFFF" transform="matrix(1.00, 0.00, -0.00, -1.00, 332.2, 452.7)">m</text><text xml:space="preserve" font-family="Helvetica-Light,Helvetica" font-size="32.3" fill="#FEFFFF" transform="matrix(1.00, 0.00, -0.00, -1.00, 359.1, 452.7)">e</text><text xml:space="preserve" font-family="Helvetica-Light,Helvetica" font-size="32.3" fill="#FEFFFF" transform="matrix(1.00, 0.00, -0.00, -1.00, 377.1, 452.7)">n</text><text xml:space="preserve" font-family="Helvetica-Light,Helvetica" font-size="32.3" fill="#FEFFFF" transform="matrix(1.00, 0.00, -0.00, -1.00, 395.0, 452.7)">t</text><text xml:space="preserve" font-family="Helvetica-Light,Helvetica" font-size="32.3" fill="#FEFFFF" transform="matrix(1.00, 0.00, -0.00, -1.00, 404.0, 452.7)">.</text><text xml:space="preserve" font-family="Helvetica-Light,Helvetica" font-size="32.3" fill="#FEFFFF" transform="matrix(1.00, 0.00, -0.00, -1.00, 413.0, 452.7)">.</text><text xml:space="preserve" font-family="Helvetica-Light,Helvetica" font-size="32.3" fill="#FEFFFF" transform="matrix(1.00, 0.00, -0.00, -1.00, 421.9, 452.7)">m</text><text xml:space="preserve" font-family="Helvetica-Light,Helvetica" font-size="32.3" fill="#FEFFFF" transform="matrix(1.00, 0.00, -0.00, -1.00, 448.9, 452.7)">a</text><text xml:space="preserve" font-family="Helvetica-Light,Helvetica" font-size="32.3" fill="#FEFFFF" transform="matrix(1.00, 0.00, -0.00, -1.00, 466.8, 452.7)">s</text><text xml:space="preserve" font-family="Helvetica-Light,Helvetica" font-size="32.3" fill="#FEFFFF" transform="matrix(1.00, 0.00, -0.00, -1.00, 483.0, 452.7)">t</text><text xml:space="preserve" font-family="Helvetica-Light,Helvetica" font-size="32.3" fill="#FEFFFF" transform="matrix(1.00, 0.00, -0.00, -1.00, 491.9, 452.7)">e</text><text xml:space="preserve" font-family="Helvetica-Light,Helvetica" font-size="32.3" fill="#FEFFFF" transform="matrix(1.00, 0.00, -0.00, -1.00, 509.9, 452.7)">r</text><text xml:space="preserve" font-family="Helvetica-Light,Helvetica" font-size="32.3" fill="#FEFFFF" transform="matrix(1.00, 0.00, -0.00, -1.00, 520.7, 452.7)"> </text><text xml:space="preserve" font-family="Helvetica-Light,Helvetica" font-size="24.2" fill="#FEFFFF" transform="matrix(1.00, 0.00, -0.00, -1.00, 114.0, 381.2)">•</text><text xml:space="preserve" font-family="Helvetica-Light,Helvetica" font-size="32.3" fill="#FEFFFF" transform="matrix(1.00, 0.00, -0.00, -1.00, 143.8, 379.0)">g</text><text xml:space="preserve" font-family="Helvetica-Light,Helvetica" font-size="32.3" fill="#FEFFFF" transform="matrix(1.00, 0.00, -0.00, -1.00, 163.5, 379.0)">i</text><text xml:space="preserve" font-family="Helvetica-Light,Helvetica" font-size="32.3" fill="#FEFFFF" transform="matrix(1.00, 0.00, -0.00, -1.00, 170.7, 379.0)">t</text><text xml:space="preserve" font-family="Helvetica-Light,Helvetica" font-size="32.3" fill="#FEFFFF" transform="matrix(1.00, 0.00, -0.00, -1.00, 179.6, 379.0)"> </text><text xml:space="preserve" font-family="Helvetica-Light,Helvetica" font-size="32.3" fill="#FEFFFF" transform="matrix(1.00, 0.00, -0.00, -1.00, 188.6, 379.0)">l</text><text xml:space="preserve" font-family="Helvetica-Light,Helvetica" font-size="32.3" fill="#FEFFFF" transform="matrix(1.00, 0.00, -0.00, -1.00, 195.8, 379.0)">o</text><text xml:space="preserve" font-family="Helvetica-Light,Helvetica" font-size="32.3" fill="#FEFFFF" transform="matrix(1.00, 0.00, -0.00, -1.00, 213.7, 379.0)">g</text><text xml:space="preserve" font-family="Helvetica-Light,Helvetica" font-size="32.3" fill="#FEFFFF" transform="matrix(1.00, 0.00, -0.00, -1.00, 233.5, 379.0)"> </text><text xml:space="preserve" font-family="Helvetica-Light,Helvetica" font-size="32.3" fill="#FEFFFF" transform="matrix(1.00, 0.00, -0.00, -1.00, 242.5, 379.0)">o</text><text xml:space="preserve" font-family="Helvetica-Light,Helvetica" font-size="32.3" fill="#FEFFFF" transform="matrix(1.00, 0.00, -0.00, -1.00, 260.4, 379.0)">r</text><text xml:space="preserve" font-family="Helvetica-Light,Helvetica" font-size="32.3" fill="#FEFFFF" transform="matrix(1.00, 0.00, -0.00, -1.00, 271.2, 379.0)">i</text><text xml:space="preserve" font-family="Helvetica-Light,Helvetica" font-size="32.3" fill="#FEFFFF" transform="matrix(1.00, 0.00, -0.00, -1.00, 278.3, 379.0)">g</text><text xml:space="preserve" font-family="Helvetica-Light,Helvetica" font-size="32.3" fill="#FEFFFF" transform="matrix(1.00, 0.00, -0.00, -1.00, 298.1, 379.0)">i</text><text xml:space="preserve" font-family="Helvetica-Light,Helvetica" font-size="32.3" fill="#FEFFFF" transform="matrix(1.00, 0.00, -0.00, -1.00, 305.2, 379.0)">n</text><text xml:space="preserve" font-family="Helvetica-Light,Helvetica" font-size="32.3" fill="#FEFFFF" transform="matrix(1.00, 0.00, -0.00, -1.00, 323.2, 379.0)">/</text><text xml:space="preserve" font-family="Helvetica-Light,Helvetica" font-size="32.3" fill="#FEFFFF" transform="matrix(1.00, 0.00, -0.00, -1.00, 332.2, 379.0)">m</text><text xml:space="preserve" font-family="Helvetica-Light,Helvetica" font-size="32.3" fill="#FEFFFF" transform="matrix(1.00, 0.00, -0.00, -1.00, 359.1, 379.0)">a</text><text xml:space="preserve" font-family="Helvetica-Light,Helvetica" font-size="32.3" fill="#FEFFFF" transform="matrix(1.00, 0.00, -0.00, -1.00, 377.1, 379.0)">s</text><text xml:space="preserve" font-family="Helvetica-Light,Helvetica" font-size="32.3" fill="#FEFFFF" transform="matrix(1.00, 0.00, -0.00, -1.00, 393.2, 379.0)">t</text><text xml:space="preserve" font-family="Helvetica-Light,Helvetica" font-size="32.3" fill="#FEFFFF" transform="matrix(1.00, 0.00, -0.00, -1.00, 402.2, 379.0)">e</text><text xml:space="preserve" font-family="Helvetica-Light,Helvetica" font-size="32.3" fill="#FEFFFF" transform="matrix(1.00, 0.00, -0.00, -1.00, 420.1, 379.0)">r</text><text xml:space="preserve" font-family="Helvetica-Light,Helvetica" font-size="32.3" fill="#FEFFFF" transform="matrix(1.00, 0.00, -0.00, -1.00, 427.9, 379.0)">.</text><text xml:space="preserve" font-family="Helvetica-Light,Helvetica" font-size="32.3" fill="#FEFFFF" transform="matrix(1.00, 0.00, -0.00, -1.00, 436.9, 379.0)">.</text><text xml:space="preserve" font-family="Helvetica-Light,Helvetica" font-size="32.3" fill="#FEFFFF" transform="matrix(1.00, 0.00, -0.00, -1.00, 445.9, 379.0)">H</text><text xml:space="preserve" font-family="Helvetica-Light,Helvetica" font-size="32.3" fill="#FEFFFF" transform="matrix(1.00, 0.00, -0.00, -1.00, 469.2, 379.0)">E</text><text xml:space="preserve" font-family="Helvetica-Light,Helvetica" font-size="32.3" fill="#FEFFFF" transform="matrix(1.00, 0.00, -0.00, -1.00, 488.9, 379.0)">A</text><text xml:space="preserve" font-family="Helvetica-Light,Helvetica" font-size="32.3" fill="#FEFFFF" transform="matrix(1.00, 0.00, -0.00, -1.00, 510.5, 379.0)">D</text><text xml:space="preserve" font-family="Helvetica-Light,Helvetica" font-size="32.3" fill="#FEFFFF" transform="matrix(1.00, 0.00, -0.00, -1.00, 533.8, 379.0)"> </text><text xml:space="preserve" font-family="Helvetica-Light,Helvetica" font-size="24.2" fill="#FEFFFF" transform="matrix(1.00, 0.00, -0.00, -1.00, 114.0, 307.5)">•</text><text xml:space="preserve" font-family="Helvetica-Light,Helvetica" font-size="32.3" fill="#FEFFFF" transform="matrix(1.00, 0.00, -0.00, -1.00, 143.8, 305.3)">$</text><text xml:space="preserve" font-family="Helvetica-Light,Helvetica" font-size="32.3" fill="#FEFFFF" transform="matrix(1.00, 0.00, -0.00, -1.00, 161.7, 305.3)"> </text><text xml:space="preserve" font-family="Helvetica-Light,Helvetica" font-size="32.3" fill="#FEFFFF" transform="matrix(1.00, 0.00, -0.00, -1.00, 170.7, 305.3)">g</text><text xml:space="preserve" font-family="Helvetica-Light,Helvetica" font-size="32.3" fill="#FEFFFF" transform="matrix(1.00, 0.00, -0.00, -1.00, 190.4, 305.3)">i</text><text xml:space="preserve" font-family="Helvetica-Light,Helvetica" font-size="32.3" fill="#FEFFFF" transform="matrix(1.00, 0.00, -0.00, -1.00, 197.6, 305.3)">t</text><text xml:space="preserve" font-family="Helvetica-Light,Helvetica" font-size="32.3" fill="#FEFFFF" transform="matrix(1.00, 0.00, -0.00, -1.00, 206.6, 305.3)"> </text><text xml:space="preserve" font-family="Helvetica-Light,Helvetica" font-size="32.3" fill="#FEFFFF" transform="matrix(1.00, 0.00, -0.00, -1.00, 215.6, 305.3)">l</text><text xml:space="preserve" font-family="Helvetica-Light,Helvetica" font-size="32.3" fill="#FEFFFF" transform="matrix(1.00, 0.00, -0.00, -1.00, 222.7, 305.3)">o</text><text xml:space="preserve" font-family="Helvetica-Light,Helvetica" font-size="32.3" fill="#FEFFFF" transform="matrix(1.00, 0.00, -0.00, -1.00, 240.7, 305.3)">g</text><text xml:space="preserve" font-family="Helvetica-Light,Helvetica" font-size="32.3" fill="#FEFFFF" transform="matrix(1.00, 0.00, -0.00, -1.00, 260.4, 305.3)"> </text><text xml:space="preserve" font-family="Helvetica-Light,Helvetica" font-size="32.3" fill="#FEFFFF" transform="matrix(1.00, 0.00, -0.00, -1.00, 269.4, 305.3)">r</text><text xml:space="preserve" font-family="Helvetica-Light,Helvetica" font-size="32.3" fill="#FEFFFF" transform="matrix(1.00, 0.00, -0.00, -1.00, 279.6, 305.3)">e</text><text xml:space="preserve" font-family="Helvetica-Light,Helvetica" font-size="32.3" fill="#FEFFFF" transform="matrix(1.00, 0.00, -0.00, -1.00, 297.5, 305.3)">f</text><text xml:space="preserve" font-family="Helvetica-Light,Helvetica" font-size="32.3" fill="#FEFFFF" transform="matrix(1.00, 0.00, -0.00, -1.00, 306.5, 305.3)">A</text><text xml:space="preserve" font-family="Helvetica-Light,Helvetica" font-size="32.3" fill="#FEFFFF" transform="matrix(1.00, 0.00, -0.00, -1.00, 328.1, 305.3)">.</text><text xml:space="preserve" font-family="Helvetica-Light,Helvetica" font-size="32.3" fill="#FEFFFF" transform="matrix(1.00, 0.00, -0.00, -1.00, 337.0, 305.3)">.</text><text xml:space="preserve" font-family="Helvetica-Light,Helvetica" font-size="32.3" fill="#FEFFFF" transform="matrix(1.00, 0.00, -0.00, -1.00, 346.0, 305.3)">r</text><text xml:space="preserve" font-family="Helvetica-Light,Helvetica" font-size="32.3" fill="#FEFFFF" transform="matrix(1.00, 0.00, -0.00, -1.00, 356.2, 305.3)">e</text><text xml:space="preserve" font-family="Helvetica-Light,Helvetica" font-size="32.3" fill="#FEFFFF" transform="matrix(1.00, 0.00, -0.00, -1.00, 374.1, 305.3)">f</text><text xml:space="preserve" font-family="Helvetica-Light,Helvetica" font-size="32.3" fill="#FEFFFF" transform="matrix(1.00, 0.00, -0.00, -1.00, 383.1, 305.3)">B</text><text xml:space="preserve" font-family="Helvetica-Light,Helvetica" font-size="32.3" fill="#FEFFFF" transform="matrix(1.00, 0.00, -0.00, -1.00, 404.7, 305.3)"> </text><text xml:space="preserve" font-family="Helvetica-Light,Helvetica" font-size="24.2" fill="#FEFFFF" transform="matrix(1.00, 0.00, -0.00, -1.00, 114.0, 233.8)">•</text><text xml:space="preserve" font-family="Helvetica-Light,Helvetica" font-size="32.3" fill="#FEFFFF" transform="matrix(1.00, 0.00, -0.00, -1.00, 143.8, 231.6)">$</text><text xml:space="preserve" font-family="Helvetica-Light,Helvetica" font-size="32.3" fill="#FEFFFF" transform="matrix(1.00, 0.00, -0.00, -1.00, 161.7, 231.6)"> </text><text xml:space="preserve" font-family="Helvetica-Light,Helvetica" font-size="32.3" fill="#FEFFFF" transform="matrix(1.00, 0.00, -0.00, -1.00, 170.7, 231.6)">g</text><text xml:space="preserve" font-family="Helvetica-Light,Helvetica" font-size="32.3" fill="#FEFFFF" transform="matrix(1.00, 0.00, -0.00, -1.00, 190.4, 231.6)">i</text><text xml:space="preserve" font-family="Helvetica-Light,Helvetica" font-size="32.3" fill="#FEFFFF" transform="matrix(1.00, 0.00, -0.00, -1.00, 197.6, 231.6)">t</text><text xml:space="preserve" font-family="Helvetica-Light,Helvetica" font-size="32.3" fill="#FEFFFF" transform="matrix(1.00, 0.00, -0.00, -1.00, 206.6, 231.6)"> </text><text xml:space="preserve" font-family="Helvetica-Light,Helvetica" font-size="32.3" fill="#FEFFFF" transform="matrix(1.00, 0.00, -0.00, -1.00, 215.6, 231.6)">l</text><text xml:space="preserve" font-family="Helvetica-Light,Helvetica" font-size="32.3" fill="#FEFFFF" transform="matrix(1.00, 0.00, -0.00, -1.00, 222.7, 231.6)">o</text><text xml:space="preserve" font-family="Helvetica-Light,Helvetica" font-size="32.3" fill="#FEFFFF" transform="matrix(1.00, 0.00, -0.00, -1.00, 240.7, 231.6)">g</text><text xml:space="preserve" font-family="Helvetica-Light,Helvetica" font-size="32.3" fill="#FEFFFF" transform="matrix(1.00, 0.00, -0.00, -1.00, 260.4, 231.6)"> </text><text xml:space="preserve" font-family="Helvetica-Light,Helvetica" font-size="32.3" fill="#FEFFFF" transform="matrix(1.00, 0.00, -0.00, -1.00, 269.4, 231.6)">^</text><text xml:space="preserve" font-family="Helvetica-Light,Helvetica" font-size="32.3" fill="#FEFFFF" transform="matrix(1.00, 0.00, -0.00, -1.00, 290.7, 231.6)">r</text><text xml:space="preserve" font-family="Helvetica-Light,Helvetica" font-size="32.3" fill="#FEFFFF" transform="matrix(1.00, 0.00, -0.00, -1.00, 300.9, 231.6)">e</text><text xml:space="preserve" font-family="Helvetica-Light,Helvetica" font-size="32.3" fill="#FEFFFF" transform="matrix(1.00, 0.00, -0.00, -1.00, 318.8, 231.6)">f</text><text xml:space="preserve" font-family="Helvetica-Light,Helvetica" font-size="32.3" fill="#FEFFFF" transform="matrix(1.00, 0.00, -0.00, -1.00, 327.8, 231.6)">A</text><text xml:space="preserve" font-family="Helvetica-Light,Helvetica" font-size="32.3" fill="#FEFFFF" transform="matrix(1.00, 0.00, -0.00, -1.00, 349.4, 231.6)"> </text><text xml:space="preserve" font-family="Helvetica-Light,Helvetica" font-size="32.3" fill="#FEFFFF" transform="matrix(1.00, 0.00, -0.00, -1.00, 358.4, 231.6)">r</text><text xml:space="preserve" font-family="Helvetica-Light,Helvetica" font-size="32.3" fill="#FEFFFF" transform="matrix(1.00, 0.00, -0.00, -1.00, 368.5, 231.6)">e</text><text xml:space="preserve" font-family="Helvetica-Light,Helvetica" font-size="32.3" fill="#FEFFFF" transform="matrix(1.00, 0.00, -0.00, -1.00, 386.5, 231.6)">f</text><text xml:space="preserve" font-family="Helvetica-Light,Helvetica" font-size="32.3" fill="#FEFFFF" transform="matrix(1.00, 0.00, -0.00, -1.00, 395.5, 231.6)">B</text><text xml:space="preserve" font-family="Helvetica-Light,Helvetica" font-size="32.3" fill="#FEFFFF" transform="matrix(1.00, 0.00, -0.00, -1.00, 417.0, 231.6)"> </text><text xml:space="preserve" font-family="Helvetica-Light,Helvetica" font-size="24.2" fill="#FEFFFF" transform="matrix(1.00, 0.00, -0.00, -1.00, 114.0, 160.1)">•</text><text xml:space="preserve" font-family="Helvetica-Light,Helvetica" font-size="32.3" fill="#FEFFFF" transform="matrix(1.00, 0.00, -0.00, -1.00, 143.8, 157.9)">$</text><text xml:space="preserve" font-family="Helvetica-Light,Helvetica" font-size="32.3" fill="#FEFFFF" transform="matrix(1.00, 0.00, -0.00, -1.00, 161.7, 157.9)"> </text><text xml:space="preserve" font-family="Helvetica-Light,Helvetica" font-size="32.3" fill="#FEFFFF" transform="matrix(1.00, 0.00, -0.00, -1.00, 170.7, 157.9)">g</text><text xml:space="preserve" font-family="Helvetica-Light,Helvetica" font-size="32.3" fill="#FEFFFF" transform="matrix(1.00, 0.00, -0.00, -1.00, 190.4, 157.9)">i</text><text xml:space="preserve" font-family="Helvetica-Light,Helvetica" font-size="32.3" fill="#FEFFFF" transform="matrix(1.00, 0.00, -0.00, -1.00, 197.6, 157.9)">t</text><text xml:space="preserve" font-family="Helvetica-Light,Helvetica" font-size="32.3" fill="#FEFFFF" transform="matrix(1.00, 0.00, -0.00, -1.00, 206.6, 157.9)"> </text><text xml:space="preserve" font-family="Helvetica-Light,Helvetica" font-size="32.3" fill="#FEFFFF" transform="matrix(1.00, 0.00, -0.00, -1.00, 215.6, 157.9)">l</text><text xml:space="preserve" font-family="Helvetica-Light,Helvetica" font-size="32.3" fill="#FEFFFF" transform="matrix(1.00, 0.00, -0.00, -1.00, 222.7, 157.9)">o</text><text xml:space="preserve" font-family="Helvetica-Light,Helvetica" font-size="32.3" fill="#FEFFFF" transform="matrix(1.00, 0.00, -0.00, -1.00, 240.7, 157.9)">g</text><text xml:space="preserve" font-family="Helvetica-Light,Helvetica" font-size="32.3" fill="#FEFFFF" transform="matrix(1.00, 0.00, -0.00, -1.00, 260.4, 157.9)"> </text><text xml:space="preserve" font-family="Helvetica-Light,Helvetica" font-size="32.3" fill="#FEFFFF" transform="matrix(1.00, 0.00, -0.00, -1.00, 269.4, 157.9)">r</text><text xml:space="preserve" font-family="Helvetica-Light,Helvetica" font-size="32.3" fill="#FEFFFF" transform="matrix(1.00, 0.00, -0.00, -1.00, 279.6, 157.9)">e</text><text xml:space="preserve" font-family="Helvetica-Light,Helvetica" font-size="32.3" fill="#FEFFFF" transform="matrix(1.00, 0.00, -0.00, -1.00, 297.5, 157.9)">f</text><text xml:space="preserve" font-family="Helvetica-Light,Helvetica" font-size="32.3" fill="#FEFFFF" transform="matrix(1.00, 0.00, -0.00, -1.00, 306.5, 157.9)">B</text><text xml:space="preserve" font-family="Helvetica-Light,Helvetica" font-size="32.3" fill="#FEFFFF" transform="matrix(1.00, 0.00, -0.00, -1.00, 328.1, 157.9)"> </text><text xml:space="preserve" font-family="Helvetica-Light,Helvetica" font-size="32.3" fill="#FEFFFF" transform="matrix(1.00, 0.00, -0.00, -1.00, 337.0, 157.9)">-</text><text xml:space="preserve" font-family="Helvetica-Light,Helvetica" font-size="32.3" fill="#FEFFFF" transform="matrix(1.00, 0.00, -0.00, -1.00, 347.8, 157.9)">-</text><text xml:space="preserve" font-family="Helvetica-Light,Helvetica" font-size="32.3" fill="#FEFFFF" transform="matrix(1.00, 0.00, -0.00, -1.00, 358.5, 157.9)">n</text><text xml:space="preserve" font-family="Helvetica-Light,Helvetica" font-size="32.3" fill="#FEFFFF" transform="matrix(1.00, 0.00, -0.00, -1.00, 376.5, 157.9)">o</text><text xml:space="preserve" font-family="Helvetica-Light,Helvetica" font-size="32.3" fill="#FEFFFF" transform="matrix(1.00, 0.00, -0.00, -1.00, 394.5, 157.9)">t</text><text xml:space="preserve" font-family="Helvetica-Light,Helvetica" font-size="32.3" fill="#FEFFFF" transform="matrix(1.00, 0.00, -0.00, -1.00, 403.4, 157.9)"> </text><text xml:space="preserve" font-family="Helvetica-Light,Helvetica" font-size="32.3" fill="#FEFFFF" transform="matrix(1.00, 0.00, -0.00, -1.00, 412.4, 157.9)">r</text><text xml:space="preserve" font-family="Helvetica-Light,Helvetica" font-size="32.3" fill="#FEFFFF" transform="matrix(1.00, 0.00, -0.00, -1.00, 422.6, 157.9)">e</text><text xml:space="preserve" font-family="Helvetica-Light,Helvetica" font-size="32.3" fill="#FEFFFF" transform="matrix(1.00, 0.00, -0.00, -1.00, 440.6, 157.9)">f</text><text xml:space="preserve" font-family="Helvetica-Light,Helvetica" font-size="32.3" fill="#FEFFFF" transform="matrix(1.00, 0.00, -0.00, -1.00, 449.5, 157.9)">A</text><text xml:space="preserve" font-family="Helvetica-Light,Helvetica" font-size="32.3" fill="#FEFFFF" transform="matrix(1.00, 0.00, -0.00, -1.00, 471.1, 157.9)"> </text><text xml:space="preserve" font-family="Helvetica-Light,Helvetica" font-size="24.2" fill="#FEFFFF" transform="matrix(1.00, 0.00, -0.00, -1.00, 114.0, 86.4)">•</text><text xml:space="preserve" font-family="Helvetica-Light,Helvetica" font-size="32.3" fill="#FEFFFF" transform="matrix(1.00, 0.00, -0.00, -1.00, 143.8, 84.2)">g</text><text xml:space="preserve" font-family="Helvetica-Light,Helvetica" font-size="32.3" fill="#FEFFFF" transform="matrix(1.00, 0.00, -0.00, -1.00, 163.5, 84.2)">i</text><text xml:space="preserve" font-family="Helvetica-Light,Helvetica" font-size="32.3" fill="#FEFFFF" transform="matrix(1.00, 0.00, -0.00, -1.00, 170.7, 84.2)">t</text><text xml:space="preserve" font-family="Helvetica-Light,Helvetica" font-size="32.3" fill="#FEFFFF" transform="matrix(1.00, 0.00, -0.00, -1.00, 179.6, 84.2)"> </text><text xml:space="preserve" font-family="Helvetica-Light,Helvetica" font-size="32.3" fill="#FEFFFF" transform="matrix(1.00, 0.00, -0.00, -1.00, 188.6, 84.2)">l</text><text xml:space="preserve" font-family="Helvetica-Light,Helvetica" font-size="32.3" fill="#FEFFFF" transform="matrix(1.00, 0.00, -0.00, -1.00, 195.8, 84.2)">o</text><text xml:space="preserve" font-family="Helvetica-Light,Helvetica" font-size="32.3" fill="#FEFFFF" transform="matrix(1.00, 0.00, -0.00, -1.00, 213.7, 84.2)">g</text><text xml:space="preserve" font-family="Helvetica-Light,Helvetica" font-size="32.3" fill="#FEFFFF" transform="matrix(1.00, 0.00, -0.00, -1.00, 233.5, 84.2)"> </text><text xml:space="preserve" font-family="Helvetica-Light,Helvetica" font-size="32.3" fill="#FEFFFF" transform="matrix(1.00, 0.00, -0.00, -1.00, 242.5, 84.2)">m</text><text xml:space="preserve" font-family="Helvetica-Light,Helvetica" font-size="32.3" fill="#FEFFFF" transform="matrix(1.00, 0.00, -0.00, -1.00, 269.4, 84.2)">a</text><text xml:space="preserve" font-family="Helvetica-Light,Helvetica" font-size="32.3" fill="#FEFFFF" transform="matrix(1.00, 0.00, -0.00, -1.00, 287.3, 84.2)">s</text><text xml:space="preserve" font-family="Helvetica-Light,Helvetica" font-size="32.3" fill="#FEFFFF" transform="matrix(1.00, 0.00, -0.00, -1.00, 303.5, 84.2)">t</text><text xml:space="preserve" font-family="Helvetica-Light,Helvetica" font-size="32.3" fill="#FEFFFF" transform="matrix(1.00, 0.00, -0.00, -1.00, 312.5, 84.2)">e</text><text xml:space="preserve" font-family="Helvetica-Light,Helvetica" font-size="32.3" fill="#FEFFFF" transform="matrix(1.00, 0.00, -0.00, -1.00, 330.4, 84.2)">r</text><text xml:space="preserve" font-family="Helvetica-Light,Helvetica" font-size="32.3" fill="#FEFFFF" transform="matrix(1.00, 0.00, -0.00, -1.00, 338.2, 84.2)">.</text><text xml:space="preserve" font-family="Helvetica-Light,Helvetica" font-size="32.3" fill="#FEFFFF" transform="matrix(1.00, 0.00, -0.00, -1.00, 347.2, 84.2)">.</text><text xml:space="preserve" font-family="Helvetica-Light,Helvetica" font-size="32.3" fill="#FEFFFF" transform="matrix(1.00, 0.00, -0.00, -1.00, 356.2, 84.2)">.</text><text xml:space="preserve" font-family="Helvetica-Light,Helvetica" font-size="32.3" fill="#FEFFFF" transform="matrix(1.00, 0.00, -0.00, -1.00, 365.1, 84.2)">e</text><text xml:space="preserve" font-family="Helvetica-Light,Helvetica" font-size="32.3" fill="#FEFFFF" transform="matrix(1.00, 0.00, -0.00, -1.00, 383.1, 84.2)">x</text><text xml:space="preserve" font-family="Helvetica-Light,Helvetica" font-size="32.3" fill="#FEFFFF" transform="matrix(1.00, 0.00, -0.00, -1.00, 399.2, 84.2)">p</text><text xml:space="preserve" font-family="Helvetica-Light,Helvetica" font-size="32.3" fill="#FEFFFF" transform="matrix(1.00, 0.00, -0.00, -1.00, 419.0, 84.2)">e</text><text xml:space="preserve" font-family="Helvetica-Light,Helvetica" font-size="32.3" fill="#FEFFFF" transform="matrix(1.00, 0.00, -0.00, -1.00, 436.9, 84.2)">r</text><text xml:space="preserve" font-family="Helvetica-Light,Helvetica" font-size="32.3" fill="#FEFFFF" transform="matrix(1.00, 0.00, -0.00, -1.00, 447.7, 84.2)">i</text><text xml:space="preserve" font-family="Helvetica-Light,Helvetica" font-size="32.3" fill="#FEFFFF" transform="matrix(1.00, 0.00, -0.00, -1.00, 454.9, 84.2)">m</text><text xml:space="preserve" font-family="Helvetica-Light,Helvetica" font-size="32.3" fill="#FEFFFF" transform="matrix(1.00, 0.00, -0.00, -1.00, 481.8, 84.2)">e</text><text xml:space="preserve" font-family="Helvetica-Light,Helvetica" font-size="32.3" fill="#FEFFFF" transform="matrix(1.00, 0.00, -0.00, -1.00, 499.7, 84.2)">n</text><text xml:space="preserve" font-family="Helvetica-Light,Helvetica" font-size="32.3" fill="#FEFFFF" transform="matrix(1.00, 0.00, -0.00, -1.00, 517.7, 84.2)">t</text></g></svg>