<?xml version="1.0" encoding="UTF-8" standalone="no"?><svg xmlns="http://www.w3.org/2000/svg" xmlns:xlink="http://www.w3.org/1999/xlink" clip-rule="evenodd" stroke-miterlimit="10" viewBox="0 0 1024 768"><desc>SVG generated by Keynote</desc><defs></defs><g transform="matrix(1.00, 0.00, -0.00, -1.00, 0.0, 768.0)"><path d="M 0.0 768.0 L 1024.0 768.0 L 1024.0 0.0 L 0.0 0.0 Z M 0.0 768.0 " fill="#000000"></path><text xml:space="preserve" font-family="Helvetica-Light,Helvetica" font-size="80.0" fill="#FEFFFF" transform="matrix(1.00, 0.00, -0.00, -1.00, 392.0, 633.4)">c</text><text xml:space="preserve" font-family="Helvetica-Light,Helvetica" font-size="80.0" fill="#FEFFFF" transform="matrix(1.00, 0.00, -0.00, -1.00, 436.4, 633.4)">a</text><text xml:space="preserve" font-family="Helvetica-Light,Helvetica" font-size="80.0" fill="#FEFFFF" transform="matrix(1.00, 0.00, -0.00, -1.00, 480.9, 633.4)">t</text><text xml:space="preserve" font-family="Helvetica-Light,Helvetica" font-size="80.0" fill="#FEFFFF" transform="matrix(1.00, 0.00, -0.00, -1.00, 503.2, 633.4)">-</text><text xml:space="preserve" font-family="Helvetica-Light,Helvetica" font-size="80.0" fill="#FEFFFF" transform="matrix(1.00, 0.00, -0.00, -1.00, 529.8, 633.4)">ﬁ</text><text xml:space="preserve" font-family="Helvetica-Light,Helvetica" font-size="80.0" fill="#FEFFFF" transform="matrix(1.00, 0.00, -0.00, -1.00, 569.8, 633.4)">l</text><text xml:space="preserve" font-family="Helvetica-Light,Helvetica" font-size="80.0" fill="#FEFFFF" transform="matrix(1.00, 0.00, -0.00, -1.00, 587.6, 633.4)">e</text><text xml:space="preserve" font-family="Helvetica-Light,Helvetica" font-size="22.1" fill="#FEFFFF" transform="matrix(1.00, 0.00, -0.00, -1.00, 79.0, 539.1)">$</text><text xml:space="preserve" font-family="Helvetica-Light,Helvetica" font-size="22.1" fill="#FEFFFF" transform="matrix(1.00, 0.00, -0.00, -1.00, 91.3, 539.1)"> </text><text xml:space="preserve" font-family="Helvetica-Light,Helvetica" font-size="22.1" fill="#FEFFFF" transform="matrix(1.00, 0.00, -0.00, -1.00, 97.5, 539.1)">g</text><text xml:space="preserve" font-family="Helvetica-Light,Helvetica" font-size="22.1" fill="#FEFFFF" transform="matrix(1.00, 0.00, -0.00, -1.00, 111.0, 539.1)">i</text><text xml:space="preserve" font-family="Helvetica-Light,Helvetica" font-size="22.1" fill="#FEFFFF" transform="matrix(1.00, 0.00, -0.00, -1.00, 115.9, 539.1)">t</text><text xml:space="preserve" font-family="Helvetica-Light,Helvetica" font-size="22.1" fill="#FEFFFF" transform="matrix(1.00, 0.00, -0.00, -1.00, 122.1, 539.1)"> </text><text xml:space="preserve" font-family="Helvetica-Light,Helvetica" font-size="22.1" fill="#FEFFFF" transform="matrix(1.00, 0.00, -0.00, -1.00, 128.2, 539.1)">c</text><text xml:space="preserve" font-family="Helvetica-Light,Helvetica" font-size="22.1" fill="#FEFFFF" transform="matrix(1.00, 0.00, -0.00, -1.00, 140.5, 539.1)">a</text><text xml:space="preserve" font-family="Helvetica-Light,Helvetica" font-size="22.1" fill="#FEFFFF" transform="matrix(1.00, 0.00, -0.00, -1.00, 152.8, 539.1)">t</text><text xml:space="preserve" font-family="Helvetica-Light,Helvetica" font-size="22.1" fill="#FEFFFF" transform="matrix(1.00, 0.00, -0.00, -1.00, 159.0, 539.1)">-</text><text xml:space="preserve" font-family="Helvetica-Light,Helvetica" font-size="22.1" fill="#FEFFFF" transform="matrix(1.00, 0.00, -0.00, -1.00, 166.4, 539.1)">ﬁ</text><text xml:space="preserve" font-family="Helvetica-Light,Helvetica" font-size="22.1" fill="#FEFFFF" transform="matrix(1.00, 0.00, -0.00, -1.00, 177.4, 539.1)">l</text><text xml:space="preserve" font-family="Helvetica-Light,Helvetica" font-size="22.1" fill="#FEFFFF" transform="matrix(1.00, 0.00, -0.00, -1.00, 182.3, 539.1)">e</text><text xml:space="preserve" font-family="Helvetica-Light,Helvetica" font-size="22.1" fill="#FEFFFF" transform="matrix(1.00, 0.00, -0.00, -1.00, 194.7, 539.1)"> </text><text xml:space="preserve" font-family="Helvetica-Light,Helvetica" font-size="22.1" fill="#FEFFFF" transform="matrix(1.00, 0.00, -0.00, -1.00, 200.8, 539.1)">b</text><text xml:space="preserve" font-family="Helvetica-Light,Helvetica" font-size="22.1" fill="#FEFFFF" transform="matrix(1.00, 0.00, -0.00, -1.00, 214.3, 539.1)">l</text><text xml:space="preserve" font-family="Helvetica-Light,Helvetica" font-size="22.1" fill="#FEFFFF" transform="matrix(1.00, 0.00, -0.00, -1.00, 219.3, 539.1)">o</text><text xml:space="preserve" font-family="Helvetica-Light,Helvetica" font-size="22.1" fill="#FEFFFF" transform="matrix(1.00, 0.00, -0.00, -1.00, 231.6, 539.1)">b</text><text xml:space="preserve" font-family="Helvetica-Light,Helvetica" font-size="22.1" fill="#FEFFFF" transform="matrix(1.00, 0.00, -0.00, -1.00, 245.1, 539.1)"> </text><text xml:space="preserve" font-family="Helvetica-Light,Helvetica" font-size="22.1" fill="#FEFFFF" transform="matrix(1.00, 0.00, -0.00, -1.00, 251.2, 539.1)">4</text><text xml:space="preserve" font-family="Helvetica-Light,Helvetica" font-size="22.1" fill="#FEFFFF" transform="matrix(1.00, 0.00, -0.00, -1.00, 263.6, 539.1)">b</text><text xml:space="preserve" font-family="Helvetica-Light,Helvetica" font-size="22.1" fill="#FEFFFF" transform="matrix(1.00, 0.00, -0.00, -1.00, 277.1, 539.1)">0</text><text xml:space="preserve" font-family="Helvetica-Light,Helvetica" font-size="22.1" fill="#FEFFFF" transform="matrix(1.00, 0.00, -0.00, -1.00, 289.4, 539.1)">6</text><text xml:space="preserve" font-family="Helvetica-Light,Helvetica" font-size="22.1" fill="#FEFFFF" transform="matrix(1.00, 0.00, -0.00, -1.00, 301.7, 539.1)">5</text><text xml:space="preserve" font-family="Helvetica-Light,Helvetica" font-size="22.1" fill="#FEFFFF" transform="matrix(1.00, 0.00, -0.00, -1.00, 314.0, 539.1)">6</text><text xml:space="preserve" font-family="Helvetica-Light,Helvetica" font-size="22.1" fill="#FEFFFF" transform="matrix(1.00, 0.00, -0.00, -1.00, 326.3, 539.1)">c</text><text xml:space="preserve" font-family="Helvetica-Light,Helvetica" font-size="22.1" fill="#FEFFFF" transform="matrix(1.00, 0.00, -0.00, -1.00, 338.6, 539.1)">6</text><text xml:space="preserve" font-family="Helvetica-Light,Helvetica" font-size="22.1" fill="#FEFFFF" transform="matrix(1.00, 0.00, -0.00, -1.00, 350.9, 539.1)">1</text><text xml:space="preserve" font-family="Helvetica-Light,Helvetica" font-size="22.1" fill="#FEFFFF" transform="matrix(1.00, 0.00, -0.00, -1.00, 363.3, 539.1)">0</text><text xml:space="preserve" font-family="Helvetica-Light,Helvetica" font-size="22.1" fill="#FEFFFF" transform="matrix(1.00, 0.00, -0.00, -1.00, 375.6, 539.1)">5</text><text xml:space="preserve" font-family="Helvetica-Light,Helvetica" font-size="22.1" fill="#FEFFFF" transform="matrix(1.00, 0.00, -0.00, -1.00, 387.9, 539.1)">e</text><text xml:space="preserve" font-family="Helvetica-Light,Helvetica" font-size="22.1" fill="#FEFFFF" transform="matrix(1.00, 0.00, -0.00, -1.00, 400.2, 539.1)">8</text><text xml:space="preserve" font-family="Helvetica-Light,Helvetica" font-size="22.1" fill="#FEFFFF" transform="matrix(1.00, 0.00, -0.00, -1.00, 412.5, 539.1)">2</text><text xml:space="preserve" font-family="Helvetica-Light,Helvetica" font-size="22.1" fill="#FEFFFF" transform="matrix(1.00, 0.00, -0.00, -1.00, 424.8, 539.1)">2</text><text xml:space="preserve" font-family="Helvetica-Light,Helvetica" font-size="22.1" fill="#FEFFFF" transform="matrix(1.00, 0.00, -0.00, -1.00, 437.1, 539.1)">b</text><text xml:space="preserve" font-family="Helvetica-Light,Helvetica" font-size="22.1" fill="#FEFFFF" transform="matrix(1.00, 0.00, -0.00, -1.00, 450.6, 539.1)">2</text><text xml:space="preserve" font-family="Helvetica-Light,Helvetica" font-size="22.1" fill="#FEFFFF" transform="matrix(1.00, 0.00, -0.00, -1.00, 463.0, 539.1)">3</text><text xml:space="preserve" font-family="Helvetica-Light,Helvetica" font-size="22.1" fill="#FEFFFF" transform="matrix(1.00, 0.00, -0.00, -1.00, 475.3, 539.1)">3</text><text xml:space="preserve" font-family="Helvetica-Light,Helvetica" font-size="22.1" fill="#FEFFFF" transform="matrix(1.00, 0.00, -0.00, -1.00, 487.6, 539.1)">f</text><text xml:space="preserve" font-family="Helvetica-Light,Helvetica" font-size="22.1" fill="#FEFFFF" transform="matrix(1.00, 0.00, -0.00, -1.00, 493.7, 539.1)">c</text><text xml:space="preserve" font-family="Helvetica-Light,Helvetica" font-size="22.1" fill="#FEFFFF" transform="matrix(1.00, 0.00, -0.00, -1.00, 506.0, 539.1)">d</text><text xml:space="preserve" font-family="Helvetica-Light,Helvetica" font-size="22.1" fill="#FEFFFF" transform="matrix(1.00, 0.00, -0.00, -1.00, 519.6, 539.1)">3</text><text xml:space="preserve" font-family="Helvetica-Light,Helvetica" font-size="22.1" fill="#FEFFFF" transform="matrix(1.00, 0.00, -0.00, -1.00, 531.9, 539.1)">8</text><text xml:space="preserve" font-family="Helvetica-Light,Helvetica" font-size="22.1" fill="#FEFFFF" transform="matrix(1.00, 0.00, -0.00, -1.00, 544.2, 539.1)">2</text><text xml:space="preserve" font-family="Helvetica-Light,Helvetica" font-size="22.1" fill="#FEFFFF" transform="matrix(1.00, 0.00, -0.00, -1.00, 556.5, 539.1)">5</text><text xml:space="preserve" font-family="Helvetica-Light,Helvetica" font-size="22.1" fill="#FEFFFF" transform="matrix(1.00, 0.00, -0.00, -1.00, 568.8, 539.1)">d</text><text xml:space="preserve" font-family="Helvetica-Light,Helvetica" font-size="22.1" fill="#FEFFFF" transform="matrix(1.00, 0.00, -0.00, -1.00, 582.3, 539.1)">3</text><text xml:space="preserve" font-family="Helvetica-Light,Helvetica" font-size="22.1" fill="#FEFFFF" transform="matrix(1.00, 0.00, -0.00, -1.00, 594.6, 539.1)">4</text><text xml:space="preserve" font-family="Helvetica-Light,Helvetica" font-size="22.1" fill="#FEFFFF" transform="matrix(1.00, 0.00, -0.00, -1.00, 607.0, 539.1)">7</text><text xml:space="preserve" font-family="Helvetica-Light,Helvetica" font-size="22.1" fill="#FEFFFF" transform="matrix(1.00, 0.00, -0.00, -1.00, 619.3, 539.1)">5</text><text xml:space="preserve" font-family="Helvetica-Light,Helvetica" font-size="22.1" fill="#FEFFFF" transform="matrix(1.00, 0.00, -0.00, -1.00, 631.6, 539.1)">b</text><text xml:space="preserve" font-family="Helvetica-Light,Helvetica" font-size="22.1" fill="#FEFFFF" transform="matrix(1.00, 0.00, -0.00, -1.00, 645.1, 539.1)">c</text><text xml:space="preserve" font-family="Helvetica-Light,Helvetica" font-size="22.1" fill="#FEFFFF" transform="matrix(1.00, 0.00, -0.00, -1.00, 657.4, 539.1)">b</text><text xml:space="preserve" font-family="Helvetica-Light,Helvetica" font-size="22.1" fill="#FEFFFF" transform="matrix(1.00, 0.00, -0.00, -1.00, 670.9, 539.1)">e</text><text xml:space="preserve" font-family="Helvetica-Light,Helvetica" font-size="22.1" fill="#FEFFFF" transform="matrix(1.00, 0.00, -0.00, -1.00, 683.2, 539.1)">8</text><text xml:space="preserve" font-family="Helvetica-Light,Helvetica" font-size="22.1" fill="#FEFFFF" transform="matrix(1.00, 0.00, -0.00, -1.00, 695.6, 539.1)">0</text><text xml:space="preserve" font-family="Helvetica-Light,Helvetica" font-size="22.1" fill="#FEFFFF" transform="matrix(1.00, 0.00, -0.00, -1.00, 707.9, 539.1)">6</text><text xml:space="preserve" font-family="Helvetica-Light,Helvetica" font-size="22.1" fill="#FEFFFF" transform="matrix(1.00, 0.00, -0.00, -1.00, 720.2, 539.1)">5</text><text xml:space="preserve" font-family="Helvetica-Light,Helvetica" font-size="22.1" fill="#FEFFFF" transform="matrix(1.00, 0.00, -0.00, -1.00, 732.5, 539.1)">4</text><text xml:space="preserve" font-family="Helvetica-Light,Helvetica" font-size="22.1" fill="#FEFFFF" transform="matrix(1.00, 0.00, -0.00, -1.00, 744.8, 539.1)"> </text><text xml:space="preserve" font-family="Helvetica-Light,Helvetica" font-size="22.1" fill="#FEFFFF" transform="matrix(1.00, 0.00, -0.00, -1.00, 79.0, 498.9)">P</text><text xml:space="preserve" font-family="Helvetica-Light,Helvetica" font-size="22.1" fill="#FEFFFF" transform="matrix(1.00, 0.00, -0.00, -1.00, 92.5, 498.9)">r</text><text xml:space="preserve" font-family="Helvetica-Light,Helvetica" font-size="22.1" fill="#FEFFFF" transform="matrix(1.00, 0.00, -0.00, -1.00, 99.9, 498.9)">i</text><text xml:space="preserve" font-family="Helvetica-Light,Helvetica" font-size="22.1" fill="#FEFFFF" transform="matrix(1.00, 0.00, -0.00, -1.00, 104.8, 498.9)">v</text><text xml:space="preserve" font-family="Helvetica-Light,Helvetica" font-size="22.1" fill="#FEFFFF" transform="matrix(1.00, 0.00, -0.00, -1.00, 115.9, 498.9)">a</text><text xml:space="preserve" font-family="Helvetica-Light,Helvetica" font-size="22.1" fill="#FEFFFF" transform="matrix(1.00, 0.00, -0.00, -1.00, 128.2, 498.9)">t</text><text xml:space="preserve" font-family="Helvetica-Light,Helvetica" font-size="22.1" fill="#FEFFFF" transform="matrix(1.00, 0.00, -0.00, -1.00, 134.3, 498.9)">e</text><text xml:space="preserve" font-family="Helvetica-Light,Helvetica" font-size="22.1" fill="#FEFFFF" transform="matrix(1.00, 0.00, -0.00, -1.00, 146.7, 498.9)"> </text><text xml:space="preserve" font-family="Helvetica-Light,Helvetica" font-size="22.1" fill="#FEFFFF" transform="matrix(1.00, 0.00, -0.00, -1.00, 152.8, 498.9)">G</text><text xml:space="preserve" font-family="Helvetica-Light,Helvetica" font-size="22.1" fill="#FEFFFF" transform="matrix(1.00, 0.00, -0.00, -1.00, 170.0, 498.9)">i</text><text xml:space="preserve" font-family="Helvetica-Light,Helvetica" font-size="22.1" fill="#FEFFFF" transform="matrix(1.00, 0.00, -0.00, -1.00, 175.0, 498.9)">t</text><text xml:space="preserve" font-family="Helvetica-Light,Helvetica" font-size="22.1" fill="#FEFFFF" transform="matrix(1.00, 0.00, -0.00, -1.00, 181.1, 498.9)">c</text><text xml:space="preserve" font-family="Helvetica-Light,Helvetica" font-size="22.1" fill="#FEFFFF" transform="matrix(1.00, 0.00, -0.00, -1.00, 193.4, 498.9)">o</text><text xml:space="preserve" font-family="Helvetica-Light,Helvetica" font-size="22.1" fill="#FEFFFF" transform="matrix(1.00, 0.00, -0.00, -1.00, 205.7, 498.9)">i</text><text xml:space="preserve" font-family="Helvetica-Light,Helvetica" font-size="22.1" fill="#FEFFFF" transform="matrix(1.00, 0.00, -0.00, -1.00, 210.6, 498.9)">n</text><text xml:space="preserve" font-family="Helvetica-Light,Helvetica" font-size="22.1" fill="#FEFFFF" transform="matrix(1.00, 0.00, -0.00, -1.00, 223.0, 498.9)"> </text><text xml:space="preserve" font-family="Helvetica-Light,Helvetica" font-size="22.1" fill="#FEFFFF" transform="matrix(1.00, 0.00, -0.00, -1.00, 229.1, 498.9)">l</text><text xml:space="preserve" font-family="Helvetica-Light,Helvetica" font-size="22.1" fill="#FEFFFF" transform="matrix(1.00, 0.00, -0.00, -1.00, 234.0, 498.9)">e</text><text xml:space="preserve" font-family="Helvetica-Light,Helvetica" font-size="22.1" fill="#FEFFFF" transform="matrix(1.00, 0.00, -0.00, -1.00, 246.3, 498.9)">d</text><text xml:space="preserve" font-family="Helvetica-Light,Helvetica" font-size="22.1" fill="#FEFFFF" transform="matrix(1.00, 0.00, -0.00, -1.00, 259.9, 498.9)">g</text><text xml:space="preserve" font-family="Helvetica-Light,Helvetica" font-size="22.1" fill="#FEFFFF" transform="matrix(1.00, 0.00, -0.00, -1.00, 273.4, 498.9)">e</text><text xml:space="preserve" font-family="Helvetica-Light,Helvetica" font-size="22.1" fill="#FEFFFF" transform="matrix(1.00, 0.00, -0.00, -1.00, 285.7, 498.9)">r</text><text xml:space="preserve" font-family="Helvetica-Light,Helvetica" font-size="22.1" fill="#FEFFFF" transform="matrix(1.00, 0.00, -0.00, -1.00, 293.1, 498.9)"> </text><text xml:space="preserve" font-family="Helvetica-Light,Helvetica" font-size="22.1" fill="#FEFFFF" transform="matrix(1.00, 0.00, -0.00, -1.00, 79.0, 463.6)">=</text><text xml:space="preserve" font-family="Helvetica-Light,Helvetica" font-size="22.1" fill="#FEFFFF" transform="matrix(1.00, 0.00, -0.00, -1.00, 93.6, 463.6)">=</text><text xml:space="preserve" font-family="Helvetica-Light,Helvetica" font-size="22.1" fill="#FEFFFF" transform="matrix(1.00, 0.00, -0.00, -1.00, 108.2, 463.6)">=</text><text xml:space="preserve" font-family="Helvetica-Light,Helvetica" font-size="22.1" fill="#FEFFFF" transform="matrix(1.00, 0.00, -0.00, -1.00, 122.8, 463.6)">=</text><text xml:space="preserve" font-family="Helvetica-Light,Helvetica" font-size="22.1" fill="#FEFFFF" transform="matrix(1.00, 0.00, -0.00, -1.00, 137.4, 463.6)">=</text><text xml:space="preserve" font-family="Helvetica-Light,Helvetica" font-size="22.1" fill="#FEFFFF" transform="matrix(1.00, 0.00, -0.00, -1.00, 152.1, 463.6)">=</text><text xml:space="preserve" font-family="Helvetica-Light,Helvetica" font-size="22.1" fill="#FEFFFF" transform="matrix(1.00, 0.00, -0.00, -1.00, 166.7, 463.6)">=</text><text xml:space="preserve" font-family="Helvetica-Light,Helvetica" font-size="22.1" fill="#FEFFFF" transform="matrix(1.00, 0.00, -0.00, -1.00, 181.3, 463.6)">=</text><text xml:space="preserve" font-family="Helvetica-Light,Helvetica" font-size="22.1" fill="#FEFFFF" transform="matrix(1.00, 0.00, -0.00, -1.00, 195.9, 463.6)">=</text><text xml:space="preserve" font-family="Helvetica-Light,Helvetica" font-size="22.1" fill="#FEFFFF" transform="matrix(1.00, 0.00, -0.00, -1.00, 210.5, 463.6)">=</text><text xml:space="preserve" font-family="Helvetica-Light,Helvetica" font-size="22.1" fill="#FEFFFF" transform="matrix(1.00, 0.00, -0.00, -1.00, 225.1, 463.6)">=</text><text xml:space="preserve" font-family="Helvetica-Light,Helvetica" font-size="22.1" fill="#FEFFFF" transform="matrix(1.00, 0.00, -0.00, -1.00, 239.7, 463.6)">=</text><text xml:space="preserve" font-family="Helvetica-Light,Helvetica" font-size="22.1" fill="#FEFFFF" transform="matrix(1.00, 0.00, -0.00, -1.00, 254.3, 463.6)">=</text><text xml:space="preserve" font-family="Helvetica-Light,Helvetica" font-size="22.1" fill="#FEFFFF" transform="matrix(1.00, 0.00, -0.00, -1.00, 269.0, 463.6)">=</text><text xml:space="preserve" font-family="Helvetica-Light,Helvetica" font-size="22.1" fill="#FEFFFF" transform="matrix(1.00, 0.00, -0.00, -1.00, 283.6, 463.6)"> </text><text xml:space="preserve" font-family="Helvetica-Light,Helvetica" font-size="22.1" fill="#FEFFFF" transform="matrix(1.00, 0.00, -0.00, -1.00, 79.0, 428.4)">g</text><text xml:space="preserve" font-family="Helvetica-Light,Helvetica" font-size="22.1" fill="#FEFFFF" transform="matrix(1.00, 0.00, -0.00, -1.00, 92.5, 428.4)">d</text><text xml:space="preserve" font-family="Helvetica-Light,Helvetica" font-size="22.1" fill="#FEFFFF" transform="matrix(1.00, 0.00, -0.00, -1.00, 106.1, 428.4)">b</text><text xml:space="preserve" font-family="Helvetica-Light,Helvetica" font-size="22.1" fill="#FEFFFF" transform="matrix(1.00, 0.00, -0.00, -1.00, 119.6, 428.4)">:</text><text xml:space="preserve" font-family="Helvetica-Light,Helvetica" font-size="22.1" fill="#FEFFFF" transform="matrix(1.00, 0.00, -0.00, -1.00, 125.7, 428.4)"> </text><text xml:space="preserve" font-family="Helvetica-Light,Helvetica" font-size="22.1" fill="#FEFFFF" transform="matrix(1.00, 0.00, -0.00, -1.00, 131.9, 428.4)">2</text><text xml:space="preserve" font-family="Helvetica-Light,Helvetica" font-size="22.1" fill="#FEFFFF" transform="matrix(1.00, 0.00, -0.00, -1.00, 144.2, 428.4)">4</text><text xml:space="preserve" font-family="Helvetica-Light,Helvetica" font-size="22.1" fill="#FEFFFF" transform="matrix(1.00, 0.00, -0.00, -1.00, 156.5, 428.4)"> </text><text xml:space="preserve" font-family="Helvetica-Light,Helvetica" font-size="22.1" fill="#FEFFFF" transform="matrix(1.00, 0.00, -0.00, -1.00, 79.0, 393.1)">s</text><text xml:space="preserve" font-family="Helvetica-Light,Helvetica" font-size="22.1" fill="#FEFFFF" transform="matrix(1.00, 0.00, -0.00, -1.00, 90.1, 393.1)">i</text><text xml:space="preserve" font-family="Helvetica-Light,Helvetica" font-size="22.1" fill="#FEFFFF" transform="matrix(1.00, 0.00, -0.00, -1.00, 95.0, 393.1)">d</text><text xml:space="preserve" font-family="Helvetica-Light,Helvetica" font-size="22.1" fill="#FEFFFF" transform="matrix(1.00, 0.00, -0.00, -1.00, 108.5, 393.1)">d</text><text xml:space="preserve" font-family="Helvetica-Light,Helvetica" font-size="22.1" fill="#FEFFFF" transform="matrix(1.00, 0.00, -0.00, -1.00, 122.0, 393.1)">a</text><text xml:space="preserve" font-family="Helvetica-Light,Helvetica" font-size="22.1" fill="#FEFFFF" transform="matrix(1.00, 0.00, -0.00, -1.00, 134.3, 393.1)">r</text><text xml:space="preserve" font-family="Helvetica-Light,Helvetica" font-size="22.1" fill="#FEFFFF" transform="matrix(1.00, 0.00, -0.00, -1.00, 142.1, 393.1)">t</text><text xml:space="preserve" font-family="Helvetica-Light,Helvetica" font-size="22.1" fill="#FEFFFF" transform="matrix(1.00, 0.00, -0.00, -1.00, 148.3, 393.1)">h</text><text xml:space="preserve" font-family="Helvetica-Light,Helvetica" font-size="22.1" fill="#FEFFFF" transform="matrix(1.00, 0.00, -0.00, -1.00, 160.6, 393.1)">:</text><text xml:space="preserve" font-family="Helvetica-Light,Helvetica" font-size="22.1" fill="#FEFFFF" transform="matrix(1.00, 0.00, -0.00, -1.00, 166.7, 393.1)"> </text><text xml:space="preserve" font-family="Helvetica-Light,Helvetica" font-size="22.1" fill="#FEFFFF" transform="matrix(1.00, 0.00, -0.00, -1.00, 172.9, 393.1)">4</text><text xml:space="preserve" font-family="Helvetica-Light,Helvetica" font-size="22.1" fill="#FEFFFF" transform="matrix(1.00, 0.00, -0.00, -1.00, 185.2, 393.1)">2</text><text xml:space="preserve" font-family="Helvetica-Light,Helvetica" font-size="22.1" fill="#FEFFFF" transform="matrix(1.00, 0.00, -0.00, -1.00, 197.5, 393.1)"> </text><text xml:space="preserve" font-family="Helvetica-Light,Helvetica" font-size="22.1" fill="#FEFFFF" transform="matrix(1.00, 0.00, -0.00, -1.00, 79.0, 357.9)">c</text><text xml:space="preserve" font-family="Helvetica-Light,Helvetica" font-size="22.1" fill="#FEFFFF" transform="matrix(1.00, 0.00, -0.00, -1.00, 91.3, 357.9)">h</text><text xml:space="preserve" font-family="Helvetica-Light,Helvetica" font-size="22.1" fill="#FEFFFF" transform="matrix(1.00, 0.00, -0.00, -1.00, 103.6, 357.9)">r</text><text xml:space="preserve" font-family="Helvetica-Light,Helvetica" font-size="22.1" fill="#FEFFFF" transform="matrix(1.00, 0.00, -0.00, -1.00, 111.0, 357.9)">i</text><text xml:space="preserve" font-family="Helvetica-Light,Helvetica" font-size="22.1" fill="#FEFFFF" transform="matrix(1.00, 0.00, -0.00, -1.00, 115.9, 357.9)">s</text><text xml:space="preserve" font-family="Helvetica-Light,Helvetica" font-size="22.1" fill="#FEFFFF" transform="matrix(1.00, 0.00, -0.00, -1.00, 127.0, 357.9)">t</text><text xml:space="preserve" font-family="Helvetica-Light,Helvetica" font-size="22.1" fill="#FEFFFF" transform="matrix(1.00, 0.00, -0.00, -1.00, 133.1, 357.9)">i</text><text xml:space="preserve" font-family="Helvetica-Light,Helvetica" font-size="22.1" fill="#FEFFFF" transform="matrix(1.00, 0.00, -0.00, -1.00, 138.0, 357.9)">a</text><text xml:space="preserve" font-family="Helvetica-Light,Helvetica" font-size="22.1" fill="#FEFFFF" transform="matrix(1.00, 0.00, -0.00, -1.00, 150.4, 357.9)">n</text><text xml:space="preserve" font-family="Helvetica-Light,Helvetica" font-size="22.1" fill="#FEFFFF" transform="matrix(1.00, 0.00, -0.00, -1.00, 162.7, 357.9)">:</text><text xml:space="preserve" font-family="Helvetica-Light,Helvetica" font-size="22.1" fill="#FEFFFF" transform="matrix(1.00, 0.00, -0.00, -1.00, 168.8, 357.9)"> </text><text xml:space="preserve" font-family="Helvetica-Light,Helvetica" font-size="22.1" fill="#FEFFFF" transform="matrix(1.00, 0.00, -0.00, -1.00, 175.0, 357.9)">3</text><text xml:space="preserve" font-family="Helvetica-Light,Helvetica" font-size="22.1" fill="#FEFFFF" transform="matrix(1.00, 0.00, -0.00, -1.00, 187.3, 357.9)">2</text><text xml:space="preserve" font-family="Helvetica-Light,Helvetica" font-size="22.1" fill="#FEFFFF" transform="matrix(1.00, 0.00, -0.00, -1.00, 199.6, 357.9)"> </text><text xml:space="preserve" font-family="Helvetica-Light,Helvetica" font-size="22.1" fill="#FEFFFF" transform="matrix(1.00, 0.00, -0.00, -1.00, 79.0, 322.6)">a</text><text xml:space="preserve" font-family="Helvetica-Light,Helvetica" font-size="22.1" fill="#FEFFFF" transform="matrix(1.00, 0.00, -0.00, -1.00, 91.3, 322.6)">n</text><text xml:space="preserve" font-family="Helvetica-Light,Helvetica" font-size="22.1" fill="#FEFFFF" transform="matrix(1.00, 0.00, -0.00, -1.00, 103.6, 322.6)">d</text><text xml:space="preserve" font-family="Helvetica-Light,Helvetica" font-size="22.1" fill="#FEFFFF" transform="matrix(1.00, 0.00, -0.00, -1.00, 117.1, 322.6)">y</text><text xml:space="preserve" font-family="Helvetica-Light,Helvetica" font-size="22.1" fill="#FEFFFF" transform="matrix(1.00, 0.00, -0.00, -1.00, 128.2, 322.6)">:</text><text xml:space="preserve" font-family="Helvetica-Light,Helvetica" font-size="22.1" fill="#FEFFFF" transform="matrix(1.00, 0.00, -0.00, -1.00, 134.4, 322.6)"> </text><text xml:space="preserve" font-family="Helvetica-Light,Helvetica" font-size="22.1" fill="#FEFFFF" transform="matrix(1.00, 0.00, -0.00, -1.00, 140.5, 322.6)">1</text><text xml:space="preserve" font-family="Helvetica-Light,Helvetica" font-size="22.1" fill="#FEFFFF" transform="matrix(1.00, 0.00, -0.00, -1.00, 152.8, 322.6)">3</text><text xml:space="preserve" font-family="Helvetica-Light,Helvetica" font-size="22.1" fill="#FEFFFF" transform="matrix(1.00, 0.00, -0.00, -1.00, 165.1, 322.6)"> </text><text xml:space="preserve" font-family="Helvetica-Light,Helvetica" font-size="22.1" fill="#FEFFFF" transform="matrix(1.00, 0.00, -0.00, -1.00, 79.0, 287.3)">n</text><text xml:space="preserve" font-family="Helvetica-Light,Helvetica" font-size="22.1" fill="#FEFFFF" transform="matrix(1.00, 0.00, -0.00, -1.00, 91.3, 287.3)">e</text><text xml:space="preserve" font-family="Helvetica-Light,Helvetica" font-size="22.1" fill="#FEFFFF" transform="matrix(1.00, 0.00, -0.00, -1.00, 103.6, 287.3)">l</text><text xml:space="preserve" font-family="Helvetica-Light,Helvetica" font-size="22.1" fill="#FEFFFF" transform="matrix(1.00, 0.00, -0.00, -1.00, 108.5, 287.3)">h</text><text xml:space="preserve" font-family="Helvetica-Light,Helvetica" font-size="22.1" fill="#FEFFFF" transform="matrix(1.00, 0.00, -0.00, -1.00, 120.8, 287.3)">a</text><text xml:space="preserve" font-family="Helvetica-Light,Helvetica" font-size="22.1" fill="#FEFFFF" transform="matrix(1.00, 0.00, -0.00, -1.00, 133.2, 287.3)">g</text><text xml:space="preserve" font-family="Helvetica-Light,Helvetica" font-size="22.1" fill="#FEFFFF" transform="matrix(1.00, 0.00, -0.00, -1.00, 146.7, 287.3)">e</text><text xml:space="preserve" font-family="Helvetica-Light,Helvetica" font-size="22.1" fill="#FEFFFF" transform="matrix(1.00, 0.00, -0.00, -1.00, 159.0, 287.3)">:</text><text xml:space="preserve" font-family="Helvetica-Light,Helvetica" font-size="22.1" fill="#FEFFFF" transform="matrix(1.00, 0.00, -0.00, -1.00, 165.1, 287.3)"> </text><text xml:space="preserve" font-family="Helvetica-Light,Helvetica" font-size="22.1" fill="#FEFFFF" transform="matrix(1.00, 0.00, -0.00, -1.00, 171.3, 287.3)">4</text><text xml:space="preserve" font-family="Helvetica-Light,Helvetica" font-size="22.1" fill="#FEFFFF" transform="matrix(1.00, 0.00, -0.00, -1.00, 183.6, 287.3)">5</text><text xml:space="preserve" font-family="Helvetica-Light,Helvetica" font-size="22.1" fill="#FEFFFF" transform="matrix(1.00, 0.00, -0.00, -1.00, 195.9, 287.3)"> </text><text xml:space="preserve" font-family="Helvetica-Light,Helvetica" font-size="22.1" fill="#FEFFFF" transform="matrix(1.00, 0.00, -0.00, -1.00, 79.0, 252.1)">c</text><text xml:space="preserve" font-family="Helvetica-Light,Helvetica" font-size="22.1" fill="#FEFFFF" transform="matrix(1.00, 0.00, -0.00, -1.00, 91.3, 252.1)">a</text><text xml:space="preserve" font-family="Helvetica-Light,Helvetica" font-size="22.1" fill="#FEFFFF" transform="matrix(1.00, 0.00, -0.00, -1.00, 103.6, 252.1)">r</text><text xml:space="preserve" font-family="Helvetica-Light,Helvetica" font-size="22.1" fill="#FEFFFF" transform="matrix(1.00, 0.00, -0.00, -1.00, 111.0, 252.1)">l</text><text xml:space="preserve" font-family="Helvetica-Light,Helvetica" font-size="22.1" fill="#FEFFFF" transform="matrix(1.00, 0.00, -0.00, -1.00, 115.9, 252.1)">:</text><text xml:space="preserve" font-family="Helvetica-Light,Helvetica" font-size="22.1" fill="#FEFFFF" transform="matrix(1.00, 0.00, -0.00, -1.00, 122.1, 252.1)"> </text><text xml:space="preserve" font-family="Helvetica-Light,Helvetica" font-size="22.1" fill="#FEFFFF" transform="matrix(1.00, 0.00, -0.00, -1.00, 128.2, 252.1)">3</text><text xml:space="preserve" font-family="Helvetica-Light,Helvetica" font-size="22.1" fill="#FEFFFF" transform="matrix(1.00, 0.00, -0.00, -1.00, 140.5, 252.1)">0</text><text xml:space="preserve" font-family="Helvetica-Light,Helvetica" font-size="22.1" fill="#FEFFFF" transform="matrix(1.00, 0.00, -0.00, -1.00, 152.8, 252.1)"> </text><text xml:space="preserve" font-family="Helvetica-Light,Helvetica" font-size="22.1" fill="#FEFFFF" transform="matrix(1.00, 0.00, -0.00, -1.00, 79.0, 216.8)">l</text><text xml:space="preserve" font-family="Helvetica-Light,Helvetica" font-size="22.1" fill="#FEFFFF" transform="matrix(1.00, 0.00, -0.00, -1.00, 83.9, 216.8)">u</text><text xml:space="preserve" font-family="Helvetica-Light,Helvetica" font-size="22.1" fill="#FEFFFF" transform="matrix(1.00, 0.00, -0.00, -1.00, 96.2, 216.8)">d</text><text xml:space="preserve" font-family="Helvetica-Light,Helvetica" font-size="22.1" fill="#FEFFFF" transform="matrix(1.00, 0.00, -0.00, -1.00, 109.8, 216.8)">w</text><text xml:space="preserve" font-family="Helvetica-Light,Helvetica" font-size="22.1" fill="#FEFFFF" transform="matrix(1.00, 0.00, -0.00, -1.00, 125.7, 216.8)">i</text><text xml:space="preserve" font-family="Helvetica-Light,Helvetica" font-size="22.1" fill="#FEFFFF" transform="matrix(1.00, 0.00, -0.00, -1.00, 130.7, 216.8)">g</text><text xml:space="preserve" font-family="Helvetica-Light,Helvetica" font-size="22.1" fill="#FEFFFF" transform="matrix(1.00, 0.00, -0.00, -1.00, 144.2, 216.8)">:</text><text xml:space="preserve" font-family="Helvetica-Light,Helvetica" font-size="22.1" fill="#FEFFFF" transform="matrix(1.00, 0.00, -0.00, -1.00, 150.3, 216.8)"> </text><text xml:space="preserve" font-family="Helvetica-Light,Helvetica" font-size="22.1" fill="#FEFFFF" transform="matrix(1.00, 0.00, -0.00, -1.00, 156.5, 216.8)">2</text><text xml:space="preserve" font-family="Helvetica-Light,Helvetica" font-size="22.1" fill="#FEFFFF" transform="matrix(1.00, 0.00, -0.00, -1.00, 168.8, 216.8)">0</text><text xml:space="preserve" font-family="Helvetica-Light,Helvetica" font-size="22.1" fill="#FEFFFF" transform="matrix(1.00, 0.00, -0.00, -1.00, 181.1, 216.8)"> </text><text xml:space="preserve" font-family="Helvetica-Light,Helvetica" font-size="22.1" fill="#FEFFFF" transform="matrix(1.00, 0.00, -0.00, -1.00, 79.0, 181.6)">p</text><text xml:space="preserve" font-family="Helvetica-Light,Helvetica" font-size="22.1" fill="#FEFFFF" transform="matrix(1.00, 0.00, -0.00, -1.00, 92.5, 181.6)">a</text><text xml:space="preserve" font-family="Helvetica-Light,Helvetica" font-size="22.1" fill="#FEFFFF" transform="matrix(1.00, 0.00, -0.00, -1.00, 104.8, 181.6)">:</text><text xml:space="preserve" font-family="Helvetica-Light,Helvetica" font-size="22.1" fill="#FEFFFF" transform="matrix(1.00, 0.00, -0.00, -1.00, 111.0, 181.6)"> </text><text xml:space="preserve" font-family="Helvetica-Light,Helvetica" font-size="22.1" fill="#FEFFFF" transform="matrix(1.00, 0.00, -0.00, -1.00, 117.1, 181.6)">3</text><text xml:space="preserve" font-family="Helvetica-Light,Helvetica" font-size="22.1" fill="#FEFFFF" transform="matrix(1.00, 0.00, -0.00, -1.00, 129.5, 181.6)">0</text><text xml:space="preserve" font-family="Helvetica-Light,Helvetica" font-size="22.1" fill="#FEFFFF" transform="matrix(1.00, 0.00, -0.00, -1.00, 141.8, 181.6)"> </text><text xml:space="preserve" font-family="Helvetica-Light,Helvetica" font-size="22.1" fill="#FEFFFF" transform="matrix(1.00, 0.00, -0.00, -1.00, 79.0, 146.3)">j</text><text xml:space="preserve" font-family="Helvetica-Light,Helvetica" font-size="22.1" fill="#FEFFFF" transform="matrix(1.00, 0.00, -0.00, -1.00, 83.9, 146.3)">i</text><text xml:space="preserve" font-family="Helvetica-Light,Helvetica" font-size="22.1" fill="#FEFFFF" transform="matrix(1.00, 0.00, -0.00, -1.00, 88.8, 146.3)">m</text><text xml:space="preserve" font-family="Helvetica-Light,Helvetica" font-size="22.1" fill="#FEFFFF" transform="matrix(1.00, 0.00, -0.00, -1.00, 107.3, 146.3)">:</text><text xml:space="preserve" font-family="Helvetica-Light,Helvetica" font-size="22.1" fill="#FEFFFF" transform="matrix(1.00, 0.00, -0.00, -1.00, 113.4, 146.3)"> </text><text xml:space="preserve" font-family="Helvetica-Light,Helvetica" font-size="22.1" fill="#FEFFFF" transform="matrix(1.00, 0.00, -0.00, -1.00, 119.6, 146.3)">1</text><text xml:space="preserve" font-family="Helvetica-Light,Helvetica" font-size="22.1" fill="#FEFFFF" transform="matrix(1.00, 0.00, -0.00, -1.00, 131.9, 146.3)"> </text><text xml:space="preserve" font-family="Helvetica-Light,Helvetica" font-size="22.1" fill="#FEFFFF" transform="matrix(1.00, 0.00, -0.00, -1.00, 79.0, 111.0)">e</text><text xml:space="preserve" font-family="Helvetica-Light,Helvetica" font-size="22.1" fill="#FEFFFF" transform="matrix(1.00, 0.00, -0.00, -1.00, 91.3, 111.0)">v</text><text xml:space="preserve" font-family="Helvetica-Light,Helvetica" font-size="22.1" fill="#FEFFFF" transform="matrix(1.00, 0.00, -0.00, -1.00, 102.4, 111.0)">a</text><text xml:space="preserve" font-family="Helvetica-Light,Helvetica" font-size="22.1" fill="#FEFFFF" transform="matrix(1.00, 0.00, -0.00, -1.00, 114.7, 111.0)">n</text><text xml:space="preserve" font-family="Helvetica-Light,Helvetica" font-size="22.1" fill="#FEFFFF" transform="matrix(1.00, 0.00, -0.00, -1.00, 127.0, 111.0)">:</text><text xml:space="preserve" font-family="Helvetica-Light,Helvetica" font-size="22.1" fill="#FEFFFF" transform="matrix(1.00, 0.00, -0.00, -1.00, 133.2, 111.0)"> </text><text xml:space="preserve" font-family="Helvetica-Light,Helvetica" font-size="22.1" fill="#FEFFFF" transform="matrix(1.00, 0.00, -0.00, -1.00, 139.3, 111.0)">1</text><text xml:space="preserve" font-family="Helvetica-Light,Helvetica" font-size="22.1" fill="#FEFFFF" transform="matrix(1.00, 0.00, -0.00, -1.00, 151.6, 111.0)"> </text><g><clipPath id="clip0x600000eb0a40"><path d="M 73.5 73.0 L 950.5 73.0 L 950.5 560.0 L 73.5 560.0 Z M 73.5 73.0 "></path></clipPath><g clip-path="url(#clip0x600000eb0a40)"><text xml:space="preserve" font-family="Helvetica-Light,Helvetica" font-size="22.1" fill="#FEFFFF" transform="matrix(1.00, 0.00, -0.00, -1.00, 79.0, 75.8)">u</text><text xml:space="preserve" font-family="Helvetica-Light,Helvetica" font-size="22.1" fill="#FEFFFF" transform="matrix(1.00, 0.00, -0.00, -1.00, 91.3, 75.8)">s</text><text xml:space="preserve" font-family="Helvetica-Light,Helvetica" font-size="22.1" fill="#FEFFFF" transform="matrix(1.00, 0.00, -0.00, -1.00, 102.4, 75.8)">e</text><text xml:space="preserve" font-family="Helvetica-Light,Helvetica" font-size="22.1" fill="#FEFFFF" transform="matrix(1.00, 0.00, -0.00, -1.00, 114.7, 75.8)">r</text><text xml:space="preserve" font-family="Helvetica-Light,Helvetica" font-size="22.1" fill="#FEFFFF" transform="matrix(1.00, 0.00, -0.00, -1.00, 120.8, 75.8)">-</text><text xml:space="preserve" font-family="Helvetica-Light,Helvetica" font-size="22.1" fill="#FEFFFF" transform="matrix(1.00, 0.00, -0.00, -1.00, 128.2, 75.8)">9</text><text xml:space="preserve" font-family="Helvetica-Light,Helvetica" font-size="22.1" fill="#FEFFFF" transform="matrix(1.00, 0.00, -0.00, -1.00, 140.5, 75.8)">v</text><text xml:space="preserve" font-family="Helvetica-Light,Helvetica" font-size="22.1" fill="#FEFFFF" transform="matrix(1.00, 0.00, -0.00, -1.00, 151.6, 75.8)">c</text><text xml:space="preserve" font-family="Helvetica-Light,Helvetica" font-size="22.1" fill="#FEFFFF" transform="matrix(1.00, 0.00, -0.00, -1.00, 163.9, 75.8)">s</text><text xml:space="preserve" font-family="Helvetica-Light,Helvetica" font-size="22.1" fill="#FEFFFF" transform="matrix(1.00, 0.00, -0.00, -1.00, 175.0, 75.8)">t</text><text xml:space="preserve" font-family="Helvetica-Light,Helvetica" font-size="22.1" fill="#FEFFFF" transform="matrix(1.00, 0.00, -0.00, -1.00, 181.1, 75.8)">f</text><text xml:space="preserve" font-family="Helvetica-Light,Helvetica" font-size="22.1" fill="#FEFFFF" transform="matrix(1.00, 0.00, -0.00, -1.00, 187.3, 75.8)">v</text><text xml:space="preserve" font-family="Helvetica-Light,Helvetica" font-size="22.1" fill="#FEFFFF" transform="matrix(1.00, 0.00, -0.00, -1.00, 198.4, 75.8)">i</text><text xml:space="preserve" font-family="Helvetica-Light,Helvetica" font-size="22.1" fill="#FEFFFF" transform="matrix(1.00, 0.00, -0.00, -1.00, 203.3, 75.8)">:</text><text xml:space="preserve" font-family="Helvetica-Light,Helvetica" font-size="22.1" fill="#FEFFFF" transform="matrix(1.00, 0.00, -0.00, -1.00, 209.4, 75.8)"> </text><text xml:space="preserve" font-family="Helvetica-Light,Helvetica" font-size="22.1" fill="#FEFFFF" transform="matrix(1.00, 0.00, -0.00, -1.00, 215.6, 75.8)">1</text></g></g></g></svg>