<?xml version="1.0" encoding="UTF-8" standalone="no"?><svg xmlns="http://www.w3.org/2000/svg" xmlns:xlink="http://www.w3.org/1999/xlink" clip-rule="evenodd" stroke-miterlimit="10" viewBox="0 0 1024 768"><desc>SVG generated by Keynote</desc><defs></defs><g transform="matrix(1.00, 0.00, -0.00, -1.00, 0.0, 768.0)"><path d="M 0.0 768.0 L 1024.0 768.0 L 1024.0 0.0 L 0.0 0.0 Z M 0.0 768.0 " fill="#000000"></path><g><clipPath id="clip0x608000caf4e0"><path d="M 180.2 698.0 C 191.8 686.5 191.8 667.7 180.2 656.1 C 168.6 644.5 149.8 644.5 138.2 656.1 C 126.6 667.7 126.6 686.5 138.2 698.0 C 149.8 709.6 168.6 709.6 180.2 698.0 Z M 180.2 698.0 "></path></clipPath><g clip-path="url(#clip0x608000caf4e0)"><image xlink:href="8E13FF0D2A86B705C84DE77C8D855D85.png" width="256.00" height="256.00" transform="matrix(0.50, 0.00, -0.00, -0.50, 129.5, 706.7)"></image></g></g><g><clipPath id="clip0x608000caf5a0"><path d="M 129.5 647.4 L 188.9 647.4 L 188.9 706.7 L 129.5 706.7 Z M 129.5 647.4 "></path></clipPath><g clip-path="url(#clip0x608000caf5a0)"><text xml:space="preserve" font-family="Helvetica-Light,Helvetica" font-size="26.0" fill="#FEFFFF" transform="matrix(1.00, 0.00, -0.00, -1.00, 144.7, 667.5)">c</text><text xml:space="preserve" font-family="Helvetica-Light,Helvetica" font-size="26.0" fill="#FEFFFF" transform="matrix(1.00, 0.00, -0.00, -1.00, 159.2, 667.5)">1</text></g></g></g></svg>