<?xml version="1.0" encoding="UTF-8" standalone="no"?><svg xmlns="http://www.w3.org/2000/svg" xmlns:xlink="http://www.w3.org/1999/xlink" clip-rule="evenodd" stroke-miterlimit="10" viewBox="0 0 482 21"><desc>SVG generated by Keynote</desc><defs></defs><g transform="matrix(1.00, 0.00, -0.00, -1.00, 0.0, 21.0)"><text xml:space="preserve" font-family="Helvetica-Light,Helvetica" font-size="22.0" fill="#FEFFFF" transform="matrix(1.00, 0.00, -0.00, -1.00, 1.0, 2.6)">0</text><text xml:space="preserve" font-family="Helvetica-Light,Helvetica" font-size="22.0" fill="#FEFFFF" transform="matrix(1.00, 0.00, -0.00, -1.00, 13.3, 2.6)">0</text><text xml:space="preserve" font-family="Helvetica-Light,Helvetica" font-size="22.0" fill="#FEFFFF" transform="matrix(1.00, 0.00, -0.00, -1.00, 25.5, 2.6)">0</text><text xml:space="preserve" font-family="Helvetica-Light,Helvetica" font-size="22.0" fill="#FEFFFF" transform="matrix(1.00, 0.00, -0.00, -1.00, 37.7, 2.6)">0</text><text xml:space="preserve" font-family="Helvetica-Light,Helvetica" font-size="22.0" fill="#FEFFFF" transform="matrix(1.00, 0.00, -0.00, -1.00, 50.0, 2.6)">0</text><text xml:space="preserve" font-family="Helvetica-Light,Helvetica" font-size="22.0" fill="#FEFFFF" transform="matrix(1.00, 0.00, -0.00, -1.00, 62.2, 2.6)">0</text><text xml:space="preserve" font-family="Helvetica-Light,Helvetica" font-size="22.0" fill="#FEFFFF" transform="matrix(1.00, 0.00, -0.00, -1.00, 74.4, 2.6)">2</text><text xml:space="preserve" font-family="Helvetica-Light,Helvetica" font-size="22.0" fill="#FEFFFF" transform="matrix(1.00, 0.00, -0.00, -1.00, 86.7, 2.6)">c</text><text xml:space="preserve" font-family="Helvetica-Light,Helvetica" font-size="22.0" fill="#FEFFFF" transform="matrix(1.00, 0.00, -0.00, -1.00, 98.9, 2.6)">c</text><text xml:space="preserve" font-family="Helvetica-Light,Helvetica" font-size="22.0" fill="#FEFFFF" transform="matrix(1.00, 0.00, -0.00, -1.00, 111.1, 2.6)">9</text><text xml:space="preserve" font-family="Helvetica-Light,Helvetica" font-size="22.0" fill="#FEFFFF" transform="matrix(1.00, 0.00, -0.00, -1.00, 123.4, 2.6)">5</text><text xml:space="preserve" font-family="Helvetica-Light,Helvetica" font-size="22.0" fill="#FEFFFF" transform="matrix(1.00, 0.00, -0.00, -1.00, 135.6, 2.6)">3</text><text xml:space="preserve" font-family="Helvetica-Light,Helvetica" font-size="22.0" fill="#FEFFFF" transform="matrix(1.00, 0.00, -0.00, -1.00, 147.8, 2.6)">1</text><text xml:space="preserve" font-family="Helvetica-Light,Helvetica" font-size="22.0" fill="#FEFFFF" transform="matrix(1.00, 0.00, -0.00, -1.00, 160.1, 2.6)">c</text><text xml:space="preserve" font-family="Helvetica-Light,Helvetica" font-size="22.0" fill="#FEFFFF" transform="matrix(1.00, 0.00, -0.00, -1.00, 172.3, 2.6)">2</text><text xml:space="preserve" font-family="Helvetica-Light,Helvetica" font-size="22.0" fill="#FEFFFF" transform="matrix(1.00, 0.00, -0.00, -1.00, 184.5, 2.6)">2</text><text xml:space="preserve" font-family="Helvetica-Light,Helvetica" font-size="22.0" fill="#FEFFFF" transform="matrix(1.00, 0.00, -0.00, -1.00, 196.8, 2.6)">0</text><text xml:space="preserve" font-family="Helvetica-Light,Helvetica" font-size="22.0" fill="#FEFFFF" transform="matrix(1.00, 0.00, -0.00, -1.00, 209.0, 2.6)">3</text><text xml:space="preserve" font-family="Helvetica-Light,Helvetica" font-size="22.0" fill="#FEFFFF" transform="matrix(1.00, 0.00, -0.00, -1.00, 221.2, 2.6)">5</text><text xml:space="preserve" font-family="Helvetica-Light,Helvetica" font-size="22.0" fill="#FEFFFF" transform="matrix(1.00, 0.00, -0.00, -1.00, 233.4, 2.6)">f</text><text xml:space="preserve" font-family="Helvetica-Light,Helvetica" font-size="22.0" fill="#FEFFFF" transform="matrix(1.00, 0.00, -0.00, -1.00, 239.6, 2.6)">3</text><text xml:space="preserve" font-family="Helvetica-Light,Helvetica" font-size="22.0" fill="#FEFFFF" transform="matrix(1.00, 0.00, -0.00, -1.00, 251.8, 2.6)">6</text><text xml:space="preserve" font-family="Helvetica-Light,Helvetica" font-size="22.0" fill="#FEFFFF" transform="matrix(1.00, 0.00, -0.00, -1.00, 264.0, 2.6)">a</text><text xml:space="preserve" font-family="Helvetica-Light,Helvetica" font-size="22.0" fill="#FEFFFF" transform="matrix(1.00, 0.00, -0.00, -1.00, 276.3, 2.6)">f</text><text xml:space="preserve" font-family="Helvetica-Light,Helvetica" font-size="22.0" fill="#FEFFFF" transform="matrix(1.00, 0.00, -0.00, -1.00, 282.4, 2.6)">8</text><text xml:space="preserve" font-family="Helvetica-Light,Helvetica" font-size="22.0" fill="#FEFFFF" transform="matrix(1.00, 0.00, -0.00, -1.00, 294.6, 2.6)">5</text><text xml:space="preserve" font-family="Helvetica-Light,Helvetica" font-size="22.0" fill="#FEFFFF" transform="matrix(1.00, 0.00, -0.00, -1.00, 306.8, 2.6)">1</text><text xml:space="preserve" font-family="Helvetica-Light,Helvetica" font-size="22.0" fill="#FEFFFF" transform="matrix(1.00, 0.00, -0.00, -1.00, 319.1, 2.6)">7</text><text xml:space="preserve" font-family="Helvetica-Light,Helvetica" font-size="22.0" fill="#FEFFFF" transform="matrix(1.00, 0.00, -0.00, -1.00, 331.3, 2.6)">6</text><text xml:space="preserve" font-family="Helvetica-Light,Helvetica" font-size="22.0" fill="#FEFFFF" transform="matrix(1.00, 0.00, -0.00, -1.00, 343.5, 2.6)">c</text><text xml:space="preserve" font-family="Helvetica-Light,Helvetica" font-size="22.0" fill="#FEFFFF" transform="matrix(1.00, 0.00, -0.00, -1.00, 355.8, 2.6)">6</text><text xml:space="preserve" font-family="Helvetica-Light,Helvetica" font-size="22.0" fill="#FEFFFF" transform="matrix(1.00, 0.00, -0.00, -1.00, 368.0, 2.6)">8</text><text xml:space="preserve" font-family="Helvetica-Light,Helvetica" font-size="22.0" fill="#FEFFFF" transform="matrix(1.00, 0.00, -0.00, -1.00, 380.2, 2.6)">6</text><text xml:space="preserve" font-family="Helvetica-Light,Helvetica" font-size="22.0" fill="#FEFFFF" transform="matrix(1.00, 0.00, -0.00, -1.00, 392.5, 2.6)">a</text><text xml:space="preserve" font-family="Helvetica-Light,Helvetica" font-size="22.0" fill="#FEFFFF" transform="matrix(1.00, 0.00, -0.00, -1.00, 404.7, 2.6)">b</text><text xml:space="preserve" font-family="Helvetica-Light,Helvetica" font-size="22.0" fill="#FEFFFF" transform="matrix(1.00, 0.00, -0.00, -1.00, 418.1, 2.6)">a</text><text xml:space="preserve" font-family="Helvetica-Light,Helvetica" font-size="22.0" fill="#FEFFFF" transform="matrix(1.00, 0.00, -0.00, -1.00, 430.4, 2.6)">e</text><text xml:space="preserve" font-family="Helvetica-Light,Helvetica" font-size="22.0" fill="#FEFFFF" transform="matrix(1.00, 0.00, -0.00, -1.00, 442.6, 2.6)">2</text><text xml:space="preserve" font-family="Helvetica-Light,Helvetica" font-size="22.0" fill="#FEFFFF" transform="matrix(1.00, 0.00, -0.00, -1.00, 454.8, 2.6)">d</text><text xml:space="preserve" font-family="Helvetica-Light,Helvetica" font-size="22.0" fill="#FEFFFF" transform="matrix(1.00, 0.00, -0.00, -1.00, 468.3, 2.6)">8</text></g></svg>