<?xml version="1.0" encoding="UTF-8" standalone="no"?><svg xmlns="http://www.w3.org/2000/svg" xmlns:xlink="http://www.w3.org/1999/xlink" clip-rule="evenodd" stroke-miterlimit="10" viewBox="0 0 1024 768"><desc>SVG generated by Keynote</desc><defs></defs><g transform="matrix(1.00, 0.00, -0.00, -1.00, 0.0, 768.0)"><path d="M 0.0 768.0 L 1024.0 768.0 L 1024.0 0.0 L 0.0 0.0 Z M 0.0 768.0 " fill="#000000"></path><text xml:space="preserve" font-family="Helvetica-Light,Helvetica" font-size="80.0" fill="#FEFFFF" transform="matrix(1.00, 0.00, -0.00, -1.00, 223.7, 651.4)">m</text><text xml:space="preserve" font-family="Helvetica-Light,Helvetica" font-size="80.0" fill="#FEFFFF" transform="matrix(1.00, 0.00, -0.00, -1.00, 290.4, 651.4)">o</text><text xml:space="preserve" font-family="Helvetica-Light,Helvetica" font-size="80.0" fill="#FEFFFF" transform="matrix(1.00, 0.00, -0.00, -1.00, 334.8, 651.4)">r</text><text xml:space="preserve" font-family="Helvetica-Light,Helvetica" font-size="80.0" fill="#FEFFFF" transform="matrix(1.00, 0.00, -0.00, -1.00, 360.0, 651.4)">e</text><text xml:space="preserve" font-family="Helvetica-Light,Helvetica" font-size="80.0" fill="#FEFFFF" transform="matrix(1.00, 0.00, -0.00, -1.00, 404.5, 651.4)"> </text><text xml:space="preserve" font-family="Helvetica-Light,Helvetica" font-size="80.0" fill="#FEFFFF" transform="matrix(1.00, 0.00, -0.00, -1.00, 426.8, 651.4)">o</text><text xml:space="preserve" font-family="Helvetica-Light,Helvetica" font-size="80.0" fill="#FEFFFF" transform="matrix(1.00, 0.00, -0.00, -1.00, 471.2, 651.4)">n</text><text xml:space="preserve" font-family="Helvetica-Light,Helvetica" font-size="80.0" fill="#FEFFFF" transform="matrix(1.00, 0.00, -0.00, -1.00, 515.7, 651.4)"> </text><text xml:space="preserve" font-family="Helvetica-Light,Helvetica" font-size="80.0" fill="#FEFFFF" transform="matrix(1.00, 0.00, -0.00, -1.00, 538.0, 651.4)">o</text><text xml:space="preserve" font-family="Helvetica-Light,Helvetica" font-size="80.0" fill="#FEFFFF" transform="matrix(1.00, 0.00, -0.00, -1.00, 582.4, 651.4)">b</text><text xml:space="preserve" font-family="Helvetica-Light,Helvetica" font-size="80.0" fill="#FEFFFF" transform="matrix(1.00, 0.00, -0.00, -1.00, 631.3, 651.4)">j</text><text xml:space="preserve" font-family="Helvetica-Light,Helvetica" font-size="80.0" fill="#FEFFFF" transform="matrix(1.00, 0.00, -0.00, -1.00, 649.1, 651.4)">e</text><text xml:space="preserve" font-family="Helvetica-Light,Helvetica" font-size="80.0" fill="#FEFFFF" transform="matrix(1.00, 0.00, -0.00, -1.00, 693.6, 651.4)">c</text><text xml:space="preserve" font-family="Helvetica-Light,Helvetica" font-size="80.0" fill="#FEFFFF" transform="matrix(1.00, 0.00, -0.00, -1.00, 738.0, 651.4)">t</text><text xml:space="preserve" font-family="Helvetica-Light,Helvetica" font-size="80.0" fill="#FEFFFF" transform="matrix(1.00, 0.00, -0.00, -1.00, 760.3, 651.4)">s</text><text xml:space="preserve" font-family="Helvetica-Light,Helvetica" font-size="80.0" fill="#FEFFFF" transform="matrix(1.00, 0.00, -0.00, -1.00, 800.3, 651.4)"> </text><text xml:space="preserve" font-family="Helvetica-Light,Helvetica" font-size="30.0" fill="#FEFFFF" transform="matrix(1.00, 0.00, -0.00, -1.00, 416.1, 603.9)">f</text><text xml:space="preserve" font-family="Helvetica-Light,Helvetica" font-size="30.0" fill="#FEFFFF" transform="matrix(1.00, 0.00, -0.00, -1.00, 424.5, 603.9)">o</text><text xml:space="preserve" font-family="Helvetica-Light,Helvetica" font-size="30.0" fill="#FEFFFF" transform="matrix(1.00, 0.00, -0.00, -1.00, 441.1, 603.9)">r</text><text xml:space="preserve" font-family="Helvetica-Light,Helvetica" font-size="30.0" fill="#FEFFFF" transform="matrix(1.00, 0.00, -0.00, -1.00, 451.1, 603.9)"> </text><text xml:space="preserve" font-family="Helvetica-Light,Helvetica" font-size="30.0" fill="#FEFFFF" transform="matrix(1.00, 0.00, -0.00, -1.00, 459.5, 603.9)">t</text><text xml:space="preserve" font-family="Helvetica-Light,Helvetica" font-size="30.0" fill="#FEFFFF" transform="matrix(1.00, 0.00, -0.00, -1.00, 467.8, 603.9)">h</text><text xml:space="preserve" font-family="Helvetica-Light,Helvetica" font-size="30.0" fill="#FEFFFF" transform="matrix(1.00, 0.00, -0.00, -1.00, 484.5, 603.9)">e</text><text xml:space="preserve" font-family="Helvetica-Light,Helvetica" font-size="30.0" fill="#FEFFFF" transform="matrix(1.00, 0.00, -0.00, -1.00, 501.2, 603.9)"> </text><text xml:space="preserve" font-family="Helvetica-Light,Helvetica" font-size="30.0" fill="#FEFFFF" transform="matrix(1.00, 0.00, -0.00, -1.00, 509.5, 603.9)">c</text><text xml:space="preserve" font-family="Helvetica-Light,Helvetica" font-size="30.0" fill="#FEFFFF" transform="matrix(1.00, 0.00, -0.00, -1.00, 526.2, 603.9)">u</text><text xml:space="preserve" font-family="Helvetica-Light,Helvetica" font-size="30.0" fill="#FEFFFF" transform="matrix(1.00, 0.00, -0.00, -1.00, 542.9, 603.9)">r</text><text xml:space="preserve" font-family="Helvetica-Light,Helvetica" font-size="30.0" fill="#FEFFFF" transform="matrix(1.00, 0.00, -0.00, -1.00, 552.9, 603.9)">i</text><text xml:space="preserve" font-family="Helvetica-Light,Helvetica" font-size="30.0" fill="#FEFFFF" transform="matrix(1.00, 0.00, -0.00, -1.00, 559.5, 603.9)">o</text><text xml:space="preserve" font-family="Helvetica-Light,Helvetica" font-size="30.0" fill="#FEFFFF" transform="matrix(1.00, 0.00, -0.00, -1.00, 576.2, 603.9)">u</text><text xml:space="preserve" font-family="Helvetica-Light,Helvetica" font-size="30.0" fill="#FEFFFF" transform="matrix(1.00, 0.00, -0.00, -1.00, 592.9, 603.9)">s</text><text xml:space="preserve" font-family="Helvetica-Light,Helvetica" font-size="28.5" fill="#FEFFFF" transform="matrix(1.00, 0.00, -0.00, -1.00, 79.0, 393.1)">•</text><text xml:space="preserve" font-family="Helvetica-Light,Helvetica" font-size="38.0" fill="#FEFFFF" transform="matrix(1.00, 0.00, -0.00, -1.00, 114.0, 389.7)">g</text><text xml:space="preserve" font-family="Helvetica-Light,Helvetica" font-size="38.0" fill="#FEFFFF" transform="matrix(1.00, 0.00, -0.00, -1.00, 137.2, 389.7)">i</text><text xml:space="preserve" font-family="Helvetica-Light,Helvetica" font-size="38.0" fill="#FEFFFF" transform="matrix(1.00, 0.00, -0.00, -1.00, 145.7, 389.7)">t</text><text xml:space="preserve" font-family="Helvetica-Light,Helvetica" font-size="38.0" fill="#FEFFFF" transform="matrix(1.00, 0.00, -0.00, -1.00, 156.2, 389.7)"> </text><text xml:space="preserve" font-family="Helvetica-Light,Helvetica" font-size="38.0" fill="#FEFFFF" transform="matrix(1.00, 0.00, -0.00, -1.00, 166.8, 389.7)">l</text><text xml:space="preserve" font-family="Helvetica-Light,Helvetica" font-size="38.0" fill="#FEFFFF" transform="matrix(1.00, 0.00, -0.00, -1.00, 175.2, 389.7)">s</text><text xml:space="preserve" font-family="Helvetica-Light,Helvetica" font-size="38.0" fill="#FEFFFF" transform="matrix(1.00, 0.00, -0.00, -1.00, 194.2, 389.7)">-</text><text xml:space="preserve" font-family="Helvetica-Light,Helvetica" font-size="38.0" fill="#FEFFFF" transform="matrix(1.00, 0.00, -0.00, -1.00, 206.9, 389.7)">t</text><text xml:space="preserve" font-family="Helvetica-Light,Helvetica" font-size="38.0" fill="#FEFFFF" transform="matrix(1.00, 0.00, -0.00, -1.00, 217.4, 389.7)">r</text><text xml:space="preserve" font-family="Helvetica-Light,Helvetica" font-size="38.0" fill="#FEFFFF" transform="matrix(1.00, 0.00, -0.00, -1.00, 229.4, 389.7)">e</text><text xml:space="preserve" font-family="Helvetica-Light,Helvetica" font-size="38.0" fill="#FEFFFF" transform="matrix(1.00, 0.00, -0.00, -1.00, 250.5, 389.7)">e</text><text xml:space="preserve" font-family="Helvetica-Light,Helvetica" font-size="38.0" fill="#FEFFFF" transform="matrix(1.00, 0.00, -0.00, -1.00, 271.7, 389.7)"> </text><text xml:space="preserve" font-family="Helvetica-Light,Helvetica" font-size="28.5" fill="#FEFFFF" transform="matrix(1.00, 0.00, -0.00, -1.00, 79.0, 305.1)">•</text><text xml:space="preserve" font-family="Helvetica-Light,Helvetica" font-size="38.0" fill="#FEFFFF" transform="matrix(1.00, 0.00, -0.00, -1.00, 114.0, 301.7)">g</text><text xml:space="preserve" font-family="Helvetica-Light,Helvetica" font-size="38.0" fill="#FEFFFF" transform="matrix(1.00, 0.00, -0.00, -1.00, 137.2, 301.7)">i</text><text xml:space="preserve" font-family="Helvetica-Light,Helvetica" font-size="38.0" fill="#FEFFFF" transform="matrix(1.00, 0.00, -0.00, -1.00, 145.7, 301.7)">t</text><text xml:space="preserve" font-family="Helvetica-Light,Helvetica" font-size="38.0" fill="#FEFFFF" transform="matrix(1.00, 0.00, -0.00, -1.00, 156.2, 301.7)"> </text><text xml:space="preserve" font-family="Helvetica-Light,Helvetica" font-size="38.0" fill="#FEFFFF" transform="matrix(1.00, 0.00, -0.00, -1.00, 166.8, 301.7)">c</text><text xml:space="preserve" font-family="Helvetica-Light,Helvetica" font-size="38.0" fill="#FEFFFF" transform="matrix(1.00, 0.00, -0.00, -1.00, 187.9, 301.7)">a</text><text xml:space="preserve" font-family="Helvetica-Light,Helvetica" font-size="38.0" fill="#FEFFFF" transform="matrix(1.00, 0.00, -0.00, -1.00, 209.0, 301.7)">t</text><text xml:space="preserve" font-family="Helvetica-Light,Helvetica" font-size="38.0" fill="#FEFFFF" transform="matrix(1.00, 0.00, -0.00, -1.00, 219.6, 301.7)">-</text><text xml:space="preserve" font-family="Helvetica-Light,Helvetica" font-size="38.0" fill="#FEFFFF" transform="matrix(1.00, 0.00, -0.00, -1.00, 232.3, 301.7)">ﬁ</text><text xml:space="preserve" font-family="Helvetica-Light,Helvetica" font-size="38.0" fill="#FEFFFF" transform="matrix(1.00, 0.00, -0.00, -1.00, 251.3, 301.7)">l</text><text xml:space="preserve" font-family="Helvetica-Light,Helvetica" font-size="38.0" fill="#FEFFFF" transform="matrix(1.00, 0.00, -0.00, -1.00, 259.7, 301.7)">e</text><text xml:space="preserve" font-family="Helvetica-Light,Helvetica" font-size="38.0" fill="#FEFFFF" transform="matrix(1.00, 0.00, -0.00, -1.00, 280.8, 301.7)"> </text><text xml:space="preserve" font-family="Helvetica-Light,Helvetica" font-size="38.0" fill="#FEFFFF" transform="matrix(1.00, 0.00, -0.00, -1.00, 291.4, 301.7)">-</text><text xml:space="preserve" font-family="Helvetica-Light,Helvetica" font-size="38.0" fill="#FEFFFF" transform="matrix(1.00, 0.00, -0.00, -1.00, 304.0, 301.7)">t</text><text xml:space="preserve" font-family="Helvetica-Light,Helvetica" font-size="38.0" fill="#FEFFFF" transform="matrix(1.00, 0.00, -0.00, -1.00, 314.6, 301.7)"> </text><text xml:space="preserve" font-family="Helvetica-Light,Helvetica" font-size="28.5" fill="#FEFFFF" transform="matrix(1.00, 0.00, -0.00, -1.00, 79.0, 217.1)">•</text><text xml:space="preserve" font-family="Helvetica-Light,Helvetica" font-size="38.0" fill="#FEFFFF" transform="matrix(1.00, 0.00, -0.00, -1.00, 114.0, 213.7)">g</text><text xml:space="preserve" font-family="Helvetica-Light,Helvetica" font-size="38.0" fill="#FEFFFF" transform="matrix(1.00, 0.00, -0.00, -1.00, 137.2, 213.7)">i</text><text xml:space="preserve" font-family="Helvetica-Light,Helvetica" font-size="38.0" fill="#FEFFFF" transform="matrix(1.00, 0.00, -0.00, -1.00, 145.7, 213.7)">t</text><text xml:space="preserve" font-family="Helvetica-Light,Helvetica" font-size="38.0" fill="#FEFFFF" transform="matrix(1.00, 0.00, -0.00, -1.00, 156.2, 213.7)"> </text><text xml:space="preserve" font-family="Helvetica-Light,Helvetica" font-size="38.0" fill="#FEFFFF" transform="matrix(1.00, 0.00, -0.00, -1.00, 166.8, 213.7)">c</text><text xml:space="preserve" font-family="Helvetica-Light,Helvetica" font-size="38.0" fill="#FEFFFF" transform="matrix(1.00, 0.00, -0.00, -1.00, 187.9, 213.7)">a</text><text xml:space="preserve" font-family="Helvetica-Light,Helvetica" font-size="38.0" fill="#FEFFFF" transform="matrix(1.00, 0.00, -0.00, -1.00, 209.0, 213.7)">t</text><text xml:space="preserve" font-family="Helvetica-Light,Helvetica" font-size="38.0" fill="#FEFFFF" transform="matrix(1.00, 0.00, -0.00, -1.00, 219.6, 213.7)">-</text><text xml:space="preserve" font-family="Helvetica-Light,Helvetica" font-size="38.0" fill="#FEFFFF" transform="matrix(1.00, 0.00, -0.00, -1.00, 232.3, 213.7)">ﬁ</text><text xml:space="preserve" font-family="Helvetica-Light,Helvetica" font-size="38.0" fill="#FEFFFF" transform="matrix(1.00, 0.00, -0.00, -1.00, 251.3, 213.7)">l</text><text xml:space="preserve" font-family="Helvetica-Light,Helvetica" font-size="38.0" fill="#FEFFFF" transform="matrix(1.00, 0.00, -0.00, -1.00, 259.7, 213.7)">e</text><text xml:space="preserve" font-family="Helvetica-Light,Helvetica" font-size="38.0" fill="#FEFFFF" transform="matrix(1.00, 0.00, -0.00, -1.00, 280.8, 213.7)"> </text><text xml:space="preserve" font-family="Helvetica-Light,Helvetica" font-size="38.0" fill="#FEFFFF" transform="matrix(1.00, 0.00, -0.00, -1.00, 291.4, 213.7)">b</text><text xml:space="preserve" font-family="Helvetica-Light,Helvetica" font-size="38.0" fill="#FEFFFF" transform="matrix(1.00, 0.00, -0.00, -1.00, 314.6, 213.7)">l</text><text xml:space="preserve" font-family="Helvetica-Light,Helvetica" font-size="38.0" fill="#FEFFFF" transform="matrix(1.00, 0.00, -0.00, -1.00, 323.0, 213.7)">o</text><text xml:space="preserve" font-family="Helvetica-Light,Helvetica" font-size="38.0" fill="#FEFFFF" transform="matrix(1.00, 0.00, -0.00, -1.00, 344.2, 213.7)">b</text><text xml:space="preserve" font-family="Helvetica-Light,Helvetica" font-size="38.0" fill="#FEFFFF" transform="matrix(1.00, 0.00, -0.00, -1.00, 367.4, 213.7)"> </text><text xml:space="preserve" font-family="Helvetica-Light,Helvetica" font-size="38.0" fill="#FEFFFF" transform="matrix(1.00, 0.00, -0.00, -1.00, 377.9, 213.7)">s</text><text xml:space="preserve" font-family="Helvetica-Light,Helvetica" font-size="38.0" fill="#FEFFFF" transform="matrix(1.00, 0.00, -0.00, -1.00, 396.9, 213.7)">h</text><text xml:space="preserve" font-family="Helvetica-Light,Helvetica" font-size="38.0" fill="#FEFFFF" transform="matrix(1.00, 0.00, -0.00, -1.00, 418.1, 213.7)">a</text><text xml:space="preserve" font-family="Helvetica-Light,Helvetica" font-size="38.0" fill="#FEFFFF" transform="matrix(1.00, 0.00, -0.00, -1.00, 439.2, 213.7)">1</text></g></svg>