<?xml version="1.0" encoding="UTF-8" standalone="no"?><svg xmlns="http://www.w3.org/2000/svg" xmlns:xlink="http://www.w3.org/1999/xlink" clip-rule="evenodd" stroke-miterlimit="10" viewBox="0 0 31 78"><desc>SVG generated by Keynote</desc><defs></defs><g transform="matrix(1.00, 0.00, -0.00, -1.00, 0.0, 78.0)"><path d="M 16.8 14.5 C 16.7 14.2 16.9 13.5 16.8 13.3 M 16.8 14.5 C 18.0 13.8 18.0 12.4 18.2 10.7 C 18.3 8.8 17.2 10.8 16.8 10.5 C 16.3 8.0 17.1 8.0 18.3 8.4 C 17.5 7.4 18.9 4.6 17.4 5.2 C 17.4 9.2 17.1 2.4 16.2 5.7 C 16.0 6.1 15.6 5.1 15.6 4.7 C 15.0 5.8 14.3 4.0 13.8 5.7 C 12.9 6.0 13.3 5.7 12.6 6.8 C 12.5 7.3 12.8 7.1 13.0 7.0 C 14.1 7.2 12.4 8.4 13.1 9.3 C 11.6 10.2 13.3 11.1 13.9 10.3 C 13.8 11.2 12.3 12.2 13.3 13.0 C 12.6 13.5 13.1 15.8 14.0 14.4 C 14.5 13.4 15.0 14.5 15.3 14.7 C 15.6 14.4 15.2 13.0 15.4 12.8 C 15.7 13.2 16.2 15.0 16.1 13.1 C 16.6 13.7 16.9 12.7 16.8 14.5 C 16.8 14.5 16.8 14.5 16.8 14.5 Z M 17.7 7.7 C 18.1 7.7 17.7 8.3 17.7 7.7 C 17.7 7.7 17.7 7.7 17.7 7.7 Z M 12.6 12.3 C 13.0 12.3 12.6 13.0 12.6 12.3 C 12.6 12.3 12.6 12.3 12.6 12.3 Z M 13.0 7.4 C 13.4 7.3 13.0 8.0 13.0 7.4 C 13.0 7.4 13.0 7.4 13.0 7.4 Z M 17.4 9.5 C 17.1 10.5 16.9 8.6 17.2 8.4 C 17.2 8.6 17.7 9.2 17.4 9.5 C 17.4 9.5 17.4 9.5 17.4 9.5 Z M 15.2 9.6 C 15.4 9.7 15.4 10.1 15.0 10.1 C 14.9 9.8 15.1 9.5 15.2 9.6 C 15.2 9.6 15.2 9.6 15.2 9.6 Z M 16.8 4.3 C 16.9 4.4 17.0 4.8 16.6 4.8 C 16.5 4.5 16.6 4.2 16.8 4.3 C 16.8 4.3 16.8 4.3 16.8 4.3 Z M 16.4 10.7 C 16.3 10.9 16.0 11.0 16.0 10.7 C 16.1 10.6 16.2 9.8 16.4 10.7 C 16.4 10.7 16.4 10.7 16.4 10.7 Z M 17.7 12.3 C 17.5 13.2 16.9 11.4 17.1 11.5 C 17.4 11.2 18.0 11.9 17.7 12.3 C 17.7 12.3 17.7 12.3 17.7 12.3 Z M 15.9 11.2 C 15.7 11.9 15.6 10.9 15.9 11.2 C 15.9 11.2 15.9 11.2 15.9 11.2 Z M 14.0 5.0 C 13.8 5.8 13.7 4.7 14.0 5.0 C 14.0 5.0 14.0 5.0 14.0 5.0 Z M 12.8 8.9 C 12.6 9.7 12.5 8.6 12.8 8.9 C 12.8 8.9 12.8 8.9 12.8 8.9 Z M 16.7 7.5 C 16.7 6.2 17.6 7.3 16.7 7.5 C 16.7 7.5 16.7 7.5 16.7 7.5 Z M 17.8 14.4 C 17.8 13.1 18.7 14.2 17.8 14.4 C 17.8 14.4 17.8 14.4 17.8 14.4 Z M 17.4 54.3 C 17.6 55.4 18.9 50.8 17.4 52.6 C 16.2 53.1 16.3 50.0 17.4 50.8 C 17.5 49.8 17.6 49.8 17.0 49.3 C 17.9 49.2 18.4 47.0 17.9 46.2 C 17.2 45.8 17.8 47.7 17.0 46.4 C 16.8 43.7 16.2 46.6 15.1 45.6 C 15.1 45.5 15.6 45.4 15.3 45.2 C 14.4 45.1 13.7 46.6 13.0 45.9 C 13.2 46.3 12.1 48.3 13.0 47.5 C 13.9 47.2 11.9 49.6 13.4 49.5 C 12.7 50.1 13.6 50.8 12.8 51.4 C 12.6 51.9 13.4 51.9 13.6 51.8 C 14.3 51.8 12.0 52.4 13.3 53.2 C 12.9 53.2 13.0 55.4 13.6 53.8 C 13.5 54.3 13.1 56.8 14.5 55.4 C 15.1 53.7 15.8 57.3 15.9 55.2 C 16.0 53.6 15.8 53.3 16.5 54.5 C 16.4 54.9 16.5 56.7 17.1 55.1 C 16.9 54.8 17.1 54.0 17.4 54.3 C 17.4 54.3 17.4 54.3 17.4 54.3 Z M 15.5 54.6 C 15.4 53.7 16.0 54.5 15.5 54.6 C 15.5 54.6 15.5 54.6 15.5 54.6 Z M 12.5 51.3 C 12.4 50.4 13.0 51.2 12.5 51.3 C 12.5 51.3 12.5 51.3 12.5 51.3 Z M 17.8 51.4 C 17.4 50.9 18.7 50.8 17.8 51.4 C 17.8 51.4 17.8 51.4 17.8 51.4 Z M 13.6 52.8 C 13.6 52.7 13.8 53.0 13.8 53.1 C 13.8 53.1 13.6 52.9 13.6 52.8 C 13.6 52.8 13.6 52.8 13.6 52.8 Z M 17.8 49.8 C 17.1 48.5 18.8 49.6 17.8 49.8 C 17.8 49.8 17.8 49.8 17.8 49.8 Z M 16.5 47.1 C 15.1 46.9 16.7 45.7 16.5 47.1 C 16.5 47.1 16.5 47.1 16.5 47.1 Z M 13.4 49.0 C 13.7 49.3 13.3 49.2 13.4 49.0 C 13.4 49.0 13.4 49.0 13.4 49.0 Z M 13.3 55.0 C 13.5 55.2 13.1 55.2 13.3 55.0 C 13.3 55.0 13.3 55.0 13.3 55.0 Z M 13.6 47.3 C 14.1 47.4 13.3 47.8 13.6 47.3 C 13.6 47.3 13.6 47.3 13.6 47.3 Z M 17.2 51.1 C 18.3 52.4 15.6 52.7 17.2 51.1 C 17.2 51.1 17.2 51.1 17.2 51.1 Z M 17.3 53.4 C 17.5 54.2 16.6 53.2 16.8 52.8 C 16.9 52.9 17.3 53.2 17.3 53.4 C 17.3 53.4 17.3 53.4 17.3 53.4 Z M 17.1 49.8 C 17.6 50.7 16.8 50.6 17.1 49.8 C 17.1 49.8 17.1 49.8 17.1 49.8 Z M 17.7 52.0 C 17.6 52.4 17.5 51.6 17.7 52.0 C 17.7 52.0 17.7 52.0 17.7 52.0 Z M 18.2 48.1 C 18.1 48.6 18.1 47.8 18.2 48.1 C 18.2 48.1 18.2 48.1 18.2 48.1 Z M 17.9 54.4 C 17.8 54.8 17.7 54.1 17.9 54.4 C 17.9 54.4 17.9 54.4 17.9 54.4 Z M 17.5 48.5 C 17.0 48.4 15.9 49.6 16.9 47.4 C 17.2 47.0 17.9 47.9 17.5 48.5 C 17.5 48.5 17.5 48.5 17.5 48.5 Z M 16.8 17.4 C 18.3 13.1 15.7 14.1 15.2 13.9 C 14.4 13.3 14.0 13.9 13.5 14.8 C 11.8 15.7 15.2 16.1 13.5 16.8 C 11.2 18.0 15.5 18.1 13.1 18.6 C 12.5 18.4 13.0 20.1 13.1 20.0 C 12.0 20.8 14.0 22.0 14.2 22.0 C 13.9 22.6 11.8 22.7 13.4 24.4 C 14.0 25.8 11.8 26.4 13.3 26.0 C 11.7 27.0 13.8 26.7 13.2 27.7 C 12.3 28.4 14.6 27.7 12.9 28.9 C 14.3 29.5 12.0 28.4 13.0 31.7 C 13.1 30.1 14.1 33.3 13.1 32.6 C 12.1 31.5 13.5 34.2 12.9 35.7 C 13.4 36.2 14.7 38.0 13.3 37.7 C 11.7 39.2 14.3 39.3 13.0 39.9 C 12.4 40.5 13.6 40.7 13.5 41.0 C 12.5 41.6 13.2 42.1 12.9 44.0 C 12.4 48.3 15.4 44.7 15.7 46.3 C 16.2 46.6 19.4 44.2 17.0 45.1 C 17.7 44.8 15.2 41.3 17.8 43.1 C 16.7 41.7 18.9 43.4 17.6 40.7 C 15.8 44.4 16.9 36.5 17.8 40.0 C 18.3 39.5 18.2 38.0 17.8 39.0 C 16.1 39.5 18.6 36.5 16.5 38.0 C 17.1 35.7 15.2 36.3 16.5 35.7 C 18.7 35.2 15.9 35.8 16.6 34.7 C 16.6 32.0 19.1 34.1 17.5 32.4 C 18.6 29.8 16.5 31.9 16.2 31.0 C 14.7 30.7 17.4 28.3 17.6 30.3 C 16.8 29.3 18.3 30.1 17.3 28.9 C 15.9 29.8 18.9 27.4 17.7 27.7 C 17.4 26.7 16.5 27.2 16.5 26.9 C 16.5 25.3 17.9 25.8 16.8 25.5 C 16.2 25.1 18.1 24.4 17.6 24.2 C 17.6 25.8 16.1 22.8 16.9 22.6 C 17.0 23.6 18.8 22.1 17.6 21.5 C 14.5 22.3 18.4 20.1 17.3 19.3 C 15.6 20.0 17.1 15.8 17.9 17.4 C 17.8 17.3 16.8 17.4 16.8 17.4 M 17.4 23.7 C 17.2 25.0 17.0 22.2 17.4 23.7 M 17.8 23.6 C 17.3 24.2 18.3 22.4 18.0 23.7 C 18.0 23.7 17.9 23.5 17.8 23.6 M 17.9 29.2 C 17.4 29.0 18.2 28.4 17.9 29.2 M 16.8 30.2 C 16.4 31.1 16.7 29.0 16.8 30.2 M 17.2 42.5 C 14.6 41.3 18.6 41.2 17.2 42.5 M 17.7 34.4 C 17.3 32.9 18.8 34.9 17.7 34.4 M 17.0 34.0 C 16.6 33.3 17.6 33.8 17.0 34.0 M 17.2 40.2 C 17.1 40.3 17.1 40.3 17.2 40.2 C 17.2 40.2 17.2 40.2 17.2 40.2 Z M 17.1 43.8 C 17.1 43.8 17.1 43.8 17.1 43.8 C 17.1 43.8 17.1 43.8 17.1 43.8 Z M 16.9 36.7 C 17.5 35.5 17.1 38.5 16.9 36.7 C 16.9 36.7 16.9 36.7 16.9 36.7 Z M 13.2 42.1 C 13.1 42.0 13.1 42.0 13.2 42.1 C 13.2 42.1 13.2 42.1 13.2 42.1 Z M 16.2 22.6 C 16.2 22.6 16.2 22.6 16.2 22.6 C 16.2 22.6 16.2 22.6 16.2 22.6 Z M 17.2 18.5 C 16.8 18.5 17.4 17.7 17.2 18.5 C 17.2 18.5 17.2 18.5 17.2 18.5 Z M 14.2 15.1 C 14.2 15.1 14.2 15.1 14.2 15.1 C 14.2 15.1 14.2 15.1 14.2 15.1 Z M 14.9 21.2 C 14.8 21.2 14.8 21.2 14.9 21.2 C 14.9 21.2 14.9 21.2 14.9 21.2 Z M 16.8 21.8 C 18.2 21.2 16.4 23.4 16.8 21.8 C 16.8 21.8 16.8 21.8 16.8 21.8 Z M 13.3 35.3 C 14.0 35.3 13.1 36.2 13.3 35.3 C 13.3 35.3 13.3 35.3 13.3 35.3 Z M 16.3 30.4 C 16.6 30.6 16.1 31.0 16.3 30.4 C 16.3 30.4 16.3 30.4 16.3 30.4 Z M 18.2 28.1 C 18.5 28.3 18.0 28.7 18.2 28.1 C 18.2 28.1 18.2 28.1 18.2 28.1 Z M 17.6 18.6 C 17.7 18.6 17.7 18.6 17.6 18.6 C 17.6 18.6 17.6 18.6 17.6 18.6 Z M 16.5 20.0 C 17.8 19.0 15.8 21.6 16.5 20.0 C 16.5 20.0 16.5 20.0 16.5 20.0 Z M 16.1 18.3 C 15.6 18.8 16.3 16.9 16.1 18.3 M 14.1 19.3 C 14.6 20.5 11.7 18.1 14.1 19.3 C 14.1 19.3 14.1 19.3 14.1 19.3 Z M 13.6 25.7 C 13.5 25.7 13.5 25.7 13.6 25.7 C 13.6 25.7 13.6 25.7 13.6 25.7 Z M 17.4 25.0 C 17.4 26.1 17.1 24.3 17.4 25.0 C 17.4 25.0 17.4 25.0 17.4 25.0 Z M 17.7 15.4 C 17.7 16.5 17.4 14.7 17.7 15.4 C 17.7 15.4 17.7 15.4 17.7 15.4 Z M 14.8 29.4 C 15.1 31.2 14.1 28.3 14.8 29.4 C 14.8 29.4 14.8 29.4 14.8 29.4 Z M 16.4 36.0 C 16.3 36.1 16.3 36.1 16.4 36.0 C 16.4 36.0 16.4 36.0 16.4 36.0 Z M 16.9 37.3 C 16.9 37.3 16.9 37.3 16.9 37.3 C 16.9 37.3 16.9 37.3 16.9 37.3 Z M 15.6 42.4 C 15.5 42.5 15.5 42.5 15.6 42.4 C 15.6 42.4 15.6 42.4 15.6 42.4 Z M 17.6 38.4 C 17.5 38.4 17.5 38.4 17.6 38.4 C 17.6 38.4 17.6 38.4 17.6 38.4 Z M 17.2 42.0 C 17.2 42.0 17.2 42.0 17.2 42.0 C 17.2 42.0 17.2 42.0 17.2 42.0 Z M 18.4 41.5 C 18.3 41.5 18.3 41.5 18.4 41.5 C 18.4 41.5 18.4 41.5 18.4 41.5 Z M 12.6 33.5 C 12.5 33.6 12.5 33.6 12.6 33.5 C 12.6 33.5 12.6 33.5 12.6 33.5 Z M 18.0 20.5 C 17.9 20.6 17.9 20.6 18.0 20.5 C 18.0 20.5 18.0 20.5 18.0 20.5 Z M 16.7 41.7 C 16.7 41.7 16.7 41.7 16.7 41.7 C 16.7 41.7 16.7 41.7 16.7 41.7 Z M 15.7 32.9 C 14.5 33.0 17.1 32.2 15.7 33.2 C 15.7 33.1 15.8 32.9 15.7 32.9 M 13.8 34.1 C 13.7 34.1 13.7 34.1 13.8 34.1 C 13.8 34.1 13.8 34.1 13.8 34.1 Z M 13.1 30.2 C 13.0 30.1 13.0 30.1 13.1 30.2 C 13.1 30.2 13.1 30.2 13.1 30.2 Z M 17.8 37.8 C 18.4 37.6 17.3 38.7 17.8 37.6 M 13.6 42.5 C 14.2 42.3 13.1 43.4 13.6 42.3 M 17.3 14.1 C 16.8 14.0 17.6 13.4 17.3 14.1 M 12.5 29.3 C 12.0 29.1 12.8 28.5 12.5 29.3 M 13.9 31.1 C 14.6 31.0 13.4 32.1 13.9 31.0 M 13.6 39.7 C 13.6 39.8 13.6 39.8 13.6 39.7 C 13.6 39.7 13.6 39.7 13.6 39.7 Z M 17.3 26.7 C 17.3 26.7 17.3 26.7 17.3 26.7 C 17.3 26.7 17.3 26.7 17.3 26.7 Z M 16.0 31.5 C 16.8 30.9 15.4 32.4 16.0 31.5 M 15.8 25.3 C 16.9 24.3 15.4 26.8 15.8 25.3 M 13.3 44.5 C 14.6 43.4 12.6 45.3 13.3 44.5 M 16.6 39.2 C 17.9 38.1 15.9 40.0 16.6 39.2 M 16.7 27.7 C 17.4 27.6 16.3 28.7 16.7 27.7 M 17.4 16.6 C 17.5 15.6 17.9 18.0 17.4 16.6 M 13.6 37.1 C 13.5 37.2 13.5 37.2 13.6 37.1 C 13.6 37.1 13.6 37.1 13.6 37.1 Z M 12.5 20.0 C 12.4 20.0 12.4 20.0 12.5 20.0 C 12.5 20.0 12.5 20.0 12.5 20.0 Z M 17.6 45.9 C 17.5 45.9 17.5 45.9 17.6 45.9 C 17.6 45.9 17.6 45.9 17.6 45.9 Z M 16.0 38.5 C 15.9 38.6 15.9 38.6 16.0 38.5 C 16.0 38.5 16.0 38.5 16.0 38.5 Z M 17.8 43.8 C 17.7 43.9 17.7 43.9 17.8 43.8 C 17.8 43.8 17.8 43.8 17.8 43.8 Z M 15.0 35.2 C 14.9 35.2 14.9 35.2 15.0 35.2 C 15.0 35.2 15.0 35.2 15.0 35.2 Z M 18.3 34.5 C 18.2 34.6 18.2 34.6 18.3 34.5 C 18.3 34.5 18.3 34.5 18.3 34.5 Z M 16.9 30.9 C 16.8 30.9 16.8 30.9 16.9 30.9 C 16.9 30.9 16.9 30.9 16.9 30.9 Z M 18.0 36.2 C 18.2 38.4 16.9 35.1 18.0 36.2 C 18.0 36.2 18.0 36.2 18.0 36.2 Z M 14.7 32.4 C 14.7 32.4 14.7 32.4 14.7 32.4 C 14.7 32.4 14.7 32.4 14.7 32.4 Z M 17.0 32.1 C 18.0 33.5 15.4 32.9 17.0 32.1 M 17.8 26.0 C 18.3 26.5 17.0 26.3 17.8 26.0 M 13.5 23.6 C 13.4 23.6 13.4 23.6 13.5 23.6 C 13.5 23.6 13.5 23.6 13.5 23.6 Z M 13.8 24.3 C 13.8 24.3 13.8 24.3 13.8 24.3 C 13.8 24.3 13.8 24.3 13.8 24.3 Z M 18.0 24.6 C 18.0 24.6 18.0 24.6 18.0 24.6 C 18.0 24.6 18.0 24.6 18.0 24.6 Z M 12.6 24.4 C 12.6 24.4 12.6 24.4 12.6 24.4 C 12.6 24.4 12.6 24.4 12.6 24.4 Z M 18.2 33.7 C 18.2 33.7 18.2 33.7 18.2 33.7 C 18.2 33.7 18.2 33.7 18.2 33.7 Z M 18.2 44.9 C 18.2 44.9 18.2 44.9 18.2 44.9 C 18.2 44.9 18.2 44.9 18.2 44.9 Z M 13.9 16.9 C 13.9 17.0 13.9 17.0 13.9 16.9 C 13.9 16.9 13.9 16.9 13.9 16.9 Z M 16.9 34.9 C 16.8 34.9 16.8 34.9 16.9 34.9 C 16.9 34.9 16.9 34.9 16.9 34.9 Z M 13.7 22.0 C 13.6 22.1 13.6 22.1 13.7 22.0 C 13.7 22.0 13.7 22.0 13.7 22.0 Z M 17.1 34.1 C 17.1 34.2 17.1 34.2 17.1 34.1 C 17.1 34.1 17.1 34.1 17.1 34.1 Z M 13.3 36.8 C 13.3 36.8 13.3 36.8 13.3 36.8 C 13.3 36.8 13.3 36.8 13.3 36.8 Z M 12.6 39.2 C 12.6 39.2 12.6 39.2 12.6 39.2 C 12.6 39.2 12.6 39.2 12.6 39.2 Z M 15.6 36.6 C 15.6 36.7 15.6 36.7 15.6 36.6 C 15.6 36.6 15.6 36.6 15.6 36.6 Z M 15.1 21.3 C 16.2 16.8 15.6 24.7 15.1 21.3 M 15.3 37.4 C 15.6 34.3 16.6 39.8 15.3 37.4 C 15.7 37.7 15.4 37.4 15.3 37.4 " fill="#85878C"></path><path d="M 2.1 54.6 C 1.6 54.5 1.0 53.0 2.1 54.0 C 2.1 54.1 2.3 54.7 2.1 54.6 Z M 3.5 57.0 C 3.4 56.9 3.3 56.7 3.4 56.5 C 3.7 56.0 3.9 57.7 3.5 57.0 Z M 1.9 53.2 C 1.8 53.2 1.4 52.4 1.6 52.5 C 1.8 52.6 2.0 53.3 1.9 53.2 Z M 5.7 58.6 C 5.5 58.7 5.1 57.9 5.1 57.7 C 5.1 57.2 6.2 58.5 5.7 58.6 Z M 9.8 52.1 C 9.9 52.1 9.9 52.1 10.0 52.0 C 9.9 52.1 9.8 52.1 9.8 52.1 Z M 11.9 70.1 C 11.8 70.0 11.8 69.6 12.0 69.5 C 12.2 69.5 12.2 70.5 11.9 70.1 Z M 25.6 51.6 C 25.6 51.6 25.2 51.4 25.4 51.3 C 25.5 51.2 25.7 51.5 25.6 51.6 Z M 25.6 51.3 C 25.5 51.1 25.8 51.0 25.8 51.2 C 25.7 51.4 25.6 51.5 25.6 51.3 Z M 22.2 64.1 C 22.2 64.2 22.2 64.3 22.1 64.2 C 22.1 64.1 22.3 63.9 22.2 64.1 Z M 22.2 63.6 C 22.0 63.4 22.5 63.4 22.4 63.5 C 22.3 63.8 22.3 63.9 22.2 63.6 Z M 24.6 61.9 C 24.6 62.0 24.6 62.1 24.6 61.9 C 24.5 61.8 24.7 61.7 24.6 61.9 Z M 19.1 51.0 C 19.2 50.9 19.7 51.0 19.6 51.2 C 19.6 51.4 18.9 51.1 19.1 51.0 Z M 19.7 50.8 C 19.7 50.7 20.0 50.6 19.9 50.8 C 19.9 50.9 19.8 51.0 19.7 50.8 Z M 17.7 51.2 C 17.7 51.5 17.2 51.5 17.1 51.4 C 16.9 51.4 16.7 51.3 16.5 51.2 C 16.4 51.2 17.7 50.9 17.7 51.2 Z M 13.5 51.5 C 13.5 51.4 13.5 51.3 13.7 51.4 C 13.9 51.5 13.5 51.6 13.5 51.5 Z M 15.9 51.3 C 15.9 51.2 15.9 51.2 16.1 51.3 C 16.3 51.3 15.9 51.4 15.9 51.3 Z M 7.9 63.4 C 7.8 63.6 7.6 62.9 7.6 62.8 C 7.6 62.8 7.7 63.0 7.7 62.8 C 7.7 62.6 8.3 62.7 7.9 63.4 Z M 4.4 58.3 C 4.3 58.2 4.4 58.1 4.5 58.1 C 4.5 58.1 4.7 58.7 4.4 58.3 Z M 8.2 62.2 C 8.1 62.3 8.0 62.1 8.1 62.1 C 8.1 62.0 8.2 62.2 8.2 62.2 Z M 8.5 62.6 C 8.4 62.5 8.4 62.0 8.6 62.0 C 8.9 62.0 8.9 63.0 8.5 62.6 Z M 8.1 64.3 C 8.0 64.1 8.0 64.1 8.2 64.2 C 8.3 64.3 8.1 64.3 8.1 64.3 Z M 6.0 61.4 C 5.9 61.2 5.9 61.2 6.0 61.3 C 6.2 61.3 6.0 61.4 6.0 61.4 Z M 9.4 65.5 C 9.4 65.5 8.9 65.3 9.2 65.0 C 9.6 64.5 9.4 65.5 9.4 65.5 Z M 11.1 67.4 C 11.0 67.2 11.2 67.2 11.2 67.4 C 11.3 67.6 11.2 67.5 11.1 67.4 Z M 12.3 67.8 C 12.3 68.1 12.3 68.3 12.1 67.9 C 11.9 67.6 12.2 67.4 12.3 67.8 Z M 11.9 67.5 C 11.9 67.4 12.0 67.5 12.0 67.6 C 11.9 67.7 11.8 67.5 11.9 67.5 Z M 10.3 65.9 C 10.0 65.8 10.1 65.5 10.4 65.7 C 10.6 66.0 10.5 66.0 10.3 65.9 Z M 7.6 51.0 C 7.4 51.0 7.5 50.8 7.6 50.7 C 7.7 50.6 7.8 50.9 7.6 51.0 Z M 16.7 52.0 C 16.6 51.8 16.7 51.8 16.9 51.9 C 17.2 51.9 16.8 52.1 16.7 52.0 Z M 22.5 52.4 C 22.4 52.3 22.5 52.3 22.7 52.3 C 22.9 52.4 22.6 52.5 22.5 52.4 Z M 14.4 51.9 C 14.3 51.9 14.9 51.4 15.3 51.8 C 15.6 52.2 14.6 52.3 14.4 51.9 Z M 8.7 56.5 C 8.6 56.6 8.6 56.4 8.6 56.4 C 8.8 56.5 8.8 56.5 8.7 56.5 Z M 15.7 52.6 C 15.6 52.7 15.6 52.4 15.7 52.3 C 15.8 52.3 15.9 52.6 15.7 52.6 Z M 21.4 52.1 C 21.2 52.0 21.3 51.6 21.5 51.5 C 22.0 51.1 22.3 51.6 22.7 51.8 C 22.9 52.0 21.6 52.1 21.4 52.1 Z M 6.2 51.9 C 6.3 51.9 6.5 52.0 6.6 52.0 C 6.6 51.9 6.7 51.9 6.8 52.0 C 7.4 51.9 7.8 51.4 8.1 51.3 C 9.0 50.9 9.3 52.0 9.8 52.1 C 9.7 52.1 9.5 52.1 9.4 52.2 C 9.2 52.5 11.2 52.4 11.4 52.4 C 13.1 52.1 11.0 51.8 11.0 51.2 C 11.0 51.0 12.2 51.6 12.3 51.7 C 12.8 51.9 12.9 51.3 13.4 51.6 C 13.6 51.7 14.2 53.0 14.4 52.8 C 14.6 52.6 15.1 52.8 15.3 52.8 C 15.7 52.8 16.2 52.7 15.9 52.3 C 15.7 51.9 15.6 51.6 16.0 51.9 C 16.3 52.1 18.4 52.9 18.3 52.0 C 18.3 51.9 17.8 51.6 17.8 51.6 C 18.4 51.4 20.1 51.7 20.5 51.3 C 21.4 50.5 20.2 51.9 20.7 52.1 C 21.4 52.5 21.9 52.8 22.9 52.7 C 23.1 52.6 24.0 52.6 23.6 52.1 C 23.2 51.7 23.5 51.5 22.9 51.4 C 23.6 50.9 24.0 51.8 24.1 51.6 C 24.3 51.4 23.9 51.2 24.4 51.3 C 25.0 51.3 24.7 51.2 24.8 51.7 C 24.9 51.8 25.4 51.9 25.4 51.9 C 25.4 52.0 25.4 52.0 25.4 52.1 C 25.8 52.0 26.6 51.1 26.7 51.3 C 26.8 51.5 26.5 52.1 26.5 52.3 C 26.6 52.3 26.6 52.3 26.6 52.3 C 26.9 52.3 27.3 51.9 27.4 52.0 C 27.5 52.1 27.1 52.9 27.3 52.7 C 27.6 52.4 28.6 52.7 28.6 53.0 C 28.7 53.3 29.0 54.4 29.2 54.5 C 29.3 54.6 29.0 55.1 28.9 55.3 C 28.8 55.5 28.4 55.6 28.3 55.6 C 28.2 55.7 28.0 56.1 28.0 56.1 C 28.0 56.1 28.0 56.4 27.8 56.7 C 27.6 57.0 27.3 57.2 26.9 57.5 C 26.5 57.9 26.7 58.2 26.5 58.6 C 26.3 59.0 25.5 59.0 25.2 59.3 C 24.9 59.6 25.4 59.9 25.2 60.3 C 25.0 60.8 24.7 61.0 24.7 60.8 C 24.7 60.6 24.5 60.6 24.4 60.8 C 24.4 60.9 23.9 61.3 23.9 61.5 C 23.9 61.8 25.1 60.7 24.0 62.3 C 23.5 63.1 22.7 63.3 22.8 63.1 C 23.1 62.5 21.6 63.3 21.8 63.4 C 22.1 63.6 21.2 64.9 21.8 64.9 C 22.0 64.9 21.4 66.3 21.2 66.5 C 21.0 66.6 20.7 67.3 20.2 67.2 C 19.9 67.2 20.0 68.3 19.9 68.5 C 19.8 68.7 19.1 69.7 18.8 69.9 C 18.6 70.0 18.9 69.5 19.0 69.3 C 19.2 69.0 19.6 68.8 19.7 68.6 C 19.8 68.3 19.3 68.7 19.1 68.9 C 18.9 69.2 18.7 69.1 18.4 69.3 C 18.4 69.4 18.3 69.6 18.1 69.8 C 18.1 69.9 18.1 70.0 18.2 70.0 C 18.3 70.1 18.5 70.0 18.5 70.1 C 18.6 70.2 18.6 70.4 18.4 70.8 C 18.2 71.1 18.0 71.3 17.6 71.7 C 17.2 72.1 17.2 72.3 17.1 72.6 C 16.9 72.9 16.7 73.1 16.6 73.1 C 16.5 73.1 16.7 72.6 16.6 72.6 C 16.6 72.5 16.1 72.8 16.0 72.9 C 15.4 73.7 15.1 72.6 14.5 73.4 C 14.2 73.8 14.2 73.1 14.1 72.7 C 14.0 72.8 13.9 72.8 13.7 72.4 C 13.5 72.5 13.3 71.9 13.2 71.7 C 13.0 71.5 12.2 70.6 12.9 71.1 C 12.9 71.1 13.0 71.1 13.0 71.2 C 13.0 71.2 13.0 71.2 13.0 71.1 C 13.0 71.1 13.6 71.2 13.6 71.2 C 13.6 71.2 13.0 71.1 13.0 71.1 C 13.1 70.9 13.2 70.7 13.3 70.6 C 13.2 70.6 13.1 70.5 13.1 70.5 C 13.0 70.5 13.0 70.5 13.0 70.5 C 13.0 70.5 13.0 70.5 13.0 70.5 C 12.8 70.6 12.8 70.6 12.8 70.4 C 12.4 70.1 12.2 69.1 12.1 68.7 C 13.5 69.1 12.5 67.5 12.1 67.1 C 11.6 66.6 10.6 67.3 10.7 67.5 C 10.5 67.1 10.6 66.9 10.9 66.7 C 10.8 66.7 11.2 65.9 11.2 65.9 C 11.0 64.8 10.3 65.5 10.0 65.4 C 9.8 65.2 9.6 64.9 9.3 64.7 C 9.1 64.4 9.1 64.8 8.9 64.8 C 8.3 64.7 8.7 63.5 8.6 63.3 C 8.8 63.4 9.0 63.7 9.3 63.8 C 8.9 63.6 9.3 63.1 9.3 62.9 C 9.2 62.6 8.9 62.3 8.7 62.0 C 8.4 61.5 8.0 61.0 7.6 60.6 C 7.6 60.8 7.5 61.9 7.5 62.0 C 7.4 61.8 7.3 61.2 7.0 61.6 C 6.5 62.4 6.1 60.9 6.0 60.6 C 5.7 59.9 4.6 59.6 4.9 58.5 C 4.9 58.5 5.7 59.4 5.8 59.3 C 6.2 58.7 6.4 58.3 5.8 57.7 C 5.7 57.6 4.7 56.9 4.6 56.9 C 4.7 56.8 3.9 58.6 3.9 57.5 C 3.9 57.3 4.3 57.5 4.3 57.2 C 4.2 56.9 3.9 56.5 3.7 56.1 C 3.7 56.1 3.6 55.5 3.5 55.4 C 3.3 55.4 3.0 55.6 2.8 55.4 C 2.6 55.3 2.6 54.9 2.8 54.8 C 2.8 54.8 2.8 54.8 2.8 54.8 C 2.8 54.7 2.9 54.7 3.0 54.6 C 2.9 54.5 2.8 54.4 2.9 54.2 C 2.9 54.1 3.1 54.3 3.1 54.5 C 3.2 54.5 3.2 54.5 3.3 54.4 C 3.1 54.2 2.9 53.9 2.9 53.9 C 2.3 53.7 2.1 53.8 2.2 52.8 C 2.3 52.0 4.2 51.5 5.4 51.7 C 5.6 51.7 5.9 51.7 6.2 51.9 Z M 17.5 70.1 C 17.5 70.1 17.6 70.1 17.6 70.1 C 17.5 70.0 17.4 69.9 17.3 69.9 C 17.1 70.1 17.5 69.9 17.3 70.2 C 17.1 70.4 17.2 70.4 17.5 70.1 Z M 14.9 70.0 C 14.9 70.2 15.0 70.1 15.1 70.1 C 15.0 70.0 15.0 70.0 14.9 70.0 Z M 13.8 70.5 C 14.1 70.8 14.2 70.0 13.8 69.6 C 13.8 70.0 13.8 70.3 13.8 70.5 Z M 12.9 70.0 C 13.0 70.0 13.1 69.9 13.1 69.9 C 13.3 69.9 12.9 69.7 13.1 69.6 C 13.2 69.6 13.5 69.8 13.5 69.6 C 13.5 69.5 13.5 69.4 13.5 69.3 C 13.4 69.3 13.4 69.3 13.3 69.3 C 13.1 69.2 12.8 69.7 12.9 70.0 Z M 17.7 68.2 C 17.6 68.4 17.7 68.3 17.8 68.2 C 17.8 68.1 17.7 68.0 17.7 68.2 Z M 19.7 66.9 C 19.5 67.0 19.4 67.2 19.7 67.1 C 19.9 67.1 19.9 66.8 19.7 66.9 Z M 16.7 64.1 C 16.8 64.2 16.8 64.1 16.8 64.0 C 16.9 63.8 16.7 63.9 16.7 64.1 Z M 14.6 63.9 C 14.4 63.8 14.2 64.1 14.4 64.1 C 14.5 64.1 14.7 64.0 14.6 63.9 Z M 19.4 64.2 C 19.5 64.0 19.3 64.1 19.3 64.2 C 19.3 64.4 19.4 64.4 19.4 64.2 Z M 16.5 64.7 C 16.8 64.5 16.7 64.4 16.7 64.4 C 16.6 64.3 16.4 64.3 16.3 64.5 C 16.2 64.7 16.3 64.8 16.5 64.7 Z M 14.8 64.8 C 14.5 64.3 14.2 64.4 14.7 65.0 C 15.1 65.5 14.9 65.1 14.8 64.8 Z M 21.1 65.8 C 21.1 65.8 21.0 66.2 21.0 66.2 C 21.0 66.2 21.5 65.5 21.1 65.8 Z M 9.9 64.6 C 10.0 64.8 10.3 64.9 10.1 64.5 C 10.0 64.2 9.8 64.4 9.9 64.6 Z M 10.8 63.6 C 10.5 64.0 10.6 64.4 10.6 64.4 C 10.6 64.3 11.0 64.3 11.1 64.4 C 11.4 64.6 11.3 65.3 11.7 65.4 C 12.2 65.6 11.8 64.8 11.7 64.7 C 11.8 64.8 11.9 64.8 12.0 64.8 C 12.1 64.6 12.1 64.5 11.9 64.5 C 11.7 64.4 11.2 63.1 10.8 63.6 Z M 15.9 63.6 C 15.8 63.8 15.9 64.0 16.2 63.9 C 16.4 63.7 16.5 63.5 16.5 63.4 C 16.4 63.4 16.0 63.4 15.9 63.6 Z M 17.5 63.4 C 17.6 63.6 17.6 63.6 17.7 63.4 C 17.8 63.0 17.4 63.2 17.5 63.4 Z M 24.3 60.5 C 24.2 60.3 24.0 60.6 24.1 60.7 C 24.2 60.7 24.3 60.6 24.3 60.5 Z M 21.6 60.6 C 21.7 60.1 21.3 60.5 21.3 60.6 C 21.3 60.7 21.5 60.8 21.6 60.6 Z M 20.0 62.1 C 20.1 61.9 19.8 62.1 19.8 62.2 C 19.9 62.4 20.0 62.2 20.0 62.1 Z M 19.0 62.3 C 19.1 62.2 18.8 62.2 18.8 62.4 C 18.8 62.5 18.9 62.5 19.0 62.3 Z M 10.3 61.5 C 10.3 61.5 10.7 61.4 10.4 61.2 C 10.1 61.1 10.1 61.1 10.3 61.5 Z M 13.4 62.2 C 13.6 62.5 13.9 62.7 14.7 62.4 C 15.6 62.2 15.2 62.0 14.7 61.9 C 14.2 61.7 15.6 61.3 14.6 61.1 C 14.2 61.0 13.2 62.0 13.4 62.2 Z M 18.9 60.7 C 18.4 61.0 18.5 61.8 18.8 61.4 C 19.2 60.9 19.3 60.5 18.9 60.7 Z M 19.3 60.7 C 19.2 60.8 19.3 60.8 19.4 60.6 C 19.5 60.5 19.3 60.5 19.3 60.7 Z M 6.6 61.1 C 7.3 61.9 7.3 60.6 7.3 60.6 C 7.0 59.5 5.8 60.3 6.6 61.1 Z M 24.9 52.5 C 24.9 52.5 24.8 52.5 24.8 52.5 C 24.8 52.5 24.7 52.5 24.7 52.5 C 24.6 52.6 24.9 52.8 24.9 52.8 C 25.0 52.7 25.0 52.6 24.9 52.5 Z M 19.4 52.2 C 19.6 52.3 19.8 52.3 19.9 52.1 C 19.8 51.6 18.2 51.6 18.8 52.5 C 18.9 52.6 20.0 53.3 20.1 52.9 C 20.1 52.7 18.8 52.3 19.4 52.2 Z M 21.1 53.0 C 20.5 52.9 21.7 53.6 21.5 53.3 C 21.4 53.1 21.3 53.0 21.1 53.0 Z M 26.0 54.5 C 26.9 54.1 26.7 52.8 25.3 53.5 C 24.0 54.2 23.9 54.7 24.6 54.5 C 25.3 54.4 24.7 55.0 26.0 54.5 Z M 18.8 54.5 C 19.0 53.5 18.6 53.8 18.3 54.5 C 18.3 54.7 18.7 55.0 18.8 54.5 Z M 16.8 54.6 C 16.6 54.5 16.6 54.5 16.7 54.7 C 16.9 54.9 17.1 54.7 16.8 54.6 Z M 27.4 55.8 C 27.7 55.6 28.0 55.3 28.0 55.5 C 28.0 55.7 28.0 55.6 28.2 55.4 C 28.5 55.2 28.0 55.2 27.8 55.3 C 27.6 55.3 27.1 55.9 27.4 55.8 Z M 19.7 59.0 C 19.8 58.8 19.6 58.9 19.6 59.0 C 19.6 59.2 19.7 59.1 19.7 59.0 Z M 12.2 60.0 C 12.2 60.0 12.4 59.9 12.2 59.8 C 12.0 59.7 12.0 59.7 12.2 60.0 Z M 6.1 59.6 C 6.3 59.8 6.3 59.4 6.6 59.4 C 6.7 59.5 6.6 59.6 6.5 59.7 C 6.6 59.6 7.3 59.5 6.8 59.2 C 6.6 59.1 5.7 59.2 6.1 59.6 Z M 17.7 58.7 C 17.3 59.0 18.6 59.3 18.4 59.5 C 18.2 59.7 18.3 59.8 18.6 59.5 C 18.9 59.2 18.0 58.4 17.7 58.7 Z M 20.9 58.5 C 20.7 58.5 20.1 59.2 20.5 59.0 C 20.8 58.9 21.0 58.5 21.0 58.7 C 21.0 59.0 21.1 58.9 21.3 58.7 C 21.5 58.5 21.1 58.5 20.9 58.5 Z M 26.3 58.3 C 26.1 58.3 25.9 58.7 26.2 58.6 C 26.4 58.5 26.4 58.2 26.3 58.3 Z M 11.3 58.0 C 11.5 58.1 11.6 58.0 11.4 57.7 C 11.2 57.5 11.1 57.8 11.3 58.0 Z M 25.8 57.4 C 25.4 57.7 26.0 57.5 25.8 57.7 C 25.5 57.9 25.7 58.0 26.0 57.7 C 26.2 57.4 26.1 57.1 25.8 57.4 Z M 6.4 57.1 C 6.5 57.2 6.7 57.0 6.6 57.0 C 6.5 56.8 6.3 57.1 6.4 57.1 Z M 8.4 56.4 C 8.4 56.4 8.5 56.5 8.5 56.6 C 9.4 57.9 8.7 55.5 8.4 56.4 Z M 11.5 56.5 C 11.1 56.6 11.6 56.8 11.6 56.8 C 11.7 56.7 11.6 56.6 11.5 56.5 Z M 14.9 56.5 C 15.0 56.3 14.6 56.4 14.7 56.6 C 14.7 56.7 14.8 56.6 14.9 56.5 Z M 3.9 55.9 C 4.0 56.1 4.1 56.1 4.1 55.9 C 4.1 55.8 3.9 55.7 3.9 55.9 Z M 12.4 55.8 C 12.4 55.9 12.4 55.9 12.5 55.8 C 12.7 55.8 12.5 55.7 12.4 55.8 Z M 22.7 55.7 C 22.7 55.8 22.6 55.9 22.5 56.0 C 22.6 56.2 23.2 56.2 23.2 56.4 C 23.2 56.5 23.2 56.5 23.2 56.5 C 23.2 56.5 23.2 56.5 23.2 56.5 C 23.2 56.6 23.1 56.7 23.1 56.6 C 23.0 56.7 22.9 56.7 22.7 56.7 C 23.0 57.0 23.2 57.1 23.4 56.9 C 23.6 56.7 23.6 56.3 23.6 55.9 C 23.5 55.8 23.3 55.8 23.2 55.7 C 23.2 55.8 23.2 55.8 23.2 55.8 C 23.0 56.0 22.9 56.1 22.9 56.0 C 22.9 55.8 22.9 55.8 23.0 55.7 C 22.9 55.7 22.8 55.7 22.7 55.7 Z M 13.7 55.3 C 13.4 55.4 13.6 55.5 14.0 55.6 C 14.2 55.7 14.0 55.2 13.7 55.3 Z M 4.3 55.6 C 4.4 55.6 4.5 55.5 4.6 55.4 C 4.5 55.4 4.5 55.4 4.4 55.4 C 4.2 55.4 4.1 55.3 3.9 55.3 C 3.9 55.5 4.0 55.7 4.3 55.6 Z M 7.3 54.6 C 7.2 54.6 6.0 54.6 6.2 54.8 C 6.5 55.3 6.0 55.8 6.9 55.6 C 7.3 55.5 7.7 54.8 8.1 54.7 C 10.3 54.2 7.5 54.1 7.0 54.0 C 6.8 54.0 7.4 54.5 7.3 54.6 Z M 10.2 53.9 C 10.3 53.7 9.9 53.5 9.8 53.5 C 9.2 53.6 10.0 54.2 10.2 53.9 Z M 4.1 53.6 C 4.0 53.6 4.0 53.7 4.1 53.8 C 4.1 53.7 4.1 53.6 4.1 53.6 C 4.1 53.6 4.1 53.6 4.1 53.6 Z M 2.5 53.4 C 3.1 54.0 3.0 52.9 2.9 52.6 C 2.7 52.1 2.3 53.0 2.5 53.4 Z M 8.5 52.9 C 8.9 52.9 9.5 51.7 8.7 51.7 C 8.0 51.8 7.6 52.8 8.5 52.9 Z M 13.1 51.3 C 12.9 51.4 12.5 51.2 12.7 51.0 C 12.8 50.9 13.2 51.2 13.1 51.3 Z M 6.3 50.6 C 6.4 50.7 6.3 50.7 6.3 50.7 C 6.2 50.5 6.2 50.5 6.3 50.6 Z M 6.9 51.5 C 6.7 51.4 6.5 51.4 6.3 51.3 C 6.1 51.3 6.6 51.1 6.6 51.1 C 6.8 51.2 6.9 51.5 6.9 51.5 Z M 10.6 51.6 C 10.4 51.5 10.7 51.5 10.8 51.5 C 10.9 51.5 10.7 51.7 10.6 51.6 Z M 9.7 51.3 C 9.8 51.4 9.7 51.5 9.6 51.5 C 9.4 51.5 9.6 51.3 9.7 51.3 Z M 11.2 52.1 C 10.8 52.2 10.3 52.3 10.3 51.9 C 10.4 51.7 12.0 51.8 11.2 52.1 Z M 11.2 52.1 " fill="#85878C"></path></g></svg>