<?xml version="1.0" encoding="UTF-8" standalone="no"?><svg xmlns="http://www.w3.org/2000/svg" xmlns:xlink="http://www.w3.org/1999/xlink" clip-rule="evenodd" stroke-miterlimit="10" viewBox="0 0 46 87"><desc>SVG generated by Keynote</desc><defs></defs><g transform="matrix(1.00, 0.00, -0.00, -1.00, 0.0, 87.0)"><path d="M 18.9 17.1 C 18.7 16.9 18.7 16.1 18.5 15.9 M 18.9 17.1 C 19.8 16.2 19.6 14.9 19.5 13.1 C 19.1 11.2 18.5 13.4 18.0 13.2 C 17.1 10.9 17.8 10.7 19.1 10.8 C 18.1 10.1 18.9 7.0 17.6 7.9 C 18.4 11.8 16.7 5.2 16.5 8.6 C 16.4 9.0 15.8 8.2 15.7 7.8 C 15.3 9.0 14.2 7.3 14.2 9.1 C 13.3 9.5 13.6 9.2 13.1 10.4 C 13.1 10.9 13.4 10.6 13.6 10.6 C 14.7 10.5 13.3 12.0 14.2 12.8 C 12.9 13.9 14.7 14.5 15.2 13.6 C 15.2 14.5 13.9 15.7 15.1 16.4 C 14.5 17.0 15.4 19.1 16.0 17.6 C 16.4 16.5 17.0 17.5 17.4 17.6 C 17.6 17.2 16.9 15.9 17.1 15.7 C 17.4 16.0 18.3 17.7 17.9 15.8 C 18.5 16.3 18.6 15.4 18.9 17.1 C 18.9 17.1 18.9 17.1 18.9 17.1 Z M 18.3 10.3 C 18.7 10.2 18.4 10.9 18.3 10.3 C 18.3 10.3 18.3 10.3 18.3 10.3 Z M 14.3 15.8 C 14.6 15.7 14.4 16.4 14.3 15.8 C 14.3 15.8 14.3 15.8 14.3 15.8 Z M 13.7 10.9 C 14.0 10.8 13.8 11.5 13.7 10.9 C 13.7 10.9 13.7 10.9 13.7 10.9 Z M 18.4 12.1 C 18.3 13.2 17.7 11.3 18.1 11.1 C 18.0 11.3 18.7 11.7 18.4 12.1 C 18.4 12.1 18.4 12.1 18.4 12.1 Z M 16.3 12.6 C 16.5 12.7 16.6 13.1 16.2 13.1 C 16.1 12.9 16.2 12.6 16.3 12.6 C 16.3 12.6 16.3 12.6 16.3 12.6 Z M 16.8 7.1 C 16.9 7.2 17.1 7.6 16.7 7.6 C 16.5 7.4 16.6 7.1 16.8 7.1 C 16.8 7.1 16.8 7.1 16.8 7.1 Z M 17.7 13.4 C 17.7 13.7 17.4 13.9 17.2 13.6 C 17.4 13.4 17.3 12.7 17.7 13.4 C 17.7 13.4 17.7 13.4 17.7 13.4 Z M 19.3 14.8 C 19.3 15.7 18.3 14.1 18.5 14.1 C 18.7 13.7 19.5 14.3 19.3 14.8 C 19.3 14.8 19.3 14.8 19.3 14.8 Z M 17.3 14.1 C 17.2 14.8 16.9 13.8 17.3 14.1 C 17.3 14.1 17.3 14.1 17.3 14.1 Z M 14.2 8.4 C 14.1 9.2 13.8 8.2 14.2 8.4 C 14.2 8.4 14.2 8.4 14.2 8.4 Z M 13.8 12.5 C 13.8 13.2 13.5 12.2 13.8 12.5 C 13.8 12.5 13.8 12.5 13.8 12.5 Z M 17.3 10.3 C 17.1 9.0 18.2 9.9 17.3 10.3 C 17.3 10.3 17.3 10.3 17.3 10.3 Z M 19.8 16.8 C 19.5 15.6 20.7 16.5 19.8 16.8 C 19.8 16.8 19.8 16.8 19.8 16.8 Z M 28.3 60.3 C 28.7 61.5 29.0 56.7 27.9 58.7 C 26.8 59.4 26.3 56.4 27.6 56.9 C 27.5 56.0 27.6 56.0 26.9 55.6 C 27.8 55.2 27.8 53.0 27.2 52.4 C 26.3 52.1 27.4 53.8 26.3 52.8 C 25.5 50.1 25.5 53.1 24.3 52.3 C 24.3 52.2 24.8 52.0 24.4 51.9 C 23.5 52.0 23.2 53.6 22.3 53.1 C 22.5 53.4 21.9 55.6 22.6 54.6 C 23.4 54.1 21.9 56.9 23.3 56.4 C 22.8 57.2 23.9 57.7 23.2 58.5 C 23.1 59.0 23.9 58.8 24.0 58.7 C 24.7 58.5 22.6 59.6 24.0 60.1 C 23.6 60.3 24.2 62.4 24.4 60.7 C 24.4 61.1 24.6 63.7 25.6 62.1 C 25.9 60.3 27.3 63.6 27.0 61.6 C 26.8 60.0 26.5 59.7 27.4 60.8 C 27.4 61.1 27.9 62.9 28.2 61.2 C 27.9 60.9 27.9 60.2 28.3 60.3 C 28.3 60.3 28.3 60.3 28.3 60.3 Z M 26.5 61.0 C 26.2 60.2 26.9 60.9 26.5 61.0 C 26.5 61.0 26.5 61.0 26.5 61.0 Z M 22.9 58.4 C 22.6 57.5 23.3 58.2 22.9 58.4 C 22.9 58.4 22.9 58.4 22.9 58.4 Z M 28.1 57.5 C 27.6 57.1 28.9 56.7 28.1 57.5 C 28.1 57.5 28.1 57.5 28.1 57.5 Z M 24.2 59.7 C 24.2 59.6 24.4 59.8 24.6 59.9 C 24.5 59.9 24.3 59.7 24.2 59.7 C 24.2 59.7 24.2 59.7 24.2 59.7 Z M 27.7 55.9 C 26.8 54.8 28.7 55.5 27.7 55.9 C 27.7 55.9 27.7 55.9 27.7 55.9 Z M 25.9 53.5 C 24.5 53.6 25.9 52.1 25.9 53.5 C 25.9 53.5 25.9 53.5 25.9 53.5 Z M 23.3 56.0 C 23.7 56.2 23.2 56.3 23.3 56.0 C 23.3 56.0 23.3 56.0 23.3 56.0 Z M 24.3 61.9 C 24.7 62.0 24.2 62.1 24.3 61.9 C 24.3 61.9 24.3 61.9 24.3 61.9 Z M 23.1 54.3 C 23.6 54.3 23.0 54.8 23.1 54.3 C 23.1 54.3 23.1 54.3 23.1 54.3 Z M 27.5 57.3 C 28.8 58.3 26.2 59.1 27.5 57.3 C 27.5 57.3 27.5 57.3 27.5 57.3 Z M 28.0 59.5 C 28.4 60.3 27.3 59.5 27.4 59.1 C 27.5 59.1 27.9 59.4 28.0 59.5 C 28.0 59.5 28.0 59.5 28.0 59.5 Z M 27.1 56.1 C 27.8 56.8 26.9 56.9 27.1 56.1 C 27.1 56.1 27.1 56.1 27.1 56.1 Z M 28.1 58.1 C 28.1 58.5 27.9 57.8 28.1 58.1 C 28.1 58.1 28.1 58.1 28.1 58.1 Z M 27.9 54.2 C 27.8 54.6 27.6 53.9 27.9 54.2 C 27.9 54.2 27.9 54.2 27.9 54.2 Z M 28.8 60.4 C 28.7 60.8 28.6 60.1 28.8 60.4 C 28.8 60.4 28.8 60.4 28.8 60.4 Z M 27.2 54.7 C 26.7 54.6 25.9 56.0 26.4 53.7 C 26.6 53.3 27.5 54.0 27.2 54.7 C 27.2 54.7 27.2 54.7 27.2 54.7 Z M 19.5 20.4 C 20.0 15.3 17.6 17.0 17.1 16.9 C 16.3 16.4 15.9 17.1 15.6 18.1 C 14.2 19.5 17.7 19.3 16.2 20.4 C 14.2 22.2 18.4 21.5 16.2 22.5 C 15.5 22.4 16.4 24.2 16.5 24.0 C 15.6 25.2 17.9 26.1 18.1 26.1 C 17.9 26.8 15.8 27.3 17.8 29.0 C 18.6 30.3 16.7 31.4 18.0 30.7 C 16.7 32.2 18.7 31.4 18.4 32.6 C 17.6 33.6 19.7 32.4 18.3 34.1 C 19.8 34.4 17.3 33.6 19.0 37.2 C 18.8 35.4 20.4 38.7 19.4 38.2 C 18.2 37.1 20.1 39.9 19.9 41.7 C 20.5 42.0 22.1 43.8 20.7 43.8 C 19.5 45.8 22.0 45.4 20.9 46.4 C 20.5 47.1 21.7 47.1 21.7 47.5 C 20.8 48.3 21.6 48.7 21.8 51.0 C 22.3 55.8 24.4 51.2 25.0 52.9 C 25.6 53.1 28.2 49.8 26.0 51.4 C 26.6 50.9 23.4 47.5 26.3 48.9 C 25.0 47.6 27.5 49.0 25.6 46.3 C 24.6 50.7 23.9 41.8 25.6 45.5 C 26.0 44.8 25.6 43.1 25.4 44.4 C 23.8 45.2 25.6 41.4 23.9 43.5 C 23.9 40.9 22.3 41.9 23.4 40.9 C 25.4 39.9 22.8 41.2 23.2 39.7 C 22.6 36.8 25.6 38.6 23.6 37.1 C 24.1 34.0 22.5 36.7 22.0 35.7 C 20.5 35.7 22.6 32.5 23.2 34.7 C 22.2 33.7 23.9 34.3 22.7 33.2 C 21.5 34.4 23.8 31.2 22.8 31.8 C 22.2 30.7 21.5 31.5 21.4 31.1 C 21.0 29.3 22.5 29.6 21.4 29.4 C 20.7 29.2 22.4 27.9 21.9 27.8 C 22.2 29.7 20.1 26.6 20.8 26.3 C 21.1 27.4 22.5 25.3 21.3 24.8 C 18.4 26.3 21.7 23.1 20.5 22.5 C 19.0 23.6 19.5 18.5 20.6 20.2 C 20.4 20.1 19.5 20.5 19.5 20.4 M 21.5 27.3 C 21.7 28.9 20.8 25.8 21.5 27.3 M 21.9 27.2 C 21.5 27.9 22.1 25.7 22.1 27.2 C 22.1 27.2 22.0 27.1 21.9 27.2 M 23.3 33.4 C 22.8 33.3 23.4 32.5 23.3 33.4 M 22.5 34.8 C 22.2 35.9 22.1 33.4 22.5 34.8 M 25.6 48.4 C 22.8 47.5 26.7 46.7 25.6 48.4 M 24.3 39.2 C 23.6 37.6 25.4 39.6 24.3 39.2 M 23.5 38.9 C 23.0 38.2 24.1 38.6 23.5 38.9 M 25.1 45.8 C 25.0 45.9 25.0 45.9 25.1 45.8 C 25.1 45.8 25.1 45.8 25.1 45.8 Z M 25.8 49.9 C 25.9 49.9 25.9 49.9 25.8 49.9 C 25.8 49.9 25.8 49.9 25.8 49.9 Z M 24.0 41.9 C 24.3 40.5 24.6 43.9 24.0 41.9 C 24.0 41.9 24.0 41.9 24.0 41.9 Z M 21.6 48.7 C 21.5 48.7 21.5 48.7 21.6 48.7 C 21.6 48.7 21.6 48.7 21.6 48.7 Z M 20.1 26.4 C 20.1 26.3 20.1 26.3 20.1 26.4 C 20.1 26.4 20.1 26.4 20.1 26.4 Z M 20.1 21.6 C 19.8 21.7 20.2 20.7 20.1 21.6 C 20.1 21.6 20.1 21.6 20.1 21.6 Z M 16.5 18.4 C 16.4 18.4 16.4 18.4 16.5 18.4 C 16.5 18.4 16.5 18.4 16.5 18.4 Z M 18.5 25.1 C 18.4 25.1 18.4 25.1 18.5 25.1 C 18.5 25.1 18.5 25.1 18.5 25.1 Z M 20.5 25.4 C 21.7 24.3 20.5 27.2 20.5 25.4 C 20.5 25.4 20.5 25.4 20.5 25.4 Z M 20.2 41.1 C 20.8 41.0 20.2 42.2 20.2 41.1 C 20.2 41.1 20.2 41.1 20.2 41.1 Z M 21.9 35.1 C 22.3 35.2 21.9 35.8 21.9 35.1 C 21.9 35.1 21.9 35.1 21.9 35.1 Z M 23.3 32.1 C 23.7 32.3 23.3 32.8 23.3 32.1 C 23.3 32.1 23.3 32.1 23.3 32.1 Z M 20.5 21.6 C 20.6 21.6 20.6 21.6 20.5 21.6 C 20.5 21.6 20.5 21.6 20.5 21.6 Z M 19.8 23.4 C 20.9 22.0 19.5 25.3 19.8 23.4 C 19.8 23.4 19.8 23.4 19.8 23.4 Z M 19.0 21.5 C 18.7 22.3 18.9 20.0 19.0 21.5 M 17.3 23.1 C 18.1 24.4 14.7 22.3 17.3 23.1 C 17.3 23.1 17.3 23.1 17.3 23.1 Z M 18.2 30.3 C 18.2 30.4 18.2 30.4 18.2 30.3 C 18.2 30.3 18.2 30.3 18.2 30.3 Z M 21.8 28.8 C 22.1 30.0 21.4 28.0 21.8 28.8 C 21.8 28.8 21.8 28.8 21.8 28.8 Z M 19.9 18.0 C 20.2 19.2 19.5 17.3 19.9 18.0 C 19.9 18.0 19.9 18.0 19.9 18.0 Z M 20.3 34.2 C 20.9 36.2 19.4 33.1 20.3 34.2 C 20.3 34.2 20.3 34.2 20.3 34.2 Z M 23.3 41.3 C 23.3 41.4 23.3 41.4 23.3 41.3 C 23.3 41.3 23.3 41.3 23.3 41.3 Z M 24.2 42.6 C 24.1 42.6 24.1 42.6 24.2 42.6 C 24.2 42.6 24.2 42.6 24.2 42.6 Z M 24.0 48.6 C 24.0 48.7 24.0 48.7 24.0 48.6 C 24.0 48.6 24.0 48.6 24.0 48.6 Z M 25.0 43.7 C 25.0 43.8 25.0 43.8 25.0 43.7 C 25.0 43.7 25.0 43.7 25.0 43.7 Z M 25.5 47.8 C 25.5 47.9 25.5 47.9 25.5 47.8 C 25.5 47.8 25.5 47.8 25.5 47.8 Z M 26.5 47.0 C 26.5 47.1 26.5 47.1 26.5 47.0 C 26.5 47.0 26.5 47.0 26.5 47.0 Z M 19.0 39.3 C 19.0 39.4 19.0 39.4 19.0 39.3 C 19.0 39.3 19.0 39.3 19.0 39.3 Z M 21.4 23.7 C 21.3 23.8 21.3 23.8 21.4 23.7 C 21.4 23.7 21.4 23.7 21.4 23.7 Z M 24.9 47.6 C 24.9 47.6 24.9 47.6 24.9 47.6 C 24.9 47.6 24.9 47.6 24.9 47.6 Z M 21.9 38.0 C 20.8 38.3 23.2 36.9 22.0 38.3 C 22.0 38.2 22.1 37.9 21.9 38.0 M 20.4 39.7 C 20.3 39.7 20.3 39.7 20.4 39.7 C 20.4 39.7 20.4 39.7 20.4 39.7 Z M 18.8 35.4 C 18.7 35.4 18.7 35.4 18.8 35.4 C 18.8 35.4 18.8 35.4 18.8 35.4 Z M 25.1 43.0 C 25.7 42.7 24.9 44.2 25.0 42.8 M 22.1 49.1 C 22.7 48.8 21.8 50.2 22.0 48.9 M 19.2 16.7 C 18.7 16.6 19.4 15.8 19.2 16.7 M 18.0 34.6 C 17.5 34.5 18.1 33.7 18.0 34.6 M 19.8 36.3 C 20.4 36.0 19.6 37.5 19.8 36.2 M 21.5 46.0 C 21.5 46.1 21.5 46.1 21.5 46.0 C 21.5 46.0 21.5 46.0 21.5 46.0 Z M 22.1 30.7 C 22.1 30.7 22.1 30.7 22.1 30.7 C 22.1 30.7 22.1 30.7 22.1 30.7 Z M 21.9 36.4 C 22.6 35.4 21.5 37.4 21.9 36.4 M 20.3 29.4 C 21.1 28.1 20.3 31.2 20.3 29.4 M 22.3 51.4 C 23.3 49.9 21.8 52.4 22.3 51.4 M 24.3 44.8 C 25.3 43.4 23.7 45.8 24.3 44.8 M 21.8 31.9 C 22.4 31.7 21.6 33.2 21.8 31.9 M 19.9 19.4 C 19.8 18.3 20.7 20.8 19.9 19.4 M 20.9 43.1 C 20.8 43.2 20.8 43.2 20.9 43.1 C 20.9 43.1 20.9 43.1 20.9 43.1 Z M 15.8 24.2 C 15.8 24.2 15.8 24.2 15.8 24.2 C 15.8 24.2 15.8 24.2 15.8 24.2 Z M 26.8 52.1 C 26.7 52.2 26.7 52.2 26.8 52.1 C 26.8 52.1 26.8 52.1 26.8 52.1 Z M 23.5 44.2 C 23.4 44.3 23.4 44.3 23.5 44.2 C 23.5 44.2 23.5 44.2 23.5 44.2 Z M 26.5 49.8 C 26.4 49.8 26.4 49.8 26.5 49.8 C 26.5 49.8 26.5 49.8 26.5 49.8 Z M 21.8 40.7 C 21.7 40.7 21.7 40.7 21.8 40.7 C 21.8 40.7 21.8 40.7 21.8 40.7 Z M 24.9 39.3 C 24.8 39.3 24.8 39.3 24.9 39.3 C 24.9 39.3 24.9 39.3 24.9 39.3 Z M 22.6 35.5 C 22.6 35.5 22.6 35.5 22.6 35.5 C 22.6 35.5 22.6 35.5 22.6 35.5 Z M 25.0 41.2 C 25.7 43.6 23.6 40.2 25.0 41.2 C 25.0 41.2 25.0 41.2 25.0 41.2 Z M 20.9 37.6 C 20.9 37.7 20.9 37.7 20.9 37.6 C 20.9 37.6 20.9 37.6 20.9 37.6 Z M 23.1 36.8 C 24.3 38.2 21.7 38.0 23.1 36.8 M 22.5 29.9 C 23.1 30.2 21.8 30.3 22.5 29.9 M 17.7 28.0 C 17.6 28.0 17.6 28.0 17.7 28.0 C 17.7 28.0 17.7 28.0 17.7 28.0 Z M 18.2 28.7 C 18.1 28.8 18.1 28.8 18.2 28.7 C 18.2 28.7 18.2 28.7 18.2 28.7 Z M 22.3 28.2 C 22.3 28.2 22.3 28.2 22.3 28.2 C 22.3 28.2 22.3 28.2 22.3 28.2 Z M 17.0 29.0 C 16.9 29.1 16.9 29.1 17.0 29.0 C 17.0 29.0 17.0 29.0 17.0 29.0 Z M 24.6 38.4 C 24.6 38.4 24.6 38.4 24.6 38.4 C 24.6 38.4 24.6 38.4 24.6 38.4 Z M 27.2 50.8 C 27.2 50.9 27.2 50.9 27.2 50.8 C 27.2 50.8 27.2 50.8 27.2 50.8 Z M 16.6 20.5 C 16.6 20.6 16.6 20.6 16.6 20.5 C 16.6 20.5 16.6 20.5 16.6 20.5 Z M 23.6 39.9 C 23.5 40.0 23.5 40.0 23.6 39.9 C 23.6 39.9 23.6 39.9 23.6 39.9 Z M 17.5 26.2 C 17.5 26.3 17.5 26.3 17.5 26.2 C 17.5 26.2 17.5 26.2 17.5 26.2 Z M 23.7 39.1 C 23.7 39.1 23.7 39.1 23.7 39.1 C 23.7 39.1 23.7 39.1 23.7 39.1 Z M 20.5 42.8 C 20.5 42.8 20.5 42.8 20.5 42.8 C 20.5 42.8 20.5 42.8 20.5 42.8 Z M 20.3 45.6 C 20.3 45.6 20.3 45.6 20.3 45.6 C 20.3 45.6 20.3 45.6 20.3 45.6 Z M 22.7 42.1 C 22.7 42.2 22.7 42.2 22.7 42.1 C 22.7 42.1 22.7 42.1 22.7 42.1 Z M 18.7 25.1 C 18.8 19.9 20.0 28.9 18.7 25.1 M 22.6 43.0 C 22.2 39.5 24.4 45.5 22.6 43.0 C 23.0 43.3 22.7 43.0 22.6 43.0 " fill="#85878C"></path><path d="M 13.4 63.8 C 12.8 63.8 12.0 62.3 13.2 63.2 C 13.3 63.2 13.6 63.8 13.4 63.8 Z M 15.2 65.8 C 15.1 65.7 15.0 65.6 15.0 65.3 C 15.1 64.8 15.7 66.4 15.2 65.8 Z M 12.9 62.5 C 12.8 62.4 12.2 61.8 12.4 61.8 C 12.6 61.8 12.9 62.5 12.9 62.5 Z M 17.7 67.0 C 17.5 67.1 16.9 66.4 16.9 66.2 C 16.8 65.7 18.1 66.7 17.7 67.0 Z M 20.4 59.7 C 20.4 59.7 20.5 59.7 20.6 59.7 C 20.5 59.7 20.4 59.7 20.4 59.7 Z M 26.0 77.0 C 25.9 76.9 25.8 76.5 26.0 76.4 C 26.3 76.3 26.4 77.3 26.0 77.0 Z M 35.7 56.1 C 35.7 56.1 35.4 56.0 35.5 55.9 C 35.6 55.7 35.8 55.9 35.7 56.1 Z M 35.7 55.8 C 35.6 55.7 35.9 55.5 35.9 55.7 C 35.8 55.9 35.8 56.0 35.7 55.8 Z M 35.0 69.0 C 34.9 69.2 34.9 69.2 34.9 69.1 C 34.8 69.0 35.0 68.8 35.0 69.0 Z M 34.8 68.6 C 34.6 68.4 35.0 68.2 35.0 68.4 C 35.0 68.7 35.0 68.8 34.8 68.6 Z M 36.9 66.4 C 36.9 66.5 36.9 66.6 36.8 66.4 C 36.7 66.3 36.9 66.2 36.9 66.4 Z M 29.2 56.8 C 29.3 56.7 29.8 56.7 29.8 56.9 C 29.8 57.2 29.1 57.0 29.2 56.8 Z M 29.8 56.5 C 29.8 56.4 30.1 56.2 30.0 56.4 C 30.0 56.6 29.9 56.7 29.8 56.5 Z M 28.0 57.3 C 28.0 57.5 27.5 57.7 27.4 57.6 C 27.2 57.6 26.9 57.6 26.8 57.5 C 26.7 57.5 27.9 57.0 28.0 57.3 Z M 23.9 58.4 C 23.9 58.3 23.9 58.2 24.1 58.3 C 24.3 58.3 23.9 58.5 23.9 58.4 Z M 26.2 57.8 C 26.2 57.7 26.2 57.6 26.4 57.7 C 26.6 57.7 26.2 57.9 26.2 57.8 Z M 20.8 71.2 C 20.7 71.4 20.4 70.8 20.4 70.7 C 20.3 70.7 20.5 70.9 20.5 70.7 C 20.4 70.5 21.1 70.5 20.8 71.2 Z M 16.3 67.0 C 16.2 66.8 16.3 66.7 16.4 66.7 C 16.4 66.7 16.7 67.2 16.3 67.0 Z M 20.8 70.0 C 20.7 70.1 20.6 69.9 20.7 69.9 C 20.7 69.8 20.9 69.9 20.8 70.0 Z M 21.2 70.3 C 21.1 70.2 21.0 69.8 21.2 69.7 C 21.5 69.6 21.7 70.6 21.2 70.3 Z M 21.2 72.0 C 21.0 71.9 21.0 71.9 21.2 71.9 C 21.3 72.0 21.2 72.0 21.2 72.0 Z M 18.5 69.6 C 18.4 69.5 18.4 69.5 18.5 69.5 C 18.7 69.5 18.5 69.6 18.5 69.6 Z M 22.6 73.0 C 22.6 73.0 22.1 72.8 22.3 72.5 C 22.6 72.0 22.6 73.0 22.6 73.0 Z M 24.7 74.5 C 24.6 74.3 24.8 74.3 24.9 74.4 C 24.9 74.6 24.8 74.6 24.7 74.5 Z M 26.0 74.6 C 26.1 74.9 26.1 75.2 25.8 74.8 C 25.6 74.5 25.9 74.3 26.0 74.6 Z M 25.5 74.4 C 25.6 74.3 25.7 74.4 25.6 74.5 C 25.5 74.6 25.4 74.4 25.5 74.4 Z M 23.6 73.2 C 23.4 73.2 23.4 72.8 23.7 73.0 C 23.9 73.2 23.9 73.3 23.6 73.2 Z M 18.0 59.1 C 17.9 59.2 17.9 58.9 17.9 58.8 C 18.0 58.7 18.1 59.0 18.0 59.1 Z M 27.1 58.2 C 27.0 58.1 27.1 58.1 27.3 58.1 C 27.6 58.1 27.3 58.3 27.1 58.2 Z M 32.9 57.5 C 32.7 57.4 32.8 57.4 33.1 57.4 C 33.3 57.4 33.0 57.6 32.9 57.5 Z M 24.8 58.7 C 24.8 58.6 25.3 58.0 25.7 58.4 C 26.1 58.7 25.1 59.0 24.8 58.7 Z M 20.2 64.3 C 20.1 64.4 20.1 64.2 20.1 64.2 C 20.3 64.2 20.3 64.2 20.2 64.3 Z M 26.3 59.1 C 26.1 59.2 26.1 58.9 26.2 58.8 C 26.3 58.7 26.4 59.0 26.3 59.1 Z M 31.8 57.4 C 31.5 57.3 31.6 56.9 31.7 56.8 C 32.1 56.3 32.5 56.7 32.9 56.9 C 33.2 57.0 31.9 57.4 31.8 57.4 Z M 16.8 60.2 C 17.0 60.3 17.1 60.3 17.2 60.3 C 17.2 60.2 17.3 60.2 17.5 60.2 C 18.0 60.1 18.3 59.5 18.6 59.3 C 19.3 58.8 19.9 59.8 20.4 59.7 C 20.2 59.8 20.1 59.8 20.1 59.9 C 19.9 60.3 21.9 59.7 22.0 59.7 C 23.6 59.1 21.5 59.2 21.4 58.6 C 21.3 58.4 22.6 58.8 22.7 58.8 C 23.3 58.9 23.3 58.4 23.8 58.5 C 24.0 58.6 24.9 59.7 25.1 59.5 C 25.2 59.3 25.8 59.4 25.9 59.3 C 26.3 59.3 26.8 59.1 26.4 58.7 C 26.1 58.4 26.0 58.1 26.5 58.3 C 26.8 58.5 28.9 58.9 28.7 57.9 C 28.6 57.9 28.2 57.7 28.1 57.7 C 28.6 57.3 30.4 57.3 30.7 56.9 C 31.4 55.8 30.5 57.4 31.0 57.6 C 31.9 57.9 32.4 58.1 33.3 57.7 C 33.5 57.6 34.4 57.4 33.9 57.0 C 33.5 56.7 33.7 56.4 33.1 56.4 C 33.6 55.8 34.2 56.6 34.3 56.4 C 34.4 56.1 34.1 56.0 34.5 56.0 C 35.1 56.0 34.8 55.9 35.0 56.3 C 35.1 56.5 35.6 56.5 35.6 56.5 C 35.6 56.5 35.6 56.6 35.6 56.6 C 36.1 56.5 36.6 55.4 36.8 55.6 C 36.9 55.8 36.8 56.4 36.8 56.6 C 36.9 56.6 36.9 56.6 36.9 56.6 C 37.1 56.5 37.5 56.0 37.6 56.1 C 37.7 56.2 37.5 57.1 37.7 56.8 C 37.9 56.5 38.9 56.6 39.0 56.9 C 39.1 57.1 39.6 58.2 39.8 58.2 C 40.0 58.2 39.8 58.9 39.7 59.0 C 39.7 59.2 39.3 59.5 39.2 59.5 C 39.1 59.6 39.0 60.0 39.0 60.0 C 39.0 60.0 39.1 60.3 39.0 60.7 C 38.9 61.0 38.5 61.2 38.2 61.6 C 37.9 62.1 38.2 62.4 38.1 62.8 C 38.0 63.2 37.1 63.4 36.9 63.7 C 36.7 64.1 37.2 64.3 37.1 64.7 C 37.0 65.2 36.8 65.4 36.7 65.3 C 36.7 65.1 36.5 65.2 36.5 65.3 C 36.4 65.4 36.1 65.9 36.1 66.2 C 36.1 66.4 37.1 65.2 36.4 66.9 C 36.0 67.8 35.2 68.2 35.3 68.0 C 35.5 67.3 34.2 68.4 34.4 68.5 C 34.7 68.6 34.1 70.1 34.7 69.9 C 34.9 69.8 34.6 71.4 34.4 71.5 C 34.2 71.7 34.1 72.5 33.6 72.5 C 33.3 72.5 33.6 73.6 33.6 73.8 C 33.5 74.0 33.0 75.1 32.8 75.3 C 32.6 75.5 32.8 75.0 32.9 74.7 C 33.0 74.4 33.3 74.2 33.4 73.9 C 33.4 73.7 33.0 74.1 32.9 74.4 C 32.7 74.6 32.5 74.6 32.3 74.9 C 32.3 75.0 32.2 75.2 32.1 75.4 C 32.1 75.5 32.1 75.6 32.2 75.6 C 32.3 75.7 32.5 75.6 32.5 75.6 C 32.6 75.7 32.7 76.0 32.5 76.3 C 32.4 76.7 32.2 77.0 31.9 77.4 C 31.6 77.8 31.7 78.0 31.6 78.4 C 31.6 78.7 31.4 79.0 31.3 79.0 C 31.2 78.9 31.3 78.5 31.2 78.4 C 31.1 78.4 30.7 78.7 30.6 78.9 C 30.2 79.8 29.7 78.8 29.2 79.7 C 29.0 80.1 28.9 79.5 28.7 79.1 C 28.6 79.2 28.6 79.2 28.2 78.9 C 28.1 79.0 27.8 78.5 27.6 78.3 C 27.4 78.1 26.5 77.4 27.2 77.7 C 27.3 77.8 27.3 77.8 27.4 77.8 C 27.4 77.8 27.4 77.8 27.4 77.8 C 27.4 77.8 27.9 77.7 27.9 77.7 C 27.9 77.7 27.4 77.8 27.4 77.7 C 27.4 77.5 27.5 77.3 27.5 77.2 C 27.4 77.2 27.3 77.1 27.3 77.1 C 27.2 77.1 27.2 77.1 27.2 77.1 C 27.2 77.1 27.2 77.1 27.2 77.1 C 27.1 77.3 27.0 77.2 27.0 77.1 C 26.5 76.9 26.1 75.9 25.9 75.5 C 27.4 75.7 26.1 74.3 25.6 73.9 C 25.1 73.6 24.2 74.4 24.4 74.7 C 24.1 74.3 24.1 74.1 24.3 73.8 C 24.3 73.8 24.5 72.9 24.5 73.0 C 24.1 71.9 23.5 72.8 23.3 72.7 C 23.0 72.6 22.7 72.3 22.5 72.1 C 22.2 72.0 22.2 72.3 22.0 72.3 C 21.4 72.4 21.6 71.2 21.4 70.9 C 21.7 71.1 22.0 71.2 22.2 71.3 C 21.8 71.2 22.1 70.6 22.0 70.5 C 21.9 70.2 21.6 69.9 21.3 69.7 C 20.9 69.2 20.4 68.9 20.0 68.5 C 20.0 68.7 20.1 69.8 20.2 69.9 C 20.0 69.7 19.7 69.2 19.6 69.7 C 19.2 70.4 18.5 69.1 18.4 68.9 C 17.9 68.3 16.8 68.1 16.9 67.0 C 16.9 67.0 17.8 67.7 17.9 67.6 C 18.2 67.0 18.3 66.5 17.6 66.0 C 17.5 65.9 16.3 65.4 16.3 65.5 C 16.4 65.4 16.0 67.3 15.7 66.2 C 15.6 66.0 16.1 66.2 16.0 65.9 C 15.9 65.5 15.5 65.2 15.2 64.9 C 15.2 64.9 14.9 64.3 14.9 64.3 C 14.7 64.3 14.4 64.5 14.2 64.4 C 13.9 64.3 13.9 64.0 14.0 63.8 C 14.1 63.8 14.1 63.8 14.1 63.8 C 14.1 63.7 14.1 63.6 14.2 63.5 C 14.1 63.5 14.0 63.4 14.0 63.2 C 14.0 63.1 14.3 63.3 14.3 63.5 C 14.4 63.4 14.4 63.4 14.5 63.3 C 14.3 63.1 14.0 62.9 14.0 62.9 C 13.3 62.8 13.2 62.9 13.1 61.9 C 13.1 61.1 14.8 60.3 16.0 60.3 C 16.2 60.2 16.4 60.1 16.8 60.2 Z M 31.6 75.9 C 31.6 75.8 31.6 75.8 31.6 75.8 C 31.5 75.8 31.4 75.7 31.3 75.7 C 31.1 75.9 31.5 75.7 31.4 76.0 C 31.2 76.2 31.3 76.2 31.6 75.9 Z M 29.0 76.2 C 29.0 76.4 29.1 76.4 29.2 76.3 C 29.1 76.2 29.0 76.2 29.0 76.2 Z M 28.0 76.9 C 28.3 77.2 28.3 76.4 27.8 76.0 C 27.8 76.5 27.9 76.8 28.0 76.9 Z M 27.0 76.6 C 27.1 76.6 27.2 76.6 27.2 76.6 C 27.4 76.5 27.0 76.3 27.1 76.3 C 27.2 76.2 27.6 76.4 27.5 76.1 C 27.5 76.1 27.5 76.0 27.4 75.9 C 27.4 75.9 27.3 75.9 27.3 75.9 C 27.0 75.9 26.9 76.4 27.0 76.6 Z M 31.3 74.0 C 31.3 74.2 31.4 74.1 31.4 73.9 C 31.4 73.8 31.3 73.8 31.3 74.0 Z M 33.0 72.3 C 32.9 72.4 32.8 72.6 33.1 72.5 C 33.3 72.4 33.2 72.1 33.0 72.3 Z M 29.6 70.1 C 29.6 70.2 29.6 70.1 29.6 70.0 C 29.7 69.8 29.5 70.0 29.6 70.1 Z M 27.4 70.4 C 27.3 70.3 27.1 70.6 27.3 70.6 C 27.4 70.6 27.6 70.4 27.4 70.4 Z M 32.2 69.7 C 32.3 69.5 32.1 69.6 32.1 69.7 C 32.2 69.9 32.2 69.8 32.2 69.7 Z M 29.5 70.7 C 29.7 70.5 29.6 70.4 29.6 70.4 C 29.5 70.3 29.3 70.4 29.3 70.6 C 29.2 70.9 29.3 70.9 29.5 70.7 Z M 27.8 71.2 C 27.4 70.8 27.2 70.9 27.8 71.4 C 28.3 71.8 28.0 71.5 27.8 71.2 Z M 34.2 70.9 C 34.2 71.0 34.2 71.3 34.2 71.3 C 34.2 71.3 34.6 70.5 34.2 70.9 Z M 23.0 72.0 C 23.1 72.2 23.4 72.2 23.2 71.9 C 23.0 71.6 22.9 71.8 23.0 72.0 Z M 23.7 70.8 C 23.4 71.3 23.6 71.6 23.6 71.7 C 23.6 71.6 24.0 71.4 24.1 71.5 C 24.5 71.7 24.5 72.3 25.0 72.4 C 25.5 72.5 24.9 71.8 24.8 71.7 C 24.9 71.8 25.0 71.8 25.1 71.7 C 25.2 71.6 25.1 71.5 24.9 71.4 C 24.7 71.4 23.9 70.2 23.7 70.8 Z M 28.7 69.8 C 28.6 70.0 28.8 70.2 29.0 70.0 C 29.2 69.8 29.3 69.6 29.2 69.5 C 29.1 69.5 28.7 69.6 28.7 69.8 Z M 30.2 69.3 C 30.3 69.5 30.3 69.4 30.4 69.2 C 30.4 68.9 30.1 69.1 30.2 69.3 Z M 36.2 65.1 C 36.1 64.9 36.0 65.2 36.1 65.3 C 36.2 65.3 36.3 65.2 36.2 65.1 Z M 33.6 65.7 C 33.6 65.2 33.3 65.6 33.3 65.7 C 33.4 65.9 33.6 66.0 33.6 65.7 Z M 32.4 67.5 C 32.4 67.3 32.2 67.6 32.3 67.7 C 32.3 67.8 32.4 67.7 32.4 67.5 Z M 31.4 67.9 C 31.5 67.7 31.2 67.8 31.2 68.1 C 31.3 68.2 31.4 68.1 31.4 67.9 Z M 22.8 68.9 C 22.8 68.9 23.2 68.7 22.8 68.6 C 22.4 68.5 22.4 68.5 22.8 68.9 Z M 26.0 69.0 C 26.2 69.2 26.5 69.3 27.3 68.9 C 28.1 68.5 27.7 68.3 27.1 68.3 C 26.6 68.3 27.9 67.6 26.9 67.6 C 26.5 67.6 25.7 68.8 26.0 69.0 Z M 31.0 66.4 C 30.6 66.8 30.9 67.5 31.1 67.0 C 31.4 66.5 31.4 66.1 31.0 66.4 Z M 31.4 66.3 C 31.4 66.4 31.5 66.4 31.5 66.2 C 31.6 66.0 31.4 66.1 31.4 66.3 Z M 19.1 69.2 C 19.9 69.9 19.7 68.6 19.7 68.6 C 19.1 67.5 18.2 68.6 19.1 69.2 Z M 35.3 57.1 C 35.2 57.1 35.2 57.1 35.1 57.1 C 35.1 57.1 35.1 57.1 35.1 57.2 C 35.0 57.3 35.4 57.4 35.4 57.4 C 35.4 57.3 35.3 57.2 35.3 57.1 Z M 29.8 58.0 C 30.0 58.0 30.2 57.9 30.3 57.7 C 30.1 57.3 28.5 57.6 29.3 58.3 C 29.4 58.4 30.6 58.9 30.6 58.5 C 30.6 58.2 29.3 58.1 29.8 58.0 Z M 31.6 58.3 C 31.0 58.4 32.3 58.8 32.1 58.6 C 32.0 58.4 31.8 58.3 31.6 58.3 Z M 36.7 58.8 C 37.5 58.3 37.1 57.1 35.9 58.0 C 34.7 59.0 34.7 59.5 35.4 59.2 C 36.0 58.9 35.6 59.6 36.7 58.8 Z M 29.7 60.3 C 29.7 59.3 29.3 59.6 29.2 60.4 C 29.2 60.6 29.7 60.8 29.7 60.3 Z M 27.8 60.8 C 27.5 60.8 27.5 60.8 27.7 60.9 C 27.9 61.1 28.1 60.8 27.8 60.8 Z M 38.4 59.8 C 38.7 59.6 38.8 59.2 38.9 59.4 C 38.9 59.7 39.0 59.5 39.1 59.3 C 39.3 59.1 38.9 59.2 38.7 59.2 C 38.5 59.3 38.1 60.0 38.4 59.8 Z M 31.5 64.5 C 31.6 64.3 31.4 64.4 31.4 64.6 C 31.4 64.7 31.5 64.7 31.5 64.5 Z M 24.3 67.0 C 24.3 67.0 24.5 66.9 24.3 66.8 C 24.1 66.7 24.1 66.7 24.3 67.0 Z M 18.3 67.9 C 18.5 68.0 18.4 67.6 18.8 67.6 C 18.9 67.6 18.7 67.8 18.7 67.8 C 18.7 67.8 19.4 67.5 18.9 67.3 C 18.7 67.2 17.8 67.6 18.3 67.9 Z M 29.4 64.7 C 29.1 65.0 30.5 65.0 30.3 65.3 C 30.1 65.6 30.3 65.6 30.5 65.2 C 30.7 64.9 29.7 64.3 29.4 64.7 Z M 32.5 63.8 C 32.3 63.9 31.9 64.6 32.2 64.4 C 32.5 64.2 32.7 63.8 32.7 64.0 C 32.8 64.2 32.8 64.1 33.0 63.9 C 33.2 63.7 32.7 63.8 32.5 63.8 Z M 37.7 62.5 C 37.6 62.6 37.5 63.0 37.8 62.8 C 37.9 62.7 37.8 62.4 37.7 62.5 Z M 23.0 65.2 C 23.3 65.2 23.3 65.2 23.1 65.0 C 22.8 64.8 22.8 65.1 23.0 65.2 Z M 37.1 61.7 C 36.8 62.1 37.3 61.8 37.1 62.1 C 37.0 62.3 37.1 62.3 37.3 62.0 C 37.5 61.7 37.4 61.4 37.1 61.7 Z M 18.1 65.3 C 18.2 65.4 18.4 65.2 18.2 65.1 C 18.1 65.1 17.9 65.3 18.1 65.3 Z M 19.9 64.2 C 19.9 64.3 20.0 64.4 20.0 64.4 C 21.2 65.5 20.0 63.3 19.9 64.2 Z M 23.0 63.8 C 22.6 63.9 23.1 64.0 23.1 64.0 C 23.2 63.9 23.1 63.8 23.0 63.8 Z M 26.3 63.1 C 26.3 62.9 26.0 63.0 26.1 63.1 C 26.2 63.3 26.2 63.2 26.3 63.1 Z M 15.4 64.7 C 15.5 64.8 15.6 64.8 15.5 64.6 C 15.5 64.5 15.3 64.5 15.4 64.7 Z M 23.7 62.8 C 23.6 62.9 23.7 63.0 23.8 62.9 C 23.9 62.8 23.7 62.7 23.7 62.8 Z M 33.8 60.7 C 33.7 60.8 33.7 60.9 33.6 61.0 C 33.7 61.2 34.4 61.1 34.4 61.3 C 34.4 61.3 34.4 61.4 34.4 61.4 C 34.4 61.4 34.4 61.4 34.4 61.4 C 34.4 61.5 34.4 61.6 34.3 61.5 C 34.2 61.6 34.1 61.7 34.0 61.7 C 34.2 61.9 34.5 61.9 34.6 61.8 C 34.8 61.5 34.8 61.1 34.7 60.7 C 34.5 60.7 34.4 60.7 34.2 60.6 C 34.2 60.7 34.2 60.7 34.2 60.7 C 34.1 61.0 34.0 61.1 34.0 60.9 C 33.9 60.8 34.0 60.7 34.0 60.7 C 33.9 60.7 33.9 60.7 33.8 60.7 Z M 24.9 62.1 C 24.6 62.3 24.8 62.3 25.2 62.4 C 25.4 62.4 25.1 61.9 24.9 62.1 Z M 15.7 64.2 C 15.8 64.2 15.9 64.1 15.9 64.1 C 15.9 64.1 15.8 64.1 15.8 64.1 C 15.6 64.1 15.4 64.1 15.2 64.0 C 15.3 64.3 15.4 64.4 15.7 64.2 Z M 18.4 62.7 C 18.3 62.8 17.1 62.9 17.4 63.2 C 17.8 63.5 17.4 64.1 18.2 63.7 C 18.6 63.5 18.9 62.8 19.3 62.7 C 21.3 61.7 18.6 62.2 18.0 62.2 C 17.9 62.2 18.6 62.6 18.4 62.7 Z M 21.1 61.5 C 21.2 61.3 20.8 61.1 20.7 61.1 C 20.1 61.3 21.0 61.7 21.1 61.5 Z M 15.1 62.4 C 15.0 62.4 15.1 62.4 15.1 62.5 C 15.1 62.5 15.1 62.4 15.1 62.3 C 15.1 62.4 15.1 62.4 15.1 62.4 Z M 13.5 62.5 C 14.2 63.0 13.9 61.8 13.7 61.6 C 13.5 61.2 13.2 62.2 13.5 62.5 Z M 19.3 60.8 C 19.7 60.7 20.0 59.4 19.2 59.6 C 18.5 59.8 18.3 60.9 19.3 60.8 Z M 23.4 58.3 C 23.3 58.5 22.8 58.3 23.0 58.1 C 23.1 58.0 23.5 58.2 23.4 58.3 Z M 16.7 59.0 C 16.8 59.0 16.7 59.1 16.7 59.1 C 16.5 58.9 16.5 58.9 16.7 59.0 Z M 17.5 59.8 C 17.2 59.7 17.0 59.7 16.8 59.7 C 16.6 59.7 17.1 59.5 17.1 59.5 C 17.3 59.4 17.4 59.8 17.5 59.8 Z M 21.0 59.1 C 20.8 59.0 21.1 59.0 21.3 59.0 C 21.4 59.0 21.2 59.2 21.0 59.1 Z M 20.1 59.0 C 20.3 59.0 20.2 59.2 20.0 59.2 C 19.8 59.2 20.0 59.0 20.1 59.0 Z M 21.8 59.4 C 21.4 59.6 20.9 59.8 20.9 59.5 C 20.9 59.3 22.4 59.1 21.8 59.4 Z M 21.8 59.4 " fill="#85878C"></path></g></svg>