<?xml version="1.0" encoding="UTF-8" standalone="no"?><svg xmlns="http://www.w3.org/2000/svg" xmlns:xlink="http://www.w3.org/1999/xlink" clip-rule="evenodd" stroke-miterlimit="10" viewBox="0 0 62 62"><desc>SVG generated by Keynote</desc><defs></defs><g transform="matrix(1.00, 0.00, -0.00, -1.00, 0.0, 62.0)"><g><clipPath id="clip0x6000014a61e0"><path d="M 51.9 52.1 C 63.5 40.5 63.5 21.7 51.9 10.1 C 40.3 -1.5 21.5 -1.5 9.9 10.1 C -1.7 21.7 -1.7 40.5 9.9 52.1 C 21.5 63.7 40.3 63.7 51.9 52.1 Z M 51.9 52.1 "></path></clipPath><g clip-path="url(#clip0x6000014a61e0)"><image xlink:href="../../F3B9C234-AD51-4757-BEDC-0DBF2E8D996A/assets/8E13FF0D2A86B705C84DE77C8D855D85.png" width="256.00" height="256.00" transform="matrix(0.50, 0.00, -0.00, -0.50, 1.2, 60.8)"></image></g></g><g><clipPath id="clip0x608000ea8d00"><path d="M 1.2 1.4 L 60.6 1.4 L 60.6 60.8 L 1.2 60.8 Z M 1.2 1.4 "></path></clipPath><g clip-path="url(#clip0x608000ea8d00)"><text xml:space="preserve" font-family="Helvetica-Light,Helvetica" font-size="26.0" fill="#FEFFFF" transform="matrix(1.00, 0.00, -0.00, -1.00, 16.5, 21.5)">c</text><text xml:space="preserve" font-family="Helvetica-Light,Helvetica" font-size="26.0" fill="#FEFFFF" transform="matrix(1.00, 0.00, -0.00, -1.00, 30.9, 21.5)">2</text></g></g></g></svg>