<?xml version="1.0" encoding="UTF-8" standalone="no"?><svg xmlns="http://www.w3.org/2000/svg" xmlns:xlink="http://www.w3.org/1999/xlink" clip-rule="evenodd" stroke-miterlimit="10" viewBox="0 0 62 63"><desc>SVG generated by Keynote</desc><defs></defs><g transform="matrix(1.00, 0.00, -0.00, -1.00, 0.0, 63.0)"><g><clipPath id="clip0x6000014a7380"><path d="M 51.9 52.4 C 63.5 40.8 63.5 22.0 51.9 10.4 C 40.3 -1.2 21.5 -1.2 9.9 10.4 C -1.7 22.0 -1.7 40.8 9.9 52.4 C 21.5 64.0 40.3 64.0 51.9 52.4 Z M 51.9 52.4 "></path></clipPath><g clip-path="url(#clip0x6000014a7380)"><image xlink:href="../../F3B9C234-AD51-4757-BEDC-0DBF2E8D996A/assets/8E13FF0D2A86B705C84DE77C8D855D85.png" width="256.00" height="256.00" transform="matrix(0.50, 0.00, -0.00, -0.50, 1.2, 61.1)"></image></g></g><g><clipPath id="clip0x608000ea9600"><path d="M 1.2 1.7 L 60.6 1.7 L 60.6 61.1 L 1.2 61.1 Z M 1.2 1.7 "></path></clipPath><g clip-path="url(#clip0x608000ea9600)"><text xml:space="preserve" font-family="Helvetica-Light,Helvetica" font-size="26.0" fill="#FEFFFF" transform="matrix(1.00, 0.00, -0.00, -1.00, 16.5, 21.9)">c</text><text xml:space="preserve" font-family="Helvetica-Light,Helvetica" font-size="26.0" fill="#FEFFFF" transform="matrix(1.00, 0.00, -0.00, -1.00, 30.9, 21.9)">4</text></g></g></g></svg>