<?xml version="1.0" encoding="UTF-8" standalone="no"?><svg xmlns="http://www.w3.org/2000/svg" xmlns:xlink="http://www.w3.org/1999/xlink" clip-rule="evenodd" stroke-miterlimit="10" viewBox="0 0 30 79"><desc>SVG generated by Keynote</desc><defs></defs><g transform="matrix(1.00, 0.00, -0.00, -1.00, 0.0, 79.0)"><path d="M 16.4 14.9 C 16.3 14.6 16.5 13.9 16.4 13.7 M 16.4 14.9 C 17.5 14.2 17.6 12.9 17.8 11.1 C 17.9 9.2 16.8 11.2 16.4 11.0 C 15.9 8.5 16.7 8.5 17.9 8.8 C 17.1 7.9 18.5 5.0 17.0 5.6 C 17.0 9.6 16.7 2.8 15.8 6.2 C 15.6 6.5 15.2 5.5 15.2 5.2 C 14.6 6.3 13.9 4.4 13.4 6.2 C 12.5 6.4 12.9 6.1 12.2 7.2 C 12.1 7.7 12.4 7.5 12.6 7.5 C 13.7 7.6 12.0 8.8 12.7 9.8 C 11.2 10.6 12.9 11.5 13.5 10.8 C 13.4 11.6 11.9 12.6 12.9 13.5 C 12.2 14.0 12.7 16.2 13.6 14.9 C 14.1 13.9 14.6 15.0 14.9 15.1 C 15.2 14.8 14.7 13.4 15.0 13.2 C 15.2 13.6 15.8 15.4 15.7 13.5 C 16.2 14.1 16.5 13.2 16.4 14.9 C 16.4 14.9 16.4 14.9 16.4 14.9 Z M 17.3 8.1 C 17.6 8.1 17.2 8.8 17.3 8.1 C 17.3 8.1 17.3 8.1 17.3 8.1 Z M 12.2 12.7 C 12.6 12.7 12.2 13.4 12.2 12.7 C 12.2 12.7 12.2 12.7 12.2 12.7 Z M 12.6 7.8 C 12.9 7.8 12.6 8.4 12.6 7.8 C 12.6 7.8 12.6 7.8 12.6 7.8 Z M 17.0 9.9 C 16.7 11.0 16.5 9.0 16.8 8.8 C 16.8 9.1 17.3 9.6 17.0 9.9 C 17.0 9.9 17.0 9.9 17.0 9.9 Z M 14.8 10.0 C 14.9 10.1 15.0 10.6 14.6 10.5 C 14.5 10.2 14.7 10.0 14.8 10.0 C 14.8 10.0 14.8 10.0 14.8 10.0 Z M 16.4 4.7 C 16.5 4.8 16.6 5.3 16.2 5.2 C 16.1 4.9 16.2 4.7 16.4 4.7 C 16.4 4.7 16.4 4.7 16.4 4.7 Z M 16.0 11.1 C 15.9 11.4 15.6 11.5 15.5 11.2 C 15.7 11.0 15.8 10.3 16.0 11.1 C 16.0 11.1 16.0 11.1 16.0 11.1 Z M 17.3 12.8 C 17.1 13.7 16.5 11.9 16.7 11.9 C 17.0 11.6 17.6 12.3 17.3 12.8 C 17.3 12.8 17.3 12.8 17.3 12.8 Z M 15.5 11.6 C 15.3 12.4 15.2 11.3 15.5 11.6 C 15.5 11.6 15.5 11.6 15.5 11.6 Z M 13.6 5.5 C 13.4 6.2 13.3 5.2 13.6 5.5 C 13.6 5.5 13.6 5.5 13.6 5.5 Z M 12.4 9.4 C 12.2 10.1 12.1 9.1 12.4 9.4 C 12.4 9.4 12.4 9.4 12.4 9.4 Z M 16.3 7.9 C 16.3 6.6 17.2 7.7 16.3 7.9 C 16.3 7.9 16.3 7.9 16.3 7.9 Z M 17.4 14.8 C 17.4 13.6 18.3 14.7 17.4 14.8 C 17.4 14.8 17.4 14.8 17.4 14.8 Z M 17.0 54.7 C 17.2 55.9 18.5 51.3 17.0 53.0 C 15.7 53.5 15.9 50.4 17.0 51.2 C 17.1 50.3 17.2 50.3 16.6 49.7 C 17.5 49.6 18.0 47.4 17.5 46.7 C 16.7 46.2 17.4 48.1 16.6 46.9 C 16.4 44.2 15.7 47.1 14.7 46.0 C 14.7 45.9 15.2 45.9 14.9 45.6 C 14.0 45.5 13.3 47.1 12.6 46.4 C 12.8 46.8 11.7 48.7 12.6 47.9 C 13.5 47.6 11.5 50.1 12.9 49.9 C 12.3 50.5 13.2 51.2 12.4 51.8 C 12.2 52.3 13.0 52.3 13.2 52.3 C 13.9 52.2 11.6 52.8 12.8 53.6 C 12.5 53.7 12.6 55.9 13.2 54.2 C 13.1 54.7 12.7 57.2 14.1 55.9 C 14.7 54.1 15.4 57.7 15.5 55.6 C 15.6 54.1 15.4 53.7 16.1 54.9 C 16.0 55.3 16.1 57.1 16.7 55.6 C 16.5 55.2 16.7 54.5 17.0 54.7 C 17.0 54.7 17.0 54.7 17.0 54.7 Z M 15.1 55.0 C 15.0 54.1 15.6 54.9 15.1 55.0 C 15.1 55.0 15.1 55.0 15.1 55.0 Z M 12.1 51.7 C 12.0 50.8 12.6 51.6 12.1 51.7 C 12.1 51.7 12.1 51.7 12.1 51.7 Z M 17.4 51.8 C 16.9 51.4 18.3 51.2 17.4 51.8 C 17.4 51.8 17.4 51.8 17.4 51.8 Z M 13.2 53.2 C 13.2 53.2 13.4 53.4 13.4 53.6 C 13.4 53.5 13.2 53.3 13.2 53.2 C 13.2 53.2 13.2 53.2 13.2 53.2 Z M 17.4 50.3 C 16.7 48.9 18.4 50.0 17.4 50.3 C 17.4 50.3 17.4 50.3 17.4 50.3 Z M 16.0 47.5 C 14.7 47.4 16.3 46.1 16.0 47.5 C 16.0 47.5 16.0 47.5 16.0 47.5 Z M 13.0 49.5 C 13.3 49.7 12.9 49.7 13.0 49.5 C 13.0 49.5 13.0 49.5 13.0 49.5 Z M 12.8 55.4 C 13.1 55.6 12.7 55.6 12.8 55.4 C 12.8 55.4 12.8 55.4 12.8 55.4 Z M 13.2 47.7 C 13.7 47.9 12.9 48.3 13.2 47.7 C 13.2 47.7 13.2 47.7 13.2 47.7 Z M 16.8 51.6 C 17.9 52.8 15.2 53.1 16.8 51.6 C 16.8 51.6 16.8 51.6 16.8 51.6 Z M 16.9 53.8 C 17.1 54.7 16.2 53.7 16.4 53.3 C 16.5 53.3 16.9 53.7 16.9 53.8 C 16.9 53.8 16.9 53.8 16.9 53.8 Z M 16.7 50.3 C 17.2 51.1 16.4 51.1 16.7 50.3 C 16.7 50.3 16.7 50.3 16.7 50.3 Z M 17.3 52.4 C 17.2 52.9 17.1 52.1 17.3 52.4 C 17.3 52.4 17.3 52.4 17.3 52.4 Z M 17.8 48.6 C 17.7 49.0 17.7 48.2 17.8 48.6 C 17.8 48.6 17.8 48.6 17.8 48.6 Z M 17.5 54.9 C 17.4 55.3 17.3 54.5 17.5 54.9 C 17.5 54.9 17.5 54.9 17.5 54.9 Z M 17.1 48.9 C 16.6 48.8 15.5 50.0 16.4 47.8 C 16.8 47.5 17.5 48.4 17.1 48.9 C 17.1 48.9 17.1 48.9 17.1 48.9 Z M 16.4 17.9 C 17.9 13.5 15.3 14.6 14.8 14.4 C 14.0 13.8 13.6 14.3 13.1 15.2 C 11.4 16.1 14.8 16.6 13.1 17.2 C 10.8 18.4 15.1 18.6 12.7 19.1 C 12.1 18.9 12.6 20.6 12.7 20.4 C 11.6 21.3 13.6 22.5 13.8 22.5 C 13.5 23.0 11.4 23.1 13.0 24.9 C 13.6 26.2 11.4 26.8 12.9 26.4 C 11.2 27.4 13.4 27.1 12.8 28.1 C 11.9 28.8 14.2 28.1 12.5 29.4 C 13.8 29.9 11.6 28.8 12.6 32.1 C 12.7 30.5 13.7 33.7 12.7 33.1 C 11.7 31.9 13.1 34.7 12.5 36.2 C 13.0 36.6 14.3 38.4 12.9 38.1 C 11.3 39.7 13.9 39.7 12.6 40.4 C 12.0 40.9 13.2 41.1 13.1 41.5 C 12.1 42.0 12.8 42.5 12.5 44.5 C 12.0 48.8 15.0 45.1 15.3 46.8 C 15.8 47.0 19.0 44.6 16.6 45.6 C 17.3 45.3 14.8 41.8 17.4 43.5 C 16.3 42.2 18.5 43.8 17.2 41.1 C 15.4 44.8 16.5 37.0 17.4 40.5 C 17.9 39.9 17.8 38.4 17.4 39.5 C 15.7 39.9 18.1 37.0 16.1 38.4 C 16.7 36.2 14.8 36.8 16.1 36.1 C 18.3 35.6 15.5 36.2 16.2 35.1 C 16.2 32.4 18.7 34.5 17.0 32.9 C 18.2 30.3 16.1 32.3 15.8 31.4 C 14.3 31.2 17.0 28.8 17.2 30.7 C 16.4 29.7 17.9 30.5 16.9 29.4 C 15.5 30.2 18.5 27.8 17.3 28.2 C 16.9 27.1 16.1 27.7 16.1 27.3 C 16.1 25.7 17.5 26.2 16.4 25.9 C 15.8 25.6 17.7 24.8 17.2 24.6 C 17.1 26.2 15.7 23.2 16.5 23.1 C 16.6 24.1 18.3 22.6 17.2 21.9 C 14.1 22.7 18.0 20.5 16.9 19.8 C 15.2 20.5 16.7 16.2 17.5 17.8 C 17.4 17.7 16.4 17.9 16.4 17.9 M 17.0 24.1 C 16.8 25.5 16.6 22.7 17.0 24.1 M 17.4 24.1 C 16.8 24.7 17.9 22.8 17.6 24.1 C 17.6 24.2 17.5 24.0 17.4 24.1 M 17.5 29.6 C 17.0 29.5 17.8 28.9 17.5 29.6 M 16.4 30.7 C 16.0 31.6 16.3 29.5 16.4 30.7 M 16.8 43.0 C 14.2 41.7 18.2 41.7 16.8 43.0 M 17.3 34.8 C 16.9 33.3 18.4 35.4 17.3 34.8 M 16.6 34.4 C 16.2 33.7 17.2 34.2 16.6 34.4 M 16.8 40.6 C 16.7 40.7 16.7 40.7 16.8 40.6 C 16.8 40.6 16.8 40.6 16.8 40.6 Z M 16.7 44.3 C 16.7 44.3 16.7 44.3 16.7 44.3 C 16.7 44.3 16.7 44.3 16.7 44.3 Z M 16.5 37.1 C 17.1 36.0 16.7 38.9 16.5 37.1 C 16.5 37.1 16.5 37.1 16.5 37.1 Z M 12.8 42.5 C 12.7 42.5 12.7 42.5 12.8 42.5 C 12.8 42.5 12.8 42.5 12.8 42.5 Z M 15.8 23.1 C 15.8 23.0 15.8 23.0 15.8 23.1 C 15.8 23.1 15.8 23.1 15.8 23.1 Z M 16.8 18.9 C 16.4 19.0 17.0 18.2 16.8 18.9 C 16.8 18.9 16.8 18.9 16.8 18.9 Z M 13.8 15.6 C 13.8 15.5 13.8 15.5 13.8 15.6 C 13.8 15.6 13.8 15.6 13.8 15.6 Z M 14.4 21.7 C 14.4 21.6 14.4 21.6 14.4 21.7 C 14.4 21.7 14.4 21.7 14.4 21.7 Z M 16.3 22.3 C 17.8 21.6 16.0 23.8 16.3 22.3 C 16.3 22.3 16.3 22.3 16.3 22.3 Z M 12.9 35.7 C 13.6 35.7 12.7 36.7 12.9 35.7 C 12.9 35.7 12.9 35.7 12.9 35.7 Z M 15.9 30.8 C 16.2 31.0 15.7 31.4 15.9 30.8 C 15.9 30.8 15.9 30.8 15.9 30.8 Z M 17.8 28.6 C 18.1 28.7 17.6 29.2 17.8 28.6 C 17.8 28.6 17.8 28.6 17.8 28.6 Z M 17.2 19.0 C 17.2 19.1 17.2 19.1 17.2 19.0 C 17.2 19.0 17.2 19.0 17.2 19.0 Z M 16.1 20.5 C 17.4 19.5 15.4 22.1 16.1 20.5 C 16.1 20.5 16.1 20.5 16.1 20.5 Z M 15.7 18.7 C 15.2 19.3 15.9 17.4 15.7 18.7 M 13.7 19.7 C 14.2 21.0 11.3 18.6 13.7 19.7 C 13.7 19.7 13.7 19.7 13.7 19.7 Z M 13.1 26.1 C 13.1 26.2 13.1 26.2 13.1 26.1 C 13.1 26.1 13.1 26.1 13.1 26.1 Z M 17.0 25.4 C 17.0 26.5 16.7 24.7 17.0 25.4 C 17.0 25.4 17.0 25.4 17.0 25.4 Z M 17.3 15.8 C 17.3 16.9 17.0 15.1 17.3 15.8 C 17.3 15.8 17.3 15.8 17.3 15.8 Z M 14.4 29.8 C 14.6 31.6 13.7 28.7 14.4 29.8 C 14.4 29.8 14.4 29.8 14.4 29.8 Z M 16.0 36.5 C 15.9 36.5 15.9 36.5 16.0 36.5 C 16.0 36.5 16.0 36.5 16.0 36.5 Z M 16.5 37.7 C 16.5 37.7 16.5 37.7 16.5 37.7 C 16.5 37.7 16.5 37.7 16.5 37.7 Z M 15.2 42.9 C 15.1 42.9 15.1 42.9 15.2 42.9 C 15.2 42.9 15.2 42.9 15.2 42.9 Z M 17.2 38.8 C 17.1 38.9 17.1 38.9 17.2 38.8 C 17.2 38.8 17.2 38.8 17.2 38.8 Z M 16.8 42.4 C 16.8 42.5 16.8 42.5 16.8 42.4 C 16.8 42.4 16.8 42.4 16.8 42.4 Z M 18.0 41.9 C 17.9 42.0 17.9 42.0 18.0 41.9 C 18.0 41.9 18.0 41.9 18.0 41.9 Z M 12.2 34.0 C 12.1 34.0 12.1 34.0 12.2 34.0 C 12.2 34.0 12.2 34.0 12.2 34.0 Z M 17.6 20.9 C 17.5 21.0 17.5 21.0 17.6 20.9 C 17.6 20.9 17.6 20.9 17.6 20.9 Z M 16.3 42.1 C 16.3 42.1 16.3 42.1 16.3 42.1 C 16.3 42.1 16.3 42.1 16.3 42.1 Z M 15.3 33.4 C 14.1 33.4 16.7 32.6 15.3 33.6 C 15.2 33.6 15.4 33.3 15.3 33.4 M 13.4 34.6 C 13.3 34.5 13.3 34.5 13.4 34.6 C 13.4 34.6 13.4 34.6 13.4 34.6 Z M 12.7 30.6 C 12.6 30.6 12.6 30.6 12.7 30.6 C 12.7 30.6 12.7 30.6 12.7 30.6 Z M 17.4 38.2 C 18.0 38.0 16.9 39.2 17.3 38.0 M 13.2 42.9 C 13.8 42.7 12.7 43.9 13.1 42.7 M 16.9 14.6 C 16.4 14.4 17.2 13.8 16.9 14.6 M 12.1 29.7 C 11.6 29.6 12.4 29.0 12.1 29.7 M 13.5 31.6 C 14.2 31.4 13.0 32.5 13.5 31.4 M 13.2 40.2 C 13.2 40.2 13.2 40.2 13.2 40.2 C 13.2 40.2 13.2 40.2 13.2 40.2 Z M 16.9 27.1 C 16.9 27.2 16.9 27.2 16.9 27.1 C 16.9 27.1 16.9 27.1 16.9 27.1 Z M 15.6 31.9 C 16.4 31.3 15.0 32.8 15.6 31.9 M 15.4 25.7 C 16.5 24.8 15.0 27.2 15.4 25.7 M 12.9 44.9 C 14.2 43.9 12.2 45.7 12.9 44.9 M 16.2 39.6 C 17.5 38.6 15.5 40.4 16.2 39.6 M 16.3 28.1 C 17.0 28.0 15.9 29.2 16.3 28.1 M 17.0 17.1 C 17.1 16.1 17.5 18.4 17.0 17.1 M 13.2 37.6 C 13.1 37.6 13.1 37.6 13.2 37.6 C 13.2 37.6 13.2 37.6 13.2 37.6 Z M 12.0 20.4 C 12.0 20.4 12.0 20.4 12.0 20.4 C 12.0 20.4 12.0 20.4 12.0 20.4 Z M 17.2 46.3 C 17.1 46.4 17.1 46.4 17.2 46.3 C 17.2 46.3 17.2 46.3 17.2 46.3 Z M 15.6 39.0 C 15.5 39.0 15.5 39.0 15.6 39.0 C 15.6 39.0 15.6 39.0 15.6 39.0 Z M 17.3 44.3 C 17.3 44.3 17.3 44.3 17.3 44.3 C 17.3 44.3 17.3 44.3 17.3 44.3 Z M 14.6 35.6 C 14.5 35.7 14.5 35.7 14.6 35.6 C 14.6 35.6 14.6 35.6 14.6 35.6 Z M 17.9 35.0 C 17.8 35.0 17.8 35.0 17.9 35.0 C 17.9 35.0 17.9 35.0 17.9 35.0 Z M 16.5 31.3 C 16.4 31.3 16.4 31.3 16.5 31.3 C 16.5 31.3 16.5 31.3 16.5 31.3 Z M 17.6 36.6 C 17.8 38.8 16.5 35.5 17.6 36.6 C 17.6 36.6 17.6 36.6 17.6 36.6 Z M 14.3 32.9 C 14.3 32.9 14.3 32.9 14.3 32.9 C 14.3 32.9 14.3 32.9 14.3 32.9 Z M 16.6 32.6 C 17.6 33.9 15.0 33.3 16.6 32.6 M 17.4 26.5 C 17.9 26.9 16.6 26.7 17.4 26.5 M 13.1 24.1 C 13.0 24.0 13.0 24.0 13.1 24.1 C 13.1 24.1 13.1 24.1 13.1 24.1 Z M 13.4 24.7 C 13.4 24.8 13.4 24.8 13.4 24.7 C 13.4 24.7 13.4 24.7 13.4 24.7 Z M 17.6 25.0 C 17.6 25.0 17.6 25.0 17.6 25.0 C 17.6 25.0 17.6 25.0 17.6 25.0 Z M 12.2 24.8 C 12.1 24.9 12.1 24.9 12.2 24.8 C 12.2 24.8 12.2 24.8 12.2 24.8 Z M 17.8 34.1 C 17.8 34.2 17.8 34.2 17.8 34.1 C 17.8 34.1 17.8 34.1 17.8 34.1 Z M 17.8 45.3 C 17.8 45.4 17.8 45.4 17.8 45.3 C 17.8 45.3 17.8 45.3 17.8 45.3 Z M 13.5 17.4 C 13.5 17.5 13.5 17.5 13.5 17.4 C 13.5 17.4 13.5 17.4 13.5 17.4 Z M 16.5 35.3 C 16.4 35.3 16.4 35.3 16.5 35.3 C 16.5 35.3 16.5 35.3 16.5 35.3 Z M 13.3 22.5 C 13.2 22.5 13.2 22.5 13.3 22.5 C 13.3 22.5 13.3 22.5 13.3 22.5 Z M 16.7 34.6 C 16.7 34.6 16.7 34.6 16.7 34.6 C 16.7 34.6 16.7 34.6 16.7 34.6 Z M 12.9 37.2 C 12.9 37.2 12.9 37.2 12.9 37.2 C 12.9 37.2 12.9 37.2 12.9 37.2 Z M 12.2 39.6 C 12.1 39.6 12.1 39.6 12.2 39.6 C 12.2 39.6 12.2 39.6 12.2 39.6 Z M 15.2 37.0 C 15.2 37.1 15.2 37.1 15.2 37.0 C 15.2 37.0 15.2 37.0 15.2 37.0 Z M 14.7 21.7 C 15.8 17.3 15.2 25.2 14.7 21.7 M 14.9 37.8 C 15.2 34.7 16.2 40.3 14.9 37.8 C 15.3 38.1 15.0 37.8 14.9 37.8 " fill="#85878C"></path><path d="M 1.7 55.1 C 1.1 54.9 0.6 53.4 1.6 54.5 C 1.7 54.5 1.9 55.1 1.7 55.1 Z M 3.1 57.5 C 3.0 57.3 2.9 57.1 3.0 56.9 C 3.2 56.4 3.5 58.1 3.1 57.5 Z M 1.5 53.7 C 1.4 53.6 0.9 52.9 1.2 52.9 C 1.4 53.0 1.6 53.7 1.5 53.7 Z M 5.3 59.1 C 5.1 59.2 4.6 58.4 4.7 58.2 C 4.7 57.6 5.8 58.9 5.3 59.1 Z M 9.4 52.5 C 9.4 52.5 9.5 52.5 9.6 52.5 C 9.5 52.5 9.4 52.5 9.4 52.5 Z M 11.4 70.5 C 11.3 70.4 11.4 70.0 11.6 70.0 C 11.8 69.9 11.8 71.0 11.4 70.5 Z M 25.2 52.1 C 25.2 52.1 24.8 51.9 25.0 51.8 C 25.1 51.6 25.3 51.9 25.2 52.1 Z M 25.1 51.8 C 25.1 51.6 25.4 51.5 25.4 51.6 C 25.3 51.9 25.2 52.0 25.1 51.8 Z M 21.8 64.6 C 21.8 64.7 21.8 64.8 21.7 64.6 C 21.7 64.5 21.9 64.4 21.8 64.6 Z M 21.7 64.1 C 21.6 63.8 22.0 63.8 22.0 64.0 C 21.9 64.2 21.9 64.3 21.7 64.1 Z M 24.2 62.3 C 24.2 62.4 24.2 62.5 24.1 62.4 C 24.1 62.3 24.3 62.1 24.2 62.3 Z M 18.7 51.4 C 18.8 51.3 19.3 51.4 19.2 51.6 C 19.2 51.9 18.5 51.5 18.7 51.4 Z M 19.3 51.3 C 19.2 51.1 19.6 51.0 19.5 51.2 C 19.4 51.3 19.4 51.4 19.3 51.3 Z M 17.3 51.6 C 17.3 51.9 16.7 51.9 16.6 51.9 C 16.5 51.8 16.2 51.7 16.1 51.6 C 16.0 51.6 17.3 51.3 17.3 51.6 Z M 13.1 51.9 C 13.1 51.8 13.1 51.8 13.3 51.8 C 13.5 51.9 13.1 52.0 13.1 51.9 Z M 15.5 51.8 C 15.5 51.7 15.5 51.6 15.7 51.7 C 15.9 51.8 15.5 51.9 15.5 51.8 Z M 7.5 63.9 C 7.4 64.0 7.2 63.4 7.2 63.3 C 7.2 63.2 7.3 63.5 7.3 63.3 C 7.3 63.1 7.9 63.2 7.5 63.9 Z M 4.0 58.8 C 3.9 58.6 4.0 58.6 4.1 58.5 C 4.1 58.5 4.3 59.1 4.0 58.8 Z M 7.7 62.6 C 7.7 62.7 7.6 62.5 7.7 62.5 C 7.7 62.5 7.8 62.6 7.7 62.6 Z M 8.1 63.0 C 8.0 62.9 8.0 62.5 8.2 62.5 C 8.5 62.4 8.5 63.4 8.1 63.0 Z M 7.7 64.7 C 7.6 64.6 7.6 64.6 7.7 64.6 C 7.9 64.7 7.7 64.7 7.7 64.7 Z M 5.6 61.8 C 5.5 61.6 5.5 61.6 5.6 61.7 C 5.8 61.8 5.6 61.8 5.6 61.8 Z M 8.9 66.0 C 8.9 66.0 8.5 65.7 8.8 65.4 C 9.2 65.0 9.0 65.9 8.9 66.0 Z M 10.7 67.8 C 10.6 67.7 10.8 67.7 10.8 67.8 C 10.9 68.0 10.7 68.0 10.7 67.8 Z M 11.9 68.2 C 11.9 68.5 11.9 68.8 11.7 68.4 C 11.5 68.0 11.8 67.9 11.9 68.2 Z M 11.5 67.9 C 11.5 67.8 11.6 68.0 11.5 68.0 C 11.5 68.1 11.4 67.9 11.5 67.9 Z M 9.9 66.4 C 9.6 66.3 9.7 65.9 10.0 66.2 C 10.2 66.4 10.1 66.5 9.9 66.4 Z M 7.2 51.4 C 7.0 51.5 7.1 51.2 7.2 51.1 C 7.3 51.0 7.3 51.4 7.2 51.4 Z M 16.3 52.4 C 16.2 52.2 16.3 52.2 16.5 52.3 C 16.8 52.4 16.4 52.5 16.3 52.4 Z M 22.1 52.9 C 21.9 52.7 22.1 52.7 22.3 52.8 C 22.5 52.8 22.2 53.0 22.1 52.9 Z M 14.0 52.4 C 13.9 52.3 14.5 51.8 14.8 52.2 C 15.2 52.7 14.2 52.7 14.0 52.4 Z M 8.3 57.0 C 8.2 57.1 8.2 56.9 8.2 56.9 C 8.4 56.9 8.4 56.9 8.3 57.0 Z M 15.3 53.1 C 15.1 53.1 15.2 52.9 15.3 52.8 C 15.4 52.7 15.5 53.0 15.3 53.1 Z M 21.0 52.5 C 20.8 52.4 20.9 52.0 21.1 51.9 C 21.6 51.5 21.9 52.0 22.2 52.2 C 22.5 52.4 21.2 52.6 21.0 52.5 Z M 5.8 52.3 C 5.9 52.4 6.1 52.4 6.2 52.4 C 6.2 52.3 6.3 52.3 6.4 52.4 C 7.0 52.4 7.4 51.8 7.7 51.7 C 8.5 51.4 8.9 52.5 9.4 52.5 C 9.2 52.5 9.1 52.5 9.0 52.6 C 8.8 53.0 10.8 52.8 10.9 52.8 C 12.7 52.5 10.6 52.2 10.6 51.7 C 10.6 51.4 11.8 52.1 11.8 52.1 C 12.4 52.3 12.5 51.8 12.9 52.0 C 13.2 52.1 13.8 53.4 14.0 53.2 C 14.2 53.1 14.7 53.2 14.9 53.2 C 15.2 53.2 15.8 53.2 15.5 52.7 C 15.3 52.4 15.2 52.0 15.6 52.4 C 15.9 52.6 17.9 53.4 17.9 52.4 C 17.9 52.3 17.4 52.1 17.4 52.1 C 18.0 51.8 19.7 52.2 20.1 51.8 C 21.0 50.9 19.8 52.3 20.2 52.5 C 21.0 53.0 21.4 53.3 22.4 53.1 C 22.7 53.1 23.6 53.0 23.1 52.5 C 22.8 52.2 23.1 51.9 22.5 51.8 C 23.2 51.3 23.6 52.3 23.7 52.1 C 23.9 51.8 23.5 51.6 24.0 51.7 C 24.6 51.8 24.3 51.6 24.4 52.1 C 24.5 52.3 25.0 52.4 25.0 52.4 C 24.9 52.4 24.9 52.5 25.0 52.5 C 25.4 52.5 26.1 51.5 26.3 51.8 C 26.4 51.9 26.1 52.5 26.1 52.7 C 26.2 52.7 26.2 52.8 26.2 52.8 C 26.4 52.7 26.9 52.3 27.0 52.4 C 27.1 52.5 26.7 53.4 26.9 53.1 C 27.2 52.9 28.2 53.2 28.2 53.4 C 28.3 53.7 28.6 54.9 28.7 54.9 C 28.9 55.0 28.6 55.5 28.5 55.7 C 28.4 55.9 28.0 56.0 27.9 56.1 C 27.8 56.1 27.6 56.6 27.6 56.6 C 27.6 56.6 27.6 56.8 27.4 57.1 C 27.2 57.5 26.9 57.6 26.5 58.0 C 26.1 58.3 26.3 58.6 26.1 59.1 C 25.9 59.5 25.1 59.4 24.8 59.7 C 24.5 60.0 25.0 60.3 24.8 60.8 C 24.6 61.2 24.3 61.4 24.3 61.2 C 24.3 61.0 24.1 61.1 24.0 61.2 C 23.9 61.3 23.5 61.7 23.5 62.0 C 23.5 62.2 24.7 61.2 23.6 62.8 C 23.1 63.5 22.3 63.8 22.4 63.6 C 22.7 63.0 21.2 63.7 21.4 63.9 C 21.7 64.0 20.8 65.4 21.4 65.3 C 21.6 65.3 21.0 66.8 20.8 66.9 C 20.6 67.0 20.3 67.8 19.8 67.7 C 19.5 67.6 19.6 68.7 19.5 68.9 C 19.4 69.1 18.7 70.1 18.4 70.3 C 18.2 70.5 18.5 69.9 18.6 69.7 C 18.8 69.4 19.2 69.2 19.3 69.0 C 19.3 68.8 18.9 69.1 18.7 69.4 C 18.5 69.6 18.2 69.5 18.0 69.7 C 18.0 69.9 17.9 70.0 17.7 70.2 C 17.7 70.3 17.7 70.4 17.8 70.5 C 17.9 70.6 18.1 70.5 18.1 70.5 C 18.2 70.6 18.2 70.9 18.0 71.2 C 17.8 71.5 17.6 71.8 17.2 72.1 C 16.8 72.5 16.8 72.7 16.7 73.0 C 16.5 73.3 16.3 73.6 16.2 73.5 C 16.1 73.5 16.3 73.1 16.2 73.0 C 16.2 72.9 15.7 73.2 15.6 73.3 C 15.0 74.1 14.7 73.0 14.1 73.8 C 13.8 74.2 13.8 73.6 13.7 73.1 C 13.6 73.2 13.5 73.2 13.2 72.9 C 13.1 72.9 12.9 72.4 12.7 72.1 C 12.6 72.0 11.8 71.1 12.5 71.5 C 12.5 71.5 12.6 71.6 12.6 71.6 C 12.6 71.6 12.6 71.6 12.6 71.6 C 12.6 71.6 13.2 71.6 13.2 71.6 C 13.2 71.6 12.6 71.6 12.6 71.6 C 12.7 71.4 12.8 71.2 12.9 71.0 C 12.8 71.0 12.7 71.0 12.7 70.9 C 12.6 70.9 12.6 70.9 12.6 70.9 C 12.6 70.9 12.6 70.9 12.6 70.9 C 12.4 71.0 12.4 71.0 12.4 70.8 C 12.0 70.5 11.7 69.5 11.7 69.1 C 13.1 69.6 12.1 68.0 11.7 67.5 C 11.2 67.0 10.2 67.7 10.3 68.0 C 10.1 67.6 10.2 67.4 10.4 67.1 C 10.4 67.1 10.8 66.3 10.8 66.3 C 10.6 65.2 9.9 66.0 9.6 65.8 C 9.4 65.6 9.2 65.3 8.9 65.1 C 8.7 64.9 8.7 65.2 8.5 65.2 C 7.9 65.1 8.3 64.0 8.2 63.7 C 8.4 63.9 8.6 64.1 8.9 64.2 C 8.5 64.0 8.9 63.5 8.9 63.4 C 8.8 63.0 8.5 62.7 8.3 62.4 C 8.0 61.9 7.6 61.5 7.2 61.0 C 7.2 61.2 7.1 62.3 7.1 62.4 C 7.0 62.2 6.9 61.7 6.6 62.1 C 6.1 62.8 5.7 61.3 5.6 61.1 C 5.3 60.4 4.2 60.0 4.5 58.9 C 4.5 58.9 5.3 59.8 5.4 59.7 C 5.8 59.2 6.0 58.7 5.4 58.1 C 5.3 58.0 4.3 57.3 4.2 57.3 C 4.3 57.3 3.5 59.1 3.5 58.0 C 3.5 57.7 3.9 58.0 3.9 57.7 C 3.8 57.3 3.5 56.9 3.3 56.6 C 3.3 56.5 3.2 55.9 3.1 55.9 C 2.9 55.8 2.6 56.0 2.4 55.9 C 2.1 55.7 2.2 55.4 2.4 55.3 C 2.4 55.2 2.4 55.2 2.4 55.2 C 2.4 55.2 2.4 55.1 2.6 55.0 C 2.5 55.0 2.4 54.8 2.5 54.6 C 2.5 54.5 2.7 54.8 2.7 55.0 C 2.7 54.9 2.8 54.9 2.9 54.9 C 2.7 54.6 2.5 54.4 2.4 54.4 C 1.9 54.1 1.7 54.2 1.8 53.2 C 1.9 52.4 3.8 51.9 4.9 52.2 C 5.2 52.1 5.4 52.1 5.8 52.3 Z M 17.1 70.6 C 17.1 70.5 17.1 70.5 17.2 70.5 C 17.1 70.5 17.0 70.4 16.9 70.3 C 16.7 70.5 17.1 70.4 16.9 70.6 C 16.7 70.8 16.8 70.9 17.1 70.6 Z M 14.5 70.4 C 14.5 70.6 14.6 70.6 14.7 70.5 C 14.6 70.4 14.6 70.4 14.5 70.4 Z M 13.4 70.9 C 13.7 71.2 13.8 70.4 13.4 70.0 C 13.3 70.5 13.4 70.8 13.4 70.9 Z M 12.5 70.4 C 12.6 70.4 12.7 70.4 12.7 70.4 C 12.9 70.3 12.5 70.1 12.7 70.0 C 12.8 70.0 13.1 70.3 13.1 70.0 C 13.1 69.9 13.1 69.9 13.1 69.8 C 13.0 69.8 13.0 69.7 12.9 69.7 C 12.7 69.7 12.4 70.2 12.5 70.4 Z M 17.2 68.7 C 17.2 68.8 17.3 68.8 17.4 68.7 C 17.4 68.5 17.3 68.5 17.2 68.7 Z M 19.3 67.3 C 19.1 67.4 19.0 67.6 19.3 67.6 C 19.5 67.5 19.5 67.2 19.3 67.3 Z M 16.3 64.5 C 16.3 64.6 16.4 64.5 16.4 64.4 C 16.5 64.3 16.3 64.4 16.3 64.5 Z M 14.2 64.4 C 14.0 64.3 13.8 64.5 14.0 64.5 C 14.1 64.6 14.3 64.4 14.2 64.4 Z M 19.0 64.6 C 19.1 64.4 18.9 64.5 18.9 64.6 C 18.9 64.8 19.0 64.8 19.0 64.6 Z M 16.1 65.1 C 16.4 64.9 16.3 64.9 16.2 64.8 C 16.2 64.7 16.0 64.8 15.9 64.9 C 15.8 65.2 15.9 65.2 16.1 65.1 Z M 14.4 65.2 C 14.1 64.7 13.8 64.8 14.3 65.4 C 14.7 66.0 14.5 65.6 14.4 65.2 Z M 20.7 66.2 C 20.7 66.3 20.6 66.6 20.6 66.6 C 20.6 66.6 21.1 65.9 20.7 66.2 Z M 9.5 65.1 C 9.6 65.3 9.8 65.3 9.7 65.0 C 9.6 64.7 9.4 64.9 9.5 65.1 Z M 10.4 64.0 C 10.1 64.4 10.2 64.8 10.2 64.8 C 10.2 64.8 10.6 64.7 10.7 64.8 C 11.0 65.1 10.9 65.7 11.3 65.9 C 11.8 66.1 11.4 65.3 11.3 65.2 C 11.4 65.2 11.5 65.3 11.6 65.2 C 11.7 65.1 11.7 65.0 11.5 64.9 C 11.3 64.8 10.7 63.5 10.4 64.0 Z M 15.5 64.0 C 15.4 64.3 15.5 64.5 15.8 64.3 C 16.0 64.2 16.1 64.0 16.0 63.9 C 16.0 63.8 15.6 63.8 15.5 64.0 Z M 17.1 63.9 C 17.2 64.1 17.2 64.0 17.3 63.8 C 17.4 63.5 17.0 63.6 17.1 63.9 Z M 23.8 60.9 C 23.8 60.7 23.6 61.0 23.7 61.1 C 23.8 61.1 23.9 61.0 23.8 60.9 Z M 21.2 61.0 C 21.3 60.6 20.9 60.9 20.9 61.0 C 20.9 61.1 21.1 61.3 21.2 61.0 Z M 19.6 62.6 C 19.7 62.4 19.4 62.6 19.4 62.7 C 19.5 62.8 19.6 62.7 19.6 62.6 Z M 18.6 62.7 C 18.6 62.6 18.4 62.6 18.4 62.9 C 18.4 63.0 18.5 62.9 18.6 62.7 Z M 9.9 62.0 C 9.9 62.0 10.3 61.8 10.0 61.7 C 9.7 61.5 9.7 61.5 9.9 62.0 Z M 13.0 62.7 C 13.2 62.9 13.4 63.2 14.3 62.9 C 15.2 62.6 14.8 62.4 14.3 62.3 C 13.8 62.2 15.2 61.8 14.2 61.6 C 13.8 61.5 12.8 62.4 13.0 62.7 Z M 18.5 61.2 C 18.0 61.5 18.1 62.2 18.4 61.8 C 18.8 61.3 18.9 60.9 18.5 61.2 Z M 18.9 61.1 C 18.8 61.3 18.9 61.2 19.0 61.1 C 19.1 60.9 18.9 61.0 18.9 61.1 Z M 6.2 61.6 C 6.9 62.4 6.9 61.0 6.9 61.0 C 6.6 59.9 5.4 60.8 6.2 61.6 Z M 24.5 52.9 C 24.4 52.9 24.4 52.9 24.4 52.9 C 24.3 52.9 24.3 52.9 24.3 52.9 C 24.2 53.1 24.5 53.3 24.5 53.3 C 24.6 53.2 24.6 53.0 24.5 52.9 Z M 19.0 52.7 C 19.2 52.7 19.4 52.7 19.5 52.5 C 19.4 52.1 17.8 52.1 18.4 52.9 C 18.5 53.0 19.6 53.7 19.7 53.3 C 19.7 53.1 18.4 52.7 19.0 52.7 Z M 20.7 53.4 C 20.0 53.3 21.3 54.0 21.1 53.7 C 21.0 53.5 20.9 53.4 20.7 53.4 Z M 25.6 54.9 C 26.4 54.6 26.3 53.2 24.9 53.9 C 23.5 54.6 23.5 55.2 24.2 55.0 C 24.9 54.8 24.3 55.4 25.6 54.9 Z M 18.4 54.9 C 18.6 54.0 18.2 54.2 17.9 54.9 C 17.9 55.1 18.3 55.5 18.4 54.9 Z M 16.4 55.1 C 16.2 55.0 16.2 55.0 16.3 55.1 C 16.5 55.3 16.7 55.1 16.4 55.1 Z M 27.0 56.2 C 27.3 56.1 27.6 55.7 27.6 55.9 C 27.6 56.1 27.6 56.0 27.8 55.9 C 28.1 55.7 27.6 55.7 27.4 55.7 C 27.2 55.7 26.7 56.4 27.0 56.2 Z M 19.3 59.4 C 19.4 59.2 19.2 59.3 19.2 59.5 C 19.2 59.6 19.3 59.6 19.3 59.4 Z M 11.8 60.4 C 11.8 60.4 12.0 60.3 11.8 60.2 C 11.6 60.1 11.6 60.1 11.8 60.4 Z M 5.7 60.1 C 5.8 60.2 5.9 59.8 6.2 59.9 C 6.3 59.9 6.2 60.1 6.1 60.1 C 6.2 60.1 6.9 60.0 6.4 59.7 C 6.2 59.5 5.3 59.7 5.7 60.1 Z M 17.2 59.2 C 16.9 59.5 18.2 59.7 18.0 59.9 C 17.8 60.2 17.9 60.2 18.2 59.9 C 18.5 59.6 17.6 58.9 17.2 59.2 Z M 20.5 58.9 C 20.3 59.0 19.7 59.6 20.1 59.5 C 20.4 59.3 20.6 58.9 20.6 59.2 C 20.6 59.4 20.7 59.3 20.9 59.1 C 21.1 58.9 20.7 58.9 20.5 58.9 Z M 25.8 58.7 C 25.7 58.8 25.5 59.2 25.8 59.0 C 25.9 58.9 26.0 58.7 25.8 58.7 Z M 10.9 58.4 C 11.1 58.5 11.2 58.4 11.0 58.2 C 10.7 57.9 10.7 58.3 10.9 58.4 Z M 25.4 57.8 C 25.0 58.1 25.6 57.9 25.4 58.1 C 25.1 58.4 25.3 58.4 25.6 58.1 C 25.8 57.9 25.7 57.5 25.4 57.8 Z M 6.0 57.6 C 6.1 57.6 6.3 57.5 6.2 57.4 C 6.1 57.3 5.9 57.5 6.0 57.6 Z M 8.0 56.8 C 8.0 56.9 8.1 57.0 8.1 57.1 C 9.0 58.3 8.3 55.9 8.0 56.8 Z M 11.1 57.0 C 10.7 57.1 11.2 57.3 11.2 57.3 C 11.3 57.1 11.2 57.0 11.1 57.0 Z M 14.5 56.9 C 14.6 56.8 14.2 56.8 14.3 57.0 C 14.3 57.2 14.4 57.1 14.5 56.9 Z M 3.5 56.3 C 3.6 56.5 3.7 56.5 3.7 56.3 C 3.6 56.2 3.5 56.2 3.5 56.3 Z M 12.0 56.2 C 11.9 56.3 11.9 56.3 12.1 56.3 C 12.3 56.2 12.1 56.1 12.0 56.2 Z M 22.3 56.1 C 22.2 56.2 22.2 56.3 22.1 56.4 C 22.2 56.6 22.8 56.7 22.8 56.9 C 22.8 56.9 22.8 56.9 22.8 56.9 C 22.8 56.9 22.8 56.9 22.8 57.0 C 22.8 57.1 22.7 57.2 22.7 57.1 C 22.6 57.1 22.5 57.2 22.3 57.2 C 22.5 57.4 22.8 57.5 23.0 57.4 C 23.2 57.2 23.2 56.7 23.2 56.3 C 23.0 56.3 22.9 56.2 22.8 56.2 C 22.8 56.2 22.8 56.2 22.7 56.2 C 22.6 56.5 22.5 56.6 22.5 56.4 C 22.4 56.3 22.5 56.2 22.6 56.1 C 22.5 56.1 22.4 56.1 22.3 56.1 Z M 13.3 55.7 C 13.0 55.9 13.2 56.0 13.6 56.1 C 13.8 56.1 13.6 55.6 13.3 55.7 Z M 3.9 56.0 C 4.0 56.0 4.1 55.9 4.2 55.9 C 4.1 55.9 4.1 55.8 4.0 55.8 C 3.8 55.8 3.6 55.8 3.5 55.7 C 3.5 55.9 3.6 56.1 3.9 56.0 Z M 6.9 55.0 C 6.8 55.1 5.6 55.0 5.8 55.3 C 6.1 55.7 5.6 56.2 6.5 56.0 C 6.9 55.9 7.3 55.3 7.7 55.2 C 9.9 54.6 7.1 54.6 6.5 54.4 C 6.4 54.4 7.0 55.0 6.9 55.0 Z M 9.8 54.4 C 9.8 54.2 9.5 53.9 9.4 53.9 C 8.8 54.0 9.6 54.6 9.8 54.4 Z M 3.6 54.0 C 3.6 54.1 3.6 54.1 3.6 54.2 C 3.7 54.1 3.7 54.1 3.7 54.0 C 3.7 54.0 3.7 54.0 3.6 54.0 Z M 2.1 53.8 C 2.7 54.5 2.6 53.3 2.5 53.0 C 2.3 52.6 1.8 53.5 2.1 53.8 Z M 8.1 53.3 C 8.5 53.4 9.1 52.1 8.3 52.2 C 7.6 52.2 7.2 53.3 8.1 53.3 Z M 12.7 51.7 C 12.5 51.9 12.0 51.6 12.3 51.5 C 12.4 51.3 12.7 51.7 12.7 51.7 Z M 5.9 51.0 C 6.0 51.1 5.9 51.2 5.9 51.2 C 5.8 51.0 5.8 51.0 5.9 51.0 Z M 6.5 52.0 C 6.3 51.9 6.1 51.8 5.9 51.7 C 5.7 51.7 6.2 51.6 6.2 51.6 C 6.4 51.6 6.5 51.9 6.5 52.0 Z M 10.2 52.1 C 9.9 51.9 10.3 51.9 10.4 51.9 C 10.5 52.0 10.3 52.2 10.2 52.1 Z M 9.3 51.8 C 9.4 51.8 9.3 52.0 9.2 51.9 C 8.9 51.9 9.2 51.7 9.3 51.8 Z M 10.8 52.5 C 10.4 52.6 9.9 52.7 9.9 52.3 C 10.0 52.2 11.5 52.3 10.8 52.5 Z M 10.8 52.5 " fill="#85878C"></path></g></svg>